<svg width="16" height="16" viewBox="0 0 16 16" fill="none" xmlns="http://www.w3.org/2000/svg">
<g clip-path="url(#clip0_442_1157)">
<path d="M1.33608 8.66694L13.0601 8.66694L9.53141 12.1956C9.46774 12.2571 9.41695 12.3307 9.38201 12.412C9.34707 12.4933 9.32868 12.5808 9.32791 12.6693C9.32714 12.7579 9.34401 12.8456 9.37753 12.9276C9.41105 13.0095 9.46056 13.0839 9.52315 13.1465C9.58575 13.2091 9.66018 13.2586 9.74211 13.2922C9.82404 13.3257 9.91183 13.3425 10.0003 13.3418C10.0889 13.341 10.1763 13.3226 10.2577 13.2877C10.339 13.2527 10.4126 13.2019 10.4741 13.1383L15.1407 8.47161C15.2657 8.34659 15.3359 8.17705 15.3359 8.00027C15.3359 7.8235 15.2657 7.65396 15.1407 7.52894L10.4741 2.86227C10.3483 2.74083 10.1799 2.67364 10.0051 2.67516C9.83035 2.67668 9.66314 2.74679 9.53953 2.87039C9.41593 2.994 9.34582 3.16121 9.3443 3.33601C9.34278 3.5108 9.40997 3.67921 9.53141 3.80494L13.0601 7.33361L1.33608 7.33361C1.15927 7.33361 0.9897 7.40385 0.864675 7.52887C0.739652 7.65389 0.669414 7.82346 0.669414 8.00027C0.669415 8.17709 0.739652 8.34665 0.864676 8.47168C0.9897 8.5967 1.15927 8.66694 1.33608 8.66694Z" fill="url(#paint0_linear_442_1157)"/>
</g>
<defs>
<linearGradient id="paint0_linear_442_1157" x1="15.3359" y1="8.00846" x2="0.669414" y2="8.00847" gradientUnits="userSpaceOnUse">
<stop stop-color="#097C7D"/>
<stop offset="1" stop-color="#20282D"/>
</linearGradient>
<clipPath id="clip0_442_1157">
<rect width="16" height="16" fill="white" transform="translate(16 16) rotate(180)"/>
</clipPath>
</defs>
</svg>
