<svg width="164" height="40" viewBox="0 0 164 40" fill="none" xmlns="http://www.w3.org/2000/svg">
<g clip-path="url(#clip0_726_162)">
<path d="M48.1045 28.2463H59.7719V24.7342H52.2514V11.5049H48.1045V28.2463Z" fill="#0A1119"/>
<path d="M66.6843 25.9048C65.0209 25.9048 64.154 24.4531 64.154 22.2755C64.154 20.098 65.0209 18.6229 66.6843 18.6229C68.3478 18.6229 69.238 20.098 69.238 22.2755C69.238 24.4531 68.3478 25.9048 66.6843 25.9048ZM66.7078 28.6209C70.5735 28.6209 73.1038 25.8814 73.1038 22.2755C73.1038 18.6697 70.5735 15.9302 66.7078 15.9302C62.8655 15.9302 60.2883 18.6697 60.2883 22.2755C60.2883 25.8814 62.8655 28.6209 66.7078 28.6209Z" fill="#0A1119"/>
<path d="M79.7945 32.3906C81.5751 32.3906 83.1448 31.9926 84.1991 31.056C85.1597 30.1897 85.7923 28.8784 85.7923 27.0755V16.258H82.1374V17.5458H82.0905C81.3877 16.5389 80.31 15.9067 78.7168 15.9067C75.7414 15.9067 73.6797 18.3887 73.6797 21.9009C73.6797 25.577 76.1865 27.5906 78.8808 27.5906C80.3334 27.5906 81.2471 27.0053 81.95 26.2092H82.0437V27.4033C82.0437 28.855 81.3643 29.698 79.7477 29.698C78.4825 29.698 77.85 29.1594 77.6391 28.5272H73.9374C74.3123 31.0326 76.4911 32.3906 79.7945 32.3906ZM79.7711 24.7575C78.342 24.7575 77.4048 23.5867 77.4048 21.7838C77.4048 19.9575 78.342 18.7867 79.7711 18.7867C81.3643 18.7867 82.2077 20.1448 82.2077 21.7604C82.2077 23.4463 81.4345 24.7575 79.7711 24.7575Z" fill="#0A1119"/>
<path d="M93.3081 25.9048C91.6447 25.9048 90.7778 24.4531 90.7778 22.2755C90.7778 20.098 91.6447 18.6229 93.3081 18.6229C94.9715 18.6229 95.8618 20.098 95.8618 22.2755C95.8618 24.4531 94.9715 25.9048 93.3081 25.9048ZM93.3315 28.6209C97.1972 28.6209 99.727 25.8814 99.727 22.2755C99.727 18.6697 97.1972 15.9302 93.3315 15.9302C89.4892 15.9302 86.9121 18.6697 86.9121 22.2755C86.9121 25.8814 89.4892 28.6209 93.3315 28.6209Z" fill="#0A1119"/>
<path d="M100.843 28.2463H104.662V16.2581H100.843V28.2463ZM100.843 14.5956H104.662V11.5049H100.843V14.5956Z" fill="#0A1119"/>
<path d="M106.318 32.2033H110.137V27.0053H110.184C110.934 28.0121 112.035 28.6209 113.581 28.6209C116.721 28.6209 118.806 26.1389 118.806 22.2521C118.806 18.6462 116.861 15.9067 113.675 15.9067C112.035 15.9067 110.863 16.6326 110.043 17.7097H109.973V16.258H106.318V32.2033ZM112.597 25.6706C110.957 25.6706 110.02 24.336 110.02 22.3926C110.02 20.4492 110.864 18.9741 112.527 18.9741C114.167 18.9741 114.94 20.3321 114.94 22.3926C114.94 24.4297 114.05 25.6706 112.597 25.6706Z" fill="#0A1119"/>
<path d="M125.022 28.6209C128.162 28.6209 130.481 27.2628 130.481 24.6404C130.481 21.5731 127.998 21.0345 125.889 20.6833C124.366 20.4023 123.007 20.2853 123.007 19.4423C123.007 18.6931 123.734 18.3419 124.671 18.3419C125.725 18.3419 126.451 18.6697 126.592 19.7467H130.106C129.919 17.3819 128.091 15.9067 124.694 15.9067C121.859 15.9067 119.516 17.218 119.516 19.7467C119.516 22.5565 121.742 23.1184 123.827 23.4697C125.42 23.7506 126.873 23.8677 126.873 24.9448C126.873 25.7175 126.147 26.1389 124.999 26.1389C123.734 26.1389 122.937 25.5536 122.796 24.3594H119.188C119.306 27.0053 121.508 28.6209 125.022 28.6209Z" fill="#0A1119"/>
<path d="M135.669 28.5973C137.333 28.5973 138.387 27.9417 139.254 26.771H139.324V28.2461H142.979V16.2578H139.16V22.9544C139.16 24.3827 138.364 25.3661 137.052 25.3661C135.833 25.3661 135.248 24.6403 135.248 23.329V16.2578H131.452V24.1251C131.452 26.7944 132.905 28.5973 135.669 28.5973Z" fill="#0A1119"/>
<path d="M144.641 28.2463H148.459V21.5263C148.459 20.098 149.162 19.0911 150.357 19.0911C151.505 19.0911 152.044 19.8404 152.044 21.1282V28.2463H155.863V21.5263C155.863 20.098 156.542 19.0911 157.761 19.0911C158.909 19.0911 159.447 19.8404 159.447 21.1282V28.2463H163.266V20.4492C163.266 17.7565 161.907 15.9067 159.19 15.9067C157.643 15.9067 156.355 16.5623 155.418 18.0141H155.371C154.762 16.7263 153.567 15.9067 151.997 15.9067C150.263 15.9067 149.115 16.7263 148.366 17.9672H148.295V16.258H144.641V28.2463Z" fill="#0A1119"/>
<path fill-rule="evenodd" clip-rule="evenodd" d="M24.6839 11.8058C23.0805 10.7344 21.1954 10.1626 19.2671 10.1626V0.412598C23.1238 0.412598 26.8939 1.55625 30.1007 3.69894C33.3075 5.84162 35.8068 8.88711 37.2828 12.4502C38.7586 16.0134 39.1448 19.9342 38.3924 23.7169C37.64 27.4995 35.7828 30.9741 33.0556 33.7011C30.3286 36.4283 26.854 38.2855 23.0713 39.0379C19.2887 39.7903 15.3679 39.4041 11.8047 37.9283C8.2416 36.4523 5.19611 33.953 3.05343 30.7462C0.910745 27.5394 -0.23291 23.7693 -0.23291 19.9126H9.51709C9.51709 21.841 10.0889 23.726 11.1603 25.3294C12.2316 26.9328 13.7543 28.1825 15.536 28.9204C17.3175 29.6584 19.2779 29.8515 21.1692 29.4752C23.0605 29.099 24.7978 28.1705 26.1614 26.8069C27.525 25.4433 28.4535 23.706 28.8297 21.8147C29.2059 19.9234 29.0129 17.963 28.2749 16.1815C27.5369 14.3999 26.2873 12.8771 24.6839 11.8058Z" fill="#0A1119"/>
<path fill-rule="evenodd" clip-rule="evenodd" d="M9.26708 0.412603C9.26708 1.66016 9.02137 2.8955 8.54394 4.0481C8.06652 5.20069 7.36676 6.24796 6.4846 7.13012C5.60245 8.01228 4.55518 8.71204 3.40258 9.18946C2.24999 9.66687 1.01464 9.9126 -0.23291 9.9126L-0.23291 19.4126C2.2622 19.4126 4.73289 18.9212 7.03808 17.9663C9.34327 17.0115 11.4378 15.6119 13.2021 13.8476C14.9664 12.0834 16.366 9.98879 17.3208 7.68359C18.2756 5.37839 18.7671 2.90771 18.7671 0.412598L9.26708 0.412603Z" fill="#0A1119"/>
</g>
<defs>
<clipPath id="clip0_726_162">
<rect width="164" height="40" fill="white"/>
</clipPath>
</defs>
</svg>
