<svg width="164" height="40" viewBox="0 0 164 40" fill="none" xmlns="http://www.w3.org/2000/svg">
<g clip-path="url(#clip0_726_162)">
<path d="M48.1045 28.2463H59.7719V24.7342H52.2514V11.5049H48.1045V28.2463Z" fill="#0A1119"/>
<path d="M66.6843 25.9048C65.0209 25.9048 64.154 24.4531 64.154 22.2755C64.154 20.098 65.0209 18.6229 66.6843 18.6229C68.3478 18.6229 69.238 20.098 69.238 22.2755C69.238 24.4531 68.3478 25.9048 66.6843 25.9048ZM66.7078 28.6209C70.5735 28.6209 73.1038 25.8814 73.1038 22.2755C73.1038 18.6697 70.5735 15.9302 66.7078 15.9302C62.8655 15.9302 60.2883 18.6697 60.2883 22.2755C60.2883 25.8814 62.8655 28.6209 66.7078 28.6209Z" fill="#0A1119"/>
<path d="M79.7945 32.3906C81.5751 32.3906 83.1448 31.9926 84.1991 31.056C85.1597 30.1897 85.7923 28.8784 85.7923 27.0755V16.258H82.1374V17.5458H82.0905C81.3877 16.5389 80.31 15.9067 78.7168 15.9067C75.7414 15.9067 73.6797 18.3887 73.6797 21.9009C73.6797 25.577 76.1865 27.5906 78.8808 27.5906C80.3334 27.5906 81.2471 27.0053 81.95 26.2092H82.0437V27.4033C82.0437 28.855 81.3643 29.698 79.7477 29.698C78.4825 29.698 77.85 29.1594 77.6391 28.5272H73.9374C74.3123 31.0326 76.4911 32.3906 79.7945 32.3906ZM79.7711 24.7575C78.342 24.7575 77.4048 23.5867 77.4048 21.7838C77.4048 19.9575 78.342 18.7867 79.7711 18.7867C81.3643 18.7867 82.2077 20.1448 82.2077 21.7604C82.2077 23.4463 81.4345 24.7575 79.7711 24.7575Z" fill="#0A1119"/>
<path d="M93.3081 25.9048C91.6447 25.9048 90.7778 24.4531 90.7778 22.2755C90.7778 20.098 91.6447 18.6229 93.3081 18.6229C94.9715 18.6229 95.8618 20.098 95.8618 22.2755C95.8618 24.4531 94.9715 25.9048 93.3081 25.9048ZM93.3315 28.6209C97.1972 28.6209 99.727 25.8814 99.727 22.2755C99.727 18.6697 97.1972 15.9302 93.3315 15.9302C89.4892 15.9302 86.9121 18.6697 86.9121 22.2755C86.9121 25.8814 89.4892 28.6209 93.3315 28.6209Z" fill="#0A1119"/>
<path d="M100.843 28.2463H104.662V16.2581H100.843V28.2463ZM100.843 14.5956H104.662V11.5049H100.843V14.5956Z" fill="#0A1119"/>
<path d="M106.318 32.2033H110.137V27.0053H110.184C110.934 28.0121 112.035 28.6209 113.581 28.6209C116.721 28.6209 118.806 26.1389 118.806 22.2521C118.806 18.6462 116.861 15.9067 113.675 15.9067C112.035 15.9067 110.863 16.6326 110.043 17.7097H109.973V16.258H106.318V32.2033ZM112.597 25.6706C110.957 25.6706 110.02 24.336 110.02 22.3926C110.02 20.4492 110.864 18.9741 112.527 18.9741C114.167 18.9741 114.94 20.3321 114.94 22.3926C114.94 24.4297 114.05 25.6706 112.597 25.6706Z" fill="#0A1119"/>
<path d="M125.022 28.6209C128.162 28.6209 130.481 27.2628 130.481 24.6404C130.481 21.5731 127.998 21.0345 125.889 20.6833C124.366 20.4023 123.007 20.2853 123.007 19.4423C123.007 18.6931 123.734 18.3419 124.671 18.3419C125.725 18.3419 126.451 18.6697 126.592 19.7467H130.106C129.919 17.3819 128.091 15.9067 124.694 15.9067C121.859 15.9067 119.516 17.218 119.516 19.7467C119.516 22.5565 121.742 23.1184 123.827 23.4697C125.42 23.7506 126.873 23.8677 126.873 24.9448C126.873 25.7175 126.147 26.1389 124.999 26.1389C123.734 26.1389 122.937 25.5536 122.796 24.3594H119.188C119.306 27.0053 121.508 28.6209 125.022 28.6209Z" fill="#0A1119"/>
<path d="M135.669 28.5973C137.333 28.5973 138.387 27.9417 139.254 26.771H139.324V28.2461H142.979V16.2578H139.16V22.9544C139.16 24.3827 138.364 25.3661 137.052 25.3661C135.833 25.3661 135.248 24.6403 135.248 23.329V16.2578H131.452V24.1251C131.452 26.7944 132.905 28.5973 135.669 28.5973Z" fill="#0A1119"/>
<path d="M144.641 28.2463H148.459V21.5263C148.459 20.098 149.162 19.0911 150.357 19.0911C151.505 19.0911 152.044 19.8404 152.044 21.1282V28.2463H155.863V21.5263C155.863 20.098 156.542 19.0911 157.761 19.0911C158.909 19.0911 159.447 19.8404 159.447 21.1282V28.2463H163.266V20.4492C163.266 17.7565 161.907 15.9067 159.19 15.9067C157.643 15.9067 156.355 16.5623 155.418 18.0141H155.371C154.762 16.7263 153.567 15.9067 151.997 15.9067C150.263 15.9067 149.115 16.7263 148.366 17.9672H148.295V16.258H144.641V28.2463Z" fill="#0A1119"/>
<path fill-rule="evenodd" clip-rule="evenodd" d="M19.5 39.5C30.2696 39.5 39 30.7695 39 20C39 9.23045 30.2696 0.5 19.5 0.5C8.73044 0.5 0 9.23045 0 20C0 30.7695 8.73044 39.5 19.5 39.5ZM22.5098 15.5663C24.172 13.904 24.172 11.209 22.5098 9.5467C20.8475 7.88444 18.1525 7.88444 16.4902 9.5467C14.8281 11.209 14.8281 13.904 16.4902 15.5663L19.5 18.576L22.5098 15.5663ZM23.9338 23.0098C25.5961 24.6721 28.2911 24.6721 29.9534 23.0098C31.6155 21.3475 31.6155 18.6525 29.9534 16.9902C28.2911 15.3281 25.5961 15.3281 23.9338 16.9902L20.9241 20.0001L23.9338 23.0098ZM22.5098 30.4534C24.172 28.7911 24.172 26.0961 22.5098 24.4338L19.5 21.4241L16.4902 24.4338C14.8281 26.0961 14.8281 28.7911 16.4902 30.4534C18.1525 32.1156 20.8475 32.1156 22.5098 30.4534ZM9.04667 23.0098C7.38445 21.3475 7.38445 18.6525 9.04667 16.9902C10.709 15.3281 13.404 15.3281 15.0663 16.9902L18.076 20.0001L15.0663 23.0098C13.404 24.6721 10.709 24.6721 9.04667 23.0098Z" fill="#0A1119"/>
</g>
<defs>
<clipPath id="clip0_726_162">
<rect width="164" height="40" fill="white"/>
</clipPath>
</defs>
</svg>
