<svg width="164" height="40" viewBox="0 0 164 40" fill="none" xmlns="http://www.w3.org/2000/svg">
<g clip-path="url(#clip0_442_1925)">
<path d="M48.1045 28.2463H59.7719V24.7341H52.2514V11.5049H48.1045V28.2463Z" fill="#0A1119"/>
<path d="M66.6842 25.9048C65.0208 25.9048 64.1539 24.4531 64.1539 22.2755C64.1539 20.098 65.0208 18.6229 66.6842 18.6229C68.3476 18.6229 69.2379 20.098 69.2379 22.2755C69.2379 24.4531 68.3476 25.9048 66.6842 25.9048ZM66.7076 28.6209C70.5734 28.6209 73.1036 25.8814 73.1036 22.2755C73.1036 18.6697 70.5734 15.9302 66.7076 15.9302C62.8654 15.9302 60.2882 18.6697 60.2882 22.2755C60.2882 25.8814 62.8654 28.6209 66.7076 28.6209Z" fill="#0A1119"/>
<path d="M79.7945 32.3906C81.5751 32.3906 83.1448 31.9926 84.1991 31.056C85.1597 30.1897 85.7923 28.8784 85.7923 27.0755V16.258H82.1374V17.5458H82.0905C81.3877 16.5389 80.31 15.9067 78.7168 15.9067C75.7414 15.9067 73.6797 18.3887 73.6797 21.9009C73.6797 25.577 76.1865 27.5906 78.8808 27.5906C80.3334 27.5906 81.2471 27.0053 81.95 26.2092H82.0437V27.4033C82.0437 28.855 81.3643 29.698 79.7477 29.698C78.4825 29.698 77.85 29.1594 77.6391 28.5272H73.9374C74.3123 31.0326 76.4911 32.3906 79.7945 32.3906ZM79.7711 24.7575C78.342 24.7575 77.4048 23.5867 77.4048 21.7838C77.4048 19.9575 78.342 18.7867 79.7711 18.7867C81.3643 18.7867 82.2077 20.1448 82.2077 21.7604C82.2077 23.4463 81.4345 24.7575 79.7711 24.7575Z" fill="#0A1119"/>
<path d="M93.3081 25.9048C91.6447 25.9048 90.7778 24.4531 90.7778 22.2755C90.7778 20.098 91.6447 18.6229 93.3081 18.6229C94.9715 18.6229 95.8618 20.098 95.8618 22.2755C95.8618 24.4531 94.9715 25.9048 93.3081 25.9048ZM93.3315 28.6209C97.1972 28.6209 99.727 25.8814 99.727 22.2755C99.727 18.6697 97.1972 15.9302 93.3315 15.9302C89.4892 15.9302 86.9121 18.6697 86.9121 22.2755C86.9121 25.8814 89.4892 28.6209 93.3315 28.6209Z" fill="#0A1119"/>
<path d="M100.843 28.2463H104.662V16.2581H100.843V28.2463ZM100.843 14.5956H104.662V11.5049H100.843V14.5956Z" fill="#0A1119"/>
<path d="M106.318 32.2033H110.137V27.0053H110.184C110.934 28.0121 112.035 28.6209 113.581 28.6209C116.721 28.6209 118.806 26.1389 118.806 22.2521C118.806 18.6463 116.861 15.9067 113.675 15.9067C112.035 15.9067 110.863 16.6326 110.043 17.7097H109.973V16.258H106.318V32.2033ZM112.597 25.6706C110.957 25.6706 110.02 24.336 110.02 22.3926C110.02 20.4492 110.864 18.9741 112.527 18.9741C114.167 18.9741 114.94 20.3321 114.94 22.3926C114.94 24.4297 114.05 25.6706 112.597 25.6706Z" fill="#0A1119"/>
<path d="M125.022 28.6209C128.162 28.6209 130.481 27.2628 130.481 24.6404C130.481 21.5731 127.998 21.0345 125.889 20.6833C124.366 20.4023 123.007 20.2853 123.007 19.4423C123.007 18.6931 123.734 18.3419 124.671 18.3419C125.725 18.3419 126.451 18.6697 126.592 19.7467H130.106C129.919 17.3819 128.091 15.9067 124.694 15.9067C121.859 15.9067 119.516 17.218 119.516 19.7467C119.516 22.5565 121.742 23.1184 123.827 23.4697C125.42 23.7506 126.873 23.8677 126.873 24.9448C126.873 25.7175 126.147 26.1389 124.999 26.1389C123.734 26.1389 122.937 25.5536 122.796 24.3594H119.188C119.306 27.0053 121.508 28.6209 125.022 28.6209Z" fill="#0A1119"/>
<path d="M135.669 28.5973C137.333 28.5973 138.387 27.9417 139.254 26.771H139.324V28.2461H142.979V16.2578H139.16V22.9544C139.16 24.3827 138.364 25.3661 137.052 25.3661C135.833 25.3661 135.248 24.6403 135.248 23.329V16.2578H131.452V24.1251C131.452 26.7944 132.905 28.5973 135.669 28.5973Z" fill="#0A1119"/>
<path d="M144.641 28.2463H148.459V21.5263C148.459 20.098 149.162 19.0911 150.357 19.0911C151.505 19.0911 152.044 19.8404 152.044 21.1282V28.2463H155.863V21.5263C155.863 20.098 156.542 19.0911 157.761 19.0911C158.909 19.0911 159.447 19.8404 159.447 21.1282V28.2463H163.266V20.4492C163.266 17.7565 161.907 15.9067 159.19 15.9067C157.643 15.9067 156.355 16.5623 155.418 18.0141H155.371C154.762 16.7263 153.567 15.9067 151.997 15.9067C150.263 15.9067 149.115 16.7263 148.366 17.9672H148.295V16.258H144.641V28.2463Z" fill="#0A1119"/>
<path d="M24.8046 1.92855L20.9653 0.900391L17.7298 12.9683L14.8087 2.07331L10.9693 3.10146L14.1253 14.8727L6.26441 7.01647L3.45377 9.82543L12.0762 18.4428L1.33834 15.5673L0.30957 19.4044L12.042 22.5462C11.9077 21.9672 11.8366 21.3639 11.8366 20.744C11.8366 16.3561 15.3958 12.799 19.7863 12.799C24.1769 12.799 27.736 16.3561 27.736 20.744C27.736 21.3599 27.6659 21.9595 27.5332 22.5351L38.1958 25.3904L39.2245 21.5533L27.4454 18.399L38.184 15.5233L37.1552 11.6862L25.3766 14.8404L33.2375 6.98421L30.4268 4.17525L21.924 12.673L24.8046 1.92855Z" fill="#0A1119"/>
<path d="M27.5227 22.5796C27.1935 23.9704 26.4986 25.2199 25.545 26.221L33.2696 33.9411L36.0803 31.1321L27.5227 22.5796Z" fill="#0A1119"/>
<path d="M25.4673 26.3018C24.5022 27.2868 23.2827 28.022 21.915 28.4008L24.7259 38.8847L28.5652 37.8565L25.4673 26.3018Z" fill="#0A1119"/>
<path d="M21.7713 28.4394C21.1368 28.6024 20.4717 28.6891 19.7863 28.6891C19.052 28.6891 18.341 28.5896 17.6659 28.4033L14.8525 38.8968L18.6919 39.9249L21.7713 28.4394Z" fill="#0A1119"/>
<path d="M17.5303 28.3644C16.1836 27.9668 14.9857 27.2223 14.0404 26.2344L6.29675 33.9734L9.10739 36.7824L17.5303 28.3644Z" fill="#0A1119"/>
<path d="M13.9761 26.1656C13.047 25.1715 12.3702 23.9387 12.048 22.5693L1.35059 25.434L2.37934 29.2711L13.9761 26.1656Z" fill="#0A1119"/>
</g>
<defs>
<clipPath id="clip0_442_1925">
<rect width="164" height="40" fill="white"/>
</clipPath>
</defs>
</svg>
