<svg width="164" height="40" viewBox="0 0 164 40" fill="none" xmlns="http://www.w3.org/2000/svg">
<g clip-path="url(#clip0_442_1942)">
<path d="M47.7568 28.0911H59.4941V24.5789H51.9285V11.3496H47.7568V28.0911Z" fill="#0A1119"/>
<path d="M66.448 25.75C64.7746 25.75 63.9025 24.2983 63.9025 22.1208C63.9025 19.9432 64.7746 18.4681 66.448 18.4681C68.1214 18.4681 69.017 19.9432 69.017 22.1208C69.017 24.2983 68.1214 25.75 66.448 25.75ZM66.4715 28.4661C70.3604 28.4661 72.9058 25.7266 72.9058 22.1208C72.9058 18.5149 70.3604 15.7754 66.4715 15.7754C62.6062 15.7754 60.0137 18.5149 60.0137 22.1208C60.0137 25.7266 62.6062 28.4661 66.4715 28.4661Z" fill="#0A1119"/>
<path d="M79.6378 32.2359C81.429 32.2359 83.0081 31.8378 84.0687 30.9012C85.0351 30.0349 85.6714 28.7237 85.6714 26.9207V16.1032H81.9947V17.391H81.9475C81.2405 16.3841 80.1563 15.752 78.5536 15.752C75.5604 15.752 73.4863 18.2339 73.4863 21.7461C73.4863 25.4222 76.0082 27.4359 78.7186 27.4359C80.1799 27.4359 81.0991 26.8505 81.8061 26.0544H81.9004V27.2485C81.9004 28.7002 81.2169 29.5432 79.5907 29.5432C78.3179 29.5432 77.6816 29.0046 77.4695 28.3724H73.7456C74.1227 30.8778 76.3146 32.2359 79.6378 32.2359ZM79.6142 24.6027C78.1765 24.6027 77.2338 23.432 77.2338 21.629C77.2338 19.8027 78.1765 18.632 79.6142 18.632C81.2169 18.632 82.0654 19.99 82.0654 21.6056C82.0654 23.2915 81.2876 24.6027 79.6142 24.6027Z" fill="#0A1119"/>
<path d="M93.2313 25.75C91.5579 25.75 90.6859 24.2983 90.6859 22.1208C90.6859 19.9432 91.5579 18.4681 93.2313 18.4681C94.9047 18.4681 95.8003 19.9432 95.8003 22.1208C95.8003 24.2983 94.9047 25.75 93.2313 25.75ZM93.2549 28.4661C97.1437 28.4661 99.6895 25.7266 99.6895 22.1208C99.6895 18.5149 97.1437 15.7754 93.2549 15.7754C89.3896 15.7754 86.797 18.5149 86.797 22.1208C86.797 25.7266 89.3896 28.4661 93.2549 28.4661Z" fill="#0A1119"/>
<path d="M100.811 28.0911H104.652V16.1028H100.811V28.0911ZM100.811 14.4403H104.652V11.3496H100.811V14.4403Z" fill="#0A1119"/>
<path d="M106.319 32.0485H110.161V26.8505H110.208C110.962 27.8573 112.07 28.4661 113.625 28.4661C116.784 28.4661 118.881 25.9841 118.881 22.0973C118.881 18.4915 116.925 15.752 113.72 15.752C112.07 15.752 110.891 16.4778 110.067 17.5549H109.996V16.1032H106.319V32.0485ZM112.636 25.5159C110.986 25.5159 110.043 24.1812 110.043 22.2378C110.043 20.2944 110.891 18.8193 112.565 18.8193C114.215 18.8193 114.992 20.1773 114.992 22.2378C114.992 24.2749 114.097 25.5159 112.636 25.5159Z" fill="#0A1119"/>
<path d="M125.137 28.4661C128.295 28.4661 130.629 27.1081 130.629 24.4856C130.629 21.4183 128.13 20.8798 126.009 20.5285C124.477 20.2476 123.11 20.1305 123.11 19.2876C123.11 18.5383 123.841 18.1871 124.784 18.1871C125.844 18.1871 126.575 18.5149 126.716 19.592H130.252C130.063 17.2271 128.225 15.752 124.807 15.752C121.955 15.752 119.599 17.0632 119.599 19.592C119.599 22.4017 121.838 22.9637 123.935 23.3149C125.538 23.5959 126.999 23.7129 126.999 24.79C126.999 25.5627 126.269 25.9841 125.114 25.9841C123.841 25.9841 123.04 25.3988 122.898 24.2046H119.269C119.386 26.8505 121.602 28.4661 125.137 28.4661Z" fill="#0A1119"/>
<path d="M135.846 28.4425C137.519 28.4425 138.58 27.7869 139.452 26.6162H139.523V28.0913H143.2V16.103H139.358V22.7996C139.358 24.2279 138.556 25.2113 137.237 25.2113C136.011 25.2113 135.422 24.4855 135.422 23.1742V16.103H131.604V23.9703C131.604 26.6396 133.065 28.4425 135.846 28.4425Z" fill="#0A1119"/>
<path d="M144.871 28.0915H148.713V21.3715C148.713 19.9432 149.42 18.9363 150.622 18.9363C151.777 18.9363 152.319 19.6856 152.319 20.9734V28.0915H156.16V21.3715C156.16 19.9432 156.844 18.9363 158.07 18.9363C159.224 18.9363 159.766 19.6856 159.766 20.9734V28.0915H163.608V20.2944C163.608 17.6017 162.241 15.752 159.507 15.752C157.952 15.752 156.655 16.4076 155.713 17.8593H155.666C155.053 16.5715 153.851 15.752 152.272 15.752C150.528 15.752 149.373 16.5715 148.618 17.8124H148.548V16.1032H144.871V28.0915Z" fill="#0A1119"/>
<path fill-rule="evenodd" clip-rule="evenodd" d="M8.4987 3.79673C7.09374 4.77269 5.82328 5.9266 4.7204 7.22554C9.22726 6.80987 14.9531 7.48862 21.6007 10.7907C28.6994 14.3167 34.4156 14.436 38.3939 13.6736C38.0329 12.5879 37.5784 11.5444 37.0401 10.5524C32.4861 11.0295 26.6479 10.3979 19.844 7.0183C15.5234 4.87216 11.7149 3.98809 8.4987 3.79673ZM34.3799 6.79067C30.7836 2.79881 25.5573 0.286621 19.7403 0.286621C18.032 0.286621 16.3746 0.503311 14.7945 0.910504C16.9345 1.49061 19.2079 2.33929 21.6007 3.52786C26.5821 6.00226 30.8829 6.79897 34.3799 6.79067ZM39.2444 17.4847C34.4383 18.4276 27.8016 18.2339 19.844 14.2811C12.4045 10.5857 6.48327 10.6323 2.48979 11.5139C2.28366 11.5594 2.08238 11.6072 1.88596 11.6569C1.36312 12.7866 0.945765 13.9745 0.646311 15.2081C0.966144 15.1232 1.29664 15.0425 1.63763 14.9672C6.48242 13.8976 13.3277 13.9441 21.6007 18.0535C29.0403 21.7489 34.9614 21.7024 38.955 20.8207C39.0918 20.7906 39.2266 20.7594 39.3592 20.7272C39.3737 20.4196 39.381 20.11 39.381 19.7988C39.381 19.0159 39.3347 18.2437 39.2444 17.4847ZM38.7179 24.8449C33.9585 25.6716 27.5151 25.3543 19.844 21.544C12.4045 17.8485 6.48327 17.8951 2.48979 18.7767C1.60335 18.9724 0.805928 19.2107 0.102487 19.4623C0.100569 19.5742 0.0996094 19.6864 0.0996094 19.7988C0.0996094 30.5751 8.89304 39.311 19.7403 39.311C28.8311 39.311 36.4794 33.1753 38.7179 24.8449Z" fill="#0A1119"/>
</g>
<defs>
<clipPath id="clip0_442_1942">
<rect width="164" height="40" fill="white"/>
</clipPath>
</defs>
</svg>
