<svg width="140" height="140" viewBox="0 0 140 140" fill="none" xmlns="http://www.w3.org/2000/svg">
<circle cx="70" cy="70" r="70" fill="url(#paint0_linear_536_16242)"/>
<g clip-path="url(#clip0_536_16242)">
<path d="M60.5912 78.5089L78.5982 65.9002L76.9734 75.1149C76.9417 75.2778 76.9428 75.4454 76.9766 75.6079C77.0104 75.7704 77.0763 75.9246 77.1703 76.0613C77.2643 76.1981 77.3846 76.3148 77.5242 76.4046C77.6638 76.4944 77.8199 76.5555 77.9834 76.5843C78.1468 76.6131 78.3144 76.6091 78.4763 76.5725C78.6382 76.5358 78.7911 76.4673 78.9263 76.371C79.0614 76.2746 79.176 76.1523 79.2633 76.0111C79.3507 75.87 79.409 75.7129 79.435 75.5489L81.5838 63.3626C81.6413 63.0361 81.5668 62.7002 81.3767 62.4287C81.1866 62.1572 80.8964 61.9723 80.57 61.9147L68.3836 59.7659C68.0599 59.7146 67.729 59.7925 67.4622 59.9828C67.1953 60.1732 67.0139 60.4607 66.957 60.7835C66.9001 61.1062 66.9722 61.4385 67.1579 61.7086C67.3435 61.9787 67.6278 62.165 67.9496 62.2276L77.1642 63.8524L59.1572 76.461C58.8856 76.6512 58.7007 76.9414 58.6432 77.2679C58.5856 77.5944 58.6601 77.9303 58.8502 78.2019C59.0404 78.4735 59.3306 78.6584 59.6571 78.7159C59.9836 78.7735 60.3196 78.699 60.5912 78.5089Z" fill="white"/>
</g>
<path d="M75.6563 24.3724C74.8064 24.2588 74.0515 24.026 73.3917 23.6741C72.7318 23.3222 72.1812 22.8635 71.7398 22.2981C71.3088 21.7341 71.0063 21.0765 70.8324 20.3253C70.6599 19.5637 70.6352 18.7217 70.7585 17.7992C70.8818 16.8767 71.126 16.0759 71.491 15.3967C71.8561 14.7176 72.3206 14.1625 72.8846 13.7314C73.459 13.3018 74.1107 13.0038 74.8398 12.8375C75.5689 12.6712 76.3584 12.6448 77.2084 12.7584C78.1827 12.8886 79.0253 13.1753 79.7362 13.6184C80.4486 14.0512 80.9978 14.5994 81.3838 15.2629C81.7803 15.9278 81.9705 16.6758 81.9543 17.5072L79.4978 17.1789C79.4572 16.7725 79.3267 16.4069 79.1063 16.0821C78.8977 15.7483 78.6076 15.4721 78.2359 15.2536C77.8745 15.0365 77.4399 14.8941 76.932 14.8262C76.2894 14.7403 75.711 14.8054 75.1968 15.0216C74.684 15.2274 74.2554 15.5921 73.9111 16.1158C73.5786 16.6305 73.3569 17.3025 73.2461 18.1317C73.163 18.7536 73.1622 19.3126 73.2436 19.8088C73.3367 20.296 73.5024 20.7138 73.7407 21.0621C73.979 21.4105 74.2795 21.688 74.6423 21.8947C75.0154 22.1028 75.4455 22.2395 75.9326 22.3046C76.4198 22.3697 76.8714 22.3456 77.2874 22.2324C77.7035 22.1192 78.0611 21.9296 78.3604 21.6637C78.6701 21.3991 78.8927 21.0754 79.0282 20.6926L81.4847 21.0209C81.2938 21.8183 80.919 22.4909 80.3605 23.0387C79.802 23.5865 79.1164 23.9802 78.3037 24.2198C77.5027 24.4503 76.6202 24.5012 75.6563 24.3724Z" fill="white"/>
<path d="M86.1609 27.1068C85.5661 26.8764 85.0638 26.5808 84.654 26.2202C84.248 25.8498 83.9375 25.4211 83.7225 24.9341C83.5075 24.447 83.4037 23.919 83.4111 23.3499C83.4223 22.7711 83.5507 22.1648 83.7962 21.5309C84.1098 20.7216 84.5397 20.0751 85.086 19.5915C85.636 19.0981 86.2697 18.7941 86.987 18.6795C87.7042 18.5649 88.4773 18.6681 89.3061 18.9893C89.8912 19.2159 90.3867 19.5145 90.7927 19.8849C91.1987 20.2553 91.5044 20.6821 91.7096 21.1653C91.9246 21.6524 92.0285 22.1804 92.021 22.7495C92.0234 23.3224 91.8999 23.9306 91.6505 24.5741C91.3407 25.3737 90.9108 26.0202 90.3608 26.5136C89.8145 26.9972 89.1827 27.2964 88.4655 27.411C87.7579 27.5294 86.9898 27.428 86.1609 27.1068ZM86.8207 25.3607C87.1717 25.4967 87.511 25.5328 87.8385 25.469C88.1795 25.3993 88.4844 25.2202 88.7531 24.9318C89.0316 24.6472 89.271 24.2465 89.4712 23.7297C89.6223 23.3397 89.7137 22.9882 89.7452 22.6752C89.7806 22.3524 89.758 22.0633 89.6775 21.8079C89.5971 21.5524 89.4666 21.3392 89.2861 21.1684C89.1094 20.9877 88.8893 20.8464 88.6261 20.7444C88.275 20.6084 87.9309 20.5704 87.5937 20.6304C87.2662 20.6941 86.9632 20.8683 86.6847 21.1529C86.4062 21.4375 86.1649 21.8431 85.9609 22.3697C85.8098 22.7597 85.7166 23.1161 85.6812 23.4388C85.6594 23.7556 85.6888 24.0417 85.7692 24.2972C85.8534 24.5429 85.9839 24.7561 86.1607 24.9367C86.3374 25.1173 86.5574 25.2586 86.8207 25.3607Z" fill="white"/>
<path d="M91.6387 29.3398L96.2107 22.284L98.0668 23.4867L97.3183 24.8148L97.3973 24.8659C97.8975 24.5171 98.4233 24.3594 98.9748 24.3929C99.5321 24.4175 100.061 24.5919 100.561 24.916C100.912 25.1435 101.2 25.4109 101.424 25.7183C101.663 26.0227 101.818 26.36 101.89 26.7304C101.97 27.1064 101.95 27.5229 101.828 27.9799C101.721 28.4337 101.497 28.924 101.155 29.4505L98.3917 33.7156L96.4566 32.4617L98.9473 28.6179C99.2032 28.2229 99.3682 27.8626 99.4423 27.5368C99.5251 27.2166 99.5098 26.9326 99.3963 26.6846C99.2886 26.4278 99.0767 26.1971 98.7608 25.9924C98.4273 25.7763 98.0953 25.6733 97.7648 25.6834C97.4342 25.6936 97.1251 25.7861 96.8373 25.9609C96.5495 26.1358 96.309 26.3725 96.1156 26.6708L93.5737 30.5936L91.6387 29.3398Z" fill="white"/>
<path d="M101.616 36.7602C101.082 36.2755 100.799 35.7934 100.768 35.3137C100.744 34.8262 100.982 34.3075 101.48 33.7574L104.451 30.4803L103.336 29.4689L104.579 28.0976L105.694 29.109L107.233 27.4124L109.088 28.7984L107.403 30.6577L108.658 31.7956L107.415 33.1669L106.159 32.029L103.473 34.9924C103.297 35.1861 103.224 35.3599 103.254 35.5139C103.284 35.6679 103.384 35.8222 103.554 35.9767L104.275 36.6299L103.011 38.0244L101.616 36.7602Z" fill="white"/>
<path d="M105.44 41.1018C105.122 40.7002 104.907 40.277 104.794 39.8323C104.69 39.381 104.688 38.9229 104.786 38.4579C104.893 37.9864 105.108 37.5163 105.43 37.0475C105.759 36.5869 106.19 36.1455 106.722 35.7234C107.444 35.152 108.146 34.7756 108.83 34.5944C109.528 34.4148 110.167 34.4219 110.748 34.6157C111.336 34.8031 111.842 35.1632 112.264 35.6959C112.53 36.032 112.717 36.3775 112.825 36.7324C112.941 37.0808 112.982 37.4281 112.95 37.7741C112.925 38.1137 112.826 38.426 112.651 38.711L112.729 38.8093L113.894 38.0065L115.248 39.7155L108.658 44.9363L107.304 43.2273L108.364 42.2671L108.286 42.1688C107.814 42.3298 107.316 42.3169 106.795 42.1298C106.288 41.9445 105.836 41.6018 105.44 41.1018ZM107.419 40.5944C107.679 40.9222 107.963 41.1375 108.271 41.2403C108.586 41.3512 108.908 41.3625 109.239 41.2743C109.569 41.186 109.89 41.0185 110.201 40.7718L110.853 40.2555C111.173 40.0023 111.406 39.7241 111.553 39.421C111.714 39.1197 111.777 38.8032 111.741 38.4714C111.712 38.1479 111.583 37.8428 111.356 37.5559C111.083 37.2116 110.778 36.9864 110.44 36.8803C110.109 36.7823 109.751 36.7929 109.365 36.9119C108.987 37.0244 108.593 37.243 108.183 37.5677C107.79 37.8794 107.488 38.2054 107.277 38.5457C107.067 38.886 106.971 39.2286 106.991 39.5732C107.01 39.9179 107.153 40.2583 107.419 40.5944Z" fill="white"/>
<path d="M111.173 49.9676C110.89 49.4076 110.722 48.8542 110.668 48.3073C110.623 47.7556 110.689 47.2245 110.864 46.714C111.044 46.2128 111.328 45.7533 111.714 45.3353C112.105 44.9268 112.59 44.5762 113.168 44.2837C113.756 43.9865 114.333 43.8062 114.899 43.7429C115.474 43.6749 116.012 43.7193 116.513 43.8761C117.028 44.0375 117.492 44.3067 117.905 44.6837C118.328 45.056 118.685 45.5314 118.978 46.1101C119.299 46.7447 119.463 47.3706 119.47 47.9879C119.492 48.6098 119.363 49.1786 119.085 49.6942C118.816 50.2052 118.408 50.6162 117.863 50.9272L116.851 48.9254C117.079 48.7514 117.242 48.5519 117.339 48.327C117.441 48.1114 117.482 47.8797 117.462 47.632C117.457 47.3888 117.392 47.1459 117.27 46.9033C117.133 46.6326 116.957 46.4229 116.741 46.2742C116.534 46.1208 116.298 46.0237 116.031 45.9827C115.774 45.9371 115.491 45.9454 115.182 46.0075C114.879 46.079 114.559 46.1997 114.223 46.3695C113.728 46.6196 113.351 46.8925 113.09 47.1882C112.844 47.4886 112.698 47.8026 112.652 48.1302C112.621 48.4624 112.688 48.7918 112.853 49.1184C112.999 49.4077 113.171 49.6314 113.368 49.7896C113.579 49.9523 113.804 50.0495 114.043 50.0812C114.296 50.1175 114.541 50.0931 114.779 50.0078L115.791 52.0096C115.194 52.2648 114.602 52.3469 114.017 52.256C113.432 52.165 112.896 51.9265 112.408 51.5405C111.92 51.1545 111.508 50.6302 111.173 49.9676Z" fill="white"/>
<path d="M114.319 57.5793C114.1 56.8918 114.097 56.3329 114.311 55.9025C114.535 55.4689 115.001 55.1395 115.709 54.914L119.923 53.5711L119.466 52.1364L121.23 51.5744L121.687 53.0092L123.869 52.3139L124.778 54.4442L122.387 55.2062L122.901 56.8203L121.138 57.3822L120.623 55.7681L116.812 56.9824C116.563 57.0618 116.413 57.1756 116.361 57.3237C116.31 57.4718 116.319 57.6555 116.389 57.8747L116.684 58.8013L114.89 59.3728L114.319 57.5793Z" fill="white"/>
<path d="M116.022 68.9311C115.98 67.9072 116.127 67.022 116.462 66.2756C116.798 65.5397 117.293 64.9647 117.946 64.5506C118.609 64.1466 119.396 63.9259 120.305 63.8886L127.389 63.5977L127.488 66.0269L120.42 66.3172C119.908 66.3382 119.479 66.4553 119.132 66.6684C118.795 66.881 118.545 67.1686 118.382 67.5312C118.23 67.9037 118.164 68.346 118.185 68.858C118.208 69.4013 118.315 69.8469 118.507 70.1949C118.71 70.5528 118.988 70.8136 119.34 70.977C119.703 71.1505 120.13 71.2272 120.621 71.207L127.689 70.9167L127.789 73.346L120.705 73.6369C119.765 73.6755 118.952 73.51 118.267 73.1404C117.582 72.7709 117.047 72.2277 116.662 71.5109C116.276 70.7941 116.063 69.9342 116.022 68.9311Z" fill="white"/>
<path d="M115.323 79.0846C115.419 78.5283 115.568 78.0393 115.768 77.6178C115.979 77.198 116.231 76.849 116.523 76.5708C116.814 76.3028 117.139 76.1099 117.5 75.992C117.87 75.8759 118.257 75.8476 118.661 75.9071L118.271 78.148C118.008 78.1341 117.784 78.1747 117.598 78.2697C117.421 78.3665 117.274 78.5108 117.156 78.7026C117.046 78.9064 116.967 79.1474 116.919 79.4256C116.846 79.848 116.868 80.1757 116.987 80.4086C117.104 80.6518 117.297 80.7966 117.565 80.8431C117.781 80.8807 117.955 80.8578 118.086 80.7745C118.227 80.6929 118.35 80.539 118.453 80.3128C118.564 80.0987 118.68 79.8003 118.799 79.4177C119.036 78.7265 119.288 78.1601 119.556 77.7183C119.824 77.2766 120.142 76.971 120.511 76.8016C120.88 76.6322 121.333 76.594 121.868 76.6871C122.404 76.7801 122.843 77.0049 123.184 77.3614C123.524 77.7281 123.756 78.1931 123.881 78.7561C124.017 79.3209 124.024 79.9536 123.902 80.6542C123.786 81.3239 123.576 81.8872 123.274 82.3442C122.98 82.8132 122.614 83.1529 122.174 83.363C121.742 83.5853 121.266 83.6672 120.746 83.6086L121.135 81.3677C121.362 81.4071 121.552 81.3818 121.706 81.2917C121.868 81.2137 122.001 81.0882 122.105 80.9153C122.208 80.7527 122.28 80.5529 122.321 80.3159C122.383 79.9553 122.356 79.6534 122.239 79.4102C122.131 79.1791 121.943 79.0403 121.675 78.9938C121.479 78.9598 121.309 78.9887 121.166 79.0806C121.031 79.1845 120.905 79.3642 120.786 79.6195C120.667 79.8749 120.54 80.2135 120.403 80.6355C120.192 81.2994 119.955 81.8368 119.693 82.2476C119.43 82.6584 119.11 82.9425 118.733 83.0998C118.366 83.2589 117.909 83.291 117.363 83.1962C116.796 83.0978 116.339 82.8591 115.991 82.4803C115.641 82.1117 115.41 81.6365 115.299 81.0547C115.188 80.4728 115.196 79.8161 115.323 79.0846Z" fill="white"/>
<path d="M119.285 91.1105L119.965 91.3933L120.794 91.9753L120.466 91.0067L120.385 90.2599L121.319 90.1383L121.406 90.8707L121.351 91.9011L122.028 91.1295L122.608 90.674L123.181 91.4215L122.595 91.8915L121.692 92.3485L122.689 92.5248L123.369 92.8077L123.002 93.6913L122.321 93.4084L121.487 92.8409L121.801 93.8035L121.881 94.5503L120.953 94.6574L120.861 93.9396L120.93 92.9151L120.238 93.6808L119.658 94.1362L119.085 93.3887L119.671 92.9188L120.589 92.4678L119.598 92.2769L118.917 91.994L119.285 91.1105Z" fill="white"/>
<path d="M106.078 99.7754C106.604 99.0981 107.184 98.5628 107.821 98.1696C108.457 97.7765 109.13 97.5314 109.841 97.4344C110.545 97.3457 111.266 97.4152 112.002 97.6428C112.747 97.8769 113.487 98.2793 114.223 98.8499C114.958 99.4206 115.527 100.035 115.93 100.692C116.334 101.349 116.58 102.03 116.668 102.734C116.751 103.447 116.68 104.16 116.457 104.873C116.234 105.587 115.86 106.283 115.334 106.96C114.731 107.737 114.059 108.321 113.319 108.712C112.586 109.11 111.836 109.309 111.068 109.309C110.294 109.317 109.552 109.105 108.842 108.672L110.362 106.715C110.733 106.884 111.115 106.955 111.506 106.928C111.9 106.916 112.285 106.804 112.66 106.593C113.03 106.39 113.372 106.086 113.686 105.681C114.083 105.169 114.318 104.636 114.39 104.083C114.47 103.536 114.371 102.982 114.091 102.421C113.814 101.875 113.345 101.345 112.684 100.832C112.188 100.448 111.705 100.166 111.236 99.9864C110.768 99.8218 110.323 99.7548 109.902 99.7855C109.481 99.8162 109.09 99.9362 108.729 100.146C108.362 100.363 108.027 100.666 107.726 101.055C107.424 101.443 107.218 101.845 107.106 102.262C106.995 102.678 106.979 103.083 107.058 103.475C107.131 103.876 107.299 104.231 107.561 104.541L106.042 106.499C105.449 105.932 105.056 105.27 104.863 104.512C104.671 103.754 104.676 102.963 104.878 102.14C105.081 101.332 105.481 100.544 106.078 99.7754Z" fill="white"/>
<path d="M98.4284 107.5C98.9258 107.101 99.4333 106.814 99.9507 106.64C100.475 106.475 101.001 106.421 101.531 106.479C102.06 106.537 102.569 106.711 103.058 107.003C103.553 107.303 104.013 107.718 104.439 108.248C104.982 108.925 105.326 109.621 105.471 110.336C105.622 111.059 105.568 111.76 105.308 112.438C105.047 113.116 104.571 113.733 103.877 114.29C103.388 114.682 102.882 114.962 102.358 115.127C101.834 115.293 101.311 115.344 100.79 115.279C100.261 115.221 99.7517 115.047 99.263 114.755C98.7661 114.47 98.3016 114.058 97.8696 113.52C97.3329 112.851 96.9888 112.155 96.8374 111.432C96.6926 110.717 96.7502 110.02 97.0105 109.342C97.2625 108.671 97.7352 108.057 98.4284 107.5ZM99.609 108.946C99.3154 109.182 99.1141 109.457 99.0052 109.773C98.8947 110.103 98.8969 110.456 99.0118 110.833C99.1186 111.217 99.3454 111.625 99.6923 112.057C99.9541 112.383 100.213 112.639 100.468 112.823C100.729 113.015 100.991 113.14 101.252 113.199C101.514 113.257 101.763 113.251 102.002 113.18C102.247 113.118 102.479 112.998 102.699 112.822C102.993 112.586 103.198 112.307 103.315 111.985C103.424 111.67 103.425 111.32 103.319 110.937C103.212 110.553 102.982 110.141 102.628 109.701C102.366 109.375 102.105 109.115 101.843 108.923C101.58 108.745 101.318 108.627 101.056 108.569C100.801 108.519 100.551 108.525 100.307 108.587C100.062 108.65 99.8292 108.769 99.609 108.946Z" fill="white"/>
<path d="M93.7563 111.122L97.5782 118.61L95.6082 119.616L94.8327 118.303L94.7489 118.346C94.8007 118.954 94.6741 119.488 94.3693 119.949C94.0692 120.419 93.6536 120.789 93.1227 121.06C92.7501 121.25 92.3746 121.366 91.9961 121.406C91.6131 121.461 91.2434 121.426 90.8869 121.303C90.5211 121.185 90.1709 120.958 89.8361 120.624C89.4967 120.304 89.1844 119.865 88.8992 119.306L86.589 114.779L88.6428 113.731L90.7248 117.811C90.9387 118.23 91.1682 118.553 91.4133 118.78C91.649 119.012 91.9026 119.141 92.1741 119.167C92.4503 119.202 92.7561 119.134 93.0914 118.963C93.4453 118.782 93.7006 118.546 93.8572 118.255C94.0138 117.964 94.0884 117.65 94.081 117.313C94.0735 116.977 93.989 116.65 93.8274 116.333L91.7025 112.17L93.7563 111.122Z" fill="white"/>
<path d="M82.3414 116.037C83.0288 115.818 83.5877 115.815 84.0182 116.029C84.4519 116.253 84.7816 116.718 85.0074 117.426L86.3525 121.64L87.787 121.182L88.3499 122.945L86.9153 123.403L87.6117 125.585L85.4819 126.495L84.7187 124.104L83.1049 124.619L82.5421 122.856L84.1559 122.341L82.9396 118.53C82.8601 118.281 82.7463 118.131 82.5981 118.08C82.4499 118.028 82.2663 118.037 82.0471 118.107L81.1207 118.403L80.5483 116.61L82.3414 116.037Z" fill="white"/>
<path d="M76.6694 117.162C77.1766 117.089 77.6506 117.116 78.0914 117.243C78.5337 117.38 78.9309 117.609 79.2832 117.928C79.6369 118.257 79.9352 118.679 80.1782 119.194C80.4108 119.71 80.5755 120.304 80.6721 120.977C80.803 121.888 80.7749 122.684 80.5876 123.366C80.3915 124.06 80.0637 124.609 79.6041 125.013C79.146 125.427 78.5805 125.683 77.9077 125.779C77.4833 125.84 77.0907 125.828 76.7297 125.743C76.3703 125.668 76.0493 125.529 75.7667 125.326C75.4855 125.134 75.2657 124.891 75.1072 124.597L74.983 124.615L75.0907 126.026L72.9325 126.336L71.7366 118.014L73.8947 117.704L74.1909 119.103L74.3151 119.085C74.4138 118.596 74.6752 118.173 75.0994 117.816C75.5146 117.471 76.038 117.253 76.6694 117.162ZM76.112 119.128C75.698 119.188 75.369 119.325 75.1252 119.539C74.871 119.756 74.6989 120.029 74.609 120.358C74.5191 120.688 74.5024 121.05 74.5589 121.443L74.6771 122.266C74.7352 122.67 74.8582 123.011 75.0462 123.291C75.2254 123.582 75.4674 123.795 75.7722 123.931C76.0666 124.068 76.3949 124.111 76.7572 124.059C77.1919 123.996 77.5401 123.846 77.8016 123.608C78.0528 123.371 78.2241 123.056 78.3155 122.662C78.4083 122.279 78.4176 121.829 78.3432 121.311C78.2718 120.815 78.142 120.389 77.9539 120.036C77.7658 119.683 77.5179 119.428 77.2102 119.271C76.9024 119.115 76.5364 119.067 76.112 119.128Z" fill="white"/>
<path d="M66.0398 117.657C66.6662 117.694 67.2292 117.827 67.729 118.056C68.2282 118.295 68.6543 118.618 69.0073 119.027C69.3498 119.435 69.6046 119.911 69.7715 120.455C69.9279 120.998 69.9871 121.593 69.9488 122.241C69.91 122.898 69.7757 123.488 69.5459 124.008C69.3155 124.539 69.0065 124.982 68.619 125.336C68.2204 125.7 67.7542 125.966 67.2206 126.134C66.6863 126.312 66.0955 126.381 65.4483 126.343C64.7385 126.301 64.1149 126.128 63.5777 125.824C63.0294 125.53 62.6024 125.133 62.2967 124.633C61.9904 124.143 61.8401 123.585 61.8458 122.956L64.0849 123.089C64.1205 123.374 64.211 123.615 64.3565 123.812C64.4915 124.008 64.6711 124.16 64.8952 124.268C65.1083 124.385 65.3505 124.452 65.6219 124.468C65.9247 124.486 66.1945 124.439 66.4316 124.327C66.668 124.226 66.871 124.07 67.0406 123.86C67.2095 123.661 67.3446 123.412 67.446 123.114C67.537 122.816 67.5935 122.479 67.6157 122.103C67.6484 121.55 67.6024 121.086 67.4779 120.712C67.3423 120.348 67.1443 120.064 66.884 119.86C66.6126 119.666 66.2942 119.558 65.9289 119.536C65.6052 119.517 65.3255 119.553 65.0897 119.644C64.8428 119.745 64.6457 119.89 64.4983 120.08C64.3398 120.281 64.2375 120.505 64.1914 120.754L61.9522 120.621C62.0322 119.977 62.2586 119.424 62.6315 118.965C63.0043 118.505 63.4803 118.161 64.0594 117.933C64.6385 117.706 65.2987 117.614 66.0398 117.657Z" fill="white"/>
<path d="M57.8975 116.558C58.6021 116.714 59.0868 116.992 59.3517 117.393C59.6143 117.805 59.6656 118.373 59.5057 119.098L58.5525 123.417L60.023 123.742L59.6242 125.549L58.1537 125.225L57.6602 127.461L55.3613 127.179L55.9021 124.728L54.2478 124.363L54.6466 122.555L56.3009 122.92L57.1628 119.015C57.2191 118.759 57.1961 118.572 57.0939 118.453C56.9916 118.334 56.8282 118.25 56.6035 118.2L55.6538 117.991L56.0594 116.153L57.8975 116.558Z" fill="white"/>
<path d="M47.2142 112.325C48.1203 112.804 48.8115 113.376 49.2877 114.042C49.7547 114.702 50.0029 115.419 50.0323 116.192C50.0476 116.968 49.8427 117.759 49.4177 118.563L46.1053 124.832L43.9557 123.696L47.2607 117.441C47.5001 116.988 47.615 116.558 47.6054 116.151C47.591 115.753 47.4681 115.393 47.2368 115.069C46.9914 114.75 46.6421 114.471 46.1891 114.232C45.7083 113.978 45.2692 113.846 44.8718 113.837C44.4603 113.833 44.0953 113.941 43.7769 114.164C43.4444 114.39 43.1633 114.72 42.9337 115.155L39.6287 121.41L37.479 120.274L40.7914 114.005C41.231 113.173 41.7829 112.554 42.4469 112.148C43.1109 111.742 43.8496 111.553 44.6629 111.58C45.4762 111.608 46.3267 111.856 47.2142 112.325Z" fill="white"/>
<path d="M38.8462 106.642C39.2784 107.006 39.6261 107.38 39.8895 107.765C40.1461 108.159 40.3211 108.552 40.4143 108.945C40.4996 109.331 40.5026 109.709 40.4232 110.08C40.3371 110.458 40.1669 110.807 39.9123 111.126L38.1717 109.662C38.316 109.441 38.394 109.227 38.4056 109.018C38.4106 108.817 38.3599 108.617 38.2537 108.419C38.1328 108.221 37.9643 108.032 37.7482 107.85C37.4201 107.574 37.1255 107.429 36.8645 107.414C36.5954 107.393 36.3734 107.486 36.1984 107.694C36.0571 107.863 35.9894 108.024 35.9954 108.18C35.9946 108.343 36.0661 108.526 36.2098 108.729C36.3387 108.933 36.5384 109.183 36.8089 109.479C37.287 110.031 37.6496 110.534 37.8966 110.988C38.1435 111.442 38.2474 111.87 38.208 112.275C38.1687 112.679 37.974 113.089 37.624 113.505C37.274 113.921 36.8591 114.187 36.3792 114.303C35.8913 114.412 35.3727 114.379 34.8232 114.203C34.2669 114.036 33.7167 113.724 33.1725 113.266C32.6523 112.828 32.2709 112.364 32.0281 111.873C31.7706 111.383 31.6617 110.895 31.7014 110.409C31.7263 109.925 31.8951 109.472 32.2076 109.052L33.9482 110.516C33.8002 110.692 33.7264 110.869 33.7269 111.047C33.7127 111.227 33.7541 111.405 33.851 111.582C33.9399 111.752 34.0764 111.915 34.2605 112.07C34.5406 112.305 34.8152 112.434 35.0842 112.455C35.3385 112.478 35.5531 112.385 35.7281 112.177C35.856 112.025 35.9163 111.864 35.9091 111.694C35.8871 111.525 35.7956 111.325 35.6346 111.094C35.4737 110.863 35.2453 110.582 34.9496 110.251C34.482 109.735 34.1367 109.26 33.9138 108.827C33.6908 108.393 33.6063 107.974 33.6604 107.568C33.7077 107.171 33.9098 106.76 34.2665 106.336C34.6367 105.896 35.0731 105.621 35.5757 105.511C36.0703 105.394 36.597 105.433 37.1558 105.63C37.7146 105.827 38.278 106.164 38.8462 106.642Z" fill="white"/>
<path d="M26.456 104.032L25.8701 104.48L24.9515 104.905L25.954 105.106L26.6406 105.411L26.278 106.28L25.6009 105.988L24.7364 105.424L25.0649 106.397L25.1685 107.127L24.2346 107.248L24.1215 106.506L24.1786 105.495L23.5265 106.269L22.9406 106.717L22.3598 105.956L22.9457 105.509L23.8549 105.071L22.8648 104.86L22.1782 104.556L22.5503 103.699L23.2179 103.979L24.0699 104.552L23.7539 103.569L23.6503 102.839L24.5841 102.718L24.6973 103.461L24.6278 104.481L25.2893 103.719L25.8753 103.272L26.456 104.032Z" fill="white"/>
<path d="M25.5706 88.2655C25.8934 89.0599 26.0655 89.8309 26.0871 90.5784C26.1086 91.3259 25.9833 92.0315 25.7112 92.6952C25.4351 93.3491 25.014 93.9379 24.4479 94.4614C23.8721 94.9888 23.1531 95.4277 22.2908 95.778C21.4286 96.1284 20.6121 96.3134 19.8413 96.3331C19.0705 96.3529 18.3581 96.2247 17.7041 95.9486C17.0462 95.6629 16.4643 95.2446 15.9583 94.694C15.4524 94.1433 15.038 93.4707 14.7152 92.6763C14.3452 91.7656 14.1764 90.8917 14.2087 90.0546C14.2314 89.2214 14.4351 88.4727 14.8198 87.8084C15.2007 87.1345 15.756 86.5984 16.4859 86.2002L17.4189 88.4963C17.0862 88.7331 16.8334 89.0277 16.6605 89.3801C16.4741 89.7267 16.3781 90.1156 16.3727 90.5468C16.3633 90.9682 16.4551 91.4163 16.648 91.891C16.892 92.4916 17.2354 92.9616 17.678 93.301C18.111 93.6443 18.6402 93.8356 19.2657 93.8749C19.8776 93.9085 20.5711 93.7678 21.3461 93.4529C21.9274 93.2167 22.4133 92.9403 22.8038 92.6236C23.1807 92.3011 23.4614 91.9501 23.6457 91.5704C23.8301 91.1907 23.9221 90.7921 23.9218 90.3746C23.9175 89.9474 23.8229 89.5062 23.6378 89.0508C23.4528 88.5955 23.208 88.2153 22.9034 87.9101C22.5988 87.6049 22.2569 87.3883 21.8775 87.2603C21.4942 87.1226 21.1027 87.0897 20.7031 87.1618L19.7702 84.8658C20.5573 84.6362 21.3272 84.6282 22.0799 84.8416C22.8326 85.055 23.5144 85.4552 24.1254 86.0422C24.7228 86.6234 25.2045 87.3645 25.5706 88.2655Z" fill="white"/>
<path d="M22.739 77.7884C22.8337 78.4192 22.826 79.0019 22.716 79.5366C22.5956 80.0728 22.3772 80.555 22.0608 80.9832C21.7445 81.4114 21.3373 81.7634 20.8394 82.039C20.3312 82.3163 19.741 82.5054 19.0688 82.6063C18.2105 82.7352 17.4359 82.6823 16.7451 82.4477C16.0439 82.2146 15.4657 81.815 15.0106 81.2489C14.5555 80.6828 14.2619 79.9602 14.1299 79.0812C14.0367 78.4608 14.0503 77.8824 14.1707 77.3462C14.2911 76.81 14.5103 76.3329 14.8282 75.9151C15.1446 75.4869 15.5517 75.1349 16.0496 74.8593C16.5459 74.5732 17.1354 74.379 17.8179 74.2765C18.6659 74.1491 19.4404 74.202 20.1416 74.4351C20.8325 74.6697 21.4055 75.0701 21.8606 75.6362C22.3142 76.192 22.607 76.9094 22.739 77.7884ZM20.8954 78.0811C20.8395 77.7088 20.7027 77.3963 20.4849 77.1434C20.2553 76.8818 19.9486 76.7058 19.565 76.6154C19.1797 76.5146 18.7131 76.5054 18.165 76.5877C17.7513 76.6498 17.4008 76.7448 17.1133 76.8726C16.8155 77.0019 16.5756 77.1648 16.3936 77.3613C16.2116 77.5578 16.0912 77.7768 16.0323 78.0183C15.963 78.2614 15.9494 78.5225 15.9913 78.8017C16.0472 79.174 16.1848 79.4917 16.4041 79.7548C16.6218 80.0077 16.9233 80.1844 17.3086 80.2852C17.6938 80.386 18.1656 80.3944 18.7241 80.3106C19.1377 80.2484 19.4934 80.1527 19.7912 80.0234C20.0772 79.8853 20.3111 79.718 20.4931 79.5215C20.6647 79.3265 20.7852 79.1075 20.8544 78.8645C20.9237 78.6214 20.9373 78.3603 20.8954 78.0811Z" fill="white"/>
<path d="M21.9582 71.8473L13.5634 71.3837L13.6854 69.1753L15.2098 69.1653L15.215 69.0713C14.6638 68.8104 14.2658 68.4324 14.0208 67.9371C13.7655 67.4412 13.6542 66.8957 13.6871 66.3006C13.7101 65.8829 13.7994 65.5003 13.9547 65.1528C14.1002 64.7943 14.3159 64.492 14.6018 64.246C14.8882 63.9895 15.26 63.8006 15.717 63.6792C16.1642 63.5468 16.701 63.4979 17.3275 63.5325L22.402 63.8128L22.2748 66.1151L17.7015 65.8625C17.2317 65.8365 16.837 65.8723 16.5174 65.9699C16.1984 66.057 15.9594 66.2114 15.8006 66.433C15.6313 66.6541 15.5362 66.9525 15.5155 67.3284C15.4936 67.7252 15.5691 68.0645 15.742 68.3463C15.915 68.6282 16.1488 68.8506 16.4435 69.0135C16.7382 69.1764 17.0631 69.2676 17.4181 69.2872L22.0853 69.545L21.9582 71.8473Z" fill="white"/>
<path d="M23.441 59.5269C23.2859 60.2316 23.0078 60.7165 22.6068 60.9816C22.1956 61.2444 21.6275 61.296 20.9024 61.1364L16.5824 60.1855L16.2587 61.6562L14.451 61.2583L14.7748 59.7876L12.5382 59.2953L12.8194 56.9962L15.2704 57.5357L15.6346 55.8813L17.4422 56.2792L17.0781 57.9336L20.9844 58.7935C21.2397 58.8497 21.4268 58.8266 21.5457 58.7243C21.6646 58.622 21.7488 58.4585 21.7983 58.2338L22.0073 57.284L23.8456 57.6886L23.441 59.5269Z" fill="white"/>
<path d="M25.3169 54.0462C25.1252 54.5214 24.8638 54.9177 24.5328 55.2352C24.1921 55.5488 23.7953 55.7778 23.3424 55.9221C22.8799 56.0625 22.3651 56.1086 21.7982 56.0604C21.2353 56.0025 20.6386 55.8464 20.0082 55.5921C19.1548 55.2479 18.4803 54.8236 17.9846 54.3192C17.4832 53.8012 17.1731 53.2421 17.0544 52.6417C16.9261 52.0374 16.989 51.4201 17.2433 50.7897C17.4037 50.3921 17.6114 50.0587 17.8666 49.7895C18.1121 49.5164 18.3933 49.3085 18.7102 49.1657C19.0174 49.019 19.338 48.951 19.672 48.9616L19.7189 48.8453L18.4449 48.2299L19.2605 46.2079L27.0577 49.3529L26.2421 51.3749L24.8831 50.9282L24.8362 51.0446C25.21 51.3758 25.4447 51.8144 25.5402 52.3603C25.6299 52.8926 25.5555 53.4546 25.3169 54.0462ZM23.8968 52.5769C24.0532 52.189 24.0999 51.8357 24.0367 51.5171C23.9775 51.1887 23.8278 50.9029 23.5877 50.6594C23.3476 50.416 23.0433 50.22 22.6748 50.0713L21.9038 49.7604C21.5256 49.6078 21.1685 49.5427 20.8325 49.565C20.4907 49.5737 20.1845 49.6758 19.914 49.8711C19.6475 50.0568 19.4457 50.3193 19.3088 50.6587C19.1445 51.0661 19.0998 51.4427 19.1745 51.7885C19.2531 52.1247 19.4396 52.4311 19.734 52.7077C20.0187 52.9803 20.4035 53.2145 20.8884 53.4101C21.3539 53.5978 21.7866 53.6991 22.1866 53.7138C22.5866 53.7286 22.9315 53.6422 23.2214 53.4546C23.5113 53.2671 23.7364 52.9746 23.8968 52.5769Z" fill="white"/>
<path d="M30.1948 44.675C29.8477 45.1977 29.4498 45.6176 29.0008 45.9346C28.5432 46.2458 28.0491 46.4512 27.5185 46.5508C26.9937 46.6417 26.4542 46.6224 25.9 46.493C25.3516 46.3548 24.8073 46.1064 24.2672 45.7478C23.7183 45.3835 23.2767 44.971 22.9423 44.5105C22.5991 44.0442 22.372 43.5545 22.2608 43.0413C22.1467 42.5137 22.1514 41.9771 22.2751 41.4317C22.3901 40.8804 22.6268 40.3347 22.9854 39.7945C23.3788 39.2021 23.8419 38.7502 24.375 38.4389C24.9051 38.113 25.4631 37.9437 26.0489 37.931C26.6261 37.9125 27.1847 38.0637 27.7247 38.3846L26.4841 40.2533C26.2199 40.1407 25.9661 40.0977 25.7225 40.1243C25.4847 40.1421 25.263 40.2209 25.0573 40.3605C24.8488 40.4856 24.6693 40.6614 24.5189 40.8879C24.3512 41.1405 24.2559 41.3974 24.2332 41.6585C24.2018 41.9138 24.2342 42.1675 24.3304 42.4196C24.4179 42.666 24.5648 42.9079 24.7712 43.1453C24.9834 43.374 25.2462 43.5925 25.5599 43.8007C26.0216 44.1073 26.4454 44.3008 26.8313 44.3812C27.2143 44.4472 27.5594 44.419 27.8666 44.2966C28.1708 44.1597 28.4242 43.9388 28.6266 43.6339C28.8059 43.3638 28.9156 43.104 28.9558 42.8545C28.993 42.5905 28.9664 42.3469 28.8761 42.1238C28.7828 41.8861 28.6403 41.6849 28.4486 41.5199L29.6892 39.6512C30.2062 40.0446 30.5697 40.5181 30.7795 41.0717C30.9894 41.6253 31.0471 42.2096 30.9526 42.8246C30.858 43.4396 30.6054 44.0564 30.1948 44.675Z" fill="white"/>
<path d="M35.2593 38.172C34.7705 38.7027 34.2861 38.9817 33.8062 39.0088C33.3186 39.0289 32.8017 38.7874 32.2556 38.2844L29.0019 35.2878L27.9817 36.3955L26.6203 35.1416L27.6404 34.034L25.9558 32.4825L27.3563 30.6377L29.2024 32.3379L30.3501 31.0918L31.7115 32.3457L30.5639 33.5918L33.5061 36.3014C33.6984 36.4786 33.8717 36.5528 34.0259 36.5243C34.1802 36.4957 34.3352 36.3969 34.4911 36.2276L35.1499 35.5123L36.5344 36.7874L35.2593 38.172Z" fill="white"/>
<path d="M44.2619 31.0599C43.3941 31.605 42.5529 31.9173 41.7383 31.9967C40.9327 32.0706 40.188 31.927 39.5044 31.5661C38.824 31.1908 38.2419 30.6179 37.758 29.8475L33.9868 23.8438L36.0456 22.5505L39.8085 28.541C40.081 28.9749 40.396 29.2895 40.7533 29.4849C41.1051 29.6715 41.4789 29.7455 41.8745 29.7069C42.2734 29.6539 42.6898 29.4911 43.1237 29.2185C43.5842 28.9293 43.9177 28.6149 44.1242 28.2752C44.334 27.9211 44.4224 27.5507 44.3894 27.1639C44.3597 26.7627 44.2141 26.354 43.9527 25.9378L40.1898 19.9474L42.2486 18.6541L46.0198 24.6579C46.5204 25.4549 46.7805 26.2424 46.8 27.0205C46.8195 27.7986 46.6138 28.5328 46.1831 29.2233C45.7524 29.9137 45.1119 30.5259 44.2619 31.0599Z" fill="white"/>
<path d="M53.3685 26.6604C52.8374 26.8522 52.3391 26.9654 51.8735 27.0001C51.4044 27.025 50.9766 26.9794 50.59 26.8633C50.2132 26.7436 49.8844 26.5566 49.6036 26.3022C49.3192 26.038 49.1028 25.7159 48.9544 25.3359L51.0937 24.5634C51.212 24.7986 51.3586 24.9736 51.5334 25.0884C51.7047 25.1933 51.9029 25.2496 52.128 25.2572C52.3595 25.2515 52.6079 25.2007 52.8735 25.1048C53.2768 24.9591 53.5501 24.777 53.6935 24.5585C53.8468 24.3364 53.8773 24.0974 53.7849 23.8417C53.7103 23.6352 53.6043 23.4956 53.4669 23.4229C53.3259 23.3404 53.1317 23.3105 52.8842 23.3331C52.6429 23.3424 52.3265 23.39 51.935 23.4757C51.2173 23.6126 50.6003 23.6742 50.0839 23.6606C49.5675 23.6469 49.1443 23.5218 48.8143 23.2852C48.4843 23.0486 48.2269 22.6745 48.0422 22.1631C47.8575 21.6516 47.8354 21.1593 47.9758 20.6861C48.1261 20.2094 48.4148 19.7771 48.8418 19.3895C49.2653 18.992 49.8114 18.6724 50.4802 18.4309C51.1195 18.2001 51.7125 18.1027 52.2592 18.1387C52.8122 18.1614 53.289 18.3117 53.6895 18.5895C54.0963 18.854 54.4032 19.2268 54.6103 19.7079L52.4711 20.4804C52.393 20.264 52.2767 20.1114 52.1223 20.0227C51.9743 19.9205 51.7993 19.8669 51.5974 19.862C51.4053 19.8535 51.1962 19.8901 50.97 19.9718C50.6257 20.0961 50.3769 20.2693 50.2237 20.4915C50.0767 20.7002 50.0494 20.9324 50.1417 21.1881C50.2092 21.375 50.3183 21.5079 50.4691 21.5869C50.6262 21.6525 50.8451 21.6735 51.1257 21.65C51.4063 21.6265 51.7637 21.5697 52.1982 21.4795C52.8793 21.3337 53.4632 21.2729 53.9501 21.2972C54.437 21.3215 54.8423 21.4587 55.166 21.7087C55.4862 21.9488 55.7404 22.3295 55.9287 22.8508C56.124 23.3918 56.1434 23.9073 55.9869 24.3974C55.8401 24.884 55.5417 25.3198 55.0914 25.7047C54.6412 26.0897 54.0669 26.4082 53.3685 26.6604Z" fill="white"/>
<path d="M61.8472 17.2616L61.7553 16.5301L61.8499 15.5223L61.1714 16.2873L60.5628 16.7274L59.9942 15.9768L60.5873 15.5387L61.5092 15.075L60.5032 14.8694L59.8201 14.5917L60.1853 13.7237L60.8839 13.9995L61.7287 14.5573L61.3876 13.6042L61.2956 12.8728L62.245 12.7534L62.3369 13.4849L62.2578 14.4908L62.9383 13.7413L63.547 13.3012L64.1 14.0538L63.5225 14.49L62.5986 14.9381L63.6066 15.1592L64.2896 15.437L63.9244 16.305L63.2258 16.0292L62.3791 15.4558L62.7046 16.4108L62.7966 17.1423L61.8472 17.2616Z" fill="white"/>
<defs>
<linearGradient id="paint0_linear_536_16242" x1="0" y1="70" x2="140" y2="70" gradientUnits="userSpaceOnUse">
<stop stop-color="#097C7D"/>
<stop offset="1" stop-color="#20282D"/>
</linearGradient>
<clipPath id="clip0_536_16242">
<rect width="30" height="30" fill="white" transform="translate(91 74) rotate(145)"/>
</clipPath>
</defs>
</svg>
