<svg width="150" height="150" viewBox="0 0 150 150" fill="none" xmlns="http://www.w3.org/2000/svg">
<circle cx="75" cy="75" r="72.5" fill="url(#paint0_linear_784_466)" stroke="#F5F5F5" stroke-width="5"/>
<path d="M80.7679 27.8003C80.0308 27.7062 79.3798 27.5039 78.8149 27.1934C78.2499 26.8829 77.7786 26.4794 77.401 25.983C77.0341 25.4785 76.7732 24.8968 76.6184 24.2381C76.4742 23.5712 76.4531 22.8437 76.5551 22.0557C76.6657 21.202 76.8916 20.4584 77.233 19.8248C77.5744 19.1913 78.0063 18.6742 78.5289 18.2736C79.0621 17.8648 79.6651 17.5842 80.3381 17.4317C81.0217 17.2709 81.7651 17.2418 82.5683 17.3443C83.466 17.4589 84.2456 17.7062 84.9072 18.0863C85.5701 18.4569 86.0848 18.9327 86.4515 19.5135C86.8288 20.0862 87.0173 20.7444 87.0171 21.4883L84.7775 21.2025C84.7161 20.8608 84.5783 20.5524 84.3642 20.2771C84.1513 19.9925 83.8691 19.761 83.5176 19.5826C83.1767 19.396 82.7748 19.2732 82.3118 19.2141C81.6503 19.1297 81.074 19.204 80.5827 19.4369C80.1022 19.6617 79.7104 20.017 79.4073 20.5028C79.1137 20.9899 78.922 21.5805 78.8321 22.2748C78.7617 22.8189 78.77 23.3111 78.8571 23.7513C78.9441 24.1916 79.0964 24.5734 79.3139 24.8968C79.5421 25.212 79.826 25.4676 80.1656 25.6635C80.5147 25.8606 80.916 25.9882 81.3696 26.046C81.9177 26.116 82.407 26.0831 82.8376 25.9473C83.2789 25.8033 83.6354 25.5723 83.9072 25.2541C84.1883 24.9371 84.3593 24.5441 84.42 24.075L84.4765 23.6388L84.8773 24.1048L81.4896 23.6724L81.6955 22.0823L86.9825 22.757L86.2555 28.3718L84.4979 28.1475L84.594 26.5147L84.509 26.5039C84.3034 26.8305 84.0088 27.1028 83.6252 27.3209C83.2415 27.539 82.8038 27.6929 82.3118 27.7827C81.8212 27.8631 81.3065 27.869 80.7679 27.8003Z" fill="white"/>
<path d="M91.419 30.3198C90.6645 30.055 90.0762 29.6781 89.6542 29.1889C89.2412 28.7028 88.9938 28.1345 88.9122 27.4838C88.8306 26.8332 88.92 26.1423 89.1804 25.411C89.4566 24.6351 89.834 24.0151 90.3125 23.551C90.7999 23.0901 91.3537 22.7978 91.9736 22.6743C92.6057 22.545 93.2766 22.6048 93.9862 22.8539C94.8126 23.1439 95.4228 23.5587 95.8168 24.0982C96.2198 24.6409 96.4269 25.2654 96.4382 25.9716C96.4495 26.6778 96.2718 27.418 95.9052 28.1923L90.9873 26.4664C90.8476 26.8588 90.7914 27.2153 90.8187 27.5359C90.8582 27.8507 90.9754 28.1176 91.1703 28.3364C91.3652 28.5553 91.6243 28.7215 91.9477 28.835C92.325 28.9674 92.6574 28.9988 92.9449 28.9291C93.2324 28.8595 93.461 28.714 93.6308 28.4926L95.5037 29.1499C95.2635 29.5973 94.9333 29.9429 94.5131 30.1867C94.096 30.4216 93.619 30.5551 93.082 30.5874C92.5572 30.6139 92.0029 30.5247 91.419 30.3198ZM91.354 25.4364L91.2455 25.1876L94.587 26.3603L94.3317 26.4814C94.483 26.1131 94.5371 25.791 94.4939 25.515C94.4628 25.2332 94.3573 24.9905 94.1771 24.7869C94.006 24.5864 93.7677 24.4325 93.4623 24.3253C93.1569 24.2182 92.8636 24.1905 92.5825 24.2423C92.3134 24.2883 92.0716 24.4141 91.857 24.6197C91.6544 24.8195 91.4868 25.0917 91.354 25.4364Z" fill="white"/>
<path d="M98.0871 33.1432C97.5037 32.8424 97.1428 32.4858 97.0043 32.0733C96.8702 31.6524 96.959 31.144 97.2708 30.548L99.1282 26.9973L97.9106 26.3695L98.6879 24.8837L99.9054 25.5115L100.867 23.6732L102.824 24.4582L101.77 26.4728L103.139 27.179L102.362 28.6648L100.992 27.9585L99.3129 31.1693C99.2032 31.3792 99.1792 31.548 99.2412 31.6759C99.3031 31.8037 99.4271 31.9156 99.6131 32.0115L100.399 32.417L99.609 33.9279L98.0871 33.1432Z" fill="white"/>
<path d="M103.287 36.4111L109.549 28.1445L111.331 29.4748L105.069 37.7414L103.287 36.4111Z" fill="white"/>
<path d="M106.344 38.6615L111.711 33.236L113.149 34.6378L112.239 35.6793L112.3 35.739C112.81 35.5204 113.308 35.4758 113.794 35.6052C114.287 35.7279 114.727 35.9781 115.115 36.3559C115.387 36.621 115.595 36.9101 115.739 37.2232C115.897 37.5362 115.974 37.8632 115.97 38.2044C115.974 38.5522 115.879 38.9175 115.687 39.3005C115.509 39.6833 115.219 40.0772 114.819 40.4821L111.574 43.7617L110.076 42.3003L113 39.3445C113.3 39.0409 113.513 38.7514 113.638 38.476C113.771 38.2073 113.809 37.9528 113.753 37.7125C113.703 37.4655 113.556 37.2226 113.312 36.984C113.053 36.7322 112.776 36.5808 112.479 36.53C112.182 36.4791 111.889 36.5051 111.6 36.608C111.312 36.7109 111.054 36.8771 110.827 37.1065L107.843 40.123L106.344 38.6615Z" fill="white"/>
<path d="M115.896 49.8457L123.295 45.2964L124.469 47.1782L117.07 51.7274L115.896 49.8457ZM121.496 42.8151L123.136 41.8066L127.575 48.9234L125.935 49.9319L121.496 42.8151Z" fill="white"/>
<path d="M119.56 57.2764C119.342 56.7413 119.226 56.227 119.21 55.7335C119.203 55.2364 119.295 54.7663 119.485 54.3231C119.674 53.88 119.961 53.4848 120.344 53.1377C120.735 52.787 121.218 52.4967 121.793 52.2666C122.526 51.9729 123.224 51.8567 123.885 51.918C124.556 51.9758 125.153 52.2059 125.676 52.6084C126.199 53.0108 126.612 53.5848 126.915 54.3305C127.129 54.8568 127.239 55.3684 127.246 55.8655C127.253 56.3626 127.16 56.8283 126.966 57.2627C126.777 57.7059 126.49 58.101 126.107 58.4482C125.728 58.8041 125.247 59.0988 124.664 59.3323C123.939 59.6225 123.242 59.7387 122.571 59.681C121.909 59.6197 121.317 59.3878 120.794 58.9853C120.274 58.5916 119.863 58.022 119.56 57.2764ZM121.132 56.6316C121.26 56.9474 121.447 57.1936 121.694 57.3703C121.953 57.5522 122.262 57.6426 122.621 57.6416C122.983 57.6493 123.399 57.5594 123.867 57.3718C124.221 57.2303 124.511 57.0731 124.739 56.9003C124.975 56.724 125.153 56.5303 125.273 56.3191C125.393 56.108 125.453 55.89 125.454 55.6652C125.464 55.4369 125.421 55.2042 125.325 54.9674C125.197 54.6516 125.007 54.401 124.757 54.2155C124.511 54.0389 124.206 53.9467 123.844 53.9389C123.481 53.9312 123.061 54.0229 122.584 54.214C122.231 54.3555 121.936 54.5145 121.699 54.6908C121.475 54.8724 121.303 55.0687 121.183 55.2798C121.072 55.4874 121.012 55.7054 121.002 55.9338C120.992 56.1621 121.035 56.3947 121.132 56.6316Z" fill="white"/>
<path d="M121.956 65.0132C121.844 64.4472 121.86 63.9427 122.005 63.4997C122.15 63.0566 122.421 62.69 122.82 62.3996C123.228 62.1074 123.75 61.899 124.385 61.7743L129.068 60.8555L129.475 62.9015L125.339 63.7131C124.947 63.7901 124.624 63.9016 124.372 64.0476C124.121 64.2028 123.941 64.3972 123.832 64.6307C123.735 64.8716 123.719 65.1591 123.785 65.4932C123.854 65.8365 123.996 66.1123 124.212 66.3205C124.429 66.5288 124.685 66.6713 124.982 66.748C125.288 66.8229 125.605 66.8282 125.932 66.764L130.082 65.9498L130.489 67.9958L122.975 69.4703L122.584 67.5078L123.941 67.1547L123.925 67.0712C123.402 66.9809 122.967 66.7481 122.62 66.3726C122.285 66.0046 122.064 65.5514 121.956 65.0132Z" fill="white"/>
<path d="M123.019 74.5678C123.01 74.0003 123.093 73.4835 123.267 73.0173C123.45 72.5509 123.715 72.1448 124.062 71.7989C124.409 71.4624 124.825 71.2006 125.308 71.0134C125.791 70.8357 126.328 70.7423 126.918 70.7332C127.518 70.7239 128.063 70.8054 128.551 70.9776C129.05 71.1496 129.473 71.3985 129.821 71.7242C130.179 72.0593 130.452 72.4618 130.64 72.9319C130.838 73.4019 130.942 73.93 130.951 74.5164C130.961 75.1595 130.846 75.7336 130.606 76.2387C130.376 76.753 130.044 77.1649 129.611 77.4743C129.187 77.7836 128.689 77.9568 128.118 77.994L128.086 75.9654C128.343 75.9141 128.556 75.8162 128.725 75.6717C128.894 75.5367 129.02 75.3644 129.103 75.155C129.195 74.955 129.239 74.732 129.235 74.4861C129.231 74.2118 129.17 73.9715 129.052 73.7652C128.944 73.5588 128.789 73.3862 128.587 73.2474C128.394 73.1085 128.159 73.0033 127.882 72.9319C127.604 72.87 127.294 72.8416 126.951 72.8469C126.446 72.8547 126.028 72.9274 125.697 73.0649C125.375 73.2118 125.131 73.4095 124.963 73.658C124.805 73.9159 124.729 74.2103 124.734 74.5413C124.739 74.8345 124.79 75.0844 124.889 75.291C124.997 75.5069 125.142 75.6749 125.325 75.7951C125.518 75.9246 125.729 76.0017 125.958 76.0266L125.989 78.0552C125.398 78.0265 124.881 77.8595 124.438 77.5541C123.995 77.2488 123.65 76.8426 123.404 76.3356C123.158 75.8285 123.03 75.2393 123.019 74.5678Z" fill="white"/>
<path d="M123.056 79.6025L133.333 81.293L132.99 83.3506L128.902 82.6781L128.888 82.7621C129.361 83.0508 129.684 83.43 129.857 83.8994C130.039 84.3704 130.085 84.8718 129.997 85.4037C129.934 85.777 129.816 86.1122 129.641 86.4094C129.473 86.7174 129.248 86.968 128.965 87.1611C128.68 87.3635 128.324 87.4968 127.898 87.561C127.48 87.636 126.989 87.6272 126.425 87.5344L121.857 86.7831L122.201 84.7255L126.318 85.4026C126.74 85.4722 127.101 85.4788 127.401 85.4226C127.698 85.3756 127.93 85.2603 128.096 85.0767C128.271 84.8946 128.387 84.6356 128.443 84.2996C128.502 83.945 128.467 83.6325 128.338 83.3621C128.21 83.0916 128.02 82.8687 127.769 82.6932C127.518 82.5177 127.233 82.4037 126.914 82.3511L122.712 81.6601L123.056 79.6025Z" fill="white"/>
<path d="M125.886 94.5726L126.51 94.8185L127.273 95.3327L126.96 94.4615L126.876 93.7873L127.725 93.6636L127.814 94.3247L127.78 95.2575L128.386 94.5497L128.907 94.1293L129.44 94.7969L128.913 95.2305L128.097 95.657L129.008 95.802L129.632 96.0479L129.311 96.8524L128.686 96.6065L127.918 96.1054L128.218 96.9714L128.302 97.6456L127.458 97.756L127.363 97.1082L127.411 96.1806L126.792 96.8832L126.271 97.3036L125.738 96.6359L126.265 96.2024L127.094 95.7811L126.189 95.6229L125.564 95.3771L125.886 94.5726Z" fill="white"/>
<path d="M114.259 102.51C114.694 101.912 115.184 101.441 115.728 101.096C116.272 100.751 116.855 100.533 117.474 100.44C118.096 100.361 118.735 100.411 119.392 100.59C120.051 100.783 120.705 101.112 121.354 101.577C122.057 102.081 122.607 102.633 123.005 103.233C123.403 103.833 123.654 104.457 123.76 105.104C123.867 105.764 123.828 106.424 123.641 107.084C123.457 107.757 123.128 108.42 122.654 109.071C122.124 109.8 121.533 110.362 120.881 110.758C120.237 111.159 119.57 111.381 118.881 111.424C118.194 111.48 117.521 111.33 116.863 110.975L118.185 109.157C118.517 109.267 118.855 109.294 119.201 109.239C119.555 109.189 119.894 109.053 120.22 108.831C120.548 108.623 120.848 108.331 121.122 107.955C121.512 107.418 121.721 106.88 121.75 106.34C121.78 105.814 121.653 105.302 121.367 104.806C121.076 104.318 120.645 103.868 120.073 103.459C119.625 103.138 119.186 102.91 118.755 102.776C118.323 102.642 117.913 102.592 117.523 102.628C117.135 102.676 116.773 102.802 116.437 103.005C116.096 103.215 115.792 103.504 115.524 103.873C115.201 104.317 114.996 104.76 114.911 105.2C114.828 105.654 114.862 106.075 115.014 106.464C115.16 106.861 115.427 107.198 115.813 107.475L116.172 107.732L115.568 107.859L117.568 105.11L118.877 106.049L115.757 110.339L111.134 107.025L112.171 105.599L113.57 106.462L113.621 106.393C113.43 106.058 113.329 105.671 113.319 105.232C113.309 104.793 113.382 104.338 113.537 103.866C113.7 103.399 113.941 102.947 114.259 102.51Z" fill="white"/>
<path d="M106.945 110.612C107.538 110.079 108.152 109.744 108.786 109.608C109.413 109.478 110.035 109.533 110.65 109.771C111.265 110.009 111.835 110.415 112.359 110.99C112.915 111.601 113.285 112.225 113.469 112.864C113.646 113.508 113.642 114.131 113.456 114.731C113.27 115.345 112.898 115.902 112.34 116.404C111.69 116.988 111.033 117.323 110.367 117.411C109.695 117.505 109.043 117.389 108.412 117.063C107.781 116.737 107.209 116.23 106.697 115.542L110.565 112.067C110.284 111.758 109.995 111.54 109.697 111.411C109.4 111.296 109.108 111.271 108.821 111.338C108.534 111.404 108.264 111.551 108.01 111.78C107.713 112.046 107.527 112.322 107.452 112.606C107.377 112.89 107.397 113.159 107.513 113.412L106.04 114.736C105.758 114.313 105.608 113.861 105.592 113.378C105.582 112.902 105.691 112.421 105.917 111.937C106.143 111.466 106.486 111.024 106.945 110.612ZM111.303 112.877L111.575 112.9L108.948 115.261L108.962 114.981C109.216 115.288 109.476 115.488 109.741 115.582C110.005 115.689 110.271 115.712 110.537 115.651C110.796 115.597 111.045 115.462 111.285 115.247C111.526 115.031 111.69 114.788 111.777 114.518C111.865 114.261 111.868 113.99 111.788 113.704C111.707 113.433 111.546 113.157 111.303 112.877Z" fill="white"/>
<path d="M101.271 115.106C101.814 114.738 102.302 114.592 102.733 114.667C103.17 114.749 103.579 115.068 103.959 115.623L106.226 118.931L107.361 118.165L108.309 119.549L107.175 120.315L108.349 122.028L106.725 123.365L105.438 121.489L104.162 122.351L103.214 120.967L104.49 120.105L102.439 117.113C102.305 116.918 102.167 116.817 102.024 116.81C101.882 116.804 101.724 116.859 101.55 116.976L100.818 117.471L99.853 116.064L101.271 115.106Z" fill="white"/>
<path d="M95.9039 118.1L100.26 127.496L98.2346 128.422L93.8788 119.026L95.9039 118.1Z" fill="white"/>
<path d="M92.4707 119.699L94.7226 126.968L92.7967 127.556L92.3072 126.266L92.2252 126.291C92.1761 126.84 91.9786 127.296 91.6325 127.659C91.2892 128.031 90.8581 128.296 90.339 128.455C89.9748 128.566 89.6197 128.61 89.2736 128.587C88.9213 128.576 88.5949 128.488 88.2944 128.322C87.9848 128.16 87.7061 127.903 87.4581 127.553C87.2039 127.215 86.9928 126.775 86.8247 126.233L85.4634 121.839L87.4714 121.226L88.6982 125.186C88.8242 125.593 88.9793 125.916 89.1635 126.157C89.3386 126.4 89.546 126.555 89.7855 126.62C90.0279 126.695 90.3129 126.682 90.6408 126.582C90.9868 126.476 91.253 126.306 91.4393 126.071C91.6257 125.835 91.742 125.567 91.7882 125.266C91.8345 124.965 91.81 124.661 91.7148 124.354L90.4627 120.312L92.4707 119.699Z" fill="white"/>
<path d="M78.0125 122.705L78.5081 131.331L76.2824 131.457L75.7868 122.831L78.0125 122.705ZM81.5635 130.945L81.6733 132.857L73.2554 133.334L73.1456 131.422L81.5635 130.945Z" fill="white"/>
<path d="M69.6062 122.355C70.1836 122.42 70.6946 122.563 71.1391 122.784C71.5825 123.015 71.9553 123.319 72.2574 123.696C72.5595 124.073 72.773 124.511 72.898 125.01C73.022 125.519 73.049 126.079 72.9791 126.69C72.8899 127.47 72.6605 128.135 72.2909 128.683C71.9202 129.241 71.4321 129.653 70.8265 129.917C70.2209 130.182 69.5157 130.269 68.7111 130.179C68.1431 130.115 67.6374 129.967 67.194 129.736C66.7506 129.505 66.3825 129.202 66.0899 128.826C65.7878 128.45 65.5743 128.011 65.4493 127.512C65.3148 127.011 65.283 126.451 65.354 125.83C65.4421 125.06 65.6715 124.395 66.0422 123.838C66.4118 123.289 66.8994 122.882 67.505 122.617C68.1012 122.351 68.8016 122.264 69.6062 122.355ZM69.4285 124.034C69.0877 123.995 68.7804 124.042 68.5065 124.173C68.2221 124.312 67.9948 124.538 67.8246 124.852C67.645 125.165 67.5267 125.571 67.4697 126.069C67.4267 126.445 67.4275 126.773 67.472 127.055C67.5155 127.345 67.6022 127.593 67.7322 127.798C67.8621 128.003 68.0264 128.159 68.225 128.268C68.4225 128.385 68.649 128.458 68.9046 128.487C69.2454 128.525 69.5575 128.48 69.8408 128.35C70.1147 128.219 70.3414 127.997 70.5211 127.684C70.7007 127.371 70.8195 126.961 70.8776 126.453C70.9206 126.077 70.9204 125.744 70.8769 125.454C70.8229 125.172 70.7309 124.928 70.6009 124.723C70.4699 124.527 70.3056 124.371 70.1081 124.253C69.9106 124.136 69.6841 124.063 69.4285 124.034Z" fill="white"/>
<path d="M61.6328 120.771C62.1879 120.942 62.6273 121.196 62.9509 121.533C63.2746 121.87 63.4702 122.282 63.5379 122.768C63.6027 123.263 63.5392 123.818 63.3475 124.433L61.9346 128.959L59.928 128.342L61.1759 124.344C61.2943 123.964 61.3489 123.63 61.3397 123.339C61.3214 123.047 61.2347 122.797 61.0796 122.591C60.9126 122.391 60.6653 122.241 60.3377 122.14C60.001 122.036 59.689 122.03 59.4016 122.119C59.1142 122.209 58.8659 122.365 58.6568 122.588C58.4447 122.82 58.2894 123.094 58.1907 123.41L56.9385 127.422L54.9319 126.804L57.1993 119.54L59.124 120.133L58.7914 121.486L58.8733 121.511C59.2019 121.097 59.615 120.828 60.1126 120.704C60.5983 120.586 61.105 120.608 61.6328 120.771Z" fill="white"/>
<path d="M52.6652 117.15C53.1717 117.413 53.5899 117.732 53.9197 118.106C54.245 118.488 54.478 118.913 54.6186 119.381C54.7507 119.845 54.7843 120.332 54.7196 120.843C54.6463 121.349 54.4729 121.862 54.1991 122.382C53.9209 122.91 53.5891 123.346 53.2035 123.69C52.8135 124.043 52.3913 124.293 51.9368 124.441C51.4695 124.594 50.9829 124.64 50.4769 124.58C49.9665 124.528 49.4495 124.367 48.9261 124.095C48.352 123.797 47.8987 123.423 47.566 122.973C47.2205 122.526 47.0142 122.04 46.9472 121.514C46.8757 120.997 46.9598 120.48 47.1994 119.964L49.0103 120.904C48.9333 121.153 48.9183 121.385 48.9655 121.602C49.0042 121.814 49.0966 122.006 49.2426 122.178C49.3757 122.354 49.552 122.499 49.7715 122.613C50.0163 122.74 50.2581 122.801 50.4968 122.797C50.7311 122.801 50.958 122.748 51.1773 122.638C51.3923 122.536 51.5975 122.381 51.7931 122.173C51.9802 121.961 52.1533 121.704 52.3122 121.402C52.5463 120.958 52.6814 120.558 52.7178 120.204C52.7413 119.853 52.683 119.545 52.543 119.28C52.3901 119.019 52.1659 118.812 51.8704 118.659C51.6087 118.523 51.3629 118.449 51.133 118.436C50.8903 118.428 50.6721 118.474 50.4785 118.577C50.272 118.683 50.1031 118.83 49.9718 119.018L48.1609 118.078C48.4684 117.576 48.863 117.204 49.3447 116.963C49.8264 116.722 50.3504 116.615 50.9167 116.643C51.483 116.67 52.0658 116.839 52.6652 117.15Z" fill="white"/>
<path d="M48.2354 114.804L41.8325 122.963L40.1754 121.681L42.7225 118.435L42.6548 118.383C42.1733 118.658 41.6835 118.759 41.1856 118.685C40.6818 118.619 40.2157 118.421 39.7873 118.089C39.4867 117.857 39.2467 117.593 39.0673 117.299C38.8745 117.006 38.7603 116.69 38.7246 116.35C38.6815 116.005 38.7332 115.631 38.8797 115.229C39.0129 114.829 39.2552 114.404 39.6065 113.957L42.4522 110.33L44.1094 111.612L41.5447 114.88C41.2812 115.216 41.103 115.528 41.01 115.816C40.9095 116.098 40.9009 116.355 40.9843 116.587C41.0618 116.827 41.2358 117.052 41.5064 117.261C41.792 117.482 42.0852 117.601 42.386 117.618C42.6868 117.634 42.9747 117.575 43.2497 117.44C43.5247 117.305 43.7618 117.111 43.9609 116.857L46.5782 113.522L48.2354 114.804Z" fill="white"/>
<path d="M33.6362 110.144L33.1216 110.573L32.3032 110.995L33.224 111.136L33.8616 111.383L33.5678 112.183L32.9394 111.947L32.1291 111.474L32.4686 112.339L32.5933 112.994L31.7484 113.142L31.6145 112.476L31.6244 111.561L31.0631 112.287L30.5485 112.716L29.9883 112.053L30.5029 111.624L31.3121 111.191L30.4022 111.041L29.7647 110.795L30.0677 110.005L30.6869 110.23L31.4862 110.713L31.1577 109.838L31.0329 109.183L31.8778 109.035L32.0117 109.701L31.9909 110.626L32.5613 109.91L33.0759 109.481L33.6362 110.144Z" fill="white"/>
<path d="M32.1208 96.2206C32.4447 96.8846 32.6303 97.5363 32.6775 98.1757C32.7247 98.8151 32.6423 99.4275 32.4303 100.013C32.2055 100.594 31.8578 101.129 31.3871 101.618C30.9037 102.102 30.3018 102.518 29.5815 102.864C28.8012 103.239 28.0506 103.458 27.3297 103.521C26.6087 103.584 25.9365 103.508 25.3128 103.293C24.6765 103.073 24.11 102.725 23.6132 102.25C23.1038 101.769 22.6726 101.167 22.3197 100.444C21.9252 99.635 21.7073 98.8518 21.6658 98.094C21.6158 97.3404 21.7354 96.6523 22.0246 96.0299C22.301 95.403 22.7529 94.8863 23.3803 94.4796L24.3643 96.4972C24.1099 96.7351 23.9252 97.0183 23.8102 97.3469C23.6866 97.6795 23.6458 98.0407 23.6877 98.4304C23.7168 98.8158 23.8331 99.217 24.0366 99.6341C24.3272 100.23 24.7051 100.668 25.1702 100.949C25.6226 101.226 26.1365 101.357 26.712 101.343C27.2832 101.321 27.8861 101.157 28.5207 100.852C29.018 100.613 29.4285 100.337 29.7521 100.023C30.0756 99.7103 30.3143 99.3748 30.468 99.0172C30.609 98.6552 30.6692 98.2794 30.6486 97.89C30.6239 97.492 30.5118 97.0887 30.3125 96.6801C30.0717 96.1863 29.7763 95.7976 29.4262 95.514C29.0635 95.226 28.6736 95.0561 28.2567 95.0043C27.8356 94.944 27.4107 95.0169 26.982 95.223L26.5833 95.4147L26.757 94.8267L28.2455 97.8787L26.7921 98.5774L24.4689 93.8143L29.601 91.3471L30.3733 92.9306L28.9439 93.7438L28.9813 93.8204C29.3692 93.8126 29.76 93.9085 30.1537 94.1081C30.5474 94.3076 30.9167 94.5873 31.2615 94.947C31.5977 95.3108 31.8842 95.7353 32.1208 96.2206Z" fill="white"/>
<path d="M28.4189 85.9755C28.6079 86.7475 28.6115 87.4427 28.4295 88.0609C28.2453 88.6699 27.9011 89.1862 27.3969 89.6097C26.8927 90.0331 26.261 90.3365 25.5019 90.5197C24.6965 90.7141 23.9673 90.7392 23.3143 90.595C22.659 90.4417 22.1099 90.1411 21.6668 89.6932C21.2123 89.2383 20.8961 88.6478 20.7183 87.9217C20.5113 87.0761 20.5276 86.3421 20.7674 85.7197C21.0049 85.088 21.4184 84.5745 22.0079 84.1791C22.5974 83.7838 23.3189 83.5269 24.1724 83.4085L25.4046 88.4406C25.8119 88.3423 26.1433 88.1941 26.3988 87.9962C26.6428 87.7913 26.8038 87.548 26.8819 87.2663C26.96 86.9847 26.9585 86.6784 26.8775 86.3475C26.783 85.9615 26.6278 85.668 26.4119 85.467C26.196 85.266 25.9483 85.1555 25.6688 85.1353L25.1996 83.219C25.7082 83.1741 26.1802 83.2597 26.6155 83.4759C27.0416 83.6943 27.415 84.0179 27.7357 84.4466C28.0449 84.8684 28.2726 85.3781 28.4189 85.9755ZM24.3353 88.6987L24.1848 88.9248L23.3476 85.5057L23.5892 85.6518C23.1959 85.7273 22.8947 85.8584 22.6855 86.0452C22.4648 86.225 22.3178 86.4454 22.2444 86.7065C22.1688 86.9584 22.1693 87.2405 22.2458 87.553C22.3223 87.8655 22.4593 88.1245 22.6567 88.3299C22.8425 88.5284 23.0808 88.6607 23.3716 88.7269C23.6508 88.786 23.972 88.7766 24.3353 88.6987Z" fill="white"/>
<path d="M27.1552 78.9105C27.2209 79.5599 27.1178 80.055 26.8458 80.3958C26.5644 80.7376 26.0872 80.942 25.4141 81.0091L21.4043 81.4089L21.5414 82.7641L19.8635 82.9314L19.7264 81.5761L17.6504 81.7831L17.2414 79.7278L19.5165 79.5009L19.3623 77.9763L21.0402 77.809L21.1944 79.3337L24.8203 78.9722C25.0573 78.9485 25.2127 78.876 25.2866 78.7546C25.3605 78.6331 25.387 78.4689 25.3661 78.2618L25.2775 77.3866L26.9839 77.2164L27.1552 78.9105Z" fill="white"/>
<path d="M27.0626 72.7059L16.667 72.0273L16.8132 69.8188L27.2088 70.4973L27.0626 72.7059Z" fill="white"/>
<path d="M27.2805 68.967L19.769 67.477L20.1638 65.5153L21.54 65.7014L21.5568 65.618C21.0934 65.3138 20.7831 64.9243 20.6261 64.4495C20.4597 63.9728 20.4297 63.4701 20.5361 62.9414C20.6108 62.5704 20.7406 62.2392 20.9255 61.948C21.1029 61.6456 21.3364 61.4025 21.626 61.2188C21.9174 61.0258 22.2771 60.9043 22.705 60.8541C23.1253 60.7928 23.6158 60.8177 24.1764 60.9289L28.7169 61.8296L28.3053 63.8748L24.2132 63.0631C23.7928 62.9797 23.4322 62.9612 23.1314 63.0077C22.8324 63.0448 22.597 63.1525 22.4252 63.3306C22.244 63.5068 22.1198 63.7619 22.0526 64.0958C21.9816 64.4483 22.006 64.7618 22.1256 65.0363C22.2452 65.3108 22.4275 65.5399 22.6723 65.7235C22.9171 65.9071 23.1983 66.0304 23.5159 66.0934L27.6921 66.9218L27.2805 68.967Z" fill="white"/>
<path d="M31.511 54.8679L23.6842 51.0892L24.6592 49.0987L32.486 52.8774L31.511 54.8679ZM22.5333 53.9255L20.7983 53.0879L24.4857 45.5598L26.2207 46.3975L22.5333 53.9255Z" fill="white"/>
<path d="M37.3707 45.6741C36.8861 46.2825 36.3524 46.7619 35.7696 47.1123C35.1869 47.4627 34.5714 47.6789 33.9231 47.7608C33.2807 47.8353 32.6249 47.7666 31.9556 47.5547C31.2789 47.3369 30.6079 46.9669 29.9428 46.4447C29.2777 45.9226 28.7642 45.3626 28.4022 44.7649C28.0402 44.1672 27.8217 43.5494 27.7467 42.9117C27.6775 42.2665 27.7475 41.6221 27.9567 40.9783C28.1658 40.3345 28.5126 39.7085 28.9972 39.1001C29.4877 38.4843 30.0243 38.0012 30.6071 37.6508C31.1958 37.293 31.8113 37.0768 32.4537 37.0023C33.1019 36.9204 33.7607 36.9854 34.43 37.1973C35.0993 37.4092 35.7665 37.7763 36.4316 38.2984C37.0967 38.8206 37.6139 39.3835 37.9834 39.9871C38.3454 40.5848 38.5609 41.2063 38.6301 41.8514C38.6992 42.4966 38.6292 43.141 38.4201 43.7848C38.211 44.4286 37.8612 45.0584 37.3707 45.6741ZM35.8798 44.5037C36.258 44.0288 36.4822 43.5416 36.5522 43.0419C36.6223 42.5422 36.5332 42.0441 36.2848 41.5477C36.035 41.038 35.6111 40.5484 35.0133 40.0791C34.5649 39.727 34.132 39.4776 33.7145 39.3307C33.2896 39.178 32.8852 39.1138 32.5015 39.1381C32.1162 39.1491 31.7523 39.2553 31.4097 39.4566C31.073 39.6506 30.7658 39.9219 30.4881 40.2706C30.1217 40.7306 29.9034 41.2104 29.8334 41.7101C29.7558 42.2039 29.842 42.7057 30.0919 43.2154C30.3402 43.7119 30.7633 44.1948 31.3611 44.6641C31.8095 45.0162 32.2469 45.2752 32.6734 45.4412C33.0984 45.5939 33.5027 45.6581 33.8865 45.6338C34.2702 45.6095 34.6274 45.5041 34.9582 45.3176C35.2949 45.1237 35.6021 44.8524 35.8798 44.5037Z" fill="white"/>
<path d="M44.2512 38.6086C43.8002 38.9724 43.3436 39.1945 42.8814 39.2748C42.4193 39.3551 41.9657 39.2884 41.5207 39.0746C41.0696 38.8535 40.6398 38.4933 40.2312 37.9941L37.2212 34.3164L38.8516 33.0012L41.5101 36.2495C41.7625 36.5578 42.0127 36.7885 42.2609 36.9418C42.5165 37.089 42.7737 37.1558 43.0325 37.142C43.2927 37.1149 43.5558 36.994 43.822 36.7793C44.0956 36.5586 44.2744 36.3046 44.3585 36.0174C44.4426 35.7302 44.4493 35.4384 44.3786 35.142C44.3019 34.8383 44.1584 34.5579 43.9481 34.301L41.2805 31.0417L42.9109 29.7264L47.7414 35.6284L46.1775 36.89L45.2278 35.8646L45.1613 35.9183C45.3258 36.4193 45.3221 36.9098 45.1502 37.3897C44.9797 37.8563 44.68 38.2626 44.2512 38.6086Z" fill="white"/>
<path d="M52.256 33.2016C51.755 33.4749 51.2563 33.6443 50.76 33.71C50.2591 33.7673 49.7735 33.7246 49.3032 33.5818C48.8412 33.4345 48.4139 33.1927 48.0213 32.8564C47.637 32.5156 47.3027 32.0882 47.0183 31.5742C46.7293 31.0519 46.5472 30.5361 46.4719 30.0268C46.392 29.5092 46.4156 29.0214 46.5428 28.5636C46.6736 28.0929 46.9043 27.6649 47.2346 27.2797C47.5604 26.8862 47.9821 26.5483 48.4998 26.2659C49.0677 25.9562 49.6325 25.7885 50.1943 25.7627C50.7599 25.724 51.2818 25.8225 51.76 26.0581C52.2336 26.2854 52.6206 26.6409 52.9209 27.1247L51.1298 28.1015C50.9641 27.9005 50.7774 27.7595 50.5696 27.6786C50.3701 27.5931 50.1579 27.5632 49.9329 27.5888C49.7117 27.6015 49.4925 27.6671 49.2754 27.7855C49.0333 27.9175 48.8479 28.0834 48.7192 28.2831C48.586 28.4745 48.5049 28.6914 48.4759 28.9338C48.4424 29.1679 48.4588 29.4234 48.525 29.7002C48.5996 29.9725 48.7194 30.2579 48.8846 30.5563C49.1277 30.9957 49.388 31.3286 49.6654 31.555C49.9467 31.7685 50.2371 31.8907 50.5368 31.9215C50.8402 31.9395 51.1381 31.8688 51.4303 31.7094C51.6892 31.5682 51.8875 31.4061 52.0254 31.223C52.167 31.0271 52.2485 30.8207 52.2699 30.604C52.295 30.3745 52.2651 30.1534 52.18 29.9407L53.9712 28.9639C54.2222 29.4961 54.3154 30.028 54.2508 30.5596C54.1863 31.0913 53.9859 31.5837 53.6497 32.0369C53.3134 32.49 52.8489 32.8783 52.256 33.2016Z" fill="white"/>
<path d="M56.678 30.8375L53.3887 21.0234L55.382 20.3649L56.6905 24.269L56.7718 24.2421C56.8083 23.6918 56.9953 23.2313 57.3329 22.8605C57.6676 22.4808 58.0925 22.2059 58.6078 22.0357C58.9694 21.9162 59.3234 21.864 59.6699 21.8792C60.0224 21.8824 60.3507 21.9633 60.6549 22.122C60.9682 22.2777 61.2527 22.5276 61.5086 22.8717C61.7706 23.2038 61.9918 23.6392 62.1723 24.1777L63.6342 28.5394L61.6409 29.1979L60.3233 25.2669C60.188 24.8631 60.0255 24.5429 59.8358 24.3065C59.6551 24.0672 59.4443 23.9175 59.2033 23.8576C58.9593 23.7886 58.6746 23.8079 58.3492 23.9154C58.0057 24.0289 57.7435 24.2053 57.5626 24.4444C57.3817 24.6836 57.2716 24.9543 57.2322 25.2564C57.1929 25.5584 57.2244 25.8621 57.3267 26.1672L58.6713 30.179L56.678 30.8375Z" fill="white"/>
<path d="M68.686 21.3683L68.6134 20.7054L68.7151 19.7953L68.0853 20.4769L67.5241 20.8657L67.0176 20.1782L67.5646 19.791L68.4115 19.3856L67.4982 19.1844L66.8802 18.9229L67.2262 18.1434L67.8584 18.4035L68.6194 18.9208L68.3232 18.0536L68.2506 17.3907L69.1173 17.2972L69.1898 17.9601L69.1024 18.8687L69.7337 18.2011L70.2949 17.8124L70.7872 18.5014L70.2544 18.8871L69.406 19.2783L70.3208 19.4936L70.9388 19.7552L70.5929 20.5346L69.9607 20.2746L69.1981 19.7432L69.4801 20.6119L69.5526 21.2748L68.686 21.3683Z" fill="white"/>
<mask id="mask0_784_466" style="mask-type:luminance" maskUnits="userSpaceOnUse" x="45" y="45" width="60" height="60">
<path d="M75.0002 104.167C91.1085 104.167 104.167 91.109 104.167 75.0007C104.167 58.8924 91.1085 45.834 75.0002 45.834C58.8919 45.834 45.8335 58.8924 45.8335 75.0007C45.8335 91.109 58.8919 104.167 75.0002 104.167Z" fill="white"/>
</mask>
<g mask="url(#mask0_784_466)">
<path d="M75.0002 104.167C91.1085 104.167 104.167 91.109 104.167 75.0007C104.167 58.8924 91.1085 45.834 75.0002 45.834C58.8919 45.834 45.8335 58.8924 45.8335 75.0007C45.8335 91.109 58.8919 104.167 75.0002 104.167Z" fill="white"/>
</g>
<mask id="mask1_784_466" style="mask-type:luminance" maskUnits="userSpaceOnUse" x="45" y="45" width="60" height="60">
<path d="M75.0002 104.167C91.1085 104.167 104.167 91.109 104.167 75.0007C104.167 58.8924 91.1085 45.834 75.0002 45.834C58.8919 45.834 45.8335 58.8924 45.8335 75.0007C45.8335 91.109 58.8919 104.167 75.0002 104.167Z" fill="white"/>
</mask>
<g mask="url(#mask1_784_466)">
<path d="M61.789 120.918L56.1826 117.702L80.2341 75.7852L83.7318 82.6746L61.789 120.918Z" fill="url(#paint1_linear_784_466)"/>
</g>
<mask id="mask2_784_466" style="mask-type:luminance" maskUnits="userSpaceOnUse" x="45" y="45" width="60" height="60">
<path d="M75.0002 104.167C91.1085 104.167 104.167 91.109 104.167 75.0007C104.167 58.8924 91.1085 45.834 75.0002 45.834C58.8919 45.834 45.8335 58.8924 45.8335 75.0007C45.8335 91.109 58.8919 104.167 75.0002 104.167Z" fill="white"/>
</mask>
<g mask="url(#mask2_784_466)">
<path d="M67.6669 132.619L62.0605 129.402L86.4826 86.8398L90.1914 93.3613L67.6669 132.619Z" fill="url(#paint2_linear_784_466)"/>
</g>
<mask id="mask3_784_466" style="mask-type:luminance" maskUnits="userSpaceOnUse" x="45" y="45" width="60" height="60">
<path d="M75.0002 104.167C91.1085 104.167 104.167 91.109 104.167 75.0007C104.167 58.8924 91.1085 45.834 75.0002 45.834C58.8919 45.834 45.8335 58.8924 45.8335 75.0007C45.8335 91.109 58.8919 104.167 75.0002 104.167Z" fill="white"/>
</mask>
<g mask="url(#mask3_784_466)">
<path d="M83.6655 71.2926L80.4099 54.7656L73.9496 65.3493L73.972 65.363L59.4857 89.3258C58.6179 90.7614 57.5511 91.6964 56.2878 92.1307C55.0219 92.5641 53.6888 92.3565 52.2851 91.5077C50.8805 90.6589 50.0808 89.5869 49.8844 88.2917C49.687 86.9965 50.0153 85.6049 50.871 84.1184L45.8696 81.485C44.0755 84.4519 43.0569 86.6476 43.8178 89.4602C44.5787 92.2729 46.4263 94.5659 49.3613 96.3402C52.2972 98.1145 55.1874 98.6858 58.0311 98.0524C60.8747 97.4191 63.1945 95.6189 64.9886 92.652L79.4586 68.7186L83.6655 71.2926Z" fill="url(#paint3_linear_784_466)"/>
</g>
<defs>
<linearGradient id="paint0_linear_784_466" x1="5" y1="75" x2="145" y2="75" gradientUnits="userSpaceOnUse">
<stop stop-color="#097C7D"/>
<stop offset="1" stop-color="#20282D"/>
</linearGradient>
<linearGradient id="paint1_linear_784_466" x1="56.1826" y1="98.3515" x2="83.7318" y2="98.3515" gradientUnits="userSpaceOnUse">
<stop stop-color="#097C7D"/>
<stop offset="1" stop-color="#20282D"/>
</linearGradient>
<linearGradient id="paint2_linear_784_466" x1="62.0605" y1="109.729" x2="90.1914" y2="109.729" gradientUnits="userSpaceOnUse">
<stop stop-color="#097C7D"/>
<stop offset="1" stop-color="#20282D"/>
</linearGradient>
<linearGradient id="paint3_linear_784_466" x1="43.563" y1="76.5339" x2="83.6655" y2="76.5339" gradientUnits="userSpaceOnUse">
<stop stop-color="#097C7D"/>
<stop offset="1" stop-color="#20282D"/>
</linearGradient>
</defs>
</svg>
