<svg width="150" height="150" viewBox="0 0 150 150" fill="none" xmlns="http://www.w3.org/2000/svg">
<circle cx="75" cy="75" r="75" fill="white"/>
<path d="M81.1798 24.4295C80.3901 24.3288 79.6926 24.112 79.0873 23.7793C78.482 23.4467 77.9771 23.0144 77.5725 22.4825C77.1794 21.9419 76.8998 21.3187 76.7339 20.6129C76.5794 19.8984 76.5569 19.119 76.6662 18.2747C76.7846 17.36 77.0267 16.5632 77.3924 15.8844C77.7582 15.2057 78.221 14.6517 78.7809 14.2224C79.3522 13.7845 79.9983 13.4838 80.7193 13.3203C81.4517 13.1481 82.2482 13.1169 83.1088 13.2268C84.0706 13.3495 84.906 13.6145 85.6149 14.0217C86.325 14.4189 86.8765 14.9286 87.2694 15.5509C87.6737 16.1645 87.8757 16.8697 87.8754 17.6667L85.4759 17.3605C85.4101 16.9945 85.2625 16.664 85.0331 16.3691C84.805 16.0641 84.5026 15.816 84.126 15.6249C83.7608 15.425 83.3301 15.2934 82.834 15.2301C82.1253 15.1397 81.5078 15.2193 80.9815 15.4688C80.4666 15.7097 80.0468 16.0903 79.7221 16.6109C79.4075 17.1327 79.2021 17.7655 79.1058 18.5094C79.0303 19.0924 79.0392 19.6197 79.1325 20.0914C79.2258 20.5631 79.389 20.9722 79.622 21.3187C79.8665 21.6564 80.1706 21.9302 80.5345 22.1402C80.9086 22.3514 81.3386 22.488 81.8245 22.55C82.4118 22.625 82.9361 22.5897 83.3974 22.4442C83.8703 22.29 84.2522 22.0424 84.5434 21.7015C84.8446 21.3619 85.0278 20.9408 85.0929 20.4382L85.1534 19.9708L85.5827 20.4701L81.9531 20.0069L82.1737 18.3031L87.8383 19.026L87.0595 25.0419L85.1763 24.8016L85.2793 23.0522L85.1882 23.0406C84.9679 23.3905 84.6523 23.6823 84.2412 23.916C83.8302 24.1496 83.3611 24.3145 82.8341 24.4108C82.3083 24.4969 81.7569 24.5032 81.1798 24.4295Z" fill="#0A1119"/>
<path d="M92.5919 27.1294C91.7835 26.8457 91.1532 26.4417 90.701 25.9176C90.2585 25.3969 89.9935 24.7879 89.906 24.0908C89.8186 23.3937 89.9144 22.6534 90.1933 21.8699C90.4893 21.0386 90.8936 20.3743 91.4063 19.8771C91.9286 19.3832 92.5218 19.0701 93.1861 18.9377C93.8634 18.7992 94.5821 18.8633 95.3425 19.1301C96.2279 19.4408 96.8817 19.8852 97.3038 20.4633C97.7355 21.0448 97.9575 21.7139 97.9696 22.4705C97.9817 23.2272 97.7913 24.0203 97.3985 24.8499L92.1293 23.0007C91.9796 23.4211 91.9194 23.8031 91.9487 24.1466C91.991 24.4839 92.1165 24.7698 92.3254 25.0043C92.5342 25.2388 92.8118 25.4169 93.1583 25.5385C93.5625 25.6803 93.9187 25.7139 94.2267 25.6393C94.5348 25.5647 94.7798 25.4088 94.9616 25.1717L96.9683 25.8759C96.711 26.3553 96.3572 26.7255 95.9069 26.9867C95.4601 27.2384 94.949 27.3815 94.3737 27.4161C93.8114 27.4445 93.2175 27.3489 92.5919 27.1294ZM92.5222 21.8971L92.406 21.6306L95.9862 22.887L95.7126 23.0167C95.8747 22.6222 95.9327 22.277 95.8864 21.9813C95.8531 21.6794 95.74 21.4194 95.547 21.2012C95.3637 20.9864 95.1084 20.8215 94.7811 20.7067C94.4539 20.5919 94.1397 20.5622 93.8384 20.6177C93.5502 20.667 93.2911 20.8018 93.0611 21.0221C92.8441 21.2362 92.6645 21.5278 92.5222 21.8971Z" fill="#0A1119"/>
<path d="M99.7363 30.1525C99.1112 29.8302 98.7245 29.4481 98.5761 29.0061C98.4324 28.5552 98.5276 28.0105 98.8616 27.3719L100.852 23.5675L99.5472 22.8949L100.38 21.303L101.684 21.9756L102.715 20.006L104.811 20.847L103.682 23.0056L105.149 23.7622L104.317 25.3541L102.849 24.5975L101.05 28.0376C100.932 28.2624 100.906 28.4433 100.973 28.5803C101.039 28.7173 101.172 28.8372 101.371 28.94L102.214 29.3743L101.367 30.9932L99.7363 30.1525Z" fill="#0A1119"/>
<path d="M105.308 33.6539L112.017 24.7969L113.926 26.2221L107.217 35.0792L105.308 33.6539Z" fill="#0A1119"/>
<path d="M108.583 36.0661L114.334 30.253L115.874 31.7549L114.899 32.8708L114.964 32.9347C115.511 32.7005 116.044 32.6528 116.565 32.7914C117.094 32.9229 117.565 33.191 117.98 33.5958C118.272 33.8798 118.495 34.1896 118.649 34.525C118.818 34.8603 118.901 35.2107 118.897 35.5763C118.9 35.9489 118.799 36.3403 118.594 36.7507C118.402 37.1609 118.092 37.5829 117.663 38.0167L114.187 41.5305L112.581 39.9647L115.714 36.7979C116.036 36.4725 116.264 36.1623 116.398 35.8673C116.54 35.5794 116.581 35.3067 116.521 35.0492C116.468 34.7846 116.31 34.5244 116.048 34.2687C115.772 33.9989 115.474 33.8367 115.156 33.7822C114.838 33.7277 114.524 33.7556 114.215 33.8659C113.905 33.9761 113.629 34.1542 113.386 34.4L110.189 37.6319L108.583 36.0661Z" fill="#0A1119"/>
<path d="M118.817 48.0488L126.745 43.1746L128.003 45.1908L120.075 50.0649L118.817 48.0488ZM124.817 40.516L126.574 39.4355L131.33 47.0607L129.573 48.1412L124.817 40.516Z" fill="#0A1119"/>
<path d="M122.743 56.0111C122.51 55.4378 122.385 54.8868 122.368 54.358C122.361 53.8254 122.459 53.3218 122.662 52.8469C122.865 52.3721 123.172 51.9487 123.582 51.5768C124.002 51.201 124.52 50.89 125.135 50.6435C125.921 50.3288 126.668 50.2043 127.377 50.27C128.096 50.3319 128.735 50.5784 129.296 51.0097C129.856 51.4409 130.299 52.0559 130.623 52.8548C130.853 53.4187 130.971 53.9669 130.978 54.4994C130.985 55.032 130.885 55.531 130.678 55.9964C130.475 56.4713 130.168 56.8947 129.758 57.2666C129.352 57.6479 128.836 57.9637 128.211 58.2139C127.435 58.5248 126.687 58.6493 125.969 58.5874C125.26 58.5218 124.625 58.2733 124.064 57.8421C123.508 57.4203 123.067 56.81 122.743 56.0111ZM124.427 55.3202C124.564 55.6586 124.765 55.9224 125.029 56.1117C125.306 56.3066 125.637 56.4035 126.022 56.4024C126.411 56.4107 126.856 56.3143 127.358 56.1134C127.736 55.9617 128.048 55.7933 128.292 55.6082C128.545 55.4193 128.736 55.2117 128.864 54.9855C128.992 54.7593 129.057 54.5257 129.058 54.2849C129.069 54.0402 129.023 53.791 128.919 53.5372C128.782 53.1989 128.579 52.9303 128.311 52.7316C128.047 52.5423 127.721 52.4436 127.332 52.4353C126.944 52.427 126.494 52.5252 125.983 52.73C125.604 52.8816 125.288 53.0519 125.035 53.2408C124.794 53.4354 124.61 53.6458 124.482 53.872C124.363 54.0944 124.299 54.3279 124.288 54.5726C124.277 54.8173 124.324 55.0665 124.427 55.3202Z" fill="#0A1119"/>
<path d="M125.311 64.3005C125.19 63.694 125.207 63.1534 125.362 62.6788C125.517 62.2041 125.809 61.8112 126.236 61.5002C126.673 61.1871 127.232 60.9638 127.913 60.8302L132.93 59.8457L133.366 62.0379L128.935 62.9074C128.515 62.9899 128.169 63.1094 127.898 63.2658C127.63 63.4322 127.437 63.6404 127.32 63.8906C127.216 64.1487 127.199 64.4568 127.27 64.8147C127.343 65.1825 127.496 65.478 127.728 65.7011C127.959 65.9243 128.234 66.0769 128.552 66.1591C128.88 66.2394 129.22 66.2451 129.57 66.1763L134.017 65.3039L134.453 67.4961L126.402 69.0759L125.983 66.9732L127.437 66.5949L127.419 66.5054C126.859 66.4087 126.393 66.1592 126.022 65.7569C125.662 65.3626 125.425 64.8771 125.311 64.3005Z" fill="#0A1119"/>
<path d="M126.449 74.5375C126.44 73.9295 126.528 73.3757 126.714 72.8762C126.91 72.3766 127.195 71.9414 127.567 71.5708C127.939 71.2103 128.383 70.9298 128.901 70.7292C129.419 70.5388 129.994 70.4387 130.627 70.4289C131.27 70.419 131.853 70.5063 132.377 70.6908C132.91 70.8752 133.364 71.1418 133.737 71.4908C134.12 71.8498 134.413 72.2811 134.614 72.7848C134.827 73.2883 134.937 73.8541 134.947 74.4824C134.958 75.1714 134.835 75.7865 134.578 76.3277C134.331 76.8788 133.976 77.3201 133.511 77.6516C133.057 77.983 132.524 78.1686 131.912 78.2084L131.878 76.0349C132.153 75.9799 132.381 75.8751 132.562 75.7202C132.744 75.5755 132.879 75.391 132.967 75.1667C133.066 74.9523 133.113 74.7134 133.109 74.4499C133.105 74.1561 133.039 73.8986 132.913 73.6776C132.798 73.4564 132.631 73.2714 132.415 73.1228C132.208 72.9739 131.956 72.8612 131.659 72.7847C131.362 72.7184 131.03 72.688 130.662 72.6937C130.121 72.702 129.673 72.7799 129.318 72.9273C128.974 73.0846 128.711 73.2964 128.532 73.5627C128.363 73.839 128.281 74.1545 128.286 74.5091C128.291 74.8233 128.346 75.091 128.452 75.3124C128.568 75.5437 128.724 75.7237 128.92 75.8525C129.126 75.9912 129.352 76.0738 129.598 76.1005L129.632 78.274C128.998 78.2432 128.444 78.0643 127.969 77.7371C127.495 77.41 127.125 76.9748 126.862 76.4315C126.598 75.8883 126.46 75.2569 126.449 74.5375Z" fill="#0A1119"/>
<path d="M126.488 79.931L137.5 81.7422L137.132 83.9468L132.752 83.2262L132.737 83.3162C133.244 83.6256 133.59 84.0318 133.775 84.5348C133.97 85.0394 134.02 85.5767 133.925 86.1466C133.858 86.5465 133.731 86.9057 133.544 87.2241C133.364 87.5541 133.123 87.8226 132.819 88.0295C132.514 88.2464 132.133 88.3892 131.677 88.4579C131.229 88.5383 130.703 88.5288 130.099 88.4295L125.204 87.6245L125.572 85.4199L129.983 86.1454C130.436 86.2199 130.823 86.227 131.144 86.1668C131.462 86.1165 131.711 85.9929 131.888 85.7962C132.076 85.6011 132.2 85.3235 132.26 84.9636C132.323 84.5837 132.286 84.2488 132.148 83.9591C132.01 83.6693 131.807 83.4304 131.538 83.2424C131.27 83.0544 130.964 82.9322 130.622 82.8759L126.12 82.1355L126.488 79.931Z" fill="#0A1119"/>
<path d="M129.521 95.9703L130.19 96.2338L131.007 96.7847L130.672 95.8513L130.582 95.1289L131.491 94.9965L131.587 95.7048L131.55 96.7041L132.199 95.9458L132.758 95.4954L133.329 96.2107L132.764 96.6753L131.89 97.1323L132.865 97.2876L133.534 97.551L133.19 98.413L132.521 98.1495L131.698 97.6127L132.019 98.5405L132.109 99.2629L131.205 99.3812L131.104 98.6871L131.155 97.6933L130.492 98.446L129.933 98.8965L129.362 98.1811L129.927 97.7165L130.815 97.2652L129.845 97.0957L129.176 96.8323L129.521 95.9703Z" fill="#0A1119"/>
<path d="M117.063 104.475C117.529 103.834 118.054 103.329 118.637 102.96C119.22 102.59 119.844 102.356 120.508 102.257C121.174 102.172 121.859 102.226 122.563 102.418C123.269 102.624 123.97 102.976 124.665 103.474C125.418 104.014 126.008 104.606 126.434 105.249C126.86 105.892 127.13 106.56 127.242 107.253C127.357 107.961 127.315 108.668 127.116 109.375C126.919 110.096 126.566 110.806 126.058 111.504C125.49 112.285 124.857 112.887 124.158 113.311C123.468 113.741 122.754 113.979 122.015 114.025C121.279 114.085 120.559 113.925 119.853 113.544L121.27 111.597C121.625 111.714 121.988 111.743 122.358 111.684C122.737 111.63 123.101 111.485 123.45 111.247C123.801 111.024 124.123 110.711 124.416 110.309C124.834 109.733 125.059 109.157 125.089 108.578C125.121 108.014 124.985 107.466 124.679 106.935C124.367 106.411 123.905 105.93 123.293 105.491C122.813 105.147 122.342 104.903 121.88 104.759C121.418 104.615 120.978 104.563 120.56 104.6C120.144 104.653 119.757 104.787 119.397 105.005C119.032 105.23 118.706 105.54 118.419 105.934C118.072 106.411 117.853 106.885 117.762 107.357C117.673 107.843 117.709 108.295 117.872 108.711C118.029 109.136 118.314 109.497 118.728 109.794L119.113 110.07L118.466 110.206L120.608 107.26L122.011 108.266L118.668 112.863L113.715 109.312L114.826 107.784L116.325 108.709L116.379 108.635C116.175 108.276 116.067 107.861 116.056 107.391C116.046 106.921 116.124 106.433 116.29 105.927C116.465 105.427 116.722 104.943 117.063 104.475Z" fill="#0A1119"/>
<path d="M109.227 113.156C109.863 112.585 110.52 112.226 111.2 112.081C111.871 111.942 112.537 112 113.196 112.255C113.856 112.51 114.466 112.946 115.028 113.562C115.624 114.215 116.02 114.884 116.217 115.569C116.406 116.26 116.402 116.927 116.203 117.57C116.004 118.227 115.605 118.824 115.007 119.362C114.311 119.987 113.606 120.347 112.893 120.441C112.173 120.542 111.475 120.417 110.798 120.068C110.122 119.719 109.51 119.176 108.961 118.438L113.105 114.715C112.804 114.384 112.494 114.15 112.176 114.012C111.857 113.889 111.544 113.863 111.237 113.934C110.929 114.005 110.64 114.162 110.367 114.407C110.049 114.693 109.85 114.988 109.77 115.292C109.69 115.597 109.711 115.885 109.835 116.157L108.257 117.575C107.954 117.122 107.794 116.637 107.777 116.119C107.767 115.609 107.883 115.095 108.126 114.576C108.368 114.071 108.735 113.598 109.227 113.156ZM113.896 115.583L114.188 115.608L111.372 118.138L111.387 117.837C111.66 118.166 111.938 118.381 112.222 118.481C112.506 118.596 112.79 118.621 113.075 118.556C113.352 118.498 113.62 118.353 113.877 118.122C114.135 117.891 114.31 117.63 114.404 117.341C114.498 117.066 114.501 116.775 114.416 116.47C114.329 116.178 114.156 115.883 113.896 115.583Z" fill="#0A1119"/>
<path d="M103.147 117.971C103.73 117.577 104.252 117.421 104.714 117.5C105.182 117.589 105.62 117.93 106.028 118.525L108.457 122.069L109.672 121.248L110.689 122.731L109.473 123.552L110.731 125.387L108.991 126.82L107.613 124.81L106.245 125.733L105.229 124.25L106.596 123.327L104.4 120.122C104.256 119.912 104.108 119.804 103.955 119.797C103.802 119.79 103.632 119.849 103.447 119.975L102.662 120.505L101.628 118.997L103.147 117.971Z" fill="#0A1119"/>
<path d="M97.397 121.179L102.064 131.246L99.8942 132.238L95.2272 122.171L97.397 121.179Z" fill="#0A1119"/>
<path d="M93.7187 122.891L96.1315 130.679L94.068 131.309L93.5435 129.927L93.4557 129.953C93.4031 130.542 93.1914 131.031 92.8206 131.42C92.4529 131.818 91.9909 132.102 91.4348 132.272C91.0445 132.391 90.664 132.439 90.2933 132.414C89.9158 132.402 89.5661 132.307 89.2441 132.13C88.9124 131.956 88.6138 131.681 88.3481 131.306C88.0757 130.944 87.8495 130.472 87.6694 129.891L86.2109 125.184L88.3623 124.527L89.6767 128.769C89.8118 129.205 89.978 129.552 90.1753 129.81C90.3629 130.071 90.5851 130.236 90.8417 130.306C91.1014 130.386 91.4068 130.372 91.7581 130.265C92.1288 130.152 92.414 129.969 92.6137 129.717C92.8133 129.466 92.9379 129.178 92.9875 128.856C93.0371 128.533 93.0108 128.207 92.9088 127.878L91.5673 123.548L93.7187 122.891Z" fill="#0A1119"/>
<path d="M78.2276 126.112L78.7586 135.355L76.3739 135.49L75.8428 126.247L78.2276 126.112ZM82.0322 134.941L82.1499 136.99L73.1307 137.501L73.013 135.452L82.0322 134.941Z" fill="#0A1119"/>
<path d="M69.221 125.738C69.8397 125.807 70.3872 125.961 70.8634 126.198C71.3385 126.446 71.7379 126.771 72.0616 127.175C72.3852 127.578 72.614 128.048 72.748 128.583C72.8808 129.129 72.9098 129.728 72.8349 130.383C72.7393 131.219 72.4935 131.931 72.0975 132.518C71.7003 133.116 71.1773 133.557 70.5285 133.841C69.8796 134.124 69.1241 134.218 68.262 134.121C67.6534 134.052 67.1116 133.894 66.6365 133.647C66.1614 133.399 65.7671 133.074 65.4536 132.672C65.1299 132.268 64.9011 131.799 64.7672 131.263C64.6231 130.727 64.589 130.126 64.6651 129.462C64.7595 128.636 65.0053 127.924 65.4025 127.327C65.7985 126.739 66.3209 126.303 66.9698 126.019C67.6085 125.734 68.3589 125.64 69.221 125.738ZM69.0306 127.537C68.6655 127.496 68.3362 127.545 68.0428 127.685C67.738 127.835 67.4945 128.077 67.3122 128.414C67.1197 128.749 66.993 129.184 66.9319 129.717C66.8858 130.12 66.8867 130.472 66.9344 130.773C66.981 131.085 67.0739 131.35 67.2131 131.57C67.3524 131.789 67.5284 131.957 67.7411 132.073C67.9528 132.199 68.1955 132.277 68.4693 132.308C68.8345 132.349 69.1688 132.3 69.4724 132.161C69.7658 132.021 70.0088 131.783 70.2012 131.448C70.3937 131.112 70.521 130.673 70.5832 130.129C70.6293 129.726 70.6291 129.369 70.5825 129.058C70.5246 128.756 70.4261 128.495 70.2868 128.275C70.1464 128.065 69.9704 127.898 69.7588 127.772C69.5472 127.646 69.3045 127.568 69.0306 127.537Z" fill="#0A1119"/>
<path d="M60.6779 124.04C61.2727 124.223 61.7435 124.495 62.0902 124.856C62.4369 125.217 62.6466 125.658 62.719 126.179C62.7885 126.71 62.7205 127.304 62.515 127.963L61.0012 132.812L58.8513 132.151L60.1883 127.868C60.3153 127.461 60.3738 127.102 60.3639 126.792C60.3443 126.478 60.2514 126.211 60.0852 125.99C59.9063 125.776 59.6413 125.614 59.2903 125.506C58.9295 125.395 58.5952 125.388 58.2873 125.484C57.9794 125.581 57.7134 125.748 57.4893 125.987C57.2621 126.235 57.0957 126.529 56.9899 126.868L55.6483 131.166L53.4984 130.504L55.9277 122.721L57.9899 123.356L57.6335 124.806L57.7213 124.833C58.0734 124.389 58.516 124.101 59.0491 123.968C59.5695 123.842 60.1124 123.866 60.6779 124.04Z" fill="#0A1119"/>
<path d="M51.07 120.162C51.6127 120.443 52.0607 120.785 52.414 121.185C52.7627 121.595 53.0123 122.051 53.1629 122.552C53.3044 123.049 53.3405 123.571 53.2711 124.118C53.1926 124.661 53.0067 125.21 52.7134 125.767C52.4154 126.333 52.0598 126.8 51.6467 127.169C51.2288 127.546 50.7765 127.815 50.2896 127.974C49.7889 128.137 49.2675 128.186 48.7253 128.122C48.1784 128.067 47.6246 127.894 47.0638 127.603C46.4487 127.283 45.963 126.882 45.6066 126.4C45.2364 125.922 45.0154 125.401 44.9435 124.838C44.867 124.283 44.957 123.729 45.2137 123.177L47.154 124.184C47.0715 124.45 47.0555 124.699 47.106 124.931C47.1475 125.158 47.2464 125.364 47.4029 125.548C47.5455 125.737 47.7344 125.892 47.9696 126.014C48.2319 126.15 48.4909 126.216 48.7467 126.212C48.9977 126.216 49.2408 126.16 49.4758 126.042C49.7061 125.932 49.926 125.766 50.1356 125.543C50.3361 125.316 50.5215 125.041 50.6918 124.717C50.9425 124.241 51.0874 123.813 51.1263 123.433C51.1515 123.057 51.089 122.728 50.939 122.444C50.7752 122.164 50.535 121.942 50.2184 121.778C49.938 121.632 49.6747 121.553 49.4284 121.539C49.1683 121.53 48.9345 121.58 48.727 121.69C48.5058 121.804 48.3248 121.961 48.1841 122.163L46.2439 121.155C46.5734 120.617 46.9962 120.219 47.5123 119.961C48.0284 119.703 48.5898 119.589 49.1965 119.618C49.8033 119.647 50.4277 119.828 51.07 120.162Z" fill="#0A1119"/>
<path d="M46.3236 117.647L39.4634 126.389L37.6878 125.015L40.4169 121.538L40.3444 121.482C39.8285 121.776 39.3038 121.884 38.7702 121.806C38.2304 121.735 37.7311 121.522 37.2721 121.167C36.95 120.918 36.6928 120.636 36.5006 120.32C36.2941 120.006 36.1717 119.667 36.1335 119.304C36.0872 118.934 36.1426 118.533 36.2997 118.103C36.4424 117.673 36.7019 117.219 37.0784 116.739L40.1273 112.854L41.9029 114.227L39.155 117.729C38.8727 118.089 38.6817 118.423 38.5821 118.731C38.4744 119.033 38.4652 119.309 38.5546 119.558C38.6376 119.815 38.8241 120.055 39.114 120.279C39.4199 120.516 39.7341 120.643 40.0564 120.661C40.3786 120.68 40.6871 120.616 40.9818 120.472C41.2765 120.327 41.5304 120.119 41.7438 119.847L44.5481 116.273L46.3236 117.647Z" fill="#0A1119"/>
<path d="M30.6815 112.655L30.1302 113.114L29.2534 113.567L30.24 113.717L30.9231 113.982L30.6082 114.839L29.935 114.586L29.0668 114.079L29.4305 115.006L29.5642 115.709L28.659 115.867L28.5155 115.153L28.526 114.172L27.9247 114.951L27.3734 115.41L26.7731 114.7L27.3245 114.24L28.1915 113.776L27.2166 113.616L26.5335 113.352L26.8581 112.506L27.5216 112.747L28.378 113.264L28.026 112.327L27.8924 111.625L28.7976 111.466L28.9411 112.18L28.9188 113.171L29.5299 112.404L30.0813 111.945L30.6815 112.655Z" fill="#0A1119"/>
<path d="M29.0581 97.737C29.4052 98.4485 29.6039 99.1467 29.6545 99.8318C29.7051 100.517 29.6168 101.173 29.3897 101.8C29.1489 102.423 28.7763 102.996 28.272 103.52C27.754 104.039 27.1092 104.484 26.3374 104.855C25.5014 105.257 24.6972 105.492 23.9247 105.559C23.1523 105.626 22.432 105.545 21.7639 105.314C21.0821 105.079 20.4751 104.706 19.9429 104.197C19.397 103.682 18.935 103.037 18.5569 102.262C18.1343 101.395 17.9007 100.556 17.8563 99.7443C17.8028 98.9368 17.9309 98.1996 18.2407 97.5327C18.5369 96.8611 19.0211 96.3074 19.6932 95.8717L20.7476 98.0334C20.475 98.2883 20.2771 98.5918 20.1539 98.9438C20.0215 99.3002 19.9777 99.6872 20.0226 100.105C20.0538 100.518 20.1784 100.947 20.3964 101.394C20.7079 102.033 21.1127 102.503 21.6111 102.804C22.0958 103.1 22.6464 103.24 23.2629 103.225C23.875 103.201 24.521 103.026 25.2008 102.699C25.7337 102.443 26.1735 102.147 26.5202 101.812C26.8669 101.476 27.1226 101.117 27.2873 100.733C27.4383 100.346 27.5028 99.9429 27.4808 99.5257C27.4542 99.0993 27.3342 98.6671 27.1207 98.2293C26.8627 97.7003 26.5461 97.2838 26.1711 96.98C25.7824 96.6714 25.3647 96.4893 24.918 96.4339C24.4669 96.3692 24.0116 96.4474 23.5522 96.6682L23.125 96.8736L23.3111 96.2436L24.906 99.5136L23.3488 100.262L20.8597 95.1589L26.3583 92.5155L27.1858 94.212L25.6543 95.0834L25.6944 95.1655C26.1099 95.1571 26.5286 95.2598 26.9505 95.4736C27.3723 95.6875 27.768 95.9871 28.1374 96.3725C28.4977 96.7623 28.8046 97.2171 29.0581 97.737Z" fill="#0A1119"/>
<path d="M25.0918 86.7592C25.2943 87.5863 25.2981 88.3311 25.1032 88.9935C24.9058 89.6461 24.537 90.1992 23.9968 90.6529C23.4565 91.1066 22.7798 91.4316 21.9664 91.6279C21.1035 91.8362 20.3222 91.8631 19.6226 91.7087C18.9205 91.5444 18.3321 91.2223 17.8574 90.7424C17.3704 90.255 17.0317 89.6224 16.8412 88.8444C16.6193 87.9384 16.6368 87.152 16.8937 86.4851C17.1482 85.8083 17.5913 85.2581 18.2229 84.8345C18.8545 84.4109 19.6275 84.1357 20.5419 84.0088L21.8622 89.4003C22.2986 89.295 22.6537 89.1363 22.9274 88.9242C23.1888 88.7047 23.3613 88.444 23.445 88.1422C23.5287 87.8404 23.5271 87.5123 23.4403 87.1578C23.339 86.7442 23.1727 86.4297 22.9414 86.2144C22.7101 85.999 22.4447 85.8806 22.1453 85.859L21.6425 83.8058C22.1875 83.7577 22.6932 83.8494 23.1596 84.081C23.6161 84.315 24.0161 84.6617 24.3598 85.1211C24.691 85.5731 24.935 86.1191 25.0918 86.7592ZM20.7165 89.6768L20.5553 89.9191L19.6582 86.2559L19.9172 86.4124C19.4957 86.4933 19.173 86.6337 18.9488 86.8338C18.7124 87.0265 18.5549 87.2627 18.4763 87.5424C18.3953 87.8122 18.3958 88.1146 18.4778 88.4494C18.5598 88.7842 18.7065 89.0617 18.918 89.2818C19.1171 89.4945 19.3724 89.6362 19.6839 89.7071C19.9831 89.7704 20.3273 89.7604 20.7165 89.6768Z" fill="#0A1119"/>
<path d="M23.7377 79.1891C23.8081 79.8849 23.6976 80.4154 23.4062 80.7805C23.1047 81.1467 22.5934 81.3657 21.8723 81.4376L17.576 81.8659L17.7229 83.318L15.9252 83.4972L15.7783 82.0452L13.554 82.2669L13.1158 80.0648L15.5534 79.8217L15.3882 78.1882L17.1859 78.009L17.3511 79.6425L21.236 79.2552C21.49 79.2299 21.6565 79.1522 21.7357 79.022C21.8148 78.8919 21.8432 78.7159 21.8208 78.4941L21.7259 77.5563L23.5541 77.3741L23.7377 79.1891Z" fill="#0A1119"/>
<path d="M23.6384 72.5415L12.5002 71.8145L12.6569 69.4481L23.7951 70.1752L23.6384 72.5415Z" fill="#0A1119"/>
<path d="M23.8719 68.5364L15.824 66.9399L16.247 64.8381L17.7214 65.0375L17.7394 64.9481C17.2429 64.6222 16.9105 64.2049 16.7422 63.6962C16.564 63.1854 16.5318 62.6468 16.6458 62.0803C16.7258 61.6828 16.8649 61.328 17.063 61.0159C17.2531 60.6919 17.5033 60.4315 17.8136 60.2347C18.1258 60.0279 18.5112 59.8977 18.9696 59.8439C19.42 59.7783 19.9455 59.805 20.5461 59.9241L25.4109 60.8891L24.9699 63.0804L20.5856 62.2108C20.1351 62.1214 19.7488 62.1016 19.4265 62.1513C19.1062 62.1912 18.854 62.3065 18.6698 62.4973C18.4757 62.6862 18.3426 62.9595 18.2706 63.3172C18.1946 63.6949 18.2207 64.0308 18.3489 64.3249C18.4771 64.619 18.6723 64.8644 18.9346 65.0612C19.1969 65.2579 19.4982 65.39 19.8385 65.4575L24.3129 66.345L23.8719 68.5364Z" fill="#0A1119"/>
<path d="M28.4046 53.4306L20.0188 49.382L21.0634 47.2493L29.4492 51.2979L28.4046 53.4306ZM18.7857 52.4209L16.9268 51.5234L20.8775 43.4577L22.7364 44.3551L18.7857 52.4209Z" fill="#0A1119"/>
<path d="M34.6828 43.5801C34.1636 44.232 33.5918 44.7456 32.9674 45.121C32.343 45.4965 31.6835 45.7281 30.9889 45.8159C30.3007 45.8957 29.598 45.8221 28.8809 45.595C28.1558 45.3617 27.437 44.9652 26.7244 44.4058C26.0118 43.8463 25.4616 43.2464 25.0737 42.6059C24.6859 41.9655 24.4518 41.3037 24.3714 40.6204C24.2973 39.9291 24.3723 39.2386 24.5963 38.5489C24.8204 37.8591 25.192 37.1883 25.7112 36.5365C26.2368 35.8767 26.8117 35.3591 27.4361 34.9837C28.0668 34.6003 28.7263 34.3687 29.4146 34.2889C30.1091 34.2011 30.815 34.2707 31.5321 34.4978C32.2492 34.7249 32.964 35.1181 33.6766 35.6776C34.3892 36.2371 34.9434 36.8402 35.3393 37.4869C35.7271 38.1273 35.9581 38.7931 36.0321 39.4844C36.1062 40.1756 36.0312 40.8661 35.8072 41.5559C35.5831 42.2456 35.2083 42.9204 34.6828 43.5801ZM33.0854 42.3261C33.4907 41.8173 33.7308 41.2952 33.8059 40.7599C33.881 40.2245 33.7855 39.6908 33.5194 39.1589C33.2517 38.6128 32.7975 38.0883 32.157 37.5854C31.6766 37.2082 31.2128 36.941 30.7655 36.7836C30.3102 36.62 29.877 36.5512 29.4658 36.5772C29.053 36.589 28.6631 36.7028 28.296 36.9185C27.9353 37.1263 27.6062 37.417 27.3086 37.7906C26.916 38.2834 26.6822 38.7976 26.6071 39.333C26.524 39.8621 26.6164 40.3997 26.8841 40.9458C27.1502 41.4777 27.6035 41.9951 28.244 42.498C28.7244 42.8751 29.1931 43.1527 29.65 43.3305C30.1053 43.4942 30.5385 43.563 30.9497 43.5369C31.3609 43.5109 31.7436 43.398 32.098 43.1981C32.4587 42.9904 32.7878 42.6997 33.0854 42.3261Z" fill="#0A1119"/>
<path d="M42.0548 36.0089C41.5716 36.3988 41.0824 36.6367 40.5872 36.7227C40.0921 36.8088 39.6061 36.7373 39.1293 36.5082C38.646 36.2713 38.1855 35.8854 37.7478 35.3506L34.5227 31.4102L36.2695 30.001L39.118 33.4813C39.3884 33.8116 39.6565 34.0589 39.9224 34.2231C40.1962 34.3808 40.4718 34.4524 40.7491 34.4376C41.0278 34.4086 41.3098 34.279 41.595 34.049C41.8881 33.8125 42.0797 33.5404 42.1699 33.2327C42.26 32.9249 42.2671 32.6123 42.1914 32.2947C42.1091 31.9693 41.9554 31.6689 41.7301 31.3937L38.872 27.9015L40.6188 26.4923L45.7943 32.8159L44.1188 34.1676L43.1012 33.0689L43.0299 33.1264C43.2062 33.6633 43.2023 34.1888 43.0181 34.703C42.8354 35.2029 42.5143 35.6382 42.0548 36.0089Z" fill="#0A1119"/>
<path d="M50.6315 30.2152C50.0947 30.508 49.5604 30.6895 49.0287 30.7599C48.492 30.8213 47.9717 30.7755 47.4677 30.6225C46.9728 30.4647 46.515 30.2056 46.0943 29.8453C45.6826 29.4801 45.3244 29.0222 45.0197 28.4715C44.7101 27.9119 44.5149 27.3593 44.4342 26.8136C44.3487 26.259 44.374 25.7364 44.5102 25.2459C44.6504 24.7416 44.8975 24.283 45.2514 23.8703C45.6005 23.4487 46.0523 23.0866 46.607 22.7841C47.2154 22.4523 47.8206 22.2725 48.4225 22.2449C49.0285 22.2034 49.5877 22.3089 50.1001 22.5614C50.6075 22.8049 51.0221 23.1859 51.3439 23.7042L49.4248 24.7508C49.2474 24.5354 49.0473 24.3843 48.8247 24.2976C48.6109 24.2061 48.3835 24.174 48.1425 24.2014C47.9055 24.2151 47.6706 24.2853 47.438 24.4122C47.1786 24.5537 46.9799 24.7314 46.8421 24.9453C46.6993 25.1504 46.6124 25.3828 46.5814 25.6425C46.5455 25.8933 46.5631 26.1671 46.634 26.4637C46.7139 26.7554 46.8423 27.0612 47.0193 27.3809C47.2798 27.8517 47.5586 28.2084 47.8559 28.4509C48.1572 28.6798 48.4684 28.8107 48.7895 28.8437C49.1146 28.8629 49.4337 28.7872 49.7468 28.6164C50.0242 28.4651 50.2367 28.2914 50.3844 28.0952C50.5361 27.8853 50.6234 27.6642 50.6463 27.432C50.6733 27.1861 50.6412 26.9492 50.5501 26.7214L52.4692 25.6747C52.7381 26.245 52.838 26.8149 52.7688 27.3845C52.6997 27.9541 52.485 28.4817 52.1247 28.9672C51.7645 29.4528 51.2667 29.8688 50.6315 30.2152Z" fill="#0A1119"/>
<path d="M55.3692 27.683L51.845 17.168L53.9806 16.4624L55.3826 20.6454L55.4698 20.6166C55.5088 20.0269 55.7092 19.5335 56.071 19.1363C56.4295 18.7295 56.8848 18.4349 57.4369 18.2525C57.8243 18.1245 58.2036 18.0686 58.5748 18.0848C58.9525 18.0882 59.3043 18.1749 59.6302 18.345C59.9658 18.5118 60.2707 18.7795 60.5449 19.1482C60.8256 19.5041 61.0626 19.9705 61.256 20.5475L62.8223 25.2208L60.6866 25.9264L59.275 21.7146C59.1299 21.2819 58.9558 20.9389 58.7526 20.6856C58.559 20.4291 58.3332 20.2688 58.075 20.2045C57.8135 20.1307 57.5085 20.1513 57.1598 20.2665C56.7918 20.3881 56.5108 20.5771 56.317 20.8333C56.1232 21.0896 56.0052 21.3796 55.9631 21.7032C55.9209 22.0269 55.9547 22.3522 56.0642 22.6791L57.5049 26.9775L55.3692 27.683Z" fill="#0A1119"/>
<path d="M68.2351 17.5372L68.1574 16.8269L68.2663 15.8518L67.5915 16.5821L66.9902 16.9987L66.4476 16.2621L67.0336 15.8472L67.941 15.4129L66.9625 15.1973L66.3003 14.9171L66.671 14.082L67.3484 14.3606L68.1637 14.9148L67.8464 13.9857L67.7686 13.2755L68.6972 13.1753L68.7749 13.8856L68.6813 14.859L69.3577 14.1438L69.9589 13.7272L70.4864 14.4655L69.9156 14.8788L69.0065 15.2979L69.9867 15.5286L70.6488 15.8088L70.2782 16.644L69.6008 16.3654L68.7838 15.796L69.0859 16.7267L69.1637 17.437L68.2351 17.5372Z" fill="#0A1119"/>
<mask id="mask0_914_247" style="mask-type:luminance" maskUnits="userSpaceOnUse" x="43" y="43" width="64" height="64">
<path d="M75.0003 106.25C92.2592 106.25 106.25 92.2589 106.25 75C106.25 57.7411 92.2592 43.75 75.0003 43.75C57.7414 43.75 43.7502 57.7411 43.7502 75C43.7502 92.2589 57.7414 106.25 75.0003 106.25Z" fill="white"/>
</mask>
<g mask="url(#mask0_914_247)">
<path d="M75.0003 106.25C92.2592 106.25 106.25 92.2589 106.25 75C106.25 57.7411 92.2592 43.75 75.0003 43.75C57.7414 43.75 43.7502 57.7411 43.7502 75C43.7502 92.2589 57.7414 106.25 75.0003 106.25Z" fill="#0A1119"/>
</g>
<mask id="mask1_914_247" style="mask-type:luminance" maskUnits="userSpaceOnUse" x="43" y="43" width="64" height="64">
<path d="M75.0003 106.25C92.2592 106.25 106.25 92.2589 106.25 75C106.25 57.7411 92.2592 43.75 75.0003 43.75C57.7414 43.75 43.7502 57.7411 43.7502 75C43.7502 92.2589 57.7414 106.25 75.0003 106.25Z" fill="white"/>
</mask>
<g mask="url(#mask1_914_247)">
<path d="M60.8454 124.198L54.8386 120.753L80.6081 75.8418L84.3556 83.2234L60.8454 124.198Z" fill="white"/>
</g>
<mask id="mask2_914_247" style="mask-type:luminance" maskUnits="userSpaceOnUse" x="43" y="43" width="64" height="64">
<path d="M75.0003 106.25C92.2592 106.25 106.25 92.2589 106.25 75C106.25 57.7411 92.2592 43.75 75.0003 43.75C57.7414 43.75 43.7502 57.7411 43.7502 75C43.7502 92.2589 57.7414 106.25 75.0003 106.25Z" fill="white"/>
</mask>
<g mask="url(#mask2_914_247)">
<path d="M67.1431 136.734L61.1362 133.288L87.3027 87.6855L91.2765 94.6729L67.1431 136.734Z" fill="white"/>
</g>
<mask id="mask3_914_247" style="mask-type:luminance" maskUnits="userSpaceOnUse" x="43" y="43" width="64" height="64">
<path d="M75.0003 106.25C92.2592 106.25 106.25 92.2589 106.25 75C106.25 57.7411 92.2592 43.75 75.0003 43.75C57.7414 43.75 43.7502 57.7411 43.7502 75C43.7502 92.2589 57.7414 106.25 75.0003 106.25Z" fill="white"/>
</mask>
<g mask="url(#mask3_914_247)">
<path d="M84.2844 71.0277L80.7963 53.3203L73.8745 64.6599L73.8985 64.6747L58.3774 90.3491C57.4476 91.8872 56.3046 92.889 54.9511 93.3543C53.5948 93.8187 52.1665 93.5962 50.6625 92.6868C49.1576 91.7774 48.3008 90.6288 48.0903 89.2411C47.8789 87.8534 48.2306 86.3624 49.1474 84.7697L43.7887 81.9482C41.8665 85.127 40.7752 87.4795 41.5904 90.4931C42.4057 93.5067 44.3852 95.9635 47.5298 97.8645C50.6754 99.7655 53.7721 100.378 56.8189 99.699C59.8657 99.0204 62.3511 97.0917 64.2734 93.9129L79.777 68.2699L84.2844 71.0277Z" fill="white"/>
</g>
</svg>
