<svg width="234" height="234" viewBox="0 0 234 234" fill="none" xmlns="http://www.w3.org/2000/svg">
<path d="M117.006 9.97266C140.468 9.97287 163.513 25.5624 175.199 45.5781H175.198C183.254 59.2753 188.467 74.4514 190.531 90.2021C203.258 99.8083 213.938 111.857 221.94 125.646L222.48 126.589C233.686 146.517 235.576 173.513 224.022 193.304C212.287 213.408 187.112 225.342 163.748 225.343L163.749 225.344C147.712 225.393 131.824 222.271 117.001 216.161C102.18 222.268 86.2976 225.388 70.2645 225.339V225.34L70.2635 225.339L70.2626 225.34V225.339C46.8993 225.338 21.7243 213.404 9.98814 193.3C-1.5655 173.509 0.322559 146.514 11.5311 126.583L12.0712 125.64C20.0739 111.853 30.7525 99.8032 43.4784 90.1973C45.5431 74.4492 50.757 59.2757 58.8124 45.5811L59.369 44.6465C71.2189 25.0844 93.91 9.97275 117.006 9.97266ZM190.789 92.2861C190.951 93.6842 191.095 95.0889 191.203 96.502V96.5029C191.308 97.8952 191.384 99.2888 191.439 100.683C191.452 101.014 191.466 101.346 191.476 101.678C191.483 101.883 191.486 102.088 191.491 102.293C191.5 102.637 191.51 102.982 191.515 103.326C191.521 103.644 191.523 103.962 191.525 104.28C191.527 104.512 191.53 104.744 191.53 104.977C191.531 105.291 191.53 105.606 191.528 105.921C191.527 106.182 191.525 106.444 191.521 106.705C191.518 106.97 191.514 107.236 191.509 107.501C191.503 107.781 191.497 108.061 191.49 108.341C191.481 108.69 191.47 109.039 191.458 109.389C191.451 109.578 191.443 109.768 191.435 109.958C191.42 110.343 191.403 110.728 191.384 111.113C191.374 111.306 191.363 111.498 191.352 111.69C191.333 112.038 191.314 112.385 191.292 112.732C191.278 112.946 191.263 113.16 191.248 113.374C191.222 113.746 191.195 114.117 191.166 114.488C191.156 114.617 191.144 114.745 191.134 114.874C190.883 117.909 190.515 120.935 190.027 123.945C190.008 124.064 189.99 124.184 189.971 124.303C193.44 128.373 196.566 132.722 199.315 137.308L199.872 138.248L200.201 138.822C203.56 144.794 205.729 152.111 206.241 159.424C206.769 166.969 205.536 174.571 201.955 180.704C198.374 186.838 192.336 191.694 185.467 195.013C178.595 198.333 170.835 200.143 163.746 200.144C157.992 200.141 152.249 199.635 146.583 198.634V198.635L146.514 198.622C146.424 198.606 146.334 198.591 146.244 198.575V198.574C140.524 197.555 134.915 196.015 129.487 193.974C128.501 193.603 127.52 193.215 126.546 192.811C125.084 192.204 123.637 191.561 122.206 190.882V190.881C120.298 189.973 118.453 188.981 116.64 187.965L116.639 187.964C116.613 187.949 116.587 187.934 116.561 187.92L115.473 187.31L115.484 187.303C101.204 179.017 89.3121 167.166 80.9842 152.9C72.6531 138.629 68.1831 122.445 67.9989 105.938C66.5983 106.77 65.2152 107.625 63.8641 108.537C57.0958 113.11 50.967 118.563 45.6356 124.748C50.5404 153.132 65.5246 178.797 87.8387 197.034H87.8397L88.1073 197.251C95.3823 203.169 103.338 208.199 111.806 212.233C111.842 212.251 111.883 212.268 111.938 212.292C111.986 212.312 112.048 212.339 112.111 212.368H112.112L112.237 212.424L112.251 212.43C113.919 213.211 115.6 213.953 117.293 214.657L117.76 214.852C132.347 220.835 147.972 223.892 163.744 223.844H163.746C186.687 223.844 211.31 212.104 222.726 192.548C234.141 172.996 232.108 146.039 220.644 126.401L220.643 126.4C212.986 113.206 202.846 101.623 190.789 92.2861ZM159.215 74.792C131.963 64.7959 102.044 64.7968 74.7928 74.793V74.7939L74.4667 74.915C71.1772 76.1347 67.9459 77.4988 64.7831 79.0029C61.5916 80.5209 58.4692 82.1805 55.4256 83.9785C53.415 85.1662 51.439 86.4143 49.4999 87.7207C47.8422 88.8397 46.2276 90.0116 44.6307 91.21L44.2694 91.4805C31.7525 100.952 21.2468 112.82 13.368 126.394L13.367 126.396C1.90028 146.036 -0.130838 172.992 11.284 192.544C22.7005 212.1 47.3241 223.84 70.2645 223.84H70.2665C85.604 223.887 100.802 220.996 115.043 215.335C113.894 214.839 112.75 214.326 111.614 213.792L111.611 213.79C111.605 213.787 111.596 213.784 111.574 213.774C111.556 213.767 111.524 213.752 111.49 213.736L111.352 213.677C111.3 213.654 111.231 213.625 111.162 213.592H111.161C102.688 209.554 94.7219 204.531 87.4256 198.63C82.1215 199.567 76.7503 200.071 71.3651 200.133L70.2645 200.14C63.1753 200.14 55.4161 198.329 48.5438 195.009C41.6749 191.69 35.637 186.834 32.0565 180.7C28.4756 174.567 27.2408 166.966 27.7684 159.42C28.2963 151.871 30.5911 144.317 34.1385 138.242L34.6952 137.302C37.5046 132.617 40.707 128.179 44.2665 124.033C49.7384 117.636 56.0477 112.004 63.0243 107.29C64.7739 106.109 66.5662 105.025 68.3641 103.979L68.367 103.978C68.4622 103.923 68.5579 103.869 68.6532 103.814L69.495 103.326L69.494 103.34C84.0085 95.236 100.365 90.9746 117.006 90.9746C133.641 90.9747 149.991 95.2336 164.502 103.332C164.474 101.723 164.416 100.116 164.294 98.5088V98.5078C163.672 90.4106 161.962 82.4339 159.215 74.792ZM189.633 126.233C184.528 154.061 169.839 179.228 148.115 197.372C153.282 198.214 158.509 198.64 163.746 198.643C170.597 198.642 178.134 196.89 184.814 193.662C191.498 190.433 197.27 185.754 200.66 179.947C204.049 174.142 205.258 166.863 204.745 159.528C204.232 152.197 202 144.869 198.576 139.005V139.004C195.949 134.509 192.957 130.239 189.633 126.233ZM44.3758 126.229C41.0522 130.234 38.0613 134.505 35.4344 138.999C32.0095 144.864 29.7773 152.192 29.2645 159.524C28.7516 166.859 29.9624 174.139 33.3514 179.943C36.7409 185.75 42.5137 190.429 49.1971 193.658C55.8774 196.886 63.4139 198.64 70.2645 198.64C75.4992 198.638 80.7239 198.211 85.8885 197.369C64.1662 179.225 49.4794 154.057 44.3758 126.229ZM117.006 11.4727C94.1685 11.4728 71.5748 26.6994 60.1083 46.3369L60.1073 46.3389C52.4006 59.4401 47.3273 73.9126 45.1649 88.9434C45.9962 88.334 46.8367 87.7328 47.6883 87.1426C47.8291 87.045 47.9708 86.9485 48.1122 86.8516C48.295 86.7263 48.4771 86.5997 48.661 86.4756V86.4746C56.448 81.2285 64.8262 76.9177 73.621 73.6279C75.5783 68.2756 78.0069 63.1068 80.8797 58.1836H80.8807C84.4269 52.1099 89.8928 46.3681 96.2372 42.1416C102.579 37.9167 109.849 35.1729 117.006 35.1729C124.162 35.173 131.432 37.9156 137.774 42.1396C144.119 46.3653 149.586 52.1066 153.132 58.1816C156.004 63.1047 158.431 68.2738 160.388 73.626L160.39 73.627L160.51 73.9541C160.864 74.9279 161.2 75.9074 161.521 76.8916C161.534 76.9319 161.547 76.9724 161.56 77.0127C161.697 77.4327 161.83 77.8536 161.96 78.2754C162.012 78.4456 162.063 78.6166 162.114 78.7871C162.215 79.1195 162.315 79.4517 162.412 79.7852C162.452 79.9223 162.49 80.0599 162.529 80.1973C162.629 80.5493 162.728 80.9018 162.824 81.2549C162.864 81.4022 162.904 81.5497 162.943 81.6973C163.03 82.022 163.115 82.3472 163.198 82.6729C163.251 82.8819 163.303 83.0913 163.355 83.3008C163.426 83.5876 163.496 83.8747 163.564 84.1621C163.61 84.3528 163.655 84.5434 163.699 84.7344C163.77 85.0423 163.839 85.3506 163.907 85.6592C163.954 85.8735 164 86.0881 164.046 86.3027C164.106 86.5886 164.165 86.8747 164.223 87.1611C164.265 87.3664 164.306 87.5718 164.347 87.7773C164.398 88.0411 164.449 88.3051 164.498 88.5693C164.545 88.8224 164.592 89.0756 164.637 89.3291C164.677 89.5551 164.715 89.7815 164.754 90.0078C164.8 90.2791 164.846 90.5505 164.89 90.8223C164.929 91.0698 164.967 91.3176 165.005 91.5654C165.044 91.8228 165.084 92.0801 165.121 92.3379C165.15 92.5376 165.177 92.7376 165.204 92.9375C165.247 93.2515 165.29 93.5654 165.33 93.8799C165.34 93.9586 165.349 94.0375 165.358 94.1162C165.535 95.5389 165.681 96.9662 165.791 98.3975L165.846 99.1807C165.855 99.3252 165.862 99.4698 165.87 99.6143C165.877 99.7426 165.885 99.8708 165.891 99.999C165.916 100.468 165.936 100.937 165.953 101.404C165.956 101.482 165.958 101.559 165.961 101.637C165.977 102.117 165.991 102.596 166 103.075L166.02 104.624V104.628C166.02 104.649 166.019 104.67 166.019 104.691L166.03 105.932L166.012 105.921C165.83 122.433 161.361 138.623 153.027 152.899C144.701 167.163 132.811 179.012 118.533 187.298C119.952 188.077 121.384 188.828 122.849 189.525L124.264 190.183C131.254 193.359 138.613 195.659 146.171 197.034C168.576 178.723 183.593 152.923 188.435 124.4L188.712 122.678C189.247 119.172 189.619 115.646 189.829 112.11C189.893 111.025 189.943 109.939 189.976 108.853C190.068 105.903 190.046 102.95 189.911 99.999C189.859 98.8716 189.792 97.7445 189.707 96.6182L189.645 95.8916C189.499 94.158 189.307 92.4313 189.087 90.7061L188.89 89.2393C186.751 74.1018 181.661 59.5251 173.904 46.3369L173.903 46.335C162.437 26.695 139.843 11.4729 117.006 11.4727ZM117.006 92.4746C100.341 92.4746 83.9658 96.8147 69.494 105.062C69.5268 121.605 73.9353 137.849 82.2801 152.145C90.6255 166.44 102.608 178.271 117.005 186.444C131.403 178.271 143.387 166.439 151.732 152.143C160.076 137.849 164.484 121.606 164.517 105.063C150.045 96.8162 133.671 92.4747 117.006 92.4746ZM117.006 36.6729C110.222 36.6729 103.238 39.2802 97.0692 43.3896C90.9025 47.4978 85.5995 53.0762 82.1756 58.9404C79.5616 63.4202 77.3213 68.1066 75.4754 72.9512C102.338 63.4094 131.674 63.4104 158.536 72.9531C156.818 68.4414 154.758 64.0663 152.372 59.8682L151.836 58.9375C148.412 53.0721 143.11 47.4949 136.943 43.3877C130.774 39.279 123.789 36.673 117.006 36.6729Z" fill="white" fill-opacity="0.05"/>
</svg>
