<svg width="24" height="24" viewBox="0 0 24 24" fill="none" xmlns="http://www.w3.org/2000/svg">
<path d="M5.31117 1.44638L3.4853 3.27227C1.99072 4.76685 1.58001 7.03176 2.45464 8.95596C4.99119 14.5364 9.46363 19.0088 15.044 21.5454C16.9683 22.42 19.2331 22.0093 20.7277 20.5147L22.5536 18.6888C23.1488 18.0937 23.1488 17.1287 22.5536 16.5335L20.0974 14.0773C19.6335 13.6134 18.9249 13.4985 18.3382 13.7918L16.975 14.4734C15.8015 15.0601 14.3843 14.8301 13.4565 13.9024L10.0976 10.5435C9.16988 9.61568 8.93989 8.19844 9.52663 7.02497L10.2082 5.66184C10.5015 5.0751 10.3866 4.36647 9.92271 3.90261L7.46648 1.44638C6.8713 0.851207 5.90634 0.851207 5.31117 1.44638Z" stroke="#0A1119" stroke-width="1.5" stroke-linejoin="round"/>
</svg>
