<svg width="51" height="51" viewBox="0 0 51 51" fill="none" xmlns="http://www.w3.org/2000/svg">
<path d="M40.1783 20.9413L37.0223 17.7853C35.5282 16.3241 33.5149 15.5161 31.4252 15.5391C29.3354 15.562 27.3404 16.4141 25.8788 17.9078L25.5002 18.2863L32.7141 25.5001L33.0926 25.8786C34.5863 27.3402 35.4384 29.3352 35.4613 31.425C35.4843 33.5147 34.6763 35.528 33.215 37.0221L30.059 40.1781C24.2212 46.0159 14.6511 45.9107 8.68359 39.9432L14.6951 45.9547C20.6626 51.9222 30.2327 52.0274 36.0705 46.1896L39.9435 42.3167C45.911 36.3492 46.0162 26.7791 40.1783 20.9413Z" stroke="#0A1119" stroke-linecap="round" stroke-linejoin="round"/>
<path d="M10.8222 30.0587L13.9782 33.2148C15.4723 34.676 17.4856 35.484 19.5754 35.461C21.6651 35.4381 23.6602 34.586 25.1218 33.0923L25.5003 32.7138L18.2865 25.5L17.908 25.1215C16.4142 23.6599 15.5622 21.6648 15.5392 19.5751C15.5162 17.4854 16.3242 15.4721 17.7855 13.978L20.9415 10.822C26.7794 4.98417 36.3494 5.08933 42.3169 11.0568L36.3054 5.04534C30.3379 -0.922165 20.7678 -1.02733 14.93 4.81047L11.0571 8.68341C5.08957 14.6509 4.98438 24.2209 10.8222 30.0587Z" stroke="#0A1119" stroke-linecap="round" stroke-linejoin="round"/>
<path d="M30.0589 40.1782L33.2149 37.0222C34.6762 35.5281 35.4841 33.5148 35.4612 31.4251C35.4382 29.3353 34.5862 27.3403 33.0924 25.8787L32.7139 25.5002L25.5001 32.714L25.1216 33.0925C23.66 34.5862 21.6649 35.4383 19.5752 35.4612C17.4854 35.4842 15.4721 34.6762 13.9781 33.215L10.822 30.0589C4.98419 24.2211 5.08935 14.6511 11.0569 8.68359L5.04536 14.6951C-0.922171 20.6626 -1.02733 30.2326 4.81049 36.0704L8.68345 39.9433C14.651 45.9108 24.221 46.016 30.0589 40.1782Z" stroke="#0A1119" stroke-linecap="round" stroke-linejoin="round"/>
<path d="M20.9418 10.8217L17.7858 13.9777C16.3246 15.4718 15.5166 17.4851 15.5395 19.5748C15.5625 21.6646 16.4145 23.6596 17.9083 25.1212L18.2868 25.4997L25.5006 18.2859L25.8791 17.9074C27.3407 16.4137 29.3358 15.5617 31.4255 15.5387C33.5153 15.5157 35.5286 16.3237 37.0227 17.785L40.1787 20.941C46.0165 26.7788 45.9114 36.3488 39.9438 42.3163L45.9553 36.3048C51.9229 30.3373 52.028 20.7673 46.1902 14.9295L42.3173 11.0566C36.3498 5.08909 26.7797 4.9839 20.9418 10.8217Z" stroke="#0A1119" stroke-linecap="round" stroke-linejoin="round"/>
</svg>
