<svg width="60" height="60" viewBox="0 0 60 60" fill="none" xmlns="http://www.w3.org/2000/svg">
<g clip-path="url(#clip0_656_220)">
<path d="M25.2574 38.3423H11.9485L16.6903 30H12.6934L6 41.7076H23.345L28.0868 50.0505L29.9992 46.6846L25.2574 38.3423Z" stroke="#0A1119" stroke-linecap="round" stroke-linejoin="round"/>
<path d="M7.95948 14.7769L6 18.293L12.6934 30.0006H16.6903L7.95948 14.7769Z" stroke="#0A1119" stroke-linecap="round" stroke-linejoin="round"/>
<path d="M52.0398 14.7769H38.653L36.6543 18.293H53.9993L52.0398 14.7769Z" stroke="#0A1119" stroke-linecap="round" stroke-linejoin="round"/>
<path d="M31.9591 3L23.3454 18.2926H13.8613L15.7743 21.6579H25.2578L31.9125 9.94975L36.6543 18.2926L38.653 14.7765L31.9591 3Z" stroke="#0A1119" stroke-linecap="round" stroke-linejoin="round"/>
<path d="M31.9581 3H28.0397L21.3457 14.7765L23.3444 18.2926L31.9581 3Z" stroke="#0A1119" stroke-linecap="round" stroke-linejoin="round"/>
<path d="M13.8614 18.293H23.3455L21.3468 14.7769H7.95996L16.6907 30.0006L11.949 38.3429H15.7743L20.5161 30.0006L13.8614 18.293Z" stroke="#0A1119" stroke-linecap="round" stroke-linejoin="round"/>
<path d="M44.2239 38.3428H34.7403L28.0862 50.0509L23.3444 41.7081L21.3457 45.2242L28.0397 57.0001L36.6533 41.7081H46.1368L44.2239 38.3428Z" stroke="#0A1119" stroke-linecap="round" stroke-linejoin="round"/>
<path d="M6 41.708L7.95892 45.2242H21.3463L23.345 41.708H6Z" stroke="#0A1119" stroke-linecap="round" stroke-linejoin="round"/>
<path d="M47.3064 30H43.3096L52.0404 45.2237L53.9998 41.7076L47.3064 30Z" stroke="#0A1119" stroke-linecap="round" stroke-linejoin="round"/>
<path d="M36.6537 18.2931L31.912 9.9502L29.999 13.316L34.7408 21.6584H48.0502L43.3085 30.0007H47.3053L53.9987 18.2931H36.6537Z" stroke="#0A1119" stroke-linecap="round" stroke-linejoin="round"/>
<path d="M43.309 30L48.0508 21.6577H44.2249L39.4837 30L46.1378 41.7076H36.6543L38.653 45.2238H52.0398L43.309 30Z" stroke="#0A1119" stroke-linecap="round" stroke-linejoin="round"/>
<path d="M36.6537 41.708L28.04 57.0001H31.9584L38.6524 45.2242L36.6537 41.708Z" stroke="#0A1119" stroke-linecap="round" stroke-linejoin="round"/>
</g>
<defs>
<clipPath id="clip0_656_220">
<rect width="60" height="60" fill="white"/>
</clipPath>
</defs>
</svg>
