<svg width="20" height="20" viewBox="0 0 20 20" fill="none" xmlns="http://www.w3.org/2000/svg">
<path d="M12.6831 10.0581L9.14154 13.5997L7.31689 11.775C7.07275 11.5309 6.67725 11.5309 6.43311 11.775C6.18896 12.0192 6.18896 12.4147 6.43311 12.6588L8.69965 14.9254C8.82172 15.0474 8.98163 15.1085 9.14154 15.1085C9.30145 15.1085 9.46136 15.0474 9.58344 14.9254L13.5669 10.9419C13.811 10.6978 13.811 10.3022 13.5669 10.0581C13.3228 9.81396 12.9272 9.81396 12.6831 10.0581Z" fill="#0A1119"/>
<path d="M15.625 2.47498H14.6875V1.875C14.6875 1.52985 14.4077 1.25 14.0625 1.25C13.7173 1.25 13.4375 1.52985 13.4375 1.875V2.47498H6.5625V1.875C6.5625 1.52985 6.28265 1.25 5.9375 1.25C5.59235 1.25 5.3125 1.52985 5.3125 1.875V2.47498H4.375C2.65198 2.47498 1.25 3.87695 1.25 5.59998V15.625C1.25 17.348 2.65198 18.75 4.375 18.75H15.625C17.348 18.75 18.75 17.348 18.75 15.625V5.59998C18.75 3.87695 17.348 2.47498 15.625 2.47498ZM2.5 5.59998C2.5 4.56604 3.34106 3.72498 4.375 3.72498H5.3125V4.32465C5.3125 4.6698 5.59235 4.94965 5.9375 4.94965C6.28265 4.94965 6.5625 4.6698 6.5625 4.32465V3.72498H13.4375V4.32465C13.4375 4.6698 13.7173 4.94965 14.0625 4.94965C14.4077 4.94965 14.6875 4.6698 14.6875 4.32465V3.72498H15.625C16.6589 3.72498 17.5 4.56604 17.5 5.59998V6.23108H2.5V5.59998ZM15.625 17.5H4.375C3.34106 17.5 2.5 16.6589 2.5 15.625V7.48108H17.5V15.625C17.5 16.6589 16.6589 17.5 15.625 17.5Z" fill="#0A1119"/>
</svg>
