<svg width="40" height="40" viewBox="0 0 40 40" fill="none" xmlns="http://www.w3.org/2000/svg">
<path d="M21.446 1.34277C21.5133 1.36083 21.5721 1.40501 21.6082 1.4668V1.46777L21.6091 1.46875L26.115 9.35742H35.1267C35.2235 9.35742 35.3127 9.40981 35.3601 9.49414L36.7019 11.8906C36.7365 11.9524 36.7451 12.0242 36.7273 12.0908C36.7214 12.1137 36.713 12.1362 36.7009 12.1572L32.1941 20.001L36.7009 27.8447C36.7479 27.9264 36.7479 28.0271 36.7019 28.1094L35.3621 30.502C35.3608 30.5044 35.3605 30.5074 35.3591 30.5098C35.3113 30.5926 35.2224 30.6436 35.1267 30.6436H26.116L21.6091 38.5322C21.5615 38.6157 21.4728 38.6669 21.3767 38.667H18.7009C18.6986 38.6671 18.6964 38.668 18.6941 38.668C18.6144 38.6681 18.5415 38.6309 18.491 38.5713C18.4809 38.5594 18.4697 38.5479 18.4617 38.5342L18.4607 38.5322L13.9539 30.6426H4.94312C4.84616 30.6426 4.75613 30.5904 4.70874 30.5059L3.37085 28.1143L3.3689 28.1123C3.35691 28.0915 3.34751 28.0695 3.34155 28.0469C3.32412 27.9804 3.33345 27.9089 3.36792 27.8477L3.3689 27.8447L7.87476 20L3.3689 12.1553C3.32206 12.0737 3.32113 11.9728 3.36694 11.8906L4.70874 9.49414L4.72827 9.46484C4.73233 9.45943 4.73751 9.45428 4.74194 9.44922C4.74591 9.44469 4.74942 9.43978 4.75366 9.43555L4.77124 9.41992C4.77847 9.41387 4.78687 9.40954 4.79468 9.4043C4.80152 9.3997 4.80795 9.39457 4.81519 9.39062C4.82891 9.38314 4.84326 9.37707 4.85815 9.37207C4.86371 9.3702 4.86907 9.36771 4.87476 9.36621C4.89616 9.36057 4.91845 9.35757 4.94116 9.35742H13.9548L18.4607 1.46875L18.4802 1.43945C18.5304 1.3737 18.6091 1.33409 18.6931 1.33398H21.3767C21.4004 1.33401 21.4238 1.33678 21.446 1.34277ZM21.5505 33.8965L19.1531 38.1318H21.2214L25.6511 30.375L25.4978 30.1074L24.5925 28.5205L21.5505 33.8965ZM18.9578 33.7969C18.9101 33.8803 18.8214 33.9326 18.7253 33.9326C18.6292 33.9326 18.5406 33.8803 18.4929 33.7969L15.4783 28.5195L14.95 29.4434L14.4177 30.375L18.6921 37.8574L24.3582 27.8467L24.3777 27.8174C24.3832 27.8101 24.3901 27.8035 24.3962 27.7969L24.4207 27.7725C24.4286 27.7659 24.4374 27.7605 24.446 27.7549C24.4518 27.7511 24.4576 27.7474 24.4636 27.7441L24.4656 27.7422C24.4746 27.7374 24.4844 27.7342 24.4939 27.7305C24.498 27.7288 24.5024 27.728 24.5066 27.7266C24.5128 27.7245 24.5188 27.7214 24.5251 27.7197C24.5466 27.7142 24.5688 27.7109 24.5916 27.7109H30.6228L29.6199 25.9541H23.4373L18.9578 33.7969ZM4.06421 27.7109H15.4783C15.5023 27.7109 15.526 27.7136 15.5486 27.7197C15.6051 27.7351 15.6533 27.7704 15.6892 27.8174C15.6959 27.8262 15.704 27.834 15.7097 27.8438V27.8447L15.7107 27.8457L18.7253 33.123L19.7263 31.3701L16.6326 25.9531H7.67456C7.57931 25.9531 7.49113 25.9025 7.44312 25.8203C7.39517 25.7377 7.39477 25.6347 7.44214 25.5518L7.51929 25.416L10.4587 20.2686H8.3396L4.06421 27.7109ZM17.0203 14.4492C16.9726 14.5326 16.8839 14.584 16.7878 14.584H10.7566L13.7742 19.8662C13.8212 19.9486 13.8212 20.0505 13.7742 20.1328L10.7556 25.417H16.7878L16.824 25.4199C16.9056 25.431 16.9786 25.4791 17.0203 25.5518L20.0349 30.8301L23.0496 25.5527L23.0691 25.5234C23.1194 25.4576 23.1978 25.418 23.282 25.418H29.3142L26.2966 20.1348C26.2496 20.0524 26.2496 19.9505 26.2966 19.8682L29.3132 14.585H23.282C23.1858 14.585 23.0973 14.5327 23.0496 14.4492L20.0339 9.1709L17.0203 14.4492ZM5.09937 30.1074H13.9539L15.0164 28.2471H4.05835L5.09937 30.1074ZM26.8376 20.002L30.0056 25.5488C30.0064 25.5502 30.0077 25.5513 30.0085 25.5527L31.3181 27.8467C31.33 27.8675 31.3386 27.8895 31.3445 27.9121C31.3621 27.9796 31.3531 28.0524 31.3171 28.1143C31.2692 28.1967 31.181 28.2479 31.0857 28.248H25.0535L25.9587 29.832L26.116 30.1074H34.6638L33.5916 28.248L28.9939 20.2695L28.9167 20.1357L28.9158 20.1328C28.9141 20.1299 28.9124 20.127 28.9109 20.124C28.8804 20.0648 28.8719 19.9969 28.8884 19.9336C28.8944 19.9104 28.9034 19.8876 28.9158 19.8662C28.9169 19.8642 28.9185 19.8623 28.9197 19.8604L31.9333 14.585H29.9314L26.8376 20.002ZM35.1228 29.832L36.1599 27.9805L31.7312 20.2695H29.6121L35.1228 29.832ZM11.1541 19.8652C11.1778 19.9065 11.1891 19.9529 11.1892 19.999C11.1895 20.0452 11.1777 20.0913 11.1541 20.1328L8.13745 25.416H10.1384L13.2322 19.999L10.0652 14.4551C10.064 14.4531 10.0624 14.4513 10.0613 14.4492L8.75171 12.1562C8.71599 12.0937 8.70676 12.0198 8.72534 11.9521C8.73139 11.9296 8.74064 11.9075 8.75269 11.8867C8.80065 11.8043 8.88877 11.7539 8.98413 11.7539H15.0154L13.9529 9.89355H5.40601L11.1541 19.8652ZM20.3435 8.63184L23.4373 14.0488H32.3953C32.4669 14.0488 32.5342 14.0778 32.5837 14.127C32.6001 14.1432 32.6148 14.1613 32.6267 14.1816C32.6746 14.2642 32.675 14.3663 32.6277 14.4492L29.6111 19.7324H31.7312L36.0056 12.291H24.5916C24.4954 12.291 24.4068 12.2397 24.3591 12.1562L21.3445 6.87793L20.3435 8.63184ZM3.90894 12.0195L8.3396 19.7314H10.4578L4.94604 10.168L3.90894 12.0195ZM21.3777 2.14355L15.7117 12.1553C15.6878 12.1974 15.6535 12.2314 15.613 12.2549C15.5932 12.2664 15.5718 12.2751 15.5496 12.2812C15.5267 12.2876 15.5026 12.291 15.4783 12.291H9.44702L10.4509 14.0479H16.6326L21.1121 6.20508L21.1316 6.17578C21.1351 6.17123 21.1396 6.16738 21.1433 6.16309C21.1511 6.15413 21.1589 6.14548 21.1677 6.1377C21.1742 6.13199 21.1813 6.12711 21.1882 6.12207C21.1954 6.11686 21.202 6.11091 21.2097 6.10645L21.2253 6.09863C21.2325 6.09505 21.2403 6.09278 21.2478 6.08984C21.2582 6.0858 21.2682 6.08086 21.2791 6.07812C21.2889 6.07564 21.2992 6.07558 21.3093 6.07422C21.321 6.07266 21.3325 6.06934 21.3445 6.06934C21.4406 6.06934 21.5292 6.12162 21.5769 6.20508L24.5906 11.4814L25.6501 9.62598L21.3777 2.14355ZM25.0535 11.7539H36.0115L34.9695 9.89355H26.1169L25.0535 11.7539ZM14.4177 9.625L15.4773 11.4805L16.6794 9.35742L20.9167 1.87012H18.8494L14.4177 9.625Z" fill="#0A1119"/>
</svg>
