<svg width="60" height="60" viewBox="0 0 60 60" fill="none" xmlns="http://www.w3.org/2000/svg">
<path d="M6.42829 25.7144H10.714C11.2823 25.7144 11.8274 25.9401 12.2292 26.342C12.6311 26.7438 12.8569 27.2889 12.8569 27.8572V38.5715C12.8569 39.1398 12.6311 39.6849 12.2292 40.0867C11.8274 40.4886 11.2823 40.7144 10.714 40.7144H6.42829C5.29165 40.7144 4.20156 40.2628 3.39783 39.4591C2.59411 38.6554 2.14258 37.5653 2.14258 36.4286V30.0001C2.14258 28.8634 2.59411 27.7733 3.39783 26.9696C4.20156 26.1659 5.29165 25.7144 6.42829 25.7144V25.7144Z" stroke="white" stroke-width="1.5" stroke-linecap="round" stroke-linejoin="round"/>
<path d="M53.5717 40.7144H49.286C48.7177 40.7144 48.1726 40.4886 47.7708 40.0867C47.3689 39.6849 47.1431 39.1398 47.1431 38.5715V27.8572C47.1431 27.2889 47.3689 26.7438 47.7708 26.342C48.1726 25.9401 48.7177 25.7144 49.286 25.7144H53.5717C54.7083 25.7144 55.7984 26.1659 56.6022 26.9696C57.4059 27.7733 57.8574 28.8634 57.8574 30.0001V36.4286C57.8574 37.5653 57.4059 38.6554 56.6022 39.4591C55.7984 40.2628 54.7083 40.7144 53.5717 40.7144V40.7144Z" stroke="white" stroke-width="1.5" stroke-linecap="round" stroke-linejoin="round"/>
<path d="M40.7148 52.5001C42.9881 52.5001 45.1683 51.597 46.7758 49.9896C48.3832 48.3821 49.2863 46.2019 49.2863 43.9286V40.7144" stroke="white" stroke-width="1.5" stroke-linecap="round" stroke-linejoin="round"/>
<path d="M35.356 47.1431C36.7768 47.1431 38.1394 47.7075 39.1441 48.7121C40.1488 49.7168 40.7132 51.0794 40.7132 52.5002C40.7132 53.921 40.1488 55.2836 39.1441 56.2883C38.1394 57.2929 36.7768 57.8574 35.356 57.8574H28.9275C27.5067 57.8574 26.144 57.2929 25.1394 56.2883C24.1347 55.2836 23.5703 53.921 23.5703 52.5002C23.5703 51.0794 24.1347 49.7168 25.1394 48.7121C26.144 47.7075 27.5067 47.1431 28.9275 47.1431H35.356Z" stroke="white" stroke-width="1.5" stroke-linecap="round" stroke-linejoin="round"/>
<path d="M10.7148 25.7145V21.4288C10.7148 16.3139 12.7467 11.4085 16.3635 7.79172C19.9803 4.17495 24.8857 2.14307 30.0006 2.14307C35.1154 2.14307 40.0208 4.17495 43.6376 7.79172C47.2544 11.4085 49.2863 16.3139 49.2863 21.4288V25.7145" stroke="white" stroke-width="1.5" stroke-linecap="round" stroke-linejoin="round"/>
<path d="M23.5703 17.1431V23.5716" stroke="white" stroke-width="1.5" stroke-linecap="round" stroke-linejoin="round"/>
<path d="M36.4277 17.1431V23.5716" stroke="white" stroke-width="1.5" stroke-linecap="round" stroke-linejoin="round"/>
<path d="M23.5703 32.1431C23.5703 37.8431 36.4275 37.8431 36.4275 32.1431" stroke="white" stroke-width="1.5" stroke-linecap="round" stroke-linejoin="round"/>
</svg>
