<svg width="50" height="50" viewBox="0 0 50 50" fill="none" xmlns="http://www.w3.org/2000/svg">
<g clip-path="url(#clip0_879_287)">
<path d="M20.7654 32.4485H8.88245L13.1162 25H9.54754L3.57129 35.4532H19.0579L23.2916 42.9022L24.9991 39.897L20.7654 32.4485Z" stroke="#0A1119" stroke-linecap="round" stroke-linejoin="round"/>
<path d="M5.32083 11.4082L3.57129 14.5476L9.54754 25.0008H13.1162L5.32083 11.4082Z" stroke="#0A1119" stroke-linecap="round" stroke-linejoin="round"/>
<path d="M44.6785 11.4082H32.726L30.9414 14.5476H46.428L44.6785 11.4082Z" stroke="#0A1119" stroke-linecap="round" stroke-linejoin="round"/>
<path d="M26.7495 0.893066L19.0588 14.5472H10.5908L12.2988 17.5519H20.7663L26.708 7.0982L30.9417 14.5472L32.7263 11.4078L26.7495 0.893066Z" stroke="#0A1119" stroke-linecap="round" stroke-linejoin="round"/>
<path d="M26.7488 0.893066H23.2502L17.2734 11.4078L19.058 14.5472L26.7488 0.893066Z" stroke="#0A1119" stroke-linecap="round" stroke-linejoin="round"/>
<path d="M10.5904 14.5476H19.0584L17.2738 11.4082H5.32129L13.1166 25.0008L8.88292 32.4493H12.2984L16.5321 25.0008L10.5904 14.5476Z" stroke="#0A1119" stroke-linecap="round" stroke-linejoin="round"/>
<path d="M37.7004 32.4487H29.2329L23.2917 42.9024L19.058 35.4534L17.2734 38.5929L23.2502 49.1071L30.9409 35.4534H39.4084L37.7004 32.4487Z" stroke="#0A1119" stroke-linecap="round" stroke-linejoin="round"/>
<path d="M3.57129 35.4536L5.32032 38.593H17.2733L19.0579 35.4536H3.57129Z" stroke="#0A1119" stroke-linecap="round" stroke-linejoin="round"/>
<path d="M40.4524 25H36.8838L44.6791 38.5926L46.4287 35.4532L40.4524 25Z" stroke="#0A1119" stroke-linecap="round" stroke-linejoin="round"/>
<path d="M30.9407 14.5471L26.707 7.09814L24.999 10.1034L29.2327 17.5519H41.1162L36.8825 25.0004H40.4511L46.4273 14.5471H30.9407Z" stroke="#0A1119" stroke-linecap="round" stroke-linejoin="round"/>
<path d="M36.8831 25.0003L41.1168 17.5518H37.7008L33.4676 25.0003L39.4088 35.4535H30.9414L32.726 38.5929H44.6785L36.8831 25.0003Z" stroke="#0A1119" stroke-linecap="round" stroke-linejoin="round"/>
<path d="M30.9408 35.4536L23.25 49.1072H26.7486L32.7253 38.593L30.9408 35.4536Z" stroke="#0A1119" stroke-linecap="round" stroke-linejoin="round"/>
</g>
<defs>
<clipPath id="clip0_879_287">
<rect width="50" height="50" fill="white"/>
</clipPath>
</defs>
</svg>
