<svg width="34" height="34" viewBox="0 0 34 34" fill="none" xmlns="http://www.w3.org/2000/svg">
<g clip-path="url(#clip0_568_8129)">
<path d="M11.7691 15.6923H7.19216C6.64725 15.6923 6.184 15.5016 5.80255 15.1202C5.42131 14.7387 5.23044 14.2756 5.23044 13.7306V13.077C5.23044 11.633 5.74136 10.4003 6.76311 9.37858C7.7848 8.35718 9.01768 7.84626 10.4615 7.84626H11.7691C12.1232 7.84626 12.4296 7.7168 12.6885 7.45808C12.9473 7.19923 13.0767 6.89285 13.0767 6.53867V3.92305C13.0767 3.56893 12.9473 3.26227 12.6885 3.00341C12.4297 2.74491 12.1233 2.61523 11.7691 2.61523H10.4615C9.04473 2.61523 7.69305 2.89134 6.40564 3.44276C5.11837 3.99454 4.00494 4.74041 3.06491 5.68044C2.12496 6.62004 1.3793 7.73354 0.827596 9.02096C0.275889 10.3082 0 11.6603 0 13.0769V27.4612C0 28.5515 0.381235 29.4773 1.14406 30.2404C1.90696 31.0031 2.83346 31.3844 3.92314 31.3844H11.7696C12.8592 31.3844 13.7854 31.0031 14.5484 30.2404C15.3111 29.4773 15.6925 28.5515 15.6925 27.4612V19.6154C15.6925 18.5253 15.3111 17.5995 14.5479 16.8363C13.7853 16.0737 12.8587 15.6923 11.7691 15.6923Z" fill="#0A1119"/>
<path d="M32.8569 16.8363C32.0942 16.0737 31.168 15.6923 30.0781 15.6923H25.5012C24.9566 15.6923 24.4929 15.5016 24.1121 15.1202C23.7305 14.7387 23.54 14.2756 23.54 13.7306V13.077C23.54 11.633 24.0509 10.4003 25.0721 9.37858C26.0935 8.35718 27.3263 7.84626 28.7708 7.84626H30.0781C30.4323 7.84626 30.7389 7.7168 30.9976 7.45808C31.2562 7.19923 31.3861 6.89285 31.3861 6.53867V3.92305C31.3861 3.56893 31.2563 3.26227 30.9976 3.00341C30.739 2.74491 30.4324 2.61523 30.0781 2.61523H28.7708C27.3532 2.61523 26.0019 2.89134 24.7141 3.44276C23.427 3.99454 22.314 4.74041 21.3739 5.68044C20.4339 6.62004 19.6879 7.73354 19.1364 9.02096C18.5848 10.3082 18.3086 11.6603 18.3086 13.0769V27.4612C18.3086 28.5515 18.6902 29.4773 19.4528 30.2404C20.2155 31.0031 21.1418 31.3844 22.2316 31.3844H30.0776C31.1675 31.3844 32.0937 31.0031 32.8564 30.2404C33.6195 29.4773 34.0004 28.5515 34.0004 27.4612V19.6154C34.0004 18.5252 33.6195 17.5995 32.8569 16.8363Z" fill="#0A1119"/>
</g>
<defs>
<clipPath id="clip0_568_8129">
<rect width="34" height="34" fill="white"/>
</clipPath>
</defs>
</svg>
