<svg width="60" height="60" viewBox="0 0 60 60" fill="none" xmlns="http://www.w3.org/2000/svg">
<path d="M29.7504 3.625C29.8844 3.62514 30.0088 3.69729 30.0756 3.81348L36.6362 15.2158C41.3428 16.8618 45.3059 20.1534 47.8022 24.4922C50.2985 28.8311 51.1583 33.9252 50.2309 38.8467L56.8256 50.3066C56.8923 50.4226 56.8916 50.5658 56.8246 50.6816C56.7577 50.7974 56.6341 50.869 56.5004 50.8691H43.269C40.9963 52.8141 38.3359 54.2486 35.4643 55.0713C32.5464 55.9072 29.4815 56.093 26.4848 55.6162C23.488 55.1394 20.6302 54.0113 18.1117 52.3105C17.4547 51.8668 16.826 51.3854 16.226 50.8721H3.00041C2.86654 50.8721 2.74224 50.8005 2.67522 50.6846C2.60849 50.5688 2.60868 50.4264 2.67522 50.3105L9.26897 38.8477C8.71056 35.886 8.79453 32.8376 9.51799 29.9111C10.2527 26.9393 11.628 24.166 13.5463 21.7871C15.4647 19.4082 17.8798 17.4819 20.6205 16.1445C21.3526 15.7873 22.1036 15.4755 22.8686 15.208L29.4252 3.81348L29.4526 3.77148C29.5229 3.67988 29.633 3.625 29.7504 3.625ZM12.2895 44.9385C12.3738 45.0885 12.457 45.237 12.5444 45.3818C12.9032 45.9772 13.2923 46.5518 13.7084 47.1045C14.5594 48.2332 15.5263 49.2709 16.5951 50.1992C17.2092 50.7328 17.8548 51.2313 18.5317 51.6885C20.9595 53.3281 23.7144 54.4154 26.603 54.875C29.4914 55.3345 32.4448 55.1553 35.2572 54.3496C37.7376 53.639 40.0558 52.4565 42.0873 50.8691H31.3998C30.3175 50.9808 29.2339 50.9776 28.1645 50.8691H28.1069C28.0936 50.8691 28.08 50.8686 28.0668 50.8672C24.237 50.4589 20.6846 48.669 18.0668 45.8301C18.0541 45.8163 18.042 45.8023 18.0317 45.7871C16.6403 44.2725 15.5433 42.4971 14.8139 40.5498L12.2895 44.9385ZM25.6039 20.2939C22.4843 21.1862 19.7207 23.0594 17.727 25.6514L3.64885 50.1221H15.3949C14.6015 49.3661 13.8682 48.5482 13.2016 47.6758C13.1714 47.6363 13.1417 47.5964 13.1117 47.5566C13.0165 47.4302 12.9229 47.3025 12.8305 47.1738C12.7907 47.1185 12.7506 47.0635 12.7113 47.0078C12.617 46.8736 12.5243 46.7381 12.433 46.6016C12.415 46.5747 12.3962 46.5484 12.3783 46.5215L12.349 46.4775C12.2478 46.3238 12.1485 46.1683 12.0512 46.0117C12.0391 45.9923 12.0261 45.9735 12.0141 45.9541H11.4887C11.355 45.954 11.2314 45.8824 11.1645 45.7666C11.0975 45.6507 11.0968 45.5076 11.1635 45.3916L11.5258 44.7607C11.5279 44.7567 11.5294 44.7521 11.5317 44.748L14.5737 39.4619L14.5834 39.4463L25.6039 20.2939ZM49.9955 39.9404C49.5718 41.6794 48.9258 43.3566 48.0727 44.9307L48.3363 45.3887C48.403 45.5046 48.4032 45.6479 48.3363 45.7637C48.2693 45.8795 48.145 45.9511 48.0112 45.9512H47.2846C47.282 45.9512 47.2794 45.9521 47.2768 45.9521H41.1576C41.1531 45.9521 41.1485 45.9513 41.144 45.9512H19.2406C19.9134 46.5985 20.6456 47.1887 21.434 47.707C23.4749 49.0487 25.7927 49.8677 28.1879 50.1191H31.3735L31.393 50.1182H43.1342C43.1391 50.1182 43.144 50.1189 43.1488 50.1191H55.852L49.9955 39.9404ZM32.8862 20.04C30.8049 19.5973 28.6703 19.6019 26.6166 20.0361L15.309 39.6904C15.9842 41.7463 17.0786 43.6209 18.5102 45.2012H40.9906C42.4445 43.602 43.5304 41.7213 44.1928 39.6904L32.8862 20.04ZM42.3979 25.2314L42.6098 25.5137C44.7619 28.4509 45.8482 32.0459 45.6801 35.6973C45.6487 36.3798 45.5713 37.056 45.4545 37.7227C45.4271 37.8796 45.3968 38.0361 45.3647 38.1924C45.3537 38.2455 45.343 38.2986 45.3315 38.3516C45.2974 38.5089 45.26 38.6657 45.2211 38.8223C45.2074 38.8773 45.1944 38.9324 45.1801 38.9873C45.1403 39.1407 45.0986 39.2938 45.0541 39.4463C45.0385 39.4998 45.0225 39.5531 45.0063 39.6064C44.9906 39.6583 44.9757 39.7109 44.9594 39.7627C44.9553 39.7756 44.9491 39.7876 44.9438 39.7998C44.3195 41.7663 43.3213 43.6039 41.9877 45.2012H47.0629C47.1472 45.0561 47.2306 44.9088 47.3139 44.7588C47.3147 44.7574 47.3151 44.7553 47.3158 44.7539C48.3397 42.9104 49.067 40.9151 49.4701 38.8428V38.8398C50.405 34.0533 49.5818 29.0885 47.1528 24.8662C44.895 20.9421 41.3925 17.9077 37.2231 16.2373L42.3979 25.2314ZM23.9291 14.8682C25.6161 14.3782 27.3622 14.1048 29.1264 14.0557C29.1482 14.055 29.17 14.0543 29.1918 14.0537L29.4252 13.6494L29.4526 13.6084C29.5229 13.5167 29.633 13.4619 29.7504 13.4619C29.8844 13.4621 30.0088 13.5332 30.0756 13.6494L44.4799 38.6875C44.4904 38.6458 44.501 38.6043 44.5112 38.5625C45.2522 35.5079 45.0345 32.2915 43.8764 29.3564C43.8555 29.3035 43.8364 29.2499 43.8149 29.1973L41.7651 25.6348C41.7635 25.6321 41.7617 25.6296 41.7602 25.627L36.0541 15.7109C36.0516 15.7066 36.0496 15.7017 36.0473 15.6973L29.7504 4.75195L23.9291 14.8682ZM29.4252 14.7969C29.4229 14.797 29.4207 14.7988 29.4184 14.7988C27.3165 14.8311 25.2322 15.1946 23.2426 15.877C23.2263 15.8825 23.2094 15.8864 23.1928 15.8896C22.4289 16.1534 21.6787 16.4621 20.9487 16.8184C18.3072 18.1074 15.9797 19.9645 14.1303 22.2578C12.2808 24.5513 10.9549 27.2261 10.2465 30.0918C9.6211 32.6219 9.49002 35.2471 9.85783 37.8213L15.0072 28.8721C16.4365 25.3882 19.0413 22.521 22.3656 20.7764C25.4516 19.1569 28.9731 18.6007 32.391 19.1797L29.8656 14.791C29.8299 14.7898 29.7935 14.7891 29.7504 14.7891C29.6333 14.7891 29.565 14.7944 29.4252 14.7969Z" fill="#0A1119"/>
</svg>
