<svg width="51" height="51" viewBox="0 0 51 51" fill="none" xmlns="http://www.w3.org/2000/svg">
<path d="M32.9302 7.53956C31.7886 6.82613 30.2704 7.0006 28.5703 7.88946C29.3027 8.71287 30.0301 9.59421 30.7524 10.5335C31.7953 9.77623 32.9876 9.29411 34.2338 9.12581C33.9573 8.46666 33.5028 7.91363 32.9302 7.53956Z" stroke="#0A1119" stroke-linecap="round" stroke-linejoin="round"/>
<path d="M20.2479 40.4668C19.2051 41.224 18.0127 41.7061 16.7666 41.8744C17.0431 42.5336 17.4976 43.0866 18.0702 43.4607C19.2118 44.1741 20.7299 43.9996 22.4301 43.1108C21.6977 42.2874 20.9703 41.406 20.2479 40.4668Z" stroke="#0A1119" stroke-linecap="round" stroke-linejoin="round"/>
<path d="M28.4766 38.6572C29.1898 39.3237 29.9505 39.9284 30.7515 40.4656C31.2828 39.774 31.8085 39.053 32.3285 38.3027C31.0812 38.4656 29.7972 38.5837 28.4766 38.6572Z" stroke="#0A1119" stroke-linecap="round" stroke-linejoin="round"/>
<path d="M20.2469 10.5332C19.7155 11.2248 19.1899 11.9458 18.6699 12.696C19.9172 12.5332 21.2012 12.4151 22.5218 12.3416C21.8086 11.675 21.0479 11.0704 20.2469 10.5332Z" stroke="#0A1119" stroke-linecap="round" stroke-linejoin="round"/>
<path d="M34.8479 37.9071C34.9323 39.2633 34.7218 40.6221 34.2334 41.8743C34.899 41.9447 35.5688 41.7952 36.1544 41.4455C37.296 40.7321 37.9155 39.2217 38.0543 37.1836C37.0293 37.4584 35.9605 37.6996 34.8479 37.9071Z" stroke="#0A1119" stroke-linecap="round" stroke-linejoin="round"/>
<path d="M14.8444 9.5552C13.7027 10.2686 13.0833 11.779 12.9443 13.8171C13.9694 13.5423 15.0382 13.3011 16.1508 13.0936C16.0664 11.7374 16.2769 10.3786 16.7653 9.12637C16.0997 9.05594 15.4299 9.20545 14.8444 9.5552Z" stroke="#0A1119" stroke-linecap="round" stroke-linejoin="round"/>
<path d="M33.3315 30.3946C33.3504 30.3594 33.3679 30.3242 33.3867 30.2891C33.4056 30.3474 33.4234 30.4052 33.442 30.4634C33.386 30.4751 33.3307 30.4873 33.2744 30.4988C33.2933 30.4637 33.3127 30.4298 33.3315 30.3946Z" stroke="#0A1119" stroke-linecap="round" stroke-linejoin="round"/>
<path d="M17.669 20.6062C17.6502 20.6414 17.6327 20.6765 17.6139 20.7117C17.595 20.6534 17.5772 20.5956 17.5586 20.5374C17.6146 20.5257 17.6699 20.5135 17.7261 20.502C17.7073 20.537 17.6878 20.571 17.669 20.6062Z" stroke="#0A1119" stroke-linecap="round" stroke-linejoin="round"/>
<path d="M10.8984 22.9412C11.1861 23.7851 11.5001 24.6383 11.8404 25.5008C12.3337 24.2502 12.8812 22.9875 13.4828 21.7129C12.5928 22.0482 11.7287 22.4589 10.8984 22.9412Z" stroke="#0A1119" stroke-linecap="round" stroke-linejoin="round"/>
<path d="M17.669 30.3945C17.6879 30.4297 17.7074 30.4636 17.7262 30.4988C17.6699 30.4872 17.6146 30.475 17.5586 30.4632C17.5772 30.4051 17.5949 30.3474 17.6138 30.2891C17.6326 30.3242 17.6502 30.3593 17.669 30.3945Z" stroke="#0A1119" stroke-linecap="round" stroke-linejoin="round"/>
<path d="M39.159 25.5C38.6656 26.7507 38.1182 28.0133 37.5166 29.2879C38.4065 28.9526 39.2706 28.5419 40.1009 28.0596C39.8132 27.2157 39.4992 26.3625 39.159 25.5Z" stroke="#0A1119" stroke-linecap="round" stroke-linejoin="round"/>
<path d="M8.0324 25.5C7.64325 26.0888 7.42801 26.7913 7.41504 27.5151C7.41504 28.9419 8.31371 30.2778 9.87492 31.4271C10.1676 30.3289 10.509 29.2064 10.8993 28.0596C9.77202 27.4606 8.79012 26.584 8.0324 25.5Z" stroke="#0A1119" stroke-linecap="round" stroke-linejoin="round"/>
<path d="M32.3291 12.6973C33.0831 13.785 33.8196 14.9295 34.5387 16.1308C34.7153 15.1289 34.8188 14.1135 34.848 13.094C34.029 12.9418 33.1894 12.8096 32.3291 12.6973Z" stroke="#0A1119" stroke-linecap="round" stroke-linejoin="round"/>
<path d="M25.4996 15.7116C25.4621 15.7116 25.4252 15.7129 25.3877 15.713C25.425 15.6661 25.4623 15.6206 25.4996 15.5742C25.5368 15.6206 25.5741 15.6661 25.6114 15.7129C25.574 15.7127 25.5371 15.7116 25.4996 15.7116Z" stroke="#0A1119" stroke-linecap="round" stroke-linejoin="round"/>
<path d="M42.0618 15.1504C41.8297 16.6431 41.5171 18.1198 41.1255 19.573C42.6868 20.7222 43.5854 22.0581 43.5854 23.485C43.5724 24.2088 43.3572 24.9113 42.968 25.5001C42.2103 26.5841 41.2284 27.4607 40.1011 28.0597C39.2708 28.542 38.4067 28.9527 37.5168 29.288C37.3431 29.3545 37.1634 29.4179 36.9839 29.4815C35.8228 29.8872 34.6398 30.2149 33.4415 30.4627C33.3857 30.4744 33.3307 30.4866 33.2746 30.4981C31.7011 30.8185 30.1113 31.0359 28.5136 31.1491C27.5335 31.2198 26.5274 31.2575 25.5005 31.2575C24.4736 31.2575 23.4674 31.2198 22.4873 31.1491C23.3767 32.5901 24.3455 33.9718 25.3886 35.2865C25.4261 35.2866 25.4629 35.2878 25.5005 35.2877C25.538 35.2877 25.5749 35.2865 25.6124 35.2864C27.286 35.283 28.9211 35.2047 30.5018 35.0569C31.8707 34.9288 33.1962 34.747 34.4738 34.5204C34.5773 34.5021 34.6804 34.4834 34.783 34.4643C35.8644 34.2649 36.9062 34.0328 37.9083 33.7678C39.1534 33.4392 40.3345 33.0652 41.4332 32.6461C46.9714 30.534 50.5002 27.3434 50.5002 23.7729C50.5002 20.34 47.2352 17.26 42.0618 15.1504Z" stroke="#0A1119" stroke-linecap="round" stroke-linejoin="round"/>
<path d="M22.9436 12.7446C22.803 12.6081 22.6623 12.4713 22.5223 12.3418C21.2039 12.4139 19.9199 12.5321 18.6704 12.6962C17.811 12.8085 16.9714 12.9407 16.1515 13.093C15.0406 13.2996 13.9718 13.5408 12.945 13.8165C11.5866 14.176 10.2488 14.6213 8.93842 15.1501C3.76509 17.2597 0.5 20.3397 0.5 23.7726V27.227C0.5 23.6565 4.02884 20.4659 9.56698 18.3538C10.6657 17.9348 11.8468 17.5607 13.0919 17.2321C14.0926 16.968 15.1343 16.7358 16.2172 16.5356C16.32 16.5167 16.4231 16.4979 16.5264 16.4794C17.804 16.2529 19.1296 16.071 20.4985 15.943C22.0791 15.7952 23.7143 15.7168 25.3879 15.7134C25.4252 15.6666 25.4625 15.6211 25.4998 15.5747C24.7024 14.5752 23.8487 13.6301 22.9436 12.7446Z" stroke="#0A1119" stroke-linecap="round" stroke-linejoin="round"/>
<path d="M41.125 19.5723C40.8324 20.6705 40.4909 21.793 40.1006 22.9398C41.2279 23.5388 42.2098 24.4154 42.9675 25.4994C43.3567 24.9106 43.5719 24.2081 43.5849 23.4843C43.5849 22.0574 42.6863 20.7215 41.125 19.5723Z" stroke="#0A1119" stroke-linecap="round" stroke-linejoin="round"/>
<path d="M16.4607 34.8691C16.2841 35.871 16.1806 36.8864 16.1514 37.9059C16.9704 38.0581 17.81 38.1903 18.6703 38.3026C17.9163 37.2148 17.1798 36.0703 16.4607 34.8691Z" stroke="#0A1119" stroke-linecap="round" stroke-linejoin="round"/>
<path d="M12.6813 32.9969C12.9703 31.9269 13.3054 30.8343 13.6867 29.719C13.7229 29.6132 13.7594 29.5072 13.7963 29.4012C14.254 28.0902 14.7729 26.7596 15.3532 25.4095C16.0253 23.8538 16.7801 22.2819 17.6142 20.7114C17.5954 20.653 17.5776 20.5953 17.5591 20.5371C16.3608 20.7849 15.1778 21.1125 14.0168 21.5182C13.8372 21.5818 13.6574 21.6452 13.4838 21.7117C12.8822 22.9837 12.3348 24.2463 11.8414 25.4996C11.5015 26.3613 11.1875 27.2146 10.8995 28.0593C10.5092 29.2039 10.1678 30.3264 9.87505 31.4268C9.48348 32.8799 9.17084 34.3566 8.93873 35.8494C8.03996 41.7536 8.87171 46.3543 11.6183 48.0707L14.3822 49.7979C11.5255 48.0127 10.737 43.1095 11.8163 36.862C12.0304 35.6226 12.3217 34.3283 12.6813 32.9969Z" stroke="#0A1119" stroke-linecap="round" stroke-linejoin="round"/>
<path d="M25.4996 35.2884C25.5371 35.2884 25.574 35.2872 25.6115 35.2871C25.5742 35.3339 25.5368 35.3795 25.4996 35.4259C25.4623 35.3795 25.425 35.334 25.3877 35.2872C25.4252 35.2873 25.462 35.2884 25.4996 35.2884Z" stroke="#0A1119" stroke-linecap="round" stroke-linejoin="round"/>
<path d="M33.3311 20.6061C33.3123 20.571 33.2929 20.537 33.2741 20.5019C32.4346 18.9347 31.5543 17.4412 30.6457 16.0334C29.8588 14.8143 29.0505 13.6626 28.2304 12.5782C28.1641 12.4903 28.0976 12.4031 28.031 12.3165C27.3308 11.4025 26.6242 10.542 25.911 9.73507C25.0255 8.73226 24.1357 7.81208 23.2511 6.99171C18.7921 2.85626 14.475 1.14369 11.6182 2.92896C8.87169 4.64537 8.03996 9.24604 8.93873 15.1503C10.2491 14.6215 11.5869 14.1762 12.9453 13.8167C13.0842 11.7786 13.7037 10.2682 14.8453 9.55482C15.4309 9.20507 16.1006 9.05556 16.7663 9.126C18.0124 9.29428 19.2048 9.77637 20.2477 10.5336C21.0487 11.0708 21.8094 11.6754 22.5226 12.342C22.6626 12.4716 22.8033 12.6083 22.9439 12.7448C23.849 13.6303 24.7027 14.5754 25.5001 15.5749C25.5373 15.6213 25.5746 15.6667 25.6119 15.7135C26.655 17.0283 27.6239 18.4099 28.5132 19.851C29.0598 20.7343 29.5909 21.6578 30.1065 22.6212C30.62 23.5839 31.0929 24.546 31.5264 25.5C32.2347 23.9458 32.8557 22.3467 33.386 20.7115C33.3673 20.6764 33.3498 20.6413 33.3311 20.6061Z" stroke="#0A1119" stroke-linecap="round" stroke-linejoin="round"/>
<path d="M22.4291 43.111C20.7289 43.9998 19.2108 44.1743 18.0691 43.4609C17.4965 43.0868 17.0421 42.5338 16.7656 41.8746C16.2772 40.6223 16.0667 39.2636 16.1511 37.9074C16.1804 36.8879 16.2838 35.8725 16.4605 34.8707C16.4941 34.6747 16.5333 34.4745 16.5721 34.2744C16.8281 32.9832 17.1575 31.7104 17.5584 30.4632C17.5769 30.405 17.5946 30.3473 17.6134 30.289C18.1438 28.6538 18.7648 27.0548 19.473 25.5006C19.9066 24.5465 20.3794 23.5845 20.8929 22.6219C21.4063 21.6593 21.9396 20.735 22.4862 19.8516C20.8886 19.9647 19.2987 20.1821 17.7252 20.5026C17.7065 20.5376 17.6871 20.5716 17.6684 20.6068C17.6496 20.6419 17.6321 20.6771 17.6134 20.7123C16.7794 22.2828 16.0245 23.8548 15.3524 25.4104C14.7704 26.7576 14.2515 28.0881 13.7956 29.4021C13.7585 29.5082 13.7219 29.6142 13.6859 29.72C13.3048 30.8333 12.9696 31.9259 12.6805 32.9978C12.3209 34.3293 12.0296 35.6235 11.8155 36.8629C10.7363 43.1104 11.5247 48.0136 14.3814 49.7989C17.128 51.5153 21.2248 49.9946 25.4994 46.2C24.4211 45.2361 23.3959 44.2047 22.4291 43.111Z" stroke="#0A1119" stroke-linecap="round" stroke-linejoin="round"/>
<path d="M27.7487 44.0087C26.8641 43.1883 25.9743 42.268 25.0888 41.2652C24.3772 40.4593 23.6706 39.5988 22.9689 38.6839C22.9023 38.597 22.8358 38.5097 22.7694 38.4221C21.9494 37.3377 21.1411 36.186 20.3542 34.9669C19.4456 33.5591 18.5654 32.0656 17.7258 30.4984C17.6697 30.4869 17.6146 30.4746 17.5588 30.4629C17.1579 31.7101 16.8285 32.9829 16.5726 34.2741C16.5337 34.4742 16.4946 34.6744 16.4609 34.8704C17.1779 36.0703 17.9144 37.2148 18.6705 38.3039C19.19 39.0534 19.7156 39.7743 20.2474 40.4668C20.9681 41.4048 21.6955 42.2862 22.4295 43.1108C23.3964 44.2044 24.4216 45.2358 25.4998 46.1998C29.7744 49.9944 33.8712 51.515 36.6177 49.7986L39.3816 48.0714C36.5249 49.8567 32.2077 48.1441 27.7487 44.0087Z" stroke="#0A1119" stroke-linecap="round" stroke-linejoin="round"/>
<path d="M41.4328 32.6467C40.3341 33.0657 39.1529 33.4397 37.9079 33.7683C36.9072 34.0325 35.8655 34.2647 34.7826 34.4648C34.6798 34.4838 34.5767 34.5025 34.4734 34.521C33.1957 34.7475 31.8702 34.9294 30.5013 35.0574C28.9207 35.2053 27.2856 35.2836 25.6119 35.287C25.5747 35.3338 25.5373 35.3793 25.5 35.4258C26.2974 36.4252 27.1511 37.3704 28.0561 38.2559C28.1968 38.3924 28.3375 38.5291 28.4774 38.6587C29.7959 38.5866 31.0798 38.4684 32.3293 38.3042C33.1887 38.192 34.0284 38.0597 34.8483 37.9074C35.9592 37.7009 37.028 37.4597 38.0547 37.1839C39.4132 36.8244 40.751 36.3791 42.0613 35.8503C47.2347 33.7407 50.4998 30.6607 50.4998 27.2279V23.7734C50.4998 27.344 46.9709 30.5346 41.4328 32.6467Z" stroke="#0A1119" stroke-linecap="round" stroke-linejoin="round"/>
<path d="M32.3292 12.6964C31.8097 11.9469 31.2841 11.226 30.7523 10.5336C30.0316 9.59547 29.3042 8.71413 28.5702 7.88956C27.6033 6.79592 26.5781 5.76448 25.4999 4.80056C21.2253 1.00593 17.1285 -0.514752 14.3819 1.2017L11.618 2.92893C14.4748 1.14365 18.792 2.85622 23.251 6.99165C24.1356 7.81205 25.0254 8.7322 25.9109 9.73501C26.6225 10.5409 27.3291 11.4014 28.0308 12.3164C28.0974 12.4033 28.1638 12.4905 28.2303 12.5781C29.0503 13.6625 29.8587 14.8142 30.6455 16.0333C31.5541 17.4411 32.4344 18.9347 33.2739 20.5019C33.2927 20.537 33.3121 20.5709 33.3309 20.6061C33.3497 20.6412 33.3672 20.6764 33.3858 20.7115C33.4047 20.6532 33.4224 20.5955 33.4409 20.5374C33.8418 19.2902 34.1711 18.0173 34.4271 16.7262C34.466 16.5261 34.5051 16.3259 34.5387 16.1299C33.8218 14.93 33.0852 13.7855 32.3292 12.6964Z" stroke="#0A1119" stroke-linecap="round" stroke-linejoin="round"/>
<path d="M39.3816 2.92841L36.6178 1.20117C39.4745 2.98642 40.2629 7.8896 39.1836 14.1371C38.9696 15.3765 38.6783 16.6707 38.3187 18.0022C38.0297 19.0722 37.6945 20.1648 37.3133 21.2801C37.2771 21.386 37.2405 21.4919 37.2036 21.598C36.746 22.9089 36.227 24.2394 35.6467 25.5896C34.9747 27.1452 34.2198 28.7171 33.3857 30.2877C33.4046 30.3461 33.4223 30.4038 33.4408 30.462C34.6391 30.2142 35.8222 29.8865 36.9832 29.4809C37.1627 29.4173 37.3425 29.3538 37.5161 29.2873C38.1176 28.0154 38.6651 26.7528 39.1585 25.4994C39.4984 24.6377 39.8124 23.7845 40.1005 22.9398C40.4907 21.7952 40.8322 20.6727 41.1249 19.5723C41.5165 18.1192 41.8291 16.6424 42.0612 15.1497C42.96 9.24551 42.1282 4.64481 39.3816 2.92841Z" stroke="#0A1119" stroke-linecap="round" stroke-linejoin="round"/>
<path d="M36.6177 1.20168C33.8711 -0.514732 29.7743 1.00593 25.4998 4.80054C26.578 5.76446 27.6032 6.7959 28.5701 7.88954C30.2702 7.0007 31.7884 6.82622 32.93 7.53965C33.5026 7.91372 33.957 8.46675 34.2335 9.1259C34.722 10.3782 34.9324 11.7369 34.848 13.0932C34.8187 14.1126 34.7153 15.128 34.5386 16.1299C34.505 16.3259 34.4659 16.5261 34.427 16.7262C34.171 18.0174 33.8417 19.2902 33.4407 20.5374C33.4223 20.5955 33.4046 20.6532 33.3857 20.7115C32.8554 22.3467 32.2344 23.9457 31.5261 25.5C31.0926 26.454 30.6197 27.4161 30.1062 28.3787C29.5928 29.3413 29.0595 30.2656 28.5129 31.149C30.1106 31.0358 31.7004 30.8184 33.2739 30.498C33.2927 30.4629 33.312 30.4289 33.3307 30.3938C33.3495 30.3586 33.367 30.3234 33.3857 30.2882C34.2197 28.7177 34.9746 27.1457 35.6467 25.5901C36.2287 24.243 36.7476 22.9124 37.2035 21.5985C37.2406 21.4923 37.2772 21.3864 37.3132 21.2806C37.6944 20.1673 38.0295 19.0747 38.3186 18.0027C38.6782 16.6713 38.9695 15.3771 39.1836 14.1376C40.2628 7.89011 39.4744 2.98693 36.6177 1.20168Z" stroke="#0A1119" stroke-linecap="round" stroke-linejoin="round"/>
<path d="M42.0615 35.8497C40.7512 36.3784 39.4134 36.8237 38.055 37.1833C37.9161 39.2214 37.2966 40.7317 36.155 41.4452C35.5694 41.7949 34.8997 41.9444 34.234 41.874C32.9879 41.7057 31.7955 41.2236 30.7526 40.4664C29.9516 39.9292 29.1909 39.3245 28.4777 38.658C28.3377 38.5285 28.197 38.3917 28.0564 38.2552C27.1513 37.3697 26.2976 36.4246 25.5002 35.4251C25.4629 35.3787 25.4256 35.3332 25.3884 35.2864C24.3453 33.9717 23.3764 32.59 22.4871 31.149C21.9405 30.2656 21.4094 29.3422 20.8938 28.3787C20.3803 27.4161 19.9074 26.4541 19.4739 25.5C18.7656 27.0542 18.1446 28.6532 17.6143 30.2884C17.6329 30.3236 17.6505 30.3587 17.6692 30.3938C17.6879 30.4289 17.7074 30.463 17.7262 30.4981C18.5658 32.0653 19.446 33.5588 20.3546 34.9665C21.1415 36.1857 21.9498 37.3374 22.7698 38.4218C22.8363 38.5096 22.9028 38.5969 22.9693 38.6835C23.6695 39.5975 24.3762 40.4579 25.0893 41.2649C25.9747 42.2677 26.8646 43.1879 27.7491 44.0083C32.2081 48.1438 36.5253 49.8563 39.382 48.0711C42.1286 46.3546 42.9603 41.7539 42.0615 35.8497Z" stroke="#0A1119" stroke-linecap="round" stroke-linejoin="round"/>
<path d="M25.6116 15.7141C25.5741 15.714 25.5373 15.7129 25.4998 15.7129C25.4623 15.7129 25.4253 15.7142 25.3879 15.7142C23.7142 15.7176 22.0791 15.796 20.4985 15.9438C19.1296 16.0718 17.804 16.2537 16.5264 16.4802C16.4229 16.4986 16.3198 16.5173 16.2172 16.5364C15.1358 16.7357 14.0941 16.9679 13.0919 17.2329C11.8468 17.5615 10.6657 17.9356 9.56693 18.3546C4.02884 20.4667 0.5 23.6573 0.5 27.2278C0.499968 30.6606 3.76506 33.7406 8.93838 35.8503C9.1705 34.3576 9.48314 32.8809 9.87471 31.4277C8.31349 30.2784 7.41483 28.9425 7.41483 27.5157C7.4278 26.7919 7.64304 26.0893 8.03218 25.5006C8.7899 24.4166 9.7718 23.5399 10.8991 22.9409C11.7294 22.4587 12.5935 22.048 13.4834 21.7127C13.6571 21.6462 13.8369 21.5827 14.0164 21.5191C15.1774 21.1135 16.3605 20.7858 17.5588 20.538C17.6145 20.5263 17.6696 20.514 17.7257 20.5026C19.2991 20.1821 20.889 19.9647 22.4866 19.8516C23.4667 19.7809 24.4728 19.7431 25.4998 19.7431C26.5267 19.7431 27.5328 19.7808 28.5129 19.8515C27.6235 18.4105 26.6547 17.0289 25.6116 15.7141Z" stroke="#0A1119" stroke-linecap="round" stroke-linejoin="round"/>
</svg>
