<svg width="24" height="24" viewBox="0 0 24 24" fill="none" xmlns="http://www.w3.org/2000/svg">
<path d="M20 10.133C20 13.901 15.8334 19.0006 13.5142 21.5473C12.6851 22.4576 11.3149 22.4576 10.4858 21.5473C8.16659 19.0006 4 13.901 4 10.133C4 4.91185 7.58173 2 12 2C16.4183 2 20 4.91185 20 10.133Z" stroke="#0A1119" stroke-width="1.5" stroke-linejoin="round"/>
<path d="M11.9999 12.5664C13.8934 12.5664 15.4284 10.9896 15.4284 9.04445C15.4284 7.09931 13.8934 5.52246 11.9999 5.52246C10.1063 5.52246 8.57129 7.09931 8.57129 9.04445C8.57129 10.9896 10.1063 12.5664 11.9999 12.5664Z" stroke="#0A1119" stroke-width="1.5"/>
</svg>
