<svg width="60" height="60" viewBox="0 0 60 60" fill="none" xmlns="http://www.w3.org/2000/svg">
<path d="M32.1699 2.01367C32.2239 2.0283 32.2721 2.05679 32.3154 2.0918C32.3261 2.1004 32.3379 2.10749 32.3477 2.11719C32.3729 2.14231 32.3959 2.17037 32.4141 2.20215L39.1729 14.0352H52.6904C52.8358 14.0352 52.97 14.1143 53.041 14.2412L55.0537 17.835C55.082 17.8856 55.0948 17.9411 55.0996 17.9971C55.1069 18.0781 55.0935 18.1606 55.0518 18.2334L48.291 30L55.0518 41.7686C55.1219 41.891 55.1226 42.0418 55.0537 42.165L53.041 45.7588C52.9704 45.8849 52.8369 45.9639 52.6924 45.9648C52.6875 45.9649 52.6826 45.963 52.6777 45.9629H39.1738L32.4141 57.7969C32.3425 57.9219 32.2095 57.9989 32.0654 57.999H28.0479C28.0456 57.9991 28.0433 58 28.041 58C28.0049 58.0001 27.9695 57.9945 27.9355 57.9854C27.8917 57.9735 27.8517 57.9523 27.8145 57.9268C27.7652 57.893 27.722 57.8504 27.6914 57.7969L20.9307 45.9629H7.41406C7.26868 45.9628 7.13455 45.8837 7.06348 45.7568L5.06055 42.1787C5.05867 42.1757 5.05552 42.173 5.05371 42.1699C5.0178 42.1078 5 42.0382 5 41.9688V41.9629C5.00054 41.894 5.01879 41.8252 5.05469 41.7637C5.05639 41.7608 5.05878 41.7577 5.06055 41.7549L11.8145 29.999L5.05371 18.2314C4.98337 18.1089 4.98277 17.9583 5.05176 17.835L7.06445 14.2412H7.06348C7.0644 14.2396 7.06546 14.238 7.06641 14.2363C7.06856 14.2326 7.07196 14.2292 7.07422 14.2256L7.09375 14.1963C7.09901 14.1893 7.10566 14.1834 7.11133 14.1768C7.12237 14.1639 7.13304 14.1509 7.14551 14.1396C7.1594 14.1271 7.17499 14.1169 7.19043 14.1064C7.20115 14.0992 7.21129 14.0912 7.22266 14.085C7.24102 14.0749 7.2605 14.0676 7.28027 14.0605C7.292 14.0563 7.3033 14.051 7.31543 14.0479C7.34665 14.0399 7.37906 14.0354 7.41211 14.0352H20.9326L27.6914 2.20215L27.7207 2.1582C27.7961 2.05947 27.9138 2.00005 28.04 2H32.0645C32.1004 2 32.1362 2.00452 32.1699 2.01367ZM28.7305 57.1953H31.832L38.4775 45.5605L37.832 44.4316L36.8887 42.7803L28.7305 57.1953ZM30.4023 47.252C30.4018 47.2528 30.4019 47.254 30.4014 47.2549L28.4375 50.6953C28.366 50.8206 28.2321 50.8984 28.0879 50.8984C27.9437 50.8984 27.8108 50.8205 27.7393 50.6953L23.2168 42.7773L21.627 45.5605L28.0381 56.7842L36.5381 41.7686V41.7666L36.54 41.7646C36.541 41.763 36.542 41.7614 36.543 41.7598L36.5674 41.7236C36.5739 41.715 36.5827 41.7082 36.5898 41.7002C36.5991 41.6898 36.6079 41.6792 36.6182 41.6699L36.6309 41.6572C36.6408 41.649 36.6524 41.643 36.6631 41.6357C36.6739 41.6284 36.6838 41.6196 36.6953 41.6133C36.7144 41.6029 36.7352 41.5961 36.7559 41.5889C36.767 41.585 36.7776 41.5791 36.7891 41.5762C36.7907 41.5758 36.7923 41.5756 36.7939 41.5752C36.8239 41.568 36.8551 41.5645 36.8867 41.5645H45.9365L44.4297 38.9287H35.1562L30.4023 47.252ZM6.09766 41.5645H23.2178C23.3608 41.5645 23.4935 41.641 23.5654 41.7646C23.5659 41.7655 23.5659 41.7667 23.5664 41.7676L28.0879 49.6836L29.5879 47.0547L24.9482 38.9307H11.5117C11.3686 38.9306 11.236 38.8542 11.1641 38.7305C11.1102 38.6375 11.0965 38.5281 11.123 38.4268C11.1318 38.3921 11.1449 38.3581 11.1631 38.3262L15.6875 30.4033H12.5098L6.09766 41.5645ZM25.5312 21.6729C25.4597 21.7981 25.3259 21.875 25.1816 21.875H16.1348L20.6602 29.7988C20.7307 29.9223 20.7307 30.0747 20.6602 30.1982L16.1318 38.127H25.1816L25.2354 38.1309C25.3584 38.1474 25.4687 38.2196 25.5312 38.3291L30.0518 46.2441L34.5742 38.3271L34.6035 38.2832C34.6789 38.1844 34.7966 38.125 34.9229 38.125H43.9717L39.4443 30.1992C39.3738 30.0757 39.3738 29.9233 39.4443 29.7998L43.9707 21.875H34.9229C34.7788 21.875 34.6458 21.7978 34.5742 21.6729L30.0518 13.7559L25.5312 21.6729ZM7.64941 45.1592H20.9307L22.5244 42.3701H6.08887L7.64941 45.1592ZM40.2559 29.999L45.0117 38.3262L45.0127 38.3271L46.9775 41.7676C47.0303 41.86 47.0428 41.968 47.0166 42.0684C47.0076 42.103 46.995 42.1372 46.9766 42.1689C46.9047 42.2926 46.7719 42.3689 46.6289 42.3691H37.5811L37.8154 42.7803L39.1748 45.1592H51.9932L43.375 30.2021C43.321 30.1084 43.3075 29.9982 43.335 29.8965C43.3438 29.8633 43.3565 29.8304 43.374 29.7998L47.8994 21.875H44.8955L40.2559 29.999ZM52.6855 44.7461L54.2412 41.9717L47.5947 30.4033H44.4189L52.6855 44.7461ZM16.7305 29.7979C16.7486 29.8295 16.7616 29.8631 16.7705 29.8975C16.7976 29.9985 16.7846 30.108 16.7314 30.2012L12.2061 38.124H15.208L19.8486 29.998L15.0928 21.6729L13.127 18.2324C13.0735 18.1385 13.0608 18.0283 13.0889 17.9268C13.0979 17.8931 13.111 17.86 13.1289 17.8291C13.2009 17.7054 13.3334 17.6299 13.4766 17.6299H22.5244L20.9297 14.8389H8.11035L16.7305 29.7979ZM30.5732 12.8438L30.5146 12.9453L35.1562 21.0713H44.6543C44.6572 21.0712 44.6601 21.0703 44.6631 21.0703H48.5928C48.7359 21.0703 48.8685 21.1467 48.9404 21.2705L48.9414 21.2725C49.0127 21.3962 49.0132 21.5488 48.9424 21.6729L44.415 29.5986H47.5957L54.0088 18.4355H36.8877C36.7796 18.4355 36.677 18.3919 36.6025 18.3174C36.5778 18.2926 36.5559 18.2637 36.5381 18.2324L32.0166 10.3154L30.5732 12.8438ZM5.86328 18.0283L12.5098 29.5967H15.6865L7.41895 15.25L5.86328 18.0283ZM23.5674 18.2314C23.4961 18.3573 23.3624 18.4355 23.2178 18.4355H14.1699L15.6758 21.0713H24.9482L29.7031 12.7461L31.668 9.30566L31.6973 9.26172C31.7036 9.25336 31.7118 9.24606 31.7188 9.23828C31.7276 9.22845 31.7364 9.21882 31.7461 9.20996C31.7611 9.19617 31.778 9.18513 31.7949 9.17383C31.8051 9.16703 31.8145 9.15916 31.8252 9.15332C31.8482 9.1408 31.8723 9.13091 31.8975 9.12305C31.9034 9.1212 31.9091 9.11876 31.915 9.11719C31.9463 9.10896 31.9786 9.10398 32.0117 9.10352C32.0135 9.10349 32.0158 9.10352 32.0176 9.10352C32.0895 9.10361 32.1586 9.1233 32.2188 9.1582C32.2789 9.19315 32.3305 9.24319 32.3662 9.30566L36.8867 17.2207L38.4766 14.4375L32.0664 3.21484L23.5674 18.2314ZM37.5811 17.6299H54.0176L52.4551 14.8389H39.1758L37.5811 17.6299ZM21.6279 14.4375L23.2158 17.2188L28.3252 8.19238L31.376 2.80371H28.2734L21.6279 14.4375Z" fill="#0A1119"/>
</svg>
