<svg width="51" height="51" viewBox="0 0 51 51" fill="none" xmlns="http://www.w3.org/2000/svg">
<path d="M40.1783 20.9409L37.0223 17.7848C35.5282 16.3236 33.5149 15.5156 31.4252 15.5386C29.3354 15.5615 27.3404 16.4136 25.8788 17.9073L25.5002 18.2858L32.7141 25.4996L33.0926 25.8781C34.5863 27.3397 35.4384 29.3348 35.4613 31.4245C35.4843 33.5143 34.6763 35.5276 33.215 37.0217L30.059 40.1777C24.2212 46.0155 14.6511 45.9104 8.68359 39.9429L14.6951 45.9544C20.6626 51.9219 30.2327 52.027 36.0705 46.1892L39.9435 42.3163C45.911 36.3488 46.0162 26.7787 40.1783 20.9409Z" stroke="#0A1119" stroke-linecap="round" stroke-linejoin="round"/>
<path d="M10.8221 30.0589L13.9781 33.2149C15.4722 34.6761 17.4855 35.4841 19.5752 35.4612C21.665 35.4382 23.66 34.5862 25.1217 33.0924L25.5002 32.7139L18.2863 25.5001L17.9078 25.1216C16.4141 23.66 15.5621 21.6649 15.5391 19.5752C15.5161 17.4854 16.3241 15.4721 17.7854 13.9781L20.9414 10.822C26.7792 4.98419 36.3493 5.08935 42.3168 11.0569L36.3053 5.04536C30.3378 -0.92217 20.7677 -1.02733 14.9299 4.81049L11.057 8.68345C5.08945 14.651 4.98425 24.221 10.8221 30.0589Z" stroke="#0A1119" stroke-linecap="round" stroke-linejoin="round"/>
<path d="M30.0589 40.1783L33.2149 37.0223C34.6762 35.5282 35.4841 33.5149 35.4612 31.4252C35.4382 29.3354 34.5862 27.3404 33.0924 25.8788L32.7139 25.5002L25.5001 32.7141L25.1216 33.0926C23.66 34.5863 21.6649 35.4384 19.5752 35.4613C17.4854 35.4843 15.4721 34.6763 13.9781 33.215L10.822 30.059C4.98419 24.2212 5.08935 14.6511 11.0569 8.68359L5.04536 14.6951C-0.922171 20.6626 -1.02733 30.2327 4.81049 36.0705L8.68345 39.9435C14.651 45.911 24.221 46.0162 30.0589 40.1783Z" stroke="#0A1119" stroke-linecap="round" stroke-linejoin="round"/>
<path d="M20.9411 10.8222L17.7851 13.9782C16.3238 15.4723 15.5158 17.4856 15.5388 19.5754C15.5618 21.6651 16.4138 23.6602 17.9075 25.1218L18.2861 25.5003L25.4999 18.2865L25.8784 17.908C27.34 16.4142 29.335 15.5622 31.4248 15.5392C33.5145 15.5162 35.5278 16.3242 37.0219 17.7855L40.178 20.9415C46.0158 26.7794 45.9106 36.3494 39.9431 42.3169L45.9546 36.3054C51.9221 30.3379 52.0273 20.7678 46.1895 14.93L42.3165 11.0571C36.349 5.08957 26.7789 4.98438 20.9411 10.8222Z" stroke="#0A1119" stroke-linecap="round" stroke-linejoin="round"/>
</svg>
