<svg width="50" height="50" viewBox="0 0 50 50" fill="none" xmlns="http://www.w3.org/2000/svg">
<path d="M36.7977 24.2014L24.7915 3.3335L19.2671 12.9356C20.9563 12.3562 22.7254 12.0472 24.51 12.0197L24.7915 11.5304L37.1677 33.0415C38.078 30.1422 37.947 27.0136 36.7977 24.2014Z" stroke="white" stroke-width="1.5" stroke-linecap="round" stroke-linejoin="round"/>
<path d="M10.1862 37.9802H9.57401L21.9765 16.4233C19.0097 17.0888 16.3688 18.7787 14.5128 21.1991L2.5 42.0787H13.6385C12.2815 40.9027 11.1165 39.5197 10.1862 37.9802Z" stroke="white" stroke-width="1.5" stroke-linecap="round" stroke-linejoin="round"/>
<path d="M26.1611 42.0786C23.1856 42.3917 20.1937 41.6639 17.6898 40.0177C15.1859 38.3715 13.3231 35.9076 12.4155 33.0415L9.88086 37.447C9.98034 37.6262 10.0807 37.8049 10.1863 37.9801C11.473 40.1149 13.2073 41.942 15.2683 43.3338C17.3292 44.7257 19.6674 45.6489 22.1196 46.0391C24.5719 46.4292 27.0793 46.277 29.467 45.593C31.8548 44.909 34.0654 43.7096 35.9449 42.0786H26.1611Z" stroke="white" stroke-width="1.5" stroke-linecap="round" stroke-linejoin="round"/>
<path d="M25.0731 12.0198C24.979 12.0183 24.886 12.0127 24.7916 12.0127C24.6972 12.0127 24.6041 12.0183 24.51 12.0198C22.0174 12.0554 19.5631 12.6411 17.3204 13.7355C15.0777 14.8298 13.1016 16.4062 11.5316 18.353C9.96166 20.2998 8.83625 22.5697 8.23495 25.002C7.63365 27.4343 7.57114 29.9697 8.05185 32.429L12.7853 24.2018C13.9466 21.3561 16.071 19.0147 18.7831 17.5914C21.4953 16.168 24.6205 15.7543 27.6067 16.4234L25.0731 12.0198Z" stroke="white" stroke-width="1.5" stroke-linecap="round" stroke-linejoin="round"/>
<path d="M30.3164 12.9355L35.0708 21.1992C36.9446 23.6331 37.8959 26.658 37.7543 29.7325C37.6128 32.8071 36.3877 35.7307 34.2983 37.9802H39.3973C39.503 37.8049 39.6033 37.6263 39.7028 37.4471C40.5721 35.8819 41.1894 34.1881 41.5316 32.4288C42.3261 28.3652 41.6272 24.1497 39.5647 20.5649C37.5022 16.98 34.2161 14.2692 30.3164 12.9355Z" stroke="white" stroke-width="1.5" stroke-linecap="round" stroke-linejoin="round"/>
<path d="M41.5313 32.4287C41.189 34.188 40.5718 35.8818 39.7025 37.4469L40.0092 37.98H15.2852C17.4155 40.2904 20.3062 41.7464 23.4222 42.0785H47.0832L41.5313 32.4287Z" stroke="white" stroke-width="1.5" stroke-linecap="round" stroke-linejoin="round"/>
</svg>
