<svg width="61" height="61" viewBox="0 0 61 61" fill="none" xmlns="http://www.w3.org/2000/svg">
<path d="M48.114 25.0292L44.3268 21.242C42.5339 19.4885 40.1179 18.5189 37.6102 18.5465C35.1025 18.574 32.7084 19.5965 30.9545 21.389L30.5003 21.8432L39.1569 30.4998L39.6111 30.954C41.4036 32.7079 42.426 35.102 42.4536 37.6096C42.4812 40.1173 41.5116 42.5333 39.7581 44.3262L35.9708 48.1135C28.9654 55.1188 17.4813 54.9927 10.3203 47.8316L17.5341 55.0454C24.6952 62.2065 36.1792 62.3327 43.1846 55.3273L47.8322 50.6797C54.9932 43.5187 55.1194 32.0346 48.114 25.0292Z" stroke="#0A1119" stroke-linecap="round" stroke-linejoin="round"/>
<path d="M12.8864 35.9706L16.6737 39.7579C18.4666 41.5114 20.8826 42.481 23.3902 42.4534C25.8979 42.4258 28.292 41.4034 30.0459 39.6109L30.5002 39.1567L21.8436 30.5001L21.3894 30.0459C19.5969 28.292 18.5744 25.8979 18.5469 23.3902C18.5193 20.8825 19.4889 18.4666 21.2424 16.6737L25.0296 12.8864C32.035 5.88103 43.5191 6.00722 50.6801 13.1682L43.4663 5.95443C36.3053 -1.2066 24.8212 -1.3328 17.8158 5.67259L13.1683 10.3201C6.00729 17.4811 5.88105 28.9652 12.8864 35.9706Z" stroke="#0A1119" stroke-linecap="round" stroke-linejoin="round"/>
<path d="M35.9706 48.114L39.7579 44.3268C41.5114 42.5339 42.481 40.1179 42.4534 37.6102C42.4258 35.1025 41.4034 32.7084 39.6109 30.9545L39.1567 30.5003L30.5001 39.1569L30.0459 39.6111C28.292 41.4036 25.8979 42.426 23.3902 42.4536C20.8825 42.4812 18.4666 41.5116 16.6737 39.7581L12.8864 35.9708C5.88103 28.9654 6.00722 17.4813 13.1682 10.3203L5.95443 17.5341C-1.2066 24.6952 -1.3328 36.1793 5.67259 43.1846L10.3201 47.8321C17.4811 54.9932 28.9652 55.1194 35.9706 48.114Z" stroke="#0A1119" stroke-linecap="round" stroke-linejoin="round"/>
<path d="M25.0292 12.8864L21.242 16.6737C19.4885 18.4666 18.5189 20.8826 18.5465 23.3902C18.574 25.8979 19.5965 28.292 21.389 30.0459L21.8432 30.5002L30.4998 21.8436L30.954 21.3894C32.7079 19.5969 35.102 18.5744 37.6097 18.5469C40.1173 18.5193 42.5333 19.4889 44.3262 21.2424L48.1135 25.0296C55.1189 32.035 54.9927 43.5191 47.8316 50.6801L55.0454 43.4663C62.2065 36.3053 62.3327 24.8212 55.3273 17.8158L50.6797 13.1683C43.5187 6.00729 32.0346 5.88106 25.0292 12.8864Z" stroke="#0A1119" stroke-linecap="round" stroke-linejoin="round"/>
</svg>
