<svg width="32" height="32" viewBox="0 0 32 32" fill="none" xmlns="http://www.w3.org/2000/svg">
<path d="M6.30579 10.3589H20.8063" stroke="#0A1119" stroke-width="2" stroke-miterlimit="10" stroke-linecap="round" stroke-linejoin="round"/>
<path d="M6.30579 15.8296H16.1712" stroke="#0A1119" stroke-width="2" stroke-miterlimit="10" stroke-linecap="round" stroke-linejoin="round"/>
<path d="M1 31V7.95385C1 4.1282 3.73636 1 7.07985 1H20.0314C23.3758 1 26.1112 4.1282 26.1112 7.95385V31C26.1004 31 26.0923 31 26.0834 31C22.9444 31 22.9444 26.8974 19.8143 26.8974C16.6753 26.8974 16.6753 31 13.5363 31C10.4063 31 10.4063 26.8974 7.26728 26.8974C4.12828 26.8974 4.12824 31 1 31Z" stroke="#0A1119" stroke-width="2" stroke-miterlimit="10" stroke-linecap="round" stroke-linejoin="round"/>
<path d="M18.2363 1.00391H24.7475C28.1825 1.00391 30.9996 4.2152 30.9996 8.15366V19.7383H26.1126" stroke="#0A1119" stroke-width="2" stroke-miterlimit="10" stroke-linecap="round" stroke-linejoin="round"/>
</svg>
