<svg width="60" height="60" viewBox="0 0 60 60" fill="none" xmlns="http://www.w3.org/2000/svg">
<path d="M25.8538 4.00391C25.9874 4.00403 26.1159 4.03996 26.2278 4.10449C26.2631 4.12481 26.2958 4.14897 26.3274 4.1748C26.397 4.23175 26.458 4.30037 26.5042 4.38086L30.0032 10.4893L33.5022 4.38086L33.5569 4.29785C33.6976 4.11408 33.9174 4.00396 34.1526 4.00391H50.8889C50.9222 4.00393 50.9551 4.00641 50.9876 4.01074C51.2173 4.04131 51.4223 4.1767 51.5393 4.38086L59.9065 18.9893C60.0388 19.2202 60.0388 19.5044 59.9065 19.7354L51.5393 34.3447C51.4057 34.5779 51.1568 34.7217 50.888 34.7217C50.8735 34.7217 50.8593 34.7196 50.845 34.7188H43.8792L47.3889 40.8447C47.5212 41.0757 47.5212 41.3599 47.3889 41.5908L39.0208 56.1992C38.8872 56.4323 38.639 56.576 38.3704 56.5762C38.356 56.5762 38.3417 56.5741 38.3274 56.5732H21.635C21.3663 56.5732 21.1183 56.4294 20.9846 56.1963L12.6165 41.5879C12.5459 41.4647 12.5132 41.3266 12.5178 41.1895C12.5219 41.0692 12.5546 40.9497 12.6165 40.8418L16.1233 34.7188H9.11746C8.84874 34.7187 8.59974 34.5749 8.46609 34.3418L0.109644 19.751C0.106993 19.7466 0.103424 19.7427 0.100855 19.7383C0.0171154 19.5938 -0.0142281 19.4281 0.00612802 19.2676V19.2607C0.0189071 19.1645 0.0505904 19.0701 0.100855 18.9834C0.103564 18.9787 0.106843 18.9743 0.109644 18.9697L8.46609 4.38086L8.52175 4.29785C8.66246 4.11415 8.88232 4.00395 9.11746 4.00391H25.8538ZM22.0706 55.0732H37.0745L29.5657 41.9648H14.5608L22.0706 55.0732ZM30.8665 41.2148L38.3704 54.3135L45.8733 41.2178L41.9378 34.3467L38.3694 28.1182L30.8665 41.2148ZM26.5042 34.3447C26.3706 34.5777 26.1223 34.7214 25.8538 34.7217C25.849 34.7217 25.8439 34.7208 25.8391 34.7207H17.8518L14.5608 40.4648H29.5677L37.0764 27.3555H30.5071L26.5042 34.3447ZM9.55203 33.2188H24.5579L17.051 20.1123H2.04519L9.55203 33.2188ZM30.3694 25.8535H38.3704L38.471 25.8604C38.7001 25.8913 38.9049 26.0266 39.0218 26.2305L43.0247 33.2188H49.593L42.0852 20.1123H27.0803L30.3694 25.8535ZM18.3499 19.3594L25.8528 32.46L29.138 26.7266L25.1331 19.7354C25.0339 19.5622 25.0093 19.3591 25.0589 19.1709C25.0633 19.1538 25.0688 19.137 25.0745 19.1201C25.0898 19.0752 25.109 19.0312 25.1331 18.9893L29.138 11.9971L25.8528 6.2627L18.3499 19.3594ZM43.385 19.3594L50.888 32.46L58.3909 19.3623L50.888 6.2627L43.385 19.3594ZM2.04519 18.6094H17.052L24.5589 5.50391H9.55203L2.04519 18.6094ZM30.6536 12.3711L27.0803 18.6094H42.0872L49.594 5.50391H34.5882L30.6536 12.3711Z" fill="#0A1119"/>
</svg>
