<svg width="51" height="51" viewBox="0 0 51 51" fill="none" xmlns="http://www.w3.org/2000/svg">
<path d="M40.1783 20.9413L37.0223 17.7853C35.5282 16.3241 33.5149 15.5161 31.4252 15.5391C29.3354 15.562 27.3404 16.4141 25.8788 17.9078L25.5002 18.2863L32.7141 25.5001L33.0926 25.8786C34.5863 27.3402 35.4384 29.3352 35.4613 31.425C35.4843 33.5147 34.6763 35.528 33.215 37.0221L30.059 40.1781C24.2212 46.0159 14.6511 45.9107 8.68359 39.9432L14.6951 45.9547C20.6626 51.9222 30.2327 52.0274 36.0705 46.1896L39.9435 42.3167C45.911 36.3492 46.0162 26.7791 40.1783 20.9413Z" stroke="#0A1119" stroke-linecap="round" stroke-linejoin="round"/>
<path d="M10.8221 30.0587L13.9781 33.2148C15.4722 34.676 17.4855 35.484 19.5752 35.461C21.665 35.4381 23.66 34.586 25.1217 33.0923L25.5002 32.7138L18.2863 25.5L17.9078 25.1215C16.4141 23.6599 15.5621 21.6648 15.5391 19.5751C15.5161 17.4854 16.3241 15.4721 17.7854 13.978L20.9414 10.822C26.7792 4.98417 36.3493 5.08933 42.3168 11.0568L36.3053 5.04534C30.3378 -0.922165 20.7677 -1.02733 14.9299 4.81047L11.057 8.68341C5.08945 14.6509 4.98425 24.2209 10.8221 30.0587Z" stroke="#0A1119" stroke-linecap="round" stroke-linejoin="round"/>
<path d="M30.0589 40.178L33.2149 37.0219C34.6762 35.5279 35.4841 33.5146 35.4612 31.4248C35.4382 29.3351 34.5862 27.3401 33.0924 25.8784L32.7139 25.4999L25.5001 32.7137L25.1216 33.0922C23.66 34.586 21.6649 35.438 19.5752 35.461C17.4854 35.4839 15.4721 34.676 13.9781 33.2147L10.822 30.0587C4.98419 24.2209 5.08935 14.6509 11.0569 8.68335L5.04536 14.6948C-0.922171 20.6623 -1.02733 30.2324 4.81049 36.0702L8.68345 39.9431C14.651 45.9106 24.221 46.0158 30.0589 40.178Z" stroke="#0A1119" stroke-linecap="round" stroke-linejoin="round"/>
<path d="M20.941 10.8217L17.785 13.9777C16.3237 15.4718 15.5157 17.4851 15.5387 19.5748C15.5617 21.6646 16.4137 23.6596 17.9074 25.1212L18.2859 25.4997L25.4998 18.2859L25.8783 17.9074C27.3399 16.4137 29.3349 15.5617 31.4247 15.5387C33.5144 15.5157 35.5277 16.3237 37.0218 17.785L40.1778 20.941C46.0157 26.7788 45.9105 36.3488 39.943 42.3163L45.9545 36.3048C51.922 30.3373 52.0272 20.7673 46.1894 14.9295L42.3164 11.0566C36.3489 5.08909 26.7788 4.9839 20.941 10.8217Z" stroke="#0A1119" stroke-linecap="round" stroke-linejoin="round"/>
</svg>
