<svg width="50" height="50" viewBox="0 0 50 50" fill="none" xmlns="http://www.w3.org/2000/svg">
<g clip-path="url(#clip0_879_303)">
<path d="M32.1327 7.75821C31.0368 7.07332 29.5794 7.24081 27.9473 8.09411C28.6504 8.88459 29.3486 9.73067 30.0421 10.6324C31.0432 9.90541 32.1879 9.44258 33.3841 9.28101C33.1187 8.64823 32.6824 8.11732 32.1327 7.75821Z" stroke="#0A1119" stroke-linecap="round" stroke-linejoin="round"/>
<path d="M19.9578 39.3682C18.9566 40.0951 17.812 40.5579 16.6157 40.7195C16.8811 41.3523 17.3174 41.8832 17.8671 42.2423C18.9631 42.9272 20.4205 42.7597 22.0526 41.9064C21.3495 41.1159 20.6512 40.2698 19.9578 39.3682Z" stroke="#0A1119" stroke-linecap="round" stroke-linejoin="round"/>
<path d="M27.8574 37.6318C28.5421 38.2717 29.2724 38.8521 30.0413 39.3678C30.5514 38.7039 31.056 38.0118 31.5552 37.2915C30.3578 37.4478 29.1252 37.5613 27.8574 37.6318Z" stroke="#0A1119" stroke-linecap="round" stroke-linejoin="round"/>
<path d="M19.9567 10.6318C19.4466 11.2958 18.942 11.9879 18.4429 12.7082C19.6402 12.5518 20.8728 12.4384 22.1407 12.3679C21.456 11.728 20.7257 11.1475 19.9567 10.6318Z" stroke="#0A1119" stroke-linecap="round" stroke-linejoin="round"/>
<path d="M33.9737 36.9104C34.0547 38.2123 33.8527 39.5167 33.3838 40.7189C34.0228 40.7865 34.6657 40.643 35.2279 40.3072C36.3238 39.6223 36.9185 38.1724 37.0519 36.2158C36.0679 36.4797 35.0418 36.7112 33.9737 36.9104Z" stroke="#0A1119" stroke-linecap="round" stroke-linejoin="round"/>
<path d="M14.7703 9.69264C13.6743 10.3775 13.0796 11.8275 12.9463 13.784C13.9303 13.5202 14.9564 13.2887 16.0245 13.0895C15.9434 11.7875 16.1455 10.4831 16.6144 9.28097C15.9754 9.21335 15.3324 9.35688 14.7703 9.69264Z" stroke="#0A1119" stroke-linecap="round" stroke-linejoin="round"/>
<path d="M32.5182 29.6985C32.5363 29.6647 32.5531 29.6309 32.5711 29.5972C32.5893 29.6532 32.6064 29.7086 32.6242 29.7645C32.5705 29.7758 32.5174 29.7875 32.4634 29.7985C32.4815 29.7649 32.5001 29.7322 32.5182 29.6985Z" stroke="#0A1119" stroke-linecap="round" stroke-linejoin="round"/>
<path d="M17.4825 20.3022C17.4644 20.336 17.4476 20.3698 17.4295 20.4035C17.4114 20.3475 17.3943 20.2921 17.3765 20.2362C17.4302 20.2249 17.4833 20.2132 17.5373 20.2021C17.5192 20.2358 17.5005 20.2685 17.4825 20.3022Z" stroke="#0A1119" stroke-linecap="round" stroke-linejoin="round"/>
<path d="M10.9824 22.5424C11.2586 23.3526 11.56 24.1716 11.8867 24.9996C12.3603 23.799 12.8858 22.5869 13.4634 21.3633C12.609 21.6852 11.7795 22.0794 10.9824 22.5424Z" stroke="#0A1119" stroke-linecap="round" stroke-linejoin="round"/>
<path d="M17.4825 29.6984C17.5006 29.7322 17.5193 29.7648 17.5374 29.7985C17.4833 29.7874 17.4302 29.7757 17.3765 29.7644C17.3943 29.7085 17.4114 29.6531 17.4295 29.5972C17.4475 29.6309 17.4644 29.6646 17.4825 29.6984Z" stroke="#0A1119" stroke-linecap="round" stroke-linejoin="round"/>
<path d="M38.1123 25C37.6387 26.2006 37.1132 27.4128 36.5356 28.6364C37.39 28.3145 38.2195 27.9202 39.0166 27.4572C38.7404 26.6471 38.4389 25.828 38.1123 25Z" stroke="#0A1119" stroke-linecap="round" stroke-linejoin="round"/>
<path d="M8.23084 25C7.85727 25.5652 7.65064 26.2396 7.63818 26.9345C7.63818 28.3042 8.50089 29.5867 9.99965 30.69C10.2806 29.6357 10.6084 28.5581 10.9831 27.4572C9.90087 26.8822 8.95825 26.0406 8.23084 25Z" stroke="#0A1119" stroke-linecap="round" stroke-linejoin="round"/>
<path d="M31.5557 12.708C32.2795 13.7523 32.9865 14.851 33.6768 16.0042C33.8464 15.0424 33.9457 14.0676 33.9738 13.0889C33.1876 12.9428 32.3815 12.8158 31.5557 12.708Z" stroke="#0A1119" stroke-linecap="round" stroke-linejoin="round"/>
<path d="M24.999 15.6036C24.963 15.6036 24.9276 15.6048 24.8916 15.6049C24.9274 15.5599 24.9632 15.5162 24.999 15.4717C25.0348 15.5162 25.0706 15.5598 25.1064 15.6048C25.0704 15.6047 25.035 15.6036 24.999 15.6036Z" stroke="#0A1119" stroke-linecap="round" stroke-linejoin="round"/>
<path d="M40.8993 15.064C40.6764 16.497 40.3763 17.9146 40.0004 19.3096C41.4992 20.4129 42.3619 21.6954 42.3619 23.0651C42.3494 23.76 42.1428 24.4344 41.7692 24.9997C41.0418 26.0403 40.0992 26.8819 39.017 27.4569C38.2199 27.9199 37.3904 28.3142 36.5361 28.6361C36.3694 28.6999 36.1968 28.7608 36.0245 28.8218C34.9099 29.2113 33.7742 29.5259 32.6238 29.7637C32.5703 29.775 32.5174 29.7867 32.4636 29.7978C30.9531 30.1053 29.4268 30.314 27.8931 30.4227C26.9522 30.4906 25.9863 30.5268 25.0005 30.5268C24.0147 30.5267 23.0488 30.4906 22.1079 30.4227C22.9617 31.8061 23.8918 33.1325 24.8931 34.3946C24.9291 34.3947 24.9645 34.3958 25.0005 34.3958C25.0365 34.3957 25.072 34.3946 25.108 34.3945C26.7147 34.3913 28.2843 34.316 29.8017 34.1741C31.1158 34.0513 32.3884 33.8766 33.6149 33.6592C33.7142 33.6416 33.8132 33.6236 33.9117 33.6053C34.9498 33.4139 35.9499 33.191 36.912 32.9366C38.1072 32.6212 39.2411 32.2621 40.2958 31.8598C45.6124 29.8322 49.0001 26.7692 49 23.3415C49.0001 20.046 45.8656 17.0892 40.8993 15.064Z" stroke="#0A1119" stroke-linecap="round" stroke-linejoin="round"/>
<path d="M22.5456 12.7548C22.4106 12.6238 22.2756 12.4925 22.1412 12.3682C20.8755 12.4374 19.6429 12.5508 18.4434 12.7084C17.6184 12.8162 16.8124 12.9431 16.0253 13.0894C14.9588 13.2876 13.9328 13.5192 12.9471 13.7839C11.643 14.129 10.3587 14.5565 9.1008 15.0641C4.13445 17.0894 1 20.0462 1 23.3417V26.658C1 23.2303 4.38765 20.1673 9.70421 18.1397C10.759 17.7374 11.8929 17.3783 13.0881 17.0628C14.0487 16.8093 15.0488 16.5864 16.0884 16.3942C16.1871 16.376 16.286 16.358 16.3852 16.3403C17.6117 16.1228 18.8843 15.9482 20.1983 15.8253C21.7157 15.6834 23.2855 15.6082 24.8921 15.6049C24.9279 15.56 24.9638 15.5163 24.9995 15.4717C24.234 14.5123 23.4145 13.6049 22.5456 12.7548Z" stroke="#0A1119" stroke-linecap="round" stroke-linejoin="round"/>
<path d="M39.9996 19.3101C39.7186 20.3644 39.3908 21.442 39.0161 22.5428C40.0983 23.1179 41.041 23.9595 41.7684 25.0001C42.1419 24.4349 42.3486 23.7604 42.3611 23.0656C42.361 21.6958 41.4983 20.4134 39.9996 19.3101Z" stroke="#0A1119" stroke-linecap="round" stroke-linejoin="round"/>
<path d="M16.3219 33.9951C16.1523 34.9569 16.053 35.9317 16.0249 36.9104C16.8111 37.0565 17.6172 37.1835 18.443 37.2912C17.7192 36.247 17.0122 35.1483 16.3219 33.9951Z" stroke="#0A1119" stroke-linecap="round" stroke-linejoin="round"/>
<path d="M12.6934 32.1967C12.9709 31.1695 13.2926 30.1206 13.6586 29.05C13.6934 28.9483 13.7285 28.8466 13.7639 28.7448C14.2032 27.4863 14.7014 26.209 15.2585 24.9128C15.9036 23.4194 16.6283 21.9104 17.429 20.4026C17.4109 20.3466 17.3939 20.2912 17.3761 20.2354C16.2258 20.4732 15.09 20.7878 13.9755 21.1772C13.8031 21.2382 13.6305 21.2992 13.4638 21.363C12.8864 22.5841 12.3608 23.7962 11.8872 24.9994C11.5609 25.8266 11.2594 26.6457 10.9829 27.4566C10.6083 28.5555 10.2805 29.6331 9.99949 30.6894C9.62359 32.0844 9.32345 33.5021 9.10063 34.9351C8.23782 40.6031 9.03629 45.0198 11.673 46.6676L14.3263 48.3257C11.5839 46.6119 10.827 41.9048 11.8631 35.9072C12.0686 34.7174 12.3482 33.4749 12.6934 32.1967Z" stroke="#0A1119" stroke-linecap="round" stroke-linejoin="round"/>
<path d="M24.999 34.3958C25.035 34.3958 25.0704 34.3946 25.1064 34.3945C25.0706 34.4395 25.0348 34.4832 24.999 34.5277C24.9632 34.4832 24.9274 34.4396 24.8916 34.3946C24.9276 34.3947 24.963 34.3958 24.999 34.3958Z" stroke="#0A1119" stroke-linecap="round" stroke-linejoin="round"/>
<path d="M32.517 20.3016C32.499 20.2678 32.4804 20.2352 32.4623 20.2015C31.6564 18.6971 30.8113 17.2632 29.9391 15.9118C29.1837 14.7414 28.4077 13.6358 27.6205 12.5947C27.5567 12.5104 27.4929 12.4267 27.429 12.3435C26.7568 11.4661 26.0785 10.6401 25.3939 9.86538C24.5438 8.90268 23.6896 8.01932 22.8404 7.23176C18.5598 3.26173 14.4154 1.61767 11.6729 3.33153C9.03627 4.97928 8.23782 9.39591 9.10063 15.064C10.3585 14.5564 11.6428 14.1289 12.9469 13.7838C13.0803 11.8271 13.675 10.3772 14.7709 9.69234C15.3331 9.35658 15.976 9.21306 16.615 9.28068C17.8113 9.44223 18.9559 9.90503 19.9571 10.632C20.7261 11.1476 21.4563 11.7281 22.141 12.368C22.2754 12.4924 22.4105 12.6236 22.5455 12.7547C23.4143 13.6048 24.2338 14.5121 24.9993 15.4716C25.0351 15.5161 25.0709 15.5598 25.1067 15.6047C26.1081 16.8668 27.0382 18.1932 27.892 19.5766C28.4167 20.4246 28.9266 21.3111 29.4215 22.2361C29.9144 23.1602 30.3684 24.0838 30.7845 24.9997C31.4645 23.5076 32.0607 21.9725 32.5698 20.4028C32.5519 20.3691 32.535 20.3353 32.517 20.3016Z" stroke="#0A1119" stroke-linecap="round" stroke-linejoin="round"/>
<path d="M22.0518 41.9057C20.4197 42.7589 18.9623 42.9264 17.8663 42.2416C17.3166 41.8825 16.8803 41.3516 16.6149 40.7188C16.146 39.5166 15.944 38.2122 16.0251 36.9102C16.0532 35.9315 16.1525 34.9568 16.3221 33.995C16.3543 33.8068 16.3919 33.6146 16.4292 33.4225C16.6749 32.183 16.9911 30.9611 17.376 29.7638C17.3938 29.708 17.4107 29.6525 17.4288 29.5966C17.938 28.0268 18.5341 26.4918 19.2141 24.9997C19.6302 24.0838 20.0842 23.1603 20.5771 22.2362C21.07 21.3121 21.582 20.4247 22.1067 19.5767C20.573 19.6853 19.0467 19.894 17.5362 20.2016C17.5182 20.2353 17.4996 20.2679 17.4816 20.3017C17.4636 20.3354 17.4468 20.3692 17.4289 20.403C16.6282 21.9107 15.9035 23.4197 15.2583 24.9131C14.6996 26.2064 14.2014 27.4838 13.7637 28.7451C13.7282 28.8471 13.6931 28.9488 13.6585 29.0503C13.2926 30.1191 12.9708 31.168 12.6933 32.197C12.3481 33.4752 12.0685 34.7177 11.8629 35.9076C10.8269 41.9051 11.5838 46.6122 14.3262 48.326C16.9628 49.9738 20.8958 48.514 24.9993 44.8711C23.9642 43.9458 22.98 42.9556 22.0518 41.9057Z" stroke="#0A1119" stroke-linecap="round" stroke-linejoin="round"/>
<path d="M27.1584 42.7681C26.3092 41.9805 25.455 41.0971 24.605 40.1344C23.9218 39.3607 23.2434 38.5347 22.5698 37.6563C22.506 37.5729 22.4421 37.4891 22.3783 37.405C21.5911 36.364 20.8152 35.2584 20.0597 34.088C19.1875 32.7366 18.3425 31.3028 17.5365 29.7983C17.4826 29.7872 17.4298 29.7754 17.3762 29.7642C16.9913 30.9615 16.6751 32.1834 16.4294 33.4229C16.3921 33.615 16.3546 33.8072 16.3223 33.9954C17.0105 35.1473 17.7176 36.246 18.4434 37.2915C18.9421 38.011 19.4467 38.7031 19.9572 39.3679C20.6491 40.2684 21.3474 41.1145 22.052 41.9061C22.9802 42.956 23.9644 43.9462 24.9995 44.8715C29.103 48.5144 33.0359 49.9742 35.6726 48.3264L38.3259 46.6683C35.5835 48.3822 31.439 46.7381 27.1584 42.7681Z" stroke="#0A1119" stroke-linecap="round" stroke-linejoin="round"/>
<path d="M40.2948 31.8601C39.2401 32.2624 38.1062 32.6214 36.9109 32.9369C35.9503 33.1905 34.9503 33.4133 33.9107 33.6055C33.812 33.6238 33.713 33.6417 33.6139 33.6594C32.3873 33.8769 31.1149 34.0515 29.8007 34.1744C28.2833 34.3163 26.7137 34.3915 25.107 34.3948C25.0712 34.4398 25.0353 34.4835 24.9995 34.528C25.765 35.4875 26.5845 36.3949 27.4534 37.2449C27.5884 37.376 27.7234 37.5073 27.8578 37.6316C29.1235 37.5624 30.3561 37.4489 31.5556 37.2913C32.3806 37.1836 33.1867 37.0566 33.9737 36.9104C35.0402 36.7121 36.0663 36.4806 37.0519 36.2158C38.356 35.8707 39.6403 35.4432 40.8982 34.9356C45.8646 32.9104 48.999 29.9536 48.999 26.6581V23.3418C48.9991 26.7695 45.6114 29.8325 40.2948 31.8601Z" stroke="#0A1119" stroke-linecap="round" stroke-linejoin="round"/>
<path d="M31.5553 12.7085C31.0566 11.989 30.552 11.2969 30.0415 10.6322C29.3497 9.73164 28.6514 8.88555 27.9467 8.09397C27.0185 7.04407 26.0344 6.0539 24.9993 5.12853C20.8957 1.48569 16.9628 0.0258395 14.3262 1.67363L11.6729 3.33177C14.4153 1.61791 18.5597 3.26197 22.8403 7.23197C23.6896 8.01955 24.5438 8.9029 25.3938 9.8656C26.0769 10.6393 26.7553 11.4653 27.4289 12.3437C27.4928 12.4272 27.5567 12.5109 27.6204 12.595C28.4077 13.636 29.1837 14.7416 29.939 15.912C30.8113 17.2634 31.6563 18.6973 32.4623 20.2018C32.4803 20.2355 32.499 20.268 32.517 20.3018C32.535 20.3356 32.5518 20.3693 32.5697 20.403C32.5878 20.347 32.6048 20.2916 32.6225 20.2359C33.0074 19.0385 33.3236 17.8166 33.5693 16.5771C33.6066 16.3851 33.6442 16.1928 33.6765 16.0047C32.9882 14.8528 32.2812 13.7541 31.5553 12.7085Z" stroke="#0A1119" stroke-linecap="round" stroke-linejoin="round"/>
<path d="M38.3263 3.33197L35.673 1.67383C38.4154 3.38767 39.1723 8.09471 38.1362 14.0923C37.9307 15.2822 37.6511 16.5246 37.3059 17.8028C37.0284 18.83 36.7067 19.8789 36.3407 20.9496C36.3059 21.0512 36.2708 21.1529 36.2354 21.2547C35.7961 22.5132 35.2979 23.7905 34.7409 25.0867C34.0957 26.58 33.371 28.0891 32.5703 29.5968C32.5884 29.6529 32.6054 29.7083 32.6232 29.7642C33.7736 29.5263 34.9093 29.2117 36.0238 28.8223C36.1962 28.7612 36.3688 28.7003 36.5354 28.6365C37.1129 27.4155 37.6384 26.2034 38.1121 25.0001C38.4384 24.1729 38.7399 23.3538 39.0164 22.5429C39.391 21.444 39.7188 20.3664 39.9998 19.3101C40.3757 17.9151 40.6759 16.4974 40.8987 15.0644C41.7615 9.39638 40.963 4.97972 38.3263 3.33197Z" stroke="#0A1119" stroke-linecap="round" stroke-linejoin="round"/>
<path d="M35.6726 1.67361C33.036 0.0258586 29.103 1.48569 24.9995 5.12851C26.0346 6.05388 27.0188 7.04405 27.947 8.09395C29.5791 7.24066 31.0365 7.07316 32.1324 7.75805C32.6821 8.11715 33.1184 8.64807 33.3839 9.28085C33.8528 10.483 34.0548 11.7875 33.9737 13.0894C33.9456 14.0681 33.8463 15.0429 33.6767 16.0047C33.6444 16.1928 33.6069 16.3851 33.5696 16.5771C33.3239 17.8166 33.0077 19.0385 32.6228 20.2359C32.605 20.2917 32.5881 20.347 32.57 20.403C32.0608 21.9728 31.4647 23.5079 30.7847 24.9999C30.3686 25.9158 29.9146 26.8394 29.4217 27.7635C28.9288 28.6876 28.4168 29.5749 27.8921 30.423C29.4258 30.3143 30.9521 30.1056 32.4626 29.798C32.4807 29.7644 32.4992 29.7317 32.5172 29.698C32.5352 29.6642 32.552 29.6304 32.5699 29.5966C33.3706 28.0889 34.0953 26.5799 34.7405 25.0865C35.2992 23.7932 35.7974 22.5159 36.235 21.2545C36.2706 21.1526 36.3057 21.0509 36.3403 20.9494C36.7062 19.8806 37.0279 18.8317 37.3055 17.8026C37.6507 16.5244 37.9303 15.282 38.1358 14.0921C39.1719 8.0945 38.415 3.38745 35.6726 1.67361Z" stroke="#0A1119" stroke-linecap="round" stroke-linejoin="round"/>
<path d="M40.8984 34.9357C39.6404 35.4433 38.3561 35.8707 37.0521 36.2159C36.9187 38.1725 36.324 39.6224 35.2281 40.3073C34.6659 40.643 34.023 40.7866 33.384 40.719C32.1877 40.5575 31.0431 40.0946 30.0419 39.3677C29.2729 38.852 28.5427 38.2715 27.858 37.6317C27.7236 37.5073 27.5885 37.376 27.4535 37.245C26.5847 36.3949 25.7651 35.4876 24.9996 34.5281C24.9639 34.4836 24.928 34.4399 24.8923 34.395C23.8909 33.1328 22.9608 31.8064 22.107 30.423C21.5823 29.575 21.0725 28.6885 20.5775 27.7635C20.0846 26.8395 19.6306 25.9159 19.2144 25C18.5345 26.492 17.9383 28.0271 17.4292 29.5968C17.4471 29.6306 17.464 29.6643 17.482 29.698C17.4999 29.7318 17.5186 29.7644 17.5367 29.7982C18.3427 31.3027 19.1877 32.7364 20.0599 34.0879C20.8153 35.2583 21.5913 36.3639 22.3785 37.4049C22.4423 37.4892 22.5061 37.573 22.57 37.6562C23.2422 38.5336 23.9206 39.3596 24.6051 40.1343C25.4552 41.097 26.3094 41.9804 27.1586 42.768C31.4392 46.738 35.5836 48.382 38.3261 46.6682C40.9627 45.0204 41.7612 40.6038 40.8984 34.9357Z" stroke="#0A1119" stroke-linecap="round" stroke-linejoin="round"/>
<path d="M25.1069 15.6052C25.0709 15.6051 25.0355 15.604 24.9995 15.604C24.9635 15.604 24.9281 15.6052 24.8921 15.6053C23.2854 15.6086 21.7157 15.6838 20.1983 15.8257C18.8842 15.9486 17.6117 16.1232 16.3852 16.3406C16.2858 16.3583 16.1869 16.3762 16.0883 16.3946C15.0502 16.5859 14.0502 16.8088 13.0881 17.0632C11.8928 17.3787 10.7589 17.7378 9.70417 18.14C4.38765 20.1676 1 23.2306 1 26.6583C0.999969 29.9538 4.13442 32.9106 9.10077 34.9359C9.32359 33.5029 9.62373 32.0852 9.99963 30.6902C8.50087 29.5869 7.63816 28.3044 7.63816 26.9346C7.65062 26.2398 7.85725 25.5654 8.23082 25.0002C8.95822 23.9595 9.90084 23.1179 10.983 22.5429C11.7801 22.0799 12.6097 21.6857 13.464 21.3638C13.6307 21.3 13.8033 21.239 13.9756 21.178C15.0902 20.7886 16.2259 20.474 17.3763 20.2361C17.4298 20.2248 17.4826 20.2131 17.5365 20.2021C19.047 19.8945 20.5732 19.6858 22.1069 19.5771C23.0478 19.5093 24.0137 19.473 24.9995 19.473C25.9853 19.473 26.9512 19.5092 27.8921 19.5771C27.0383 18.1937 26.1082 16.8673 25.1069 15.6052Z" stroke="#0A1119" stroke-linecap="round" stroke-linejoin="round"/>
</g>
<defs>
<clipPath id="clip0_879_303">
<rect width="50" height="50" fill="white"/>
</clipPath>
</defs>
</svg>
