<svg width="50" height="50" viewBox="0 0 50 50" fill="none" xmlns="http://www.w3.org/2000/svg">
<path d="M36.7977 24.201L24.7915 3.33301L19.2671 12.9351C20.9563 12.3557 22.7254 12.0467 24.51 12.0193L24.7915 11.5299L37.1677 33.0411C38.078 30.1417 37.947 27.0131 36.7977 24.201Z" stroke="#0A1119" stroke-width="1.5" stroke-linecap="round" stroke-linejoin="round"/>
<path d="M10.1862 37.9797H9.57401L21.9765 16.4229C19.0097 17.0883 16.3688 18.7782 14.5128 21.1986L2.5 42.0782H13.6385C12.2815 40.9022 11.1165 39.5192 10.1862 37.9797Z" stroke="#0A1119" stroke-width="1.5" stroke-linecap="round" stroke-linejoin="round"/>
<path d="M26.161 42.0781C23.1855 42.3912 20.1936 41.6634 17.6897 40.0172C15.1858 38.371 13.323 35.9071 12.4154 33.041L9.88074 37.4465C9.98021 37.6257 10.0806 37.8044 10.1862 37.9796C11.4729 40.1144 13.2071 41.9415 15.2681 43.3333C17.3291 44.7252 19.6672 45.6484 22.1195 46.0386C24.5718 46.4288 27.0792 46.2765 29.4669 45.5925C31.8547 44.9085 34.0653 43.7091 35.9447 42.0781H26.161Z" stroke="#0A1119" stroke-width="1.5" stroke-linecap="round" stroke-linejoin="round"/>
<path d="M25.0731 12.0189C24.979 12.0173 24.886 12.0117 24.7916 12.0117C24.6972 12.0117 24.6041 12.0173 24.51 12.0189C22.0174 12.0545 19.5631 12.6401 17.3204 13.7345C15.0777 14.8289 13.1016 16.4052 11.5316 18.352C9.96166 20.2989 8.83625 22.5687 8.23495 25.001C7.63365 27.4333 7.57114 29.9687 8.05185 32.428L12.7853 24.2008C13.9466 21.3551 16.071 19.0138 18.7831 17.5904C21.4953 16.1671 24.6205 15.7534 27.6067 16.4224L25.0731 12.0189Z" stroke="#0A1119" stroke-width="1.5" stroke-linecap="round" stroke-linejoin="round"/>
<path d="M30.3162 12.9355L35.0705 21.1992C36.9444 23.6331 37.8956 26.658 37.7541 29.7325C37.6126 32.8071 36.3875 35.7307 34.2981 37.9802H39.3971C39.5027 37.8049 39.6031 37.6263 39.7025 37.4471C40.5719 35.8819 41.1891 34.1881 41.5314 32.4288C42.3258 28.3652 41.6269 24.1497 39.5644 20.5649C37.5019 16.98 34.2159 14.2692 30.3162 12.9355Z" stroke="#0A1119" stroke-width="1.5" stroke-linecap="round" stroke-linejoin="round"/>
<path d="M41.5314 32.4287C41.1891 34.188 40.5719 35.8818 39.7026 37.4469L40.0093 37.98H15.2853C17.4156 40.2904 20.3064 41.7464 23.4224 42.0785H47.0834L41.5314 32.4287Z" stroke="#0A1119" stroke-width="1.5" stroke-linecap="round" stroke-linejoin="round"/>
</svg>
