<svg width="31" height="31" viewBox="0 0 31 31" fill="none" xmlns="http://www.w3.org/2000/svg">
<path d="M7.30583 9.24268L2.77417 17.6549H7.41834H7.42127L11.9533 9.24268H7.30583Z" stroke="#0A1119" stroke-linecap="round" stroke-linejoin="round"/>
<path d="M16.6626 0.5L14.3392 4.81336L18.9648 13.4L21.2885 9.08661L16.6626 0.5Z" stroke="#0A1119" stroke-linecap="round" stroke-linejoin="round"/>
<path d="M7.41989 17.658L7.42103 17.6553H7.41846L7.41989 17.658Z" stroke="#0A1119" stroke-linecap="round" stroke-linejoin="round"/>
<path d="M14.3389 4.81348H0.5L5.0959 13.345L7.30549 9.243H11.9529L14.2346 13.4001H18.9648L14.3389 4.81348Z" stroke="#0A1119" stroke-linecap="round" stroke-linejoin="round"/>
<path d="M2.82371 0.5L0.5 4.81336H14.3389L16.6626 0.5H2.82371Z" stroke="#0A1119" stroke-linecap="round" stroke-linejoin="round"/>
<path d="M14.2667 21.9682L11.8993 17.6549L14.2348 13.3998L11.9531 9.24268L7.42114 17.6549L14.3408 30.4997L18.9367 21.9682H14.2667Z" stroke="#0A1119" stroke-linecap="round" stroke-linejoin="round"/>
<path d="M7.42127 17.6553L7.41997 17.6584L7.41834 17.6553H2.77417L9.69379 30.5001H14.3409L7.42127 17.6553Z" stroke="#0A1119" stroke-linecap="round" stroke-linejoin="round"/>
<path d="M21.258 17.6553H11.8999L14.2673 21.9686H23.5814L21.258 17.6553Z" stroke="#0A1119" stroke-linecap="round" stroke-linejoin="round"/>
<path d="M28.1779 4.81348L21.2583 17.6583L23.5804 21.9686L30.5 9.12405L28.1779 4.81348Z" stroke="#0A1119" stroke-linecap="round" stroke-linejoin="round"/>
<path d="M18.9871 4.81348L21.2893 9.08672L18.9656 13.4001H14.2354L11.8999 17.6552H21.258L28.1789 4.81348H18.9871Z" stroke="#0A1119" stroke-linecap="round" stroke-linejoin="round"/>
</svg>
