<svg width="51" height="51" viewBox="0 0 51 51" fill="none" xmlns="http://www.w3.org/2000/svg">
<path d="M32.9302 7.53956C31.7886 6.82613 30.2704 7.0006 28.5703 7.88946C29.3027 8.71287 30.0301 9.59421 30.7524 10.5335C31.7953 9.77623 32.9876 9.29411 34.2338 9.12581C33.9573 8.46666 33.5028 7.91363 32.9302 7.53956Z" stroke="white" stroke-linecap="round" stroke-linejoin="round"/>
<path d="M20.2479 40.4668C19.2051 41.224 18.0127 41.7061 16.7666 41.8744C17.0431 42.5336 17.4976 43.0866 18.0702 43.4607C19.2118 44.1741 20.7299 43.9996 22.4301 43.1108C21.6977 42.2874 20.9703 41.406 20.2479 40.4668Z" stroke="white" stroke-linecap="round" stroke-linejoin="round"/>
<path d="M28.4766 38.6582C29.1898 39.3247 29.9505 39.9294 30.7515 40.4665C31.2828 39.775 31.8085 39.054 32.3285 38.3037C31.0812 38.4666 29.7972 38.5847 28.4766 38.6582Z" stroke="white" stroke-linecap="round" stroke-linejoin="round"/>
<path d="M20.2469 10.5337C19.7155 11.2253 19.1899 11.9463 18.6699 12.6965C19.9172 12.5337 21.2012 12.4155 22.5218 12.3421C21.8086 11.6755 21.0479 11.0709 20.2469 10.5337Z" stroke="white" stroke-linecap="round" stroke-linejoin="round"/>
<path d="M34.8479 37.9071C34.9323 39.2633 34.7218 40.6221 34.2334 41.8743C34.899 41.9447 35.5688 41.7952 36.1544 41.4455C37.296 40.7321 37.9155 39.2217 38.0543 37.1836C37.0293 37.4584 35.9605 37.6996 34.8479 37.9071Z" stroke="white" stroke-linecap="round" stroke-linejoin="round"/>
<path d="M14.8444 9.55471C13.7027 10.2681 13.0833 11.7785 12.9443 13.8166C13.9694 13.5418 15.0382 13.3006 16.1508 13.0931C16.0664 11.7369 16.2769 10.3782 16.7653 9.12589C16.0997 9.05545 15.4299 9.20496 14.8444 9.55471Z" stroke="white" stroke-linecap="round" stroke-linejoin="round"/>
<path d="M33.3315 30.3936C33.3504 30.3585 33.3679 30.3233 33.3867 30.2881C33.4056 30.3464 33.4234 30.4042 33.442 30.4624C33.386 30.4741 33.3307 30.4863 33.2744 30.4978C33.2933 30.4628 33.3127 30.4288 33.3315 30.3936Z" stroke="white" stroke-linecap="round" stroke-linejoin="round"/>
<path d="M17.669 20.6062C17.6502 20.6414 17.6327 20.6765 17.6139 20.7117C17.595 20.6534 17.5772 20.5956 17.5586 20.5374C17.6146 20.5257 17.6699 20.5135 17.7261 20.502C17.7073 20.537 17.6878 20.571 17.669 20.6062Z" stroke="white" stroke-linecap="round" stroke-linejoin="round"/>
<path d="M10.8984 22.9402C11.1861 23.7841 11.5001 24.6373 11.8404 25.4998C12.3337 24.2492 12.8812 22.9865 13.4828 21.7119C12.5928 22.0472 11.7287 22.4579 10.8984 22.9402Z" stroke="white" stroke-linecap="round" stroke-linejoin="round"/>
<path d="M17.669 30.3935C17.6879 30.4287 17.7074 30.4627 17.7262 30.4978C17.6699 30.4863 17.6146 30.474 17.5586 30.4623C17.5772 30.4041 17.5949 30.3464 17.6138 30.2881C17.6326 30.3232 17.6502 30.3583 17.669 30.3935Z" stroke="white" stroke-linecap="round" stroke-linejoin="round"/>
<path d="M39.159 25.5C38.6656 26.7507 38.1182 28.0133 37.5166 29.2879C38.4065 28.9526 39.2706 28.5419 40.1009 28.0596C39.8132 27.2157 39.4992 26.3625 39.159 25.5Z" stroke="white" stroke-linecap="round" stroke-linejoin="round"/>
<path d="M8.0324 25.5C7.64325 26.0888 7.42801 26.7913 7.41504 27.5151C7.41504 28.9419 8.31371 30.2778 9.87492 31.4271C10.1676 30.3289 10.509 29.2064 10.8993 28.0596C9.77202 27.4606 8.79012 26.584 8.0324 25.5Z" stroke="white" stroke-linecap="round" stroke-linejoin="round"/>
<path d="M32.3291 12.6963C33.0831 13.7841 33.8196 14.9286 34.5387 16.1298C34.7153 15.1279 34.8188 14.1125 34.848 13.0931C34.029 12.9408 33.1894 12.8086 32.3291 12.6963Z" stroke="white" stroke-linecap="round" stroke-linejoin="round"/>
<path d="M25.4996 15.7126C25.4621 15.7126 25.4252 15.7139 25.3877 15.714C25.425 15.6671 25.4623 15.6216 25.4996 15.5752C25.5368 15.6216 25.5741 15.667 25.6114 15.7139C25.574 15.7137 25.5371 15.7126 25.4996 15.7126Z" stroke="white" stroke-linecap="round" stroke-linejoin="round"/>
<path d="M42.0618 15.1499C41.8297 16.6426 41.5171 18.1193 41.1255 19.5725C42.6868 20.7217 43.5854 22.0576 43.5854 23.4845C43.5724 24.2083 43.3572 24.9108 42.968 25.4996C42.2103 26.5836 41.2284 27.4603 40.1011 28.0592C39.2708 28.5415 38.4067 28.9522 37.5168 29.2875C37.3431 29.354 37.1634 29.4174 36.9839 29.4811C35.8228 29.8867 34.6398 30.2144 33.4415 30.4622C33.3857 30.4739 33.3307 30.4861 33.2746 30.4976C31.7011 30.818 30.1113 31.0354 28.5136 31.1486C27.5335 31.2193 26.5274 31.2571 25.5005 31.257C24.4736 31.257 23.4674 31.2193 22.4873 31.1486C23.3767 32.5897 24.3455 33.9713 25.3886 35.2861C25.4261 35.2862 25.4629 35.2873 25.5005 35.2872C25.538 35.2872 25.5749 35.286 25.6124 35.2859C27.286 35.2825 28.9211 35.2042 30.5018 35.0564C31.8707 34.9284 33.1962 34.7465 34.4738 34.52C34.5773 34.5016 34.6804 34.4829 34.783 34.4638C35.8644 34.2644 36.9062 34.0323 37.9083 33.7673C39.1534 33.4387 40.3345 33.0647 41.4332 32.6456C46.9714 30.5336 50.5002 27.3429 50.5002 23.7724C50.5002 20.3396 47.2352 17.2595 42.0618 15.1499Z" stroke="white" stroke-linecap="round" stroke-linejoin="round"/>
<path d="M22.9436 12.7451C22.803 12.6085 22.6623 12.4718 22.5223 12.3423C21.2039 12.4144 19.9199 12.5325 18.6704 12.6967C17.811 12.809 16.9714 12.9412 16.1515 13.0935C15.0406 13.3001 13.9718 13.5412 12.945 13.817C11.5866 14.1765 10.2488 14.6218 8.93842 15.1506C3.76509 17.2602 0.5 20.3402 0.5 23.7731V27.2275C0.5 23.657 4.02884 20.4664 9.56698 18.3543C10.6657 17.9352 11.8468 17.5612 13.0919 17.2326C14.0926 16.9685 15.1343 16.7363 16.2172 16.5361C16.32 16.5171 16.4231 16.4984 16.5264 16.4799C17.804 16.2534 19.1296 16.0715 20.4985 15.9435C22.0791 15.7957 23.7143 15.7173 25.3879 15.7139C25.4252 15.6671 25.4625 15.6216 25.4998 15.5752C24.7024 14.5757 23.8487 13.6306 22.9436 12.7451Z" stroke="white" stroke-linecap="round" stroke-linejoin="round"/>
<path d="M41.125 19.5728C40.8324 20.671 40.4909 21.7935 40.1006 22.9403C41.2279 23.5392 42.2098 24.4159 42.9675 25.4999C43.3567 24.9111 43.5719 24.2086 43.5849 23.4848C43.5849 22.0579 42.6863 20.722 41.125 19.5728Z" stroke="white" stroke-linecap="round" stroke-linejoin="round"/>
<path d="M16.4607 34.8701C16.2841 35.872 16.1806 36.8874 16.1514 37.9068C16.9704 38.0591 17.81 38.1913 18.6703 38.3036C17.9163 37.2158 17.1798 36.0713 16.4607 34.8701Z" stroke="white" stroke-linecap="round" stroke-linejoin="round"/>
<path d="M12.6813 32.9969C12.9703 31.9269 13.3054 30.8343 13.6867 29.719C13.7229 29.6132 13.7594 29.5072 13.7963 29.4012C14.254 28.0902 14.7729 26.7596 15.3532 25.4095C16.0253 23.8538 16.7801 22.2819 17.6142 20.7114C17.5954 20.653 17.5776 20.5953 17.5591 20.5371C16.3608 20.7849 15.1778 21.1125 14.0168 21.5182C13.8372 21.5818 13.6574 21.6452 13.4838 21.7117C12.8822 22.9837 12.3348 24.2463 11.8414 25.4996C11.5015 26.3613 11.1875 27.2146 10.8995 28.0593C10.5092 29.2039 10.1678 30.3264 9.87505 31.4268C9.48348 32.8799 9.17084 34.3566 8.93873 35.8494C8.03996 41.7536 8.87171 46.3543 11.6183 48.0707L14.3822 49.7979C11.5255 48.0127 10.737 43.1095 11.8163 36.862C12.0304 35.6226 12.3217 34.3283 12.6813 32.9969Z" stroke="white" stroke-linecap="round" stroke-linejoin="round"/>
<path d="M25.4996 35.2874C25.5371 35.2874 25.574 35.2862 25.6115 35.2861C25.5742 35.333 25.5368 35.3785 25.4996 35.4249C25.4623 35.3785 25.425 35.333 25.3877 35.2862C25.4252 35.2863 25.462 35.2874 25.4996 35.2874Z" stroke="white" stroke-linecap="round" stroke-linejoin="round"/>
<path d="M33.3311 20.6061C33.3123 20.571 33.2929 20.537 33.2741 20.5019C32.4346 18.9347 31.5543 17.4412 30.6457 16.0334C29.8588 14.8143 29.0505 13.6626 28.2304 12.5782C28.1641 12.4903 28.0976 12.4031 28.031 12.3165C27.3308 11.4025 26.6242 10.542 25.911 9.73507C25.0255 8.73226 24.1357 7.81208 23.2511 6.99171C18.7921 2.85626 14.475 1.14369 11.6182 2.92896C8.87169 4.64537 8.03996 9.24604 8.93873 15.1503C10.2491 14.6215 11.5869 14.1762 12.9453 13.8167C13.0842 11.7786 13.7037 10.2682 14.8453 9.55482C15.4309 9.20507 16.1006 9.05556 16.7663 9.126C18.0124 9.29428 19.2048 9.77637 20.2477 10.5336C21.0487 11.0708 21.8094 11.6754 22.5226 12.342C22.6626 12.4716 22.8033 12.6083 22.9439 12.7448C23.849 13.6303 24.7027 14.5754 25.5001 15.5749C25.5373 15.6213 25.5746 15.6667 25.6119 15.7135C26.655 17.0283 27.6239 18.4099 28.5132 19.851C29.0598 20.7343 29.5909 21.6578 30.1065 22.6212C30.62 23.5839 31.0929 24.546 31.5264 25.5C32.2347 23.9458 32.8557 22.3467 33.386 20.7115C33.3673 20.6764 33.3498 20.6413 33.3311 20.6061Z" stroke="white" stroke-linecap="round" stroke-linejoin="round"/>
<path d="M22.4291 43.1105C20.7289 43.9993 19.2108 44.1738 18.0691 43.4604C17.4965 43.0863 17.0421 42.5333 16.7656 41.8741C16.2772 40.6219 16.0667 39.2631 16.1511 37.9069C16.1804 36.8874 16.2838 35.872 16.4605 34.8702C16.4941 34.6742 16.5333 34.474 16.5721 34.2739C16.8281 32.9827 17.1575 31.7099 17.5584 30.4627C17.5769 30.4045 17.5946 30.3468 17.6134 30.2885C18.1438 28.6533 18.7648 27.0543 19.473 25.5001C19.9066 24.546 20.3794 23.584 20.8929 22.6214C21.4063 21.6588 21.9396 20.7345 22.4862 19.8511C20.8886 19.9642 19.2987 20.1816 17.7252 20.5021C17.7065 20.5371 17.6871 20.5711 17.6684 20.6063C17.6496 20.6414 17.6321 20.6766 17.6134 20.7118C16.7794 22.2824 16.0245 23.8543 15.3524 25.4099C14.7704 26.7571 14.2515 28.0876 13.7956 29.4016C13.7585 29.5078 13.7219 29.6137 13.6859 29.7195C13.3048 30.8328 12.9696 31.9254 12.6805 32.9973C12.3209 34.3288 12.0296 35.623 11.8155 36.8625C10.7363 43.1099 11.5247 48.0132 14.3814 49.7984C17.128 51.5148 21.2248 49.9942 25.4994 46.1995C24.4211 45.2356 23.3959 44.2042 22.4291 43.1105Z" stroke="white" stroke-linecap="round" stroke-linejoin="round"/>
<path d="M27.7487 44.0087C26.8641 43.1883 25.9743 42.268 25.0888 41.2652C24.3772 40.4593 23.6706 39.5988 22.9689 38.6839C22.9023 38.597 22.8358 38.5097 22.7694 38.4221C21.9494 37.3377 21.1411 36.186 20.3542 34.9669C19.4456 33.5591 18.5654 32.0656 17.7258 30.4984C17.6697 30.4869 17.6146 30.4746 17.5588 30.4629C17.1579 31.7101 16.8285 32.9829 16.5726 34.2741C16.5337 34.4742 16.4946 34.6744 16.4609 34.8704C17.1779 36.0703 17.9144 37.2148 18.6705 38.3039C19.19 39.0534 19.7156 39.7743 20.2474 40.4668C20.9681 41.4048 21.6955 42.2862 22.4295 43.1108C23.3964 44.2044 24.4216 45.2358 25.4998 46.1998C29.7744 49.9944 33.8712 51.515 36.6177 49.7986L39.3816 48.0714C36.5249 49.8567 32.2077 48.1441 27.7487 44.0087Z" stroke="white" stroke-linecap="round" stroke-linejoin="round"/>
<path d="M41.4328 32.6457C40.3341 33.0647 39.1529 33.4387 37.9079 33.7673C36.9072 34.0315 35.8655 34.2637 34.7826 34.4639C34.6798 34.4828 34.5767 34.5016 34.4734 34.52C33.1957 34.7465 31.8702 34.9284 30.5013 35.0564C28.9207 35.2043 27.2856 35.2826 25.6119 35.286C25.5747 35.3329 25.5373 35.3784 25.5 35.4248C26.2974 36.4243 27.1511 37.3694 28.0561 38.2549C28.1968 38.3914 28.3375 38.5282 28.4774 38.6577C29.7959 38.5856 31.0798 38.4674 32.3293 38.3032C33.1887 38.191 34.0284 38.0588 34.8483 37.9064C35.9592 37.6999 37.028 37.4587 38.0547 37.1829C39.4132 36.8234 40.751 36.3781 42.0613 35.8494C47.2347 33.7398 50.4998 30.6598 50.4998 27.2269V23.7725C50.4998 27.343 46.9709 30.5336 41.4328 32.6457Z" stroke="white" stroke-linecap="round" stroke-linejoin="round"/>
<path d="M32.3293 12.6964C31.8098 11.9469 31.2842 11.226 30.7524 10.5336C30.0317 9.59547 29.3043 8.71413 28.5703 7.88956C27.6034 6.79592 26.5782 5.76448 25.5 4.80056C21.2254 1.00593 17.1286 -0.514752 14.3821 1.2017L11.6182 2.92893C14.4749 1.14365 18.7921 2.85622 23.2511 6.99165C24.1357 7.81205 25.0255 8.7322 25.911 9.73501C26.6226 10.5409 27.3292 11.4014 28.0309 12.3164C28.0975 12.4033 28.164 12.4905 28.2304 12.5781C29.0504 13.6625 29.8588 14.8142 30.6456 16.0333C31.5542 17.4411 32.4345 18.9347 33.274 20.5019C33.2928 20.537 33.3123 20.5709 33.331 20.6061C33.3498 20.6412 33.3673 20.6764 33.386 20.7115C33.4048 20.6532 33.4225 20.5955 33.441 20.5374C33.8419 19.2902 34.1713 18.0173 34.4272 16.7262C34.4661 16.5261 34.5052 16.3259 34.5388 16.1299C33.8219 14.93 33.0854 13.7855 32.3293 12.6964Z" stroke="white" stroke-linecap="round" stroke-linejoin="round"/>
<path d="M39.3816 2.92938L36.6178 1.20215C39.4745 2.9874 40.2629 7.89058 39.1836 14.1381C38.9696 15.3775 38.6783 16.6717 38.3187 18.0032C38.0297 19.0732 37.6945 20.1658 37.3133 21.2811C37.2771 21.387 37.2405 21.4929 37.2036 21.599C36.746 22.9099 36.227 24.2404 35.6467 25.5906C34.9747 27.1462 34.2198 28.7181 33.3857 30.2887C33.4046 30.347 33.4223 30.4048 33.4408 30.463C34.6391 30.2152 35.8222 29.8875 36.9832 29.4818C37.1627 29.4182 37.3425 29.3548 37.5161 29.2883C38.1176 28.0164 38.6651 26.7538 39.1585 25.5004C39.4984 24.6387 39.8124 23.7855 40.1005 22.9408C40.4907 21.7961 40.8322 20.6736 41.1249 19.5733C41.5165 18.1201 41.8291 16.6434 42.0612 15.1507C42.96 9.24649 42.1282 4.64579 39.3816 2.92938Z" stroke="white" stroke-linecap="round" stroke-linejoin="round"/>
<path d="M36.6179 1.20168C33.8714 -0.514732 29.7745 1.00593 25.5 4.80054C26.5783 5.76446 27.6034 6.7959 28.5703 7.88954C30.2704 7.0007 31.7886 6.82622 32.9302 7.53965C33.5028 7.91372 33.9573 8.46675 34.2338 9.1259C34.7222 10.3782 34.9327 11.7369 34.8482 13.0932C34.819 14.1126 34.7155 15.128 34.5389 16.1299C34.5052 16.3259 34.4661 16.5261 34.4272 16.7262C34.1713 18.0174 33.8419 19.2902 33.441 20.5374C33.4225 20.5955 33.4048 20.6532 33.386 20.7115C32.8556 22.3467 32.2346 23.9457 31.5263 25.5C31.0928 26.454 30.6199 27.4161 30.1065 28.3787C29.593 29.3413 29.0597 30.2656 28.5132 31.149C30.1108 31.0358 31.7007 30.8184 33.2741 30.498C33.2929 30.4629 33.3123 30.4289 33.331 30.3938C33.3497 30.3586 33.3672 30.3234 33.3859 30.2882C34.22 28.7177 34.9749 27.1457 35.6469 25.5901C36.2289 24.243 36.7479 22.9124 37.2038 21.5985C37.2409 21.4923 37.2774 21.3864 37.3135 21.2806C37.6946 20.1673 38.0297 19.0747 38.3189 18.0027C38.6784 16.6713 38.9697 15.3771 39.1838 14.1376C40.2631 7.89011 39.4746 2.98693 36.6179 1.20168Z" stroke="white" stroke-linecap="round" stroke-linejoin="round"/>
<path d="M42.0615 35.8497C40.7512 36.3784 39.4134 36.8237 38.055 37.1833C37.9161 39.2214 37.2966 40.7317 36.155 41.4452C35.5694 41.7949 34.8997 41.9444 34.234 41.874C32.9879 41.7057 31.7955 41.2236 30.7526 40.4664C29.9516 39.9292 29.1909 39.3245 28.4777 38.658C28.3377 38.5285 28.197 38.3917 28.0564 38.2552C27.1513 37.3697 26.2976 36.4246 25.5002 35.4251C25.4629 35.3787 25.4256 35.3332 25.3884 35.2864C24.3453 33.9717 23.3764 32.59 22.4871 31.149C21.9405 30.2656 21.4094 29.3422 20.8938 28.3787C20.3803 27.4161 19.9074 26.4541 19.4739 25.5C18.7656 27.0542 18.1446 28.6532 17.6143 30.2884C17.6329 30.3236 17.6505 30.3587 17.6692 30.3938C17.6879 30.4289 17.7074 30.463 17.7262 30.4981C18.5658 32.0653 19.446 33.5588 20.3546 34.9665C21.1415 36.1857 21.9498 37.3374 22.7698 38.4218C22.8363 38.5096 22.9028 38.5969 22.9693 38.6835C23.6695 39.5975 24.3762 40.4579 25.0893 41.2649C25.9747 42.2677 26.8646 43.1879 27.7491 44.0083C32.2081 48.1438 36.5253 49.8563 39.382 48.0711C42.1286 46.3546 42.9603 41.7539 42.0615 35.8497Z" stroke="white" stroke-linecap="round" stroke-linejoin="round"/>
<path d="M25.6116 15.7136C25.5741 15.7135 25.5373 15.7124 25.4998 15.7124C25.4623 15.7124 25.4253 15.7137 25.3879 15.7137C23.7142 15.7171 22.0791 15.7955 20.4985 15.9433C19.1296 16.0713 17.804 16.2532 16.5264 16.4797C16.4229 16.4981 16.3198 16.5168 16.2172 16.5359C15.1358 16.7352 14.0941 16.9674 13.0919 17.2324C11.8468 17.561 10.6657 17.9351 9.56693 18.3541C4.02884 20.4662 0.5 23.6568 0.5 27.2273C0.499968 30.6601 3.76506 33.7402 8.93838 35.8498C9.1705 34.3571 9.48314 32.8804 9.87471 31.4272C8.31349 30.2779 7.41483 28.942 7.41483 27.5152C7.4278 26.7914 7.64304 26.0889 8.03218 25.5001C8.7899 24.4161 9.7718 23.5394 10.8991 22.9405C11.7294 22.4582 12.5935 22.0475 13.4834 21.7122C13.6571 21.6457 13.8369 21.5822 14.0164 21.5186C15.1774 21.113 16.3605 20.7853 17.5588 20.5376C17.6145 20.5258 17.6696 20.5136 17.7257 20.5021C19.2991 20.1816 20.889 19.9643 22.4866 19.8511C23.4667 19.7804 24.4728 19.7427 25.4998 19.7426C26.5267 19.7426 27.5328 19.7804 28.5129 19.8511C27.6235 18.41 26.6547 17.0284 25.6116 15.7136Z" stroke="white" stroke-linecap="round" stroke-linejoin="round"/>
</svg>
