<svg width="44" height="44" viewBox="0 0 44 44" fill="none" xmlns="http://www.w3.org/2000/svg">
<g clip-path="url(#clip0_252_15675)">
<path d="M28.9377 25.4244C28.9377 31.1467 24.299 35.7854 18.5768 35.7854C12.8545 35.7854 8.2158 31.1467 8.2158 25.4244C8.2158 19.7022 12.8545 15.0635 18.5768 15.0635C18.8614 15.0635 19.1431 15.0758 19.4219 15.0983V6.86699C19.1417 6.85436 18.86 6.84766 18.5768 6.84766C8.31712 6.84766 0 15.1648 0 25.4244C0 35.6841 8.31712 44.0012 18.5768 44.0012C28.8364 44.0012 37.1535 35.6841 37.1535 25.4244C37.1535 25.1412 37.1468 24.8595 37.1342 24.5793H28.9028C28.9254 24.8581 28.9377 25.1398 28.9377 25.4244Z" fill="url(#paint0_linear_252_15675)"/>
<path d="M44 22C44 9.84973 34.1503 0 22 0V22H44Z" fill="url(#paint1_linear_252_15675)"/>
</g>
<defs>
<linearGradient id="paint0_linear_252_15675" x1="0" y1="25.4244" x2="37.1535" y2="25.4244" gradientUnits="userSpaceOnUse">
<stop stop-color="#097C7D"/>
<stop offset="1" stop-color="#20282D"/>
</linearGradient>
<linearGradient id="paint1_linear_252_15675" x1="22" y1="11" x2="44" y2="11" gradientUnits="userSpaceOnUse">
<stop stop-color="#097C7D"/>
<stop offset="1" stop-color="#20282D"/>
</linearGradient>
<clipPath id="clip0_252_15675">
<rect width="44" height="44" fill="white"/>
</clipPath>
</defs>
</svg>
