<svg width="60" height="60" viewBox="0 0 60 60" fill="none" xmlns="http://www.w3.org/2000/svg">
<path d="M36.8525 4.46973C39.0554 3.78672 41.1352 3.81046 42.8467 4.7959C42.8571 4.80191 42.8675 4.80838 42.8779 4.81445L45.9043 6.55664C47.6154 7.54205 48.6745 9.32709 49.1826 11.5703C49.6637 13.6944 49.6635 16.2819 49.2334 19.1455C51.9351 20.2059 54.1819 21.5005 55.7861 22.9785C57.4799 24.5393 58.4982 26.3462 58.499 28.3145L58.5 28.3154V31.8369C58.4999 33.806 57.4805 35.6125 55.7861 37.1738C54.182 38.6519 51.9352 39.9464 49.2334 41.0068C49.6637 43.8711 49.6638 46.4595 49.1826 48.584C48.6754 50.823 47.6185 52.6033 45.9131 53.5898C45.9098 53.5918 45.9076 53.5957 45.9043 53.5977L42.8467 55.3574C41.1352 56.343 39.0555 56.3666 36.8525 55.6836C34.7675 55.037 32.5207 53.744 30.25 51.9414C27.9793 53.7441 25.7325 55.038 23.6475 55.6846C21.4443 56.3677 19.3639 56.344 17.6523 55.3584L14.5957 53.5977C12.8846 52.6122 11.8255 50.8273 11.3174 48.584C10.8363 46.4594 10.8343 43.8711 11.2646 41.0068C8.56384 39.9466 6.31767 38.6525 4.71387 37.1748C3.01944 35.6135 2.00002 33.806 2 31.8369V28.3174C2 26.3482 3.0194 24.5409 4.71387 22.9795C6.31775 21.5017 8.56356 20.2068 11.2646 19.1465C10.8344 16.2823 10.8362 13.6939 11.3174 11.5693C11.8255 9.32611 12.8847 7.54112 14.5957 6.55566L17.6533 4.7959C19.3648 3.81046 21.4446 3.78673 23.6475 4.46973C25.7114 5.10979 27.9344 6.38304 30.1816 8.15723L30.25 8.21191C32.5205 6.40933 34.7676 5.11629 36.8525 4.46973ZM25.6787 25.0176C24.5124 25.1283 23.351 25.2867 22.1973 25.4912C22.1419 25.501 22.0865 25.5105 22.0312 25.5205C21.8012 25.9201 21.5793 26.3213 21.3604 26.7207C20.7156 27.8975 20.1194 29.0722 19.5732 30.2373C19.5268 30.3364 19.4823 30.4362 19.4365 30.5352C18.8564 31.7957 18.333 33.0382 17.8691 34.2627L17.8682 34.2637C17.8335 34.355 17.7995 34.447 17.7656 34.5381C17.76 34.5534 17.7537 34.5687 17.748 34.584C17.331 35.7082 16.9648 36.8086 16.6494 37.8848V37.8857C16.5512 38.2207 16.4578 38.5532 16.3691 38.8828C16.1035 39.872 15.8815 40.8359 15.707 41.7666C15.6445 42.1 15.5889 42.4293 15.5381 42.7539C15.5004 42.9948 15.4649 43.233 15.4336 43.4688C15.1104 45.9056 15.131 48.0654 15.4922 49.8359C15.9357 52.0091 16.8763 53.5297 18.2559 54.3242C18.2585 54.3258 18.261 54.3275 18.2637 54.3291C19.5884 55.0882 21.2899 55.1638 23.2891 54.5439C25.132 53.9724 27.1784 52.8218 29.3047 51.1611C29.2919 51.1502 29.2794 51.1389 29.2666 51.1279C28.3828 50.3705 27.5324 49.5752 26.7178 48.7441C26.6047 48.7934 26.4915 48.8394 26.3789 48.8838C26.2633 48.9294 26.1481 48.9724 26.0332 49.0127C26.0062 49.0221 25.9791 49.0309 25.9521 49.04C25.8643 49.0699 25.7768 49.0984 25.6895 49.125C25.637 49.141 25.5844 49.1552 25.5322 49.1699C25.4685 49.188 25.4052 49.2064 25.3418 49.2227C25.2959 49.2344 25.2498 49.2441 25.2041 49.2549C25.1315 49.272 25.0594 49.289 24.9873 49.3037C24.9489 49.3115 24.9104 49.3181 24.8721 49.3252C24.7969 49.3391 24.7221 49.3521 24.6475 49.3633C24.6116 49.3686 24.5758 49.3732 24.54 49.3779C24.4602 49.3884 24.3809 49.3981 24.3018 49.4053C24.2672 49.4084 24.2327 49.4106 24.1982 49.4131C24.1226 49.4185 24.0475 49.4225 23.9727 49.4248C23.94 49.4258 23.9075 49.4264 23.875 49.4268C23.7973 49.4277 23.7203 49.4265 23.6436 49.4238C23.6093 49.4226 23.5751 49.4219 23.541 49.4199C23.4663 49.4157 23.3921 49.4091 23.3184 49.4014C23.287 49.3981 23.2558 49.3946 23.2246 49.3906C23.1537 49.3817 23.0836 49.3698 23.0137 49.3574C22.9775 49.351 22.9412 49.3462 22.9053 49.3389C22.8191 49.3213 22.734 49.3003 22.6494 49.2773C22.6387 49.2744 22.6279 49.2716 22.6172 49.2686C22.5232 49.2421 22.4306 49.212 22.3389 49.1787C22.3304 49.1757 22.3219 49.173 22.3135 49.1699C22.1139 49.0959 21.9186 49.0077 21.7305 48.8994C21.7272 48.8975 21.7239 48.8945 21.7207 48.8926C20.9836 48.4488 20.3986 47.7929 20.043 47.0117C20.0408 47.007 20.0382 47.0019 20.0361 46.9971C19.4624 45.6415 19.2137 44.171 19.3096 42.7031C19.3221 42.3017 19.3465 41.9008 19.3828 41.501C19.4433 40.8351 19.5373 40.1718 19.6631 39.5146C19.666 39.499 19.6699 39.4835 19.6729 39.4678C19.7093 39.2761 19.749 39.0821 19.7881 38.8965L19.7891 38.8945C19.7944 38.8699 19.8003 38.845 19.8057 38.8203C20.0915 37.506 20.4563 36.2097 20.8994 34.9395C20.9158 34.8921 20.94 34.8167 20.96 34.7598C21.0041 34.6344 21.0504 34.5098 21.0957 34.3848C21.257 33.9394 21.4252 33.4966 21.6006 33.0566C22.0389 31.9576 22.5202 30.8757 23.0449 29.8145L23.417 29.0752C23.7975 28.3344 24.2028 27.5894 24.6338 26.8447C24.9968 26.2176 25.3692 25.6066 25.748 25.0117C25.725 25.0139 25.7018 25.0154 25.6787 25.0176ZM21.6836 36.3994C21.4796 37.0577 21.297 37.7225 21.1357 38.3926C21.1281 38.4245 21.1199 38.4563 21.1123 38.4883C21.0606 38.7061 21.0119 38.9246 20.9648 39.1436L20.9639 39.1426C20.938 39.2655 20.9144 39.3858 20.8906 39.5029C21.2531 40.0574 21.6203 40.6001 21.9912 41.1309C22.3826 41.6899 22.7778 42.2358 23.1777 42.7676L23.1787 42.7686C23.7456 43.5222 24.319 44.2468 24.8984 44.9424C24.9001 44.9443 24.9017 44.9463 24.9033 44.9482C25.6934 45.895 26.4889 46.7823 27.2881 47.6104C27.2902 47.6125 27.2919 47.6159 27.2939 47.6182C27.4239 47.7535 27.5547 47.888 27.6865 48.0215C28.218 48.5595 28.7653 49.0818 29.3271 49.5879C29.7539 49.9724 30.1893 50.3475 30.6328 50.7129L31.0674 51.0635C33.2389 52.7777 35.3315 53.9612 37.2109 54.5439C39.1716 55.1518 40.8439 55.0877 42.1572 54.3691C42.153 54.3688 42.1488 54.3675 42.1445 54.3672C42.0238 54.3578 41.9024 54.3457 41.7803 54.3311C41.7559 54.3281 41.7315 54.3244 41.707 54.3213C41.6127 54.3092 41.518 54.2954 41.4229 54.2803C41.3777 54.2731 41.3324 54.2667 41.2871 54.2588C41.0342 54.2149 40.7789 54.1604 40.5215 54.0957C40.499 54.09 40.4766 54.0839 40.4541 54.0781C40.3325 54.0467 40.2104 54.0134 40.0879 53.9775C40.0807 53.9754 40.0736 53.9728 40.0664 53.9707C39.9259 53.9293 39.7841 53.8861 39.6426 53.8389C37.3398 53.0703 34.8459 51.5302 32.3447 49.3926C32.2425 49.3052 32.1423 49.2145 32.04 49.125C31.9411 49.0384 31.8412 48.9518 31.7422 48.8633C31.604 48.7397 31.4663 48.6136 31.3281 48.4863C31.2357 48.4012 31.1432 48.3153 31.0508 48.2285C30.9455 48.1297 30.8396 48.0306 30.7344 47.9297C30.5813 47.783 30.4292 47.6333 30.2764 47.4824C29.9711 47.181 29.6645 46.8731 29.3604 46.5557C28.5632 45.7236 27.7715 44.8359 26.9873 43.8936L26.7646 43.625L26.7637 43.624C25.8474 42.5074 24.9444 41.3214 24.0654 40.0664C23.8499 39.7587 23.6362 39.4464 23.4238 39.1309C23.3596 39.0356 23.2973 38.9388 23.2334 38.8428C23.0802 38.6124 22.9268 38.3808 22.7754 38.1465C22.6372 37.9328 22.5009 37.7169 22.3643 37.5C22.3188 37.4278 22.2728 37.3558 22.2275 37.2832C22.1017 37.0818 21.977 36.8789 21.8525 36.6748C21.7966 36.5831 21.7392 36.4917 21.6836 36.3994ZM23.2725 32.1709C23.1214 32.5157 22.975 32.8624 22.833 33.2109C22.6063 33.7682 22.3909 34.3301 22.1875 34.8965C23.1033 36.4702 24.0631 37.9698 25.0527 39.3828C25.914 40.6124 26.7981 41.7747 27.6953 42.8682H27.6963C27.7687 42.9564 27.8415 43.0438 27.9141 43.1309L27.915 43.1318C28.4121 43.7298 28.9128 44.3036 29.415 44.8555C29.6869 45.1542 29.9584 45.4475 30.2314 45.7324C30.5393 46.0537 30.8493 46.3645 31.1572 46.668C31.8168 47.3175 32.474 47.9266 33.1289 48.4863C35.559 50.5632 37.9193 52.003 40.0264 52.7061C41.4751 53.1894 42.7734 53.3161 43.8916 53.0898C44.1966 53.0281 44.4881 52.9403 44.7656 52.8262C44.9506 52.7501 45.1294 52.6627 45.3018 52.5635C46.6281 51.7995 47.548 50.364 48.0107 48.3213C48.4361 46.4431 48.4595 44.1001 48.0811 41.4336C46.9868 41.8176 45.8764 42.154 44.7529 42.4424C44.7331 42.4475 44.7132 42.4539 44.6934 42.459C44.6859 42.5249 44.6765 42.5902 44.668 42.6553C44.6036 43.1447 44.5064 43.6103 44.374 44.0459C44.355 44.1083 44.3359 44.1703 44.3154 44.2314C44.3022 44.2709 44.2882 44.3098 44.2744 44.3486C44.2523 44.4109 44.2297 44.4724 44.2061 44.5332C44.1812 44.597 44.1546 44.6595 44.1279 44.7217C44.1118 44.7592 44.0968 44.797 44.0801 44.834C44.053 44.8936 44.0239 44.9518 43.9951 45.0098C43.9739 45.0525 43.9528 45.0949 43.9307 45.1367C43.9022 45.1906 43.8729 45.2436 43.8428 45.2959C43.8214 45.3331 43.7996 45.3698 43.7773 45.4062C43.7475 45.4552 43.7169 45.5033 43.6855 45.5508C43.6543 45.5981 43.6226 45.6446 43.5898 45.6904C43.5584 45.7345 43.526 45.7777 43.4932 45.8203C43.4675 45.8536 43.4416 45.8865 43.415 45.9189C43.3738 45.9693 43.3324 46.0192 43.2891 46.0674C43.2672 46.0917 43.2441 46.1149 43.2217 46.1387C43.176 46.1872 43.13 46.2352 43.082 46.2812C43.0358 46.3257 42.9869 46.3671 42.9385 46.4092C42.9105 46.4335 42.8842 46.4598 42.8555 46.4834C42.8062 46.5239 42.7546 46.5615 42.7031 46.5996C42.668 46.6256 42.6338 46.6529 42.5977 46.6777C42.5452 46.7139 42.4902 46.7465 42.4355 46.7803C42.4019 46.8011 42.3694 46.8249 42.335 46.8447C42.3318 46.8465 42.3284 46.8479 42.3252 46.8496C41.5711 47.2646 40.7081 47.4429 39.8506 47.3594C39.8431 47.3586 39.8356 47.3565 39.8281 47.3555C38.3678 47.1727 36.9703 46.6538 35.7461 45.8398C35.7446 45.8389 35.7427 45.8388 35.7412 45.8379C34.8285 45.2738 33.9621 44.6383 33.1494 43.9385C33.1466 43.9361 33.1443 43.9331 33.1416 43.9307C32.9837 43.7958 32.8257 43.6545 32.6748 43.5195L32.6729 43.5186C31.6536 42.5996 30.6919 41.6182 29.7939 40.5811L29.792 40.5791C29.7591 40.5415 29.7124 40.488 29.6738 40.4434C29.6725 40.4419 29.6703 40.441 29.6689 40.4395C28.4997 39.0813 27.4139 37.6536 26.417 36.165C26.4115 36.1569 26.4074 36.148 26.4023 36.1396C25.796 35.2354 25.2061 34.2915 24.6348 33.3076L24.1055 32.3691C23.9336 32.0563 23.7668 31.7434 23.6035 31.4316C23.4907 31.6769 23.3807 31.9236 23.2725 32.1709ZM20.4775 25.8359C19.5637 26.0434 18.6592 26.2908 17.7666 26.5771C17.7562 26.5805 17.7457 26.5836 17.7354 26.5869C17.6158 26.6259 17.4993 26.665 17.3857 26.7031C17.2359 26.9978 17.0899 27.2924 16.9463 27.5859C16.5051 28.4893 16.0937 29.3861 15.7119 30.2764C15.7072 30.2875 15.702 30.2985 15.6973 30.3096V30.3105C15.3261 31.1775 14.9822 32.035 14.668 32.8838C14.6673 32.8856 14.6677 32.8878 14.667 32.8896C14.312 33.8508 13.9955 34.7951 13.7148 35.7207C13.6579 35.9087 13.6007 36.0956 13.5469 36.2822V36.2842C13.1204 37.7428 12.7792 39.2253 12.5264 40.7236C12.0373 43.6854 12.0275 46.279 12.4902 48.3223C12.9424 50.3183 13.8315 51.7324 15.1094 52.5088C15.0612 52.4086 15.0146 52.3066 14.9697 52.2031C14.941 52.1369 14.9141 52.0695 14.8867 52.002C14.8673 51.954 14.8479 51.906 14.8291 51.8574C14.8065 51.7989 14.7843 51.7401 14.7627 51.6807C14.7403 51.6193 14.7186 51.5574 14.6973 51.4951C14.6612 51.3897 14.6269 51.2829 14.5938 51.1748C14.5755 51.1152 14.5565 51.0555 14.5391 50.9951C14.5213 50.9334 14.5051 50.8711 14.4883 50.8086C14.4694 50.7387 14.4503 50.6685 14.4326 50.5977C14.4222 50.5558 14.4114 50.5139 14.4014 50.4717C14.3701 50.3405 14.3409 50.2076 14.3135 50.0732C14.3073 50.0428 14.3029 50.012 14.2969 49.9814C14.0549 48.7508 13.9657 47.375 14.0205 45.8867C14.0386 45.3975 14.0711 44.8961 14.1201 44.3838C14.2073 43.4712 14.3417 42.5239 14.5244 41.5488C14.7653 40.2637 15.0926 38.9241 15.4951 37.5508C15.8189 36.4445 16.1943 35.3183 16.6201 34.1719L16.7432 33.8428C17.253 32.4889 17.8329 31.119 18.4824 29.7334C18.5402 29.6101 18.6013 29.4877 18.6602 29.3643C18.77 29.1339 18.8805 28.9027 18.9941 28.6719C19.0809 28.4957 19.1699 28.32 19.2588 28.1436C19.3601 27.9426 19.4623 27.7413 19.5664 27.54C19.648 27.3823 19.7302 27.2243 19.8135 27.0664C19.9283 26.849 20.0451 26.6317 20.1631 26.4141C20.252 26.2502 20.3409 26.0858 20.4316 25.9219C20.4474 25.8935 20.4618 25.8643 20.4775 25.8359ZM24.3174 46.1113C23.4626 46.6152 22.5349 46.9817 21.5674 47.1982C21.7854 47.4616 22.0457 47.6896 22.3418 47.8682C23.202 48.3594 24.3778 48.3645 25.8281 47.8135C25.3208 47.2686 24.8182 46.7003 24.3174 46.1113ZM43.4375 42.7627C42.7119 42.9281 41.9686 43.0779 41.208 43.2158C41.2186 44.2072 41.0724 45.1928 40.7764 46.1377C40.779 46.1373 40.7816 46.1372 40.7842 46.1367C41.0005 46.0995 41.2118 46.0383 41.416 45.9561C41.5243 45.9121 41.6312 45.864 41.7344 45.8076C41.858 45.7362 41.9754 45.6533 42.0879 45.5605C42.2662 45.4133 42.4305 45.2401 42.5791 45.0391C42.6644 44.9239 42.7443 44.7998 42.8193 44.667C43.1046 44.1604 43.3144 43.5258 43.4375 42.7627ZM20.4951 43.4229C20.5067 44.3355 20.6674 45.2403 20.9756 46.1006C21.8758 45.9369 22.7405 45.6226 23.5381 45.1768C23.1451 44.6929 22.7557 44.1959 22.3691 43.6865C21.7346 43.6074 21.1099 43.5202 20.4951 43.4229ZM40.0029 43.4229C39.3881 43.52 38.7636 43.6066 38.1299 43.6855C37.743 44.1955 37.3538 44.693 36.9609 45.1768C37.7582 45.6224 38.6227 45.9358 39.5225 46.0996C39.8306 45.2396 39.9912 44.3353 40.0029 43.4229ZM36.4717 43.8682C36.029 43.911 35.5827 43.9488 35.1328 43.9824C35.2359 44.0579 35.3388 44.1337 35.4434 44.207C35.4692 44.2251 35.4946 44.2438 35.5205 44.2617C35.6566 44.3562 35.7951 44.4472 35.9336 44.5381C36.1136 44.3177 36.2928 44.0943 36.4717 43.8682ZM57.293 31.9414C57.1941 32.0853 57.0893 32.2273 56.9795 32.3682C56.9481 32.4084 56.916 32.4483 56.8838 32.4883C56.8374 32.5458 56.7903 32.6032 56.7422 32.6602C56.7321 32.6722 56.7221 32.6843 56.7119 32.6963C56.6084 32.8177 56.501 32.9378 56.3896 33.0566C56.3551 33.0935 56.3204 33.1304 56.2852 33.167C56.2313 33.2229 56.1767 33.2786 56.1211 33.334C56.0998 33.3552 56.0782 33.3763 56.0566 33.3975C55.9901 33.4627 55.9223 33.5274 55.8535 33.5918C55.8093 33.6332 55.7649 33.6748 55.7197 33.7158C55.6735 33.7578 55.6282 33.8011 55.5811 33.8428C53.7626 35.4477 51.1782 36.8309 48.0713 37.9229C46.8351 38.3573 45.5096 38.7441 44.1162 39.083C42.9932 39.3567 41.8262 39.5954 40.6172 39.8008L40.6182 39.8018C40.5032 39.8215 40.3874 39.8414 40.2715 39.8604C38.8438 40.0936 37.3623 40.2803 35.833 40.4121C35.6579 40.4272 35.4819 40.4375 35.3057 40.4512C35.1013 40.467 34.8963 40.4842 34.6904 40.498C34.4648 40.5133 34.2381 40.5251 34.0107 40.5381C33.8367 40.548 33.6623 40.5579 33.4873 40.5664C33.2289 40.579 32.9695 40.59 32.709 40.5996C32.6004 40.6036 32.4917 40.6069 32.3828 40.6104C32.0823 40.6199 31.7806 40.6292 31.4775 40.6348C31.4697 40.6349 31.4619 40.6346 31.4541 40.6348C31.4756 40.6579 31.497 40.681 31.5186 40.7041C32.1444 41.3741 32.7982 42.0175 33.4795 42.6318L33.7549 42.875C34.4324 42.8383 35.1013 42.7921 35.7617 42.7354C35.7835 42.7335 35.8053 42.7314 35.8271 42.7295C36.4697 42.6736 37.1042 42.6081 37.7305 42.5322C38.6711 42.419 39.59 42.2863 40.4863 42.1328C41.3976 41.9767 42.2826 41.8006 43.1406 41.6055L43.9834 41.4053C43.986 41.4046 43.9886 41.404 43.9912 41.4033C45.4707 41.0425 46.9283 40.5952 48.3555 40.0645C48.3577 40.0636 48.3601 40.0633 48.3623 40.0625C51.1746 39.0048 53.4289 37.7187 54.9697 36.2988C56.4759 34.9109 57.2579 33.4352 57.293 31.9414ZM20.6152 41.25C20.5869 41.5085 20.5664 41.7678 20.5488 42.0273C20.5445 42.0911 20.5418 42.1549 20.5381 42.2188C20.8181 42.2638 21.1003 42.3074 21.3848 42.3486C21.1262 41.9877 20.8694 41.6218 20.6152 41.25ZM30.0938 20.7002C28.2711 20.7045 26.4908 20.7834 24.7705 20.9316C23.2723 21.0608 21.821 21.2443 20.4229 21.4727H20.4238L20.085 21.5293C18.9006 21.7311 17.7627 21.9659 16.6709 22.2314C15.3106 22.5623 14.0229 22.9379 12.8291 23.3574C9.81145 24.418 7.38192 25.7363 5.71777 27.2051C4.05377 28.6738 3.2024 30.2464 3.20215 31.8369C3.20217 33.3664 3.98895 34.8785 5.53027 36.2988C6.94714 37.6044 8.96732 38.7968 11.4697 39.8027C11.4817 39.7391 11.4956 39.6758 11.5078 39.6123C11.5466 39.4109 11.586 39.2096 11.6279 39.0088C11.6367 38.9668 11.6454 38.9248 11.6543 38.8828C11.7086 38.6267 11.7659 38.3712 11.8252 38.1162C11.8402 38.0517 11.8558 37.9873 11.8711 37.9229C11.9219 37.7092 11.974 37.496 12.0283 37.2832C12.0436 37.2233 12.0586 37.1633 12.0742 37.1035C12.139 36.8546 12.2048 36.606 12.2744 36.3584C11.9674 36.1325 11.6811 35.897 11.4189 35.6523C11.3994 35.6341 11.3806 35.615 11.3613 35.5967C11.291 35.5298 11.2219 35.4628 11.1553 35.3945C11.1372 35.376 11.1203 35.3565 11.1025 35.3379C11.0409 35.2734 10.9801 35.2092 10.9219 35.1436C10.8868 35.104 10.8532 35.0634 10.8193 35.0234C10.7815 34.9787 10.7442 34.9339 10.708 34.8887C10.6757 34.8483 10.6443 34.8074 10.6133 34.7666C10.5726 34.7131 10.5325 34.6597 10.4941 34.6055C10.4699 34.5713 10.4471 34.5364 10.4238 34.502C10.3834 34.4421 10.3442 34.382 10.3066 34.3213C10.2892 34.293 10.2717 34.2648 10.2549 34.2363C10.2171 34.1725 10.1819 34.1077 10.1475 34.043C10.1306 34.0114 10.1137 33.98 10.0977 33.9482C10.0649 33.8833 10.0342 33.8178 10.0049 33.752C9.98993 33.7185 9.97499 33.6851 9.96094 33.6514C9.93639 33.5924 9.91338 33.5332 9.8916 33.4736C9.87768 33.4356 9.86336 33.3977 9.85059 33.3594C9.8292 33.2951 9.81107 33.2301 9.79297 33.165C9.78289 33.1289 9.77174 33.093 9.7627 33.0566C9.74786 32.9969 9.73661 32.9364 9.72461 32.876C9.71631 32.8343 9.70614 32.793 9.69922 32.751C9.68905 32.6892 9.68293 32.6269 9.67578 32.5645C9.66937 32.5086 9.66215 32.4528 9.6582 32.3965C9.65205 32.3083 9.64746 32.2192 9.64746 32.1299C9.64746 32.1262 9.64739 32.1218 9.64746 32.1182C9.64851 32.0646 9.65416 32.0113 9.65723 31.958C9.70317 31.157 9.97286 30.3831 10.4424 29.7285L10.4863 29.6738H10.4854C11.3708 28.5205 12.5108 27.5859 13.8174 26.9424C13.9356 26.8791 14.0544 26.8168 14.1738 26.7559C14.3453 26.6683 14.5186 26.5846 14.6924 26.502C14.8907 26.4077 15.0898 26.3153 15.291 26.2275C15.7724 26.0173 16.2621 25.8259 16.7588 25.6533L16.7617 25.6523H16.7607C16.9603 25.582 17.1663 25.5152 17.3623 25.4512L17.3643 25.4502C17.9166 25.2724 18.4735 25.1097 19.0342 24.9609C19.0781 24.9493 19.122 24.9373 19.166 24.9258C19.4079 24.8627 19.6503 24.8018 19.8936 24.7441C19.9566 24.7292 20.0198 24.7148 20.083 24.7002C20.3376 24.6414 20.5927 24.5851 20.8486 24.5322L21.3545 24.4326C21.4067 24.4224 21.4785 24.4071 21.54 24.3955H21.541C23.3047 24.0645 25.0871 23.8396 26.8779 23.7227L27.7061 23.6748C28.5393 23.6331 29.3882 23.6114 30.25 23.6113C30.9753 23.6113 31.6912 23.6284 32.3965 23.6582C32.228 23.4212 32.0571 23.1857 31.8838 22.9521C31.8445 22.8991 31.8042 22.8468 31.7646 22.7939C31.4166 22.3293 31.0599 21.8713 30.6934 21.4209L30.0938 20.7002ZM49.0293 20.3506C48.8117 21.5093 48.5426 22.6577 48.2236 23.793C48.6279 24.0902 48.9958 24.4048 49.3203 24.7344C49.3644 24.7791 49.4068 24.8248 49.4492 24.8701C49.4906 24.9143 49.5315 24.9582 49.5713 25.0029C49.6006 25.0358 49.6288 25.0693 49.6572 25.1025C49.7049 25.1583 49.7517 25.214 49.7969 25.2705C49.8239 25.3044 49.8498 25.3389 49.876 25.373C49.9151 25.4242 49.9532 25.4755 49.9902 25.5273C50.0199 25.5688 50.0489 25.6104 50.0771 25.6523C50.1106 25.702 50.1433 25.7516 50.1748 25.8018C50.2019 25.8449 50.2283 25.8881 50.2539 25.9316C50.2812 25.9782 50.3074 26.0252 50.333 26.0723C50.361 26.1238 50.3881 26.1755 50.4141 26.2275C50.4372 26.274 50.4581 26.3212 50.4795 26.3682C50.4976 26.4079 50.5163 26.4472 50.5332 26.4873C50.5565 26.5426 50.5778 26.5984 50.5986 26.6543C50.6176 26.7053 50.6364 26.7561 50.6533 26.8076C50.6661 26.8464 50.6769 26.8857 50.6885 26.9248C50.7052 26.9813 50.7221 27.0376 50.7363 27.0947C50.7512 27.1546 50.7633 27.2149 50.7754 27.2754C50.7838 27.3173 50.7928 27.3591 50.7998 27.4014C50.8074 27.4474 50.8124 27.4937 50.8184 27.54C50.8387 27.6993 50.8525 27.8602 50.8525 28.0234C50.8525 28.0269 50.8526 28.0307 50.8525 28.0342C50.8358 28.8918 50.5592 29.7257 50.0586 30.4238C50.0518 30.4333 50.0434 30.4422 50.0361 30.4512C49.1476 31.6176 47.9999 32.5622 46.6826 33.2109C45.9961 33.5784 45.2881 33.9047 44.5645 34.1914C44.5273 34.2062 44.4904 34.2218 44.4531 34.2363C44.2276 34.3242 44.0002 34.4074 43.7715 34.4873C43.7612 34.4916 43.7518 34.4982 43.7412 34.502C43.5412 34.5725 43.3343 34.6389 43.1377 34.7031L43.1357 34.7041C41.8282 35.1251 40.4951 35.4655 39.1455 35.7227C39.1398 35.7237 39.1337 35.7227 39.1279 35.7236C39.0783 35.7335 39.0133 35.7476 38.959 35.7578C37.1951 36.0888 35.4121 36.3137 33.6211 36.4307C33.6166 36.431 33.6119 36.4295 33.6074 36.4297C32.5151 36.5019 31.3941 36.542 30.25 36.542C29.5245 36.542 28.8081 36.5249 28.1025 36.4951C28.1109 36.5069 28.1195 36.5185 28.1279 36.5303C28.8292 37.5147 29.5721 38.4689 30.3535 39.3916C30.3704 39.4115 30.3874 39.4313 30.4043 39.4512C32.2276 39.4469 34.0086 39.37 35.7295 39.2217C37.2276 39.0926 38.6783 38.909 40.0762 38.6807C40.1747 38.6644 40.273 38.6475 40.3711 38.6309L40.4141 38.624H40.415C41.5993 38.4222 42.7373 38.1884 43.8291 37.9229C44.5093 37.7574 45.1714 37.5803 45.8125 37.3926C46.4535 37.2047 47.0741 37.0057 47.6709 36.7959C50.6883 35.7354 53.1181 34.4178 54.7822 32.9492C56.4465 31.4803 57.2979 29.9062 57.2979 28.3154H57.2969C57.2964 26.7865 56.5103 25.2753 54.9697 23.8555C53.5527 22.5497 51.5321 21.3566 49.0293 20.3506ZM30.25 24.8057C29.2312 24.8057 28.2309 24.8384 27.2539 24.8975C26.7141 25.7121 26.1863 26.5602 25.6768 27.4404C25.167 28.3211 24.6944 29.2021 24.2568 30.0762C24.6941 30.95 25.1662 31.8306 25.6758 32.7109C26.1882 33.5934 26.7161 34.4412 27.2559 35.2559C28.2323 35.3148 29.2318 35.3476 30.25 35.3477C31.2681 35.3477 32.2677 35.3148 33.2441 35.2559C33.7842 34.441 34.3136 33.5934 34.8232 32.7129C35.333 31.8322 35.8047 30.9513 36.2422 30.0771C35.8046 29.2031 35.3329 28.3221 34.8232 27.4414V27.4404C34.3112 26.5587 33.7843 25.7115 33.2451 24.8975C32.2684 24.8384 31.2685 24.8056 30.25 24.8057ZM42.2422 5.82812C40.9166 5.06568 39.2133 4.98951 37.2109 5.61035C35.3681 6.18181 33.3205 7.33063 31.1943 8.99121C31.6375 9.37 32.0719 9.7587 32.498 10.1562C32.506 10.1636 32.5136 10.1713 32.5215 10.1787C32.9502 10.5793 33.3704 10.9891 33.7812 11.4082C34.0077 11.3096 34.2337 11.2214 34.458 11.1426C34.4953 11.1295 34.5331 11.118 34.5703 11.1055C34.6514 11.0782 34.7318 11.0509 34.8125 11.0264C34.8469 11.0159 34.8817 11.007 34.916 10.9971C34.9919 10.9751 35.0672 10.9531 35.1426 10.9336C35.1836 10.923 35.2247 10.9131 35.2656 10.9033C35.311 10.8924 35.3561 10.881 35.4014 10.8711L35.5449 10.8418C35.5644 10.8379 35.584 10.8347 35.6035 10.8311C35.679 10.8168 35.7542 10.8044 35.8291 10.793C35.8657 10.7874 35.9021 10.7813 35.9385 10.7764C36.0166 10.7658 36.0944 10.7574 36.1719 10.75C36.2058 10.7468 36.2397 10.7438 36.2734 10.7412C36.3612 10.7345 36.4484 10.73 36.5352 10.7275C36.5531 10.727 36.571 10.7259 36.5889 10.7256C36.6899 10.7237 36.7902 10.7243 36.8896 10.7285C36.8984 10.7289 36.9072 10.7291 36.916 10.7295C37.2436 10.7451 37.5619 10.7947 37.8691 10.8799C37.8777 10.8823 37.886 10.8853 37.8945 10.8877C37.9798 10.9119 38.0641 10.9388 38.1475 10.9688C38.1794 10.9802 38.2106 10.9936 38.2422 11.0059C38.3085 11.0316 38.3744 11.0583 38.4395 11.0879C38.4674 11.1006 38.4948 11.1145 38.5225 11.1279C38.5566 11.1444 38.5922 11.1592 38.626 11.1768L38.7686 11.2559C38.7719 11.2578 38.776 11.2588 38.7793 11.2607C38.96 11.3695 39.1308 11.492 39.292 11.625C39.308 11.6382 39.3231 11.6526 39.3389 11.666C39.4029 11.7204 39.4658 11.776 39.5264 11.834C39.5517 11.8582 39.5759 11.8834 39.6006 11.9082C39.6448 11.9526 39.6883 11.9976 39.7305 12.0439C39.7616 12.0781 39.7913 12.1133 39.8213 12.1484C39.8591 12.1928 39.8966 12.2373 39.9326 12.2832C39.9567 12.314 39.9797 12.3455 40.0029 12.377C40.0402 12.4273 40.0763 12.4783 40.1113 12.5303C40.1388 12.5711 40.1653 12.6125 40.1914 12.6543C40.2232 12.7052 40.2545 12.7563 40.2842 12.8086C40.3018 12.8396 40.3191 12.8708 40.3359 12.9023C40.3529 12.9341 40.3715 12.9649 40.3877 12.9971L40.457 13.1426L40.4629 13.1572C41.0363 14.5121 41.285 15.982 41.1895 17.4492L41.1738 17.8369C41.1468 18.3762 41.0981 18.914 41.0283 19.4492C40.9915 19.7316 40.9481 20.0132 40.8994 20.2939C40.8798 20.407 40.8594 20.52 40.8379 20.6328V20.6357C40.7992 20.8436 40.7544 21.0551 40.7119 21.2568L40.7109 21.2598C40.4227 22.5995 40.052 23.9207 39.6006 25.2148C39.5949 25.2314 39.5879 25.2503 39.5811 25.2705C39.5676 25.31 39.5527 25.3538 39.5391 25.3926V25.3936C38.9446 27.0827 38.2481 28.7353 37.4541 30.3408C37.4517 30.3457 37.4478 30.3497 37.4453 30.3545C36.9623 31.3333 36.4368 32.3212 35.8652 33.3086C35.502 33.9361 35.1281 34.5473 34.749 35.1426C35.0557 35.114 35.3621 35.0811 35.668 35.0459C35.6794 35.0446 35.6908 35.0433 35.7021 35.042C36.627 34.9348 37.5483 34.7978 38.4648 34.6318C39.3727 33.0547 40.1961 31.4777 40.9277 29.917C40.9865 29.7916 41.042 29.6651 41.0996 29.54C41.6652 28.3063 42.1766 27.0907 42.6309 25.8916L42.751 25.5713L42.752 25.5703C43.1688 24.4482 43.5341 23.3476 43.8496 22.2695V22.2686C44.2424 20.9281 44.5603 19.6287 44.793 18.3877C45.1702 16.3755 45.3337 14.519 45.2861 12.873C45.2595 11.9528 45.1668 11.0984 45.0078 10.3193C44.9335 9.95515 44.8441 9.60944 44.7422 9.28223C44.6913 9.11888 44.6387 8.95966 44.5811 8.80566C44.0648 7.42735 43.278 6.42501 42.2451 5.83008C42.2442 5.82956 42.2431 5.82865 42.2422 5.82812ZM11.041 31.1377C10.9236 31.4536 10.8576 31.7883 10.8496 32.1289V32.1299L10.8584 32.333C10.9327 33.2619 11.515 34.2122 12.6377 35.125C12.6701 35.0201 12.7058 34.9158 12.7393 34.8105C12.9315 34.2027 13.1379 33.5885 13.3604 32.9688C12.4954 32.4826 11.7127 31.8646 11.041 31.1377ZM45.3906 7.64551C45.4439 7.7563 45.4947 7.86963 45.5439 7.98438C45.5523 8.00379 45.5601 8.02344 45.5684 8.04297C45.6104 8.14285 45.6514 8.24396 45.6904 8.34668C45.7008 8.37398 45.7115 8.40121 45.7217 8.42871C45.7551 8.51902 45.7862 8.61074 45.8174 8.70312C45.8391 8.76743 45.8603 8.83217 45.8809 8.89746C45.9078 8.983 45.9348 9.06906 45.96 9.15625C45.977 9.21536 45.9926 9.27511 46.0088 9.33496C46.0266 9.40061 46.0438 9.46668 46.0605 9.5332C46.0737 9.5854 46.0871 9.6377 46.0996 9.69043C46.1223 9.78591 46.1434 9.88233 46.1641 9.97949C46.1712 10.0132 46.1796 10.0471 46.1865 10.0811C46.2646 10.4638 46.3266 10.8611 46.375 11.2715C46.4138 11.6004 46.4428 11.9377 46.4629 12.2832C46.4727 12.4522 46.481 12.6231 46.4863 12.7959C46.5412 14.5612 46.3658 16.5205 45.9746 18.6074C45.7337 19.8925 45.4064 21.2312 45.0039 22.6045C44.6802 23.7089 44.3059 24.8358 43.8799 25.9844V25.9854C43.8395 26.0941 43.798 26.2036 43.7568 26.3125C43.6289 26.6502 43.4968 26.9891 43.3604 27.3291C43.0073 28.2121 42.6228 29.1008 42.2109 29.9971C42.1465 30.1378 42.0834 30.2797 42.0176 30.4209L42.0166 30.4229C41.8417 30.796 41.6606 31.1694 41.4756 31.5439C41.4542 31.5873 41.4326 31.6305 41.4111 31.6738C41.2487 32.0007 41.0821 32.3277 40.9121 32.6553C40.8433 32.7882 40.7732 32.9207 40.7031 33.0537C40.59 33.2681 40.4756 33.4827 40.3594 33.6973C40.2673 33.8675 40.1742 34.0377 40.0801 34.208C40.0601 34.2442 40.0416 34.2812 40.0215 34.3174C40.9463 34.1075 41.8618 33.8581 42.7646 33.5674C42.8834 33.5286 42.9985 33.488 43.1113 33.4502C43.7278 32.2355 44.2928 31.0331 44.8027 29.8418L44.8086 29.8281L45.0771 29.1943C45.3455 28.5458 45.5978 27.902 45.834 27.2637V27.2627C46.1308 26.459 46.4006 25.6674 46.6455 24.8887C46.7132 24.673 46.778 24.458 46.8418 24.2441C46.879 24.1194 46.9172 23.9952 46.9531 23.8711L46.9551 23.8643C47.3809 22.4072 47.7211 20.9263 47.9736 19.4297L47.9746 19.4248C48.4626 16.4659 48.4731 13.8748 48.0107 11.833C47.5586 9.8368 46.6686 8.42189 45.3906 7.64551ZM45.3369 31.6016C45.1534 32.0038 44.9636 32.4066 44.7686 32.8105C45.0578 32.6835 45.3433 32.5484 45.626 32.4072C45.6329 32.4038 45.6396 32.3999 45.6465 32.3965C45.5458 32.1326 45.4431 31.8674 45.3369 31.6016ZM46.7178 28.3242C46.4943 28.9051 46.2566 29.489 46.0078 30.0771C46.2566 30.6653 46.4947 31.2488 46.7178 31.8291C47.5029 31.3627 48.2061 30.7713 48.7979 30.0752C48.2062 29.38 47.5023 28.79 46.7178 28.3242ZM13.7822 28.3232C12.9972 28.7892 12.293 29.3796 11.7012 30.0752C12.2932 30.7714 12.9978 31.3617 13.7832 31.8281C14.0064 31.248 14.2427 30.6645 14.4912 30.0771C14.2421 29.4885 14.0056 28.904 13.7822 28.3232ZM47.8613 25.0273C47.6419 25.7377 47.4006 26.4558 47.1396 27.1826C48.0041 27.6684 48.7856 28.2865 49.457 29.0127C49.4588 29.0079 49.4601 29.0029 49.4619 28.998C49.5193 28.841 49.5657 28.6803 49.5967 28.5156C49.6279 28.3518 49.6459 28.185 49.6494 28.0166C49.6492 27.9503 49.646 27.8839 49.6406 27.8174C49.5899 27.1889 49.3059 26.5518 48.7803 25.9219C48.5293 25.6213 48.2239 25.3221 47.8613 25.0273ZM17.5635 6.95605C16.6804 6.98045 15.8887 7.19283 15.1992 7.58984C13.8728 8.35372 12.953 9.7883 12.4902 11.8311C12.0649 13.7089 12.0397 16.0517 12.418 18.7178C12.4907 18.6922 12.5638 18.6677 12.6367 18.6426C12.7686 18.5971 12.9009 18.5529 13.0332 18.5088C13.1341 18.4752 13.2348 18.441 13.3359 18.4082C13.5755 18.3305 13.8157 18.2549 14.0566 18.1816C14.1005 18.1683 14.1446 18.1557 14.1885 18.1426C14.4044 18.0778 14.6209 18.0153 14.8379 17.9541C14.8945 17.9381 14.9511 17.922 15.0078 17.9062C15.2524 17.8385 15.4973 17.7721 15.7432 17.709C15.764 17.7036 15.7849 17.6987 15.8057 17.6934C15.8122 17.6351 15.8207 17.5772 15.8281 17.5195C15.8813 17.1085 15.957 16.7139 16.0576 16.3398C16.0639 16.3165 16.0687 16.2927 16.0752 16.2695C16.0949 16.1989 16.1172 16.1296 16.1387 16.0605C16.1503 16.0233 16.1617 15.986 16.1738 15.9492C16.1974 15.8776 16.2224 15.8071 16.248 15.7373C16.2636 15.695 16.2796 15.653 16.2959 15.6113C16.3199 15.5499 16.3454 15.4896 16.3711 15.4297C16.3875 15.3914 16.4038 15.3531 16.4209 15.3154C16.4508 15.2495 16.4826 15.185 16.5146 15.1211C16.5325 15.0854 16.5498 15.0497 16.5684 15.0146C16.5969 14.9608 16.6261 14.9078 16.6562 14.8555C16.6811 14.8124 16.7075 14.7705 16.7334 14.7285C16.7626 14.6811 16.7916 14.6339 16.8223 14.5879C16.8507 14.5451 16.8805 14.5034 16.9102 14.4619C16.9417 14.4178 16.9729 14.3737 17.0059 14.3311C17.0356 14.2925 17.0667 14.2552 17.0977 14.2178C17.1342 14.1735 17.1708 14.1295 17.209 14.0869C17.2369 14.0559 17.2662 14.0262 17.2949 13.9961C17.3376 13.9514 17.3802 13.9069 17.4248 13.8643C17.4583 13.8322 17.4937 13.8023 17.5283 13.7715C17.5705 13.7339 17.6114 13.6949 17.6553 13.6592C17.682 13.6375 17.711 13.6187 17.7383 13.5977C17.8735 13.4934 18.0144 13.3953 18.165 13.3086L18.1748 13.3027C18.192 13.2933 18.2103 13.2856 18.2275 13.2764C18.3011 13.2372 18.3748 13.1987 18.4502 13.1641C18.4968 13.1426 18.5446 13.1242 18.5918 13.1045C18.6351 13.0865 18.6779 13.0674 18.7217 13.0508L18.7598 13.0361C18.8097 13.0178 18.8607 13.0028 18.9111 12.9863C18.9485 12.9741 18.9857 12.9613 19.0234 12.9502C19.0832 12.9325 19.1436 12.9174 19.2041 12.9023C19.2441 12.8924 19.2839 12.8818 19.3242 12.873C19.3832 12.8602 19.4425 12.8492 19.502 12.8389C19.5439 12.8316 19.5858 12.8244 19.6279 12.8184C19.686 12.81 19.7443 12.8038 19.8027 12.7979C19.847 12.7934 19.8912 12.7883 19.9355 12.7852C19.9957 12.7809 20.0559 12.779 20.1162 12.7773C20.1572 12.7762 20.1982 12.7753 20.2393 12.7754C20.3037 12.7754 20.3681 12.7773 20.4326 12.7803C20.4512 12.7811 20.4697 12.7811 20.4883 12.7822L20.5947 12.79C20.6129 12.7916 20.6312 12.7922 20.6494 12.7939C20.6529 12.7943 20.6567 12.7945 20.6602 12.7949L20.665 12.7959C22.1239 12.9774 23.5204 13.4951 24.7441 14.3066C24.7488 14.3094 24.7542 14.3116 24.7588 14.3145C25.6714 14.8785 26.538 15.514 27.3506 16.2139C27.3555 16.2181 27.3595 16.2232 27.3643 16.2275L27.8252 16.6328L27.8271 16.6348C27.9546 16.7497 28.0814 16.8656 28.207 16.9824C28.495 17.2503 28.7775 17.5239 29.0557 17.8018C29.2394 17.9852 29.4212 18.1707 29.6006 18.3584C29.7245 18.4881 29.8479 18.6183 29.9697 18.75C30.219 19.0193 30.4638 19.2928 30.7041 19.5703L30.8232 19.7061C30.8256 19.7087 30.8287 19.7111 30.8311 19.7139C31.4156 20.3928 31.9794 21.0891 32.5215 21.8018C32.8843 22.2786 33.2358 22.7638 33.5791 23.2549C33.7472 23.4953 33.9138 23.7367 34.0771 23.9805C34.0787 23.9828 34.0805 23.985 34.082 23.9873C34.5411 24.6709 34.9907 25.3782 35.4297 26.1074L35.8652 26.8447L35.8662 26.8457C36.228 27.4709 36.5703 28.0969 36.8965 28.7197C37.4181 27.5861 37.8898 26.4295 38.3115 25.2549C37.3961 23.6818 36.4366 22.1831 35.4473 20.7705C35.156 20.3546 34.8607 19.9473 34.5645 19.5469C33.9847 18.7633 33.3977 18.008 32.8037 17.2842C32.7314 17.1961 32.6594 17.1084 32.5869 17.0215L32.5859 17.0205C32.3818 16.775 32.1767 16.5337 31.9717 16.2959C31.4064 15.6409 30.8385 15.0157 30.2686 14.4209C29.4889 13.6072 28.7066 12.8508 27.9297 12.1572C27.7427 11.9903 27.5575 11.8254 27.3711 11.666C27.0672 11.4063 26.7642 11.1566 26.4629 10.917C26.0114 10.5579 25.5629 10.222 25.1191 9.90918C24.9711 9.80482 24.8238 9.70263 24.6768 9.60352C24.2357 9.30623 23.7992 9.03336 23.3691 8.78418C22.366 8.20297 21.3963 7.75387 20.4746 7.44629C19.8161 7.22657 19.1883 7.08045 18.5947 7.00781C18.4762 6.99331 18.359 6.98229 18.2432 6.97363C18.1328 6.96538 18.0238 6.959 17.916 6.95605H17.5635ZM15.1348 27.6152C15.084 27.6397 15.033 27.6636 14.9824 27.6885C14.9384 27.7101 14.8954 27.7339 14.8516 27.7559C14.9523 28.0199 15.0559 28.2848 15.1621 28.5508C15.3458 28.1481 15.5342 27.7442 15.7295 27.3398C15.5295 27.4277 15.3317 27.5206 15.1348 27.6152ZM26.7441 17.2773C26.3035 17.3012 25.8661 17.3291 25.4326 17.3613C25.0468 17.3904 24.6639 17.4223 24.2842 17.458C24.1232 17.4731 23.9627 17.4885 23.8027 17.5049L22.7695 17.6211C21.8287 17.7343 20.9092 17.868 20.0127 18.0215V18.0205C18.7978 18.2287 17.63 18.4718 16.5098 18.749L16.5088 18.75C15.0294 19.1108 13.5716 19.5572 12.1445 20.0879C12.1413 20.0891 12.137 20.0887 12.1338 20.0898C9.32295 21.1474 7.0706 22.4352 5.53027 23.8545C4.02425 25.2422 3.2404 26.7183 3.20508 28.2119C3.27457 28.1107 3.34693 28.0098 3.42188 27.9102C3.43469 27.8931 3.44797 27.8764 3.46094 27.8594C3.53387 27.7638 3.60969 27.6693 3.6875 27.5752C3.69251 27.5691 3.69711 27.5627 3.70215 27.5566C3.86925 27.3555 4.04692 27.1573 4.23535 26.9629C4.26506 26.9322 4.29595 26.9026 4.32617 26.8721C4.39591 26.8017 4.46664 26.7315 4.53906 26.6621C4.57121 26.6313 4.60307 26.6 4.63574 26.5693C4.72814 26.4827 4.82248 26.3967 4.91895 26.3115C5.60098 25.7096 6.39074 25.1386 7.27539 24.6025C7.57008 24.4239 7.87515 24.2489 8.19043 24.0781C8.50597 23.9073 8.83178 23.7408 9.16699 23.5781C10.1721 23.0902 11.2637 22.6399 12.4287 22.2305C13.665 21.796 14.9904 21.4093 16.3838 21.0703C17.5068 20.7967 18.6737 20.557 19.8828 20.3516C19.9974 20.3319 20.113 20.3128 20.2285 20.2939C20.9423 20.1773 21.6694 20.0719 22.4092 19.9795C22.7791 19.9333 23.1522 19.8903 23.5283 19.8506L24.667 19.7422C25.067 19.7077 25.47 19.6774 25.876 19.6504C26.0227 19.6406 26.1699 19.6328 26.3174 19.624C26.577 19.6086 26.8378 19.5944 27.0996 19.582C27.2921 19.5729 27.4851 19.5651 27.6787 19.5576C27.8712 19.5502 28.0642 19.5438 28.2578 19.5381C28.4931 19.5311 28.729 19.5241 28.9658 19.5195C28.9924 19.519 29.0193 19.5181 29.0459 19.5176C28.4008 18.823 27.7249 18.1567 27.0205 17.5215L26.7441 17.2773ZM23.2891 5.61035C21.3274 5.00212 19.6525 5.06257 18.3389 5.78223C18.4617 5.79154 18.5857 5.80456 18.71 5.81934C18.7405 5.82297 18.7711 5.82709 18.8018 5.83105C18.8997 5.84371 18.998 5.85807 19.0967 5.87402C19.1305 5.87948 19.1644 5.88478 19.1982 5.89062C19.3043 5.90891 19.4107 5.92918 19.5176 5.95117C19.5582 5.95954 19.5989 5.96864 19.6396 5.97754C19.7389 5.9992 19.8386 6.02211 19.9385 6.04688C19.986 6.05865 20.0334 6.07151 20.0811 6.08398C20.1774 6.1092 20.2742 6.13506 20.3711 6.16309C20.4003 6.17154 20.4297 6.17977 20.459 6.18848C20.5912 6.2278 20.7243 6.27004 20.8574 6.31445C21.1452 6.41048 21.4361 6.5179 21.7295 6.6377C21.876 6.69754 22.0231 6.76053 22.1709 6.82617C22.763 7.08914 23.3649 7.3983 23.9736 7.75098C24.126 7.83925 24.2785 7.93074 24.4316 8.02441C25.3495 8.5857 26.2817 9.24273 27.2178 9.9873C27.5298 10.2355 27.8426 10.4935 28.1553 10.7607C28.4042 10.9735 28.6531 11.1929 28.9023 11.418C29.1513 11.6429 29.4005 11.8737 29.6494 12.1104C30.1475 12.5838 30.6451 13.0805 31.1406 13.5977H31.1396C31.6876 14.169 32.2302 14.7673 32.7705 15.3896C33.0178 15.6746 33.2656 15.964 33.5117 16.2598H33.5127L33.7354 16.5293L33.7363 16.5303C34.1944 17.0886 34.6494 17.664 35.0996 18.2568C35.5497 18.8496 35.9952 19.4596 36.4346 20.0869C36.6683 20.4207 36.8989 20.7605 37.1289 21.1035C37.1882 21.1919 37.2466 21.2811 37.3057 21.3701C37.4759 21.6269 37.6454 21.8859 37.8135 22.1475C37.8861 22.2604 37.959 22.3735 38.0312 22.4873C38.1816 22.7245 38.3301 22.9641 38.4785 23.2051C38.5618 23.3402 38.6459 23.4751 38.7285 23.6113C38.7572 23.6586 38.7868 23.7055 38.8154 23.7529C39.0953 22.8497 39.3362 21.9345 39.5352 21.0098C39.5611 20.8869 39.5846 20.7666 39.6084 20.6494C39.543 20.5493 39.4768 20.4499 39.4111 20.3506C39.2052 20.0398 38.9985 19.7327 38.79 19.4297C38.6857 19.2778 38.5816 19.1265 38.4766 18.9766C38.0956 18.4332 37.7114 17.9022 37.3223 17.3848H37.3213C36.755 16.6318 36.1824 15.9078 35.6035 15.2129C35.6012 15.2102 35.598 15.2079 35.5957 15.2051C34.8055 14.2581 34.0112 13.3701 33.2119 12.542L33.2109 12.541C32.9072 12.2244 32.5974 11.9136 32.2832 11.6074C31.8312 11.1669 31.3685 10.7374 30.8955 10.3193C30.6245 10.0798 30.3499 9.84427 30.0723 9.6123C30.0036 9.55496 29.9352 9.4973 29.8662 9.44043C29.8652 9.43959 29.8643 9.43835 29.8633 9.4375L29.4326 9.0918C27.2609 7.37741 25.1686 6.19321 23.2891 5.61035ZM39.1377 17.8369C39.388 18.1867 39.6366 18.5414 39.8828 18.9014C39.9166 18.5926 39.9413 18.2828 39.96 17.9727C39.9608 17.9593 39.9611 17.946 39.9619 17.9326C39.6812 17.8874 39.3984 17.8431 39.1133 17.8018C39.1216 17.8134 39.1294 17.8253 39.1377 17.8369ZM19.7236 14.0127C19.3897 14.0693 19.065 14.1795 18.7646 14.3438L18.5801 14.4619C18.5217 14.5026 18.4648 14.5459 18.4092 14.5918C18.234 14.7366 18.0723 14.9068 17.9258 15.1035C17.8345 15.226 17.7485 15.3584 17.6689 15.501C17.4978 15.8079 17.3548 16.1615 17.2412 16.5615C17.1683 16.8181 17.1082 17.0938 17.0605 17.3887C17.115 17.3763 17.17 17.3658 17.2246 17.3535C17.5091 17.2897 17.7961 17.2276 18.0859 17.168C18.1867 17.1473 18.2882 17.1286 18.3896 17.1084C18.6435 17.0578 18.8993 17.0084 19.1572 16.9609C19.2015 16.9528 19.2456 16.9436 19.29 16.9355C19.2795 15.944 19.4274 14.9578 19.7236 14.0127ZM20.9756 14.0518C20.6672 14.9122 20.5068 15.8176 20.4951 16.7305C21.11 16.6334 21.7345 16.5467 22.3682 16.4678C22.7554 15.9574 23.1439 15.4588 23.5371 14.9746C22.7398 14.5292 21.8754 14.2153 20.9756 14.0518ZM39.5225 14.0518C38.6227 14.2156 37.7582 14.5299 36.9609 14.9756C37.3538 15.4593 37.7425 15.9566 38.1289 16.4658C38.7637 16.5448 39.3889 16.6314 40.0039 16.7285C39.992 15.8161 39.8308 14.9117 39.5225 14.0518ZM24.0254 16.2832C24.1077 16.2753 24.1908 16.2694 24.2734 16.2617C24.5594 16.2352 24.8468 16.2102 25.1357 16.1875C25.2128 16.1814 25.2899 16.1738 25.3672 16.168C25.1743 16.0268 24.9784 15.8898 24.7803 15.7559C24.7663 15.7464 24.7523 15.7369 24.7383 15.7275C24.6807 15.6888 24.6215 15.6524 24.5635 15.6143C24.3838 15.8343 24.204 16.0574 24.0254 16.2832ZM38.1621 12.2871C37.3213 11.8048 36.1774 11.7857 34.7705 12.2998C34.7371 12.312 34.7037 12.3251 34.6699 12.3379L34.6943 12.3643C35.1933 12.901 35.6889 13.4597 36.1816 14.0391C37.0363 13.5353 37.9653 13.1696 38.9326 12.9531C38.7157 12.6912 38.4562 12.4652 38.1621 12.2871Z" fill="#0A1119"/>
</svg>
