<svg width="60" height="60" viewBox="0 0 60 60" fill="none" xmlns="http://www.w3.org/2000/svg">
<path d="M12.919 31.6049C14.2038 30.1213 15.6852 28.8151 17.3233 27.7218C17.7328 27.4488 18.1532 27.1975 18.5771 26.954C22.0511 24.9778 25.9904 23.9376 30.0002 23.9376C34.0099 23.9376 37.9492 24.9778 41.4232 26.954C41.4192 26.474 41.4067 25.9929 41.3694 25.5102C41.219 23.5743 40.802 21.6676 40.1299 19.8428C33.5937 17.4535 26.4067 17.4534 19.8704 19.8426C17.7741 20.6103 15.7778 21.6218 13.9238 22.8556C13.5282 23.1193 13.1435 23.395 12.764 23.6763C9.74475 25.9152 7.21255 28.7305 5.31795 31.9547C2.57806 36.5902 2.0851 42.9605 4.82492 47.5961C7.56479 52.2322 13.458 54.9997 18.9376 54.9997C22.7338 55.0112 26.4944 54.2768 30.0001 52.8395C29.5969 52.6739 29.1967 52.4993 28.7995 52.3155L28.77 52.3025C28.7446 52.2908 28.7185 52.281 28.6932 52.2691C26.6763 51.3199 24.7814 50.1365 23.0486 48.7442C21.6919 48.9858 20.3162 49.1075 18.9376 49.1081C15.6383 49.1081 11.6975 47.4418 10.0479 44.6503C8.39819 41.8592 8.89052 37.6926 10.5408 34.9011C11.2314 33.734 12.0274 32.6308 12.919 31.6049Z" stroke="#0A1119" stroke-miterlimit="10"/>
<path d="M47.3836 25.0675C47.3475 24.6012 47.2956 24.1381 47.2359 23.6766C46.757 19.9915 45.5268 16.4403 43.6195 13.2372C40.8797 8.60169 35.4789 5 29.9998 5C24.5208 5 19.1199 8.60283 16.3801 13.2378C14.4727 16.4407 13.2425 19.9917 12.7637 23.6767C13.1431 23.3954 13.5279 23.1197 13.9235 22.8559C15.7775 21.6222 17.7737 20.6107 19.8701 19.8429C20.3345 18.5742 20.9145 17.3496 21.603 16.1842C23.2526 13.3932 26.7004 10.8915 29.9998 10.8915C33.2992 10.8915 36.7469 13.392 38.3966 16.1836C39.0852 17.3492 39.6652 18.5741 40.1296 19.8431C40.8017 21.6679 41.2187 23.5746 41.3691 25.5106C41.4064 25.9933 41.4189 26.4743 41.4229 26.9543C41.4332 30.8878 40.38 34.7528 38.372 38.1506C36.364 41.5484 33.4739 44.3559 29.9998 46.2836C30.4274 46.5203 30.8601 46.7502 31.3067 46.9601C33.0992 47.8007 34.9976 48.4009 36.9513 48.7446C42.3228 44.4337 45.923 38.3422 47.0808 31.6054C47.4485 29.4461 47.5502 27.2509 47.3836 25.0675Z" stroke="#0A1119" stroke-miterlimit="10"/>
<path d="M54.6823 31.9552C52.7878 28.7307 50.2555 25.9152 47.2361 23.6763C47.2957 24.1378 47.3477 24.6008 47.3838 25.0671C47.5504 27.2505 47.4488 29.4458 47.081 31.605C47.9727 32.6309 48.7687 33.7343 49.4593 34.9016C51.109 37.6926 51.6019 41.8592 49.9523 44.6503C48.3025 47.4418 44.3618 49.1081 41.0624 49.1081C39.6839 49.1075 38.3082 48.9858 36.9515 48.7442C34.9978 48.4005 33.0994 47.8003 31.3069 46.9597C30.8604 46.7498 30.4276 46.52 30.0001 46.2832C26.526 44.3555 23.6359 41.548 21.6279 38.1502C19.6199 34.7525 18.5667 30.8875 18.577 26.954C18.1531 27.1975 17.7327 27.4488 17.3233 27.7218C15.6851 28.8152 14.2037 30.1213 12.9189 31.605C14.0768 38.3418 17.677 44.4333 23.0485 48.7442C24.7814 50.1365 26.6763 51.3199 28.6931 52.2691C28.7184 52.281 28.7445 52.2908 28.7699 52.3025C28.7797 52.3071 28.7897 52.3109 28.7994 52.3155C29.1964 52.5 29.5966 52.6746 30.0001 52.8395C33.5058 54.2768 37.2663 55.0112 41.0624 54.9996C46.5422 54.9996 52.4353 52.2321 55.1751 47.5961C57.915 42.9604 57.4215 36.5902 54.6823 31.9552Z" stroke="#0A1119" stroke-miterlimit="10"/>
</svg>
