<svg width="51" height="50" viewBox="0 0 51 50" fill="none" xmlns="http://www.w3.org/2000/svg">
<path d="M25.1259 1.54102C30.3839 1.54123 35.4857 5.01581 38.0692 9.43945L38.3934 10.0088C39.931 12.7812 40.9436 15.8135 41.3856 18.9541C44.0811 21.0287 46.3484 23.6072 48.0565 26.5498C50.5583 30.8355 51.1038 36.708 48.7401 41.1738L48.5018 41.6016C45.8684 46.1126 40.2727 48.7389 35.1141 48.7393L35.1151 48.7402C31.6914 48.7507 28.2999 48.0972 25.1249 46.8223C21.951 48.0965 18.5609 48.7494 15.1385 48.7393L15.1376 48.7383L15.1366 48.7393V48.7383C9.97845 48.7376 4.38321 46.1113 1.74988 41.6006C-0.88485 37.0876 -0.387959 30.9734 2.19519 26.5488C3.9033 23.6065 6.16895 21.0267 8.86414 18.9521C9.33673 15.5958 10.4636 12.3632 12.1835 9.43945C14.767 5.01673 19.868 1.54121 25.1259 1.54102ZM41.5966 21.0605C41.6968 22.8398 41.6102 24.6242 41.3387 26.3857C41.9808 27.1587 42.5683 27.9753 43.0946 28.8311L43.3417 29.2422V29.2432C44.1475 30.6234 44.6632 32.3254 44.7821 34.0234C44.8933 35.6127 44.6596 37.2509 43.9374 38.6357L43.787 38.9092C42.9468 40.3484 41.5513 41.4557 40.0106 42.2002C38.5632 42.8996 36.9388 43.303 35.4159 43.3506L35.1132 43.3555C33.94 43.355 32.7686 43.2579 31.6112 43.0684L31.6083 43.0713L31.2997 43.0156C31.2893 43.0138 31.2788 43.0126 31.2684 43.0107V43.0098C29.6682 42.7246 28.1073 42.2543 26.618 41.6074L25.9843 41.3193H25.9833C25.7711 41.2184 25.563 41.1135 25.3593 41.0059C25.1553 40.8985 24.956 40.7878 24.7596 40.6777H24.7587C24.7504 40.6731 24.7425 40.6677 24.7343 40.6631L23.5936 40.0234L23.6366 39.999C20.8826 38.2169 18.5792 35.8112 16.9198 32.9688C15.2627 30.1301 14.3009 26.9468 14.1024 23.6787L14.1005 23.6797L14.1014 23.6807C12.9483 24.4598 11.8852 25.3624 10.9296 26.3711C10.918 26.3833 10.9059 26.395 10.8944 26.4072C10.7631 26.5465 10.6349 26.6888 10.5077 26.832C11.5845 32.6705 14.7069 37.9398 19.3231 41.6904L19.8993 42.1445C21.2582 43.1841 22.7224 44.0798 24.2684 44.8164L24.2733 44.8184C24.2818 44.822 24.3075 44.8324 24.3339 44.8447H24.3329L24.3602 44.8564C24.7089 45.0197 25.0602 45.1752 25.4139 45.3223L25.4735 45.3467C28.5296 46.606 31.805 47.2504 35.1112 47.2402H35.1132C39.8486 47.2402 44.8934 44.8087 47.2069 40.8457C49.5191 36.8852 49.1248 31.3552 46.7616 27.3066L46.7606 27.3047C45.3938 24.9496 43.6475 22.8408 41.5966 21.0605ZM33.6786 16.4404C28.2148 14.5037 22.2563 14.4789 16.7802 16.3672L16.3339 16.5254L16.2421 16.5605C14.4056 17.2414 12.6562 18.1384 11.0321 19.2324C10.6887 19.4642 10.3518 19.7086 10.0155 19.9609L9.96375 19.999C7.34123 21.9786 5.1402 24.4616 3.49109 27.3027L3.49011 27.3047C1.12616 31.3537 0.732504 36.8841 3.0448 40.8447C5.35842 44.8077 10.4033 47.2393 15.1385 47.2393H15.1405C17.8718 47.2476 20.5819 46.8087 23.1649 45.9463C21.6936 45.2095 20.2945 44.3363 18.9882 43.3369L18.6454 43.0664C17.6452 43.2305 16.6351 43.3257 15.6219 43.3486L15.1385 43.3545C13.5301 43.3545 11.7849 42.9452 10.2411 42.1992C8.70037 41.4547 7.30487 40.3475 6.46472 38.9082C5.62423 37.4685 5.35105 35.7177 5.4696 34.0225C5.58839 32.3242 6.10385 30.6218 6.91003 29.2412L7.1571 28.8291C7.68223 27.9756 8.26691 27.16 8.9071 26.3887V26.3877L9.06628 26.1992C9.08929 26.1721 9.11248 26.1451 9.13562 26.1182C10.3391 24.7114 11.7273 23.4732 13.2616 22.4365L13.8485 22.0586C14.0448 21.9376 14.2416 21.8213 14.4364 21.708L14.4384 21.7061C14.4603 21.6934 14.4827 21.6815 14.5048 21.6689L15.5663 21.0518L15.5653 21.1016C18.5291 19.623 21.8017 18.8486 25.1259 18.8486C28.4331 18.8487 31.6888 19.6162 34.6405 21.0801C34.5179 19.4985 34.1931 17.9402 33.6786 16.4404ZM40.9598 28.3408C39.7527 33.493 37.0288 38.1664 33.1395 41.7568C33.7951 41.8213 34.4538 41.8552 35.1132 41.8555C36.4832 41.8554 38.0063 41.5029 39.3583 40.8496C40.7132 40.1949 41.8418 39.2652 42.4911 38.1533C43.1398 37.0421 43.3889 35.6123 43.285 34.1279C43.1813 32.6467 42.7291 31.1694 42.0458 29.999C41.7121 29.428 41.3488 28.8751 40.9598 28.3408ZM9.28992 28.3398C8.90096 28.8739 8.53863 29.4272 8.20496 29.998C7.5215 31.1686 7.07031 32.6458 6.96667 34.127C6.86287 35.6114 7.11182 37.0411 7.76062 38.1523C8.40981 39.2643 9.53846 40.1939 10.8934 40.8486C12.2454 41.5019 13.7685 41.8545 15.1385 41.8545C15.7973 41.8542 16.4552 41.8202 17.1102 41.7559C13.2215 38.1652 10.4966 33.492 9.28992 28.3398ZM25.1259 3.04102C20.492 3.04121 15.8423 6.15015 13.4784 10.1982L13.4764 10.2002C12.1888 12.3891 11.2541 14.7618 10.701 17.2305L10.5956 17.7256C10.9695 17.4836 11.3489 17.2508 11.7343 17.0283C11.7478 17.0205 11.7618 17.0136 11.7753 17.0059C12.9359 16.3386 14.1459 15.7599 15.3964 15.2773C15.8095 14.1907 16.3112 13.1393 16.8973 12.1348H16.8983C17.7041 10.7549 18.9359 9.46322 20.3612 8.51367C21.7842 7.56579 23.4501 6.92589 25.1259 6.92578C26.8014 6.92591 28.4675 7.56505 29.8905 8.5127C31.3159 9.46217 32.5486 10.7543 33.3544 12.1348C33.9392 13.137 34.438 14.1865 34.8505 15.2705L34.8573 15.2734L34.9755 15.6006C35.0479 15.7996 35.1154 16.0002 35.1815 16.2012C35.2077 16.2807 35.2325 16.3606 35.2577 16.4404C35.298 16.5684 35.3381 16.6965 35.3759 16.8252C35.4017 16.9132 35.4264 17.0015 35.451 17.0898C35.4864 17.2165 35.5207 17.3434 35.5536 17.4707C35.5744 17.5516 35.5943 17.6327 35.6141 17.7139C35.6436 17.8341 35.6719 17.9545 35.6991 18.0752C35.7212 18.1734 35.7429 18.2716 35.7635 18.3701C35.7887 18.4896 35.8119 18.6095 35.8348 18.7295C35.8515 18.8167 35.8691 18.9038 35.8846 18.9912C35.9097 19.1322 35.9319 19.2736 35.954 19.415C35.9654 19.4883 35.9776 19.5614 35.9882 19.6348C36.0198 19.8534 36.0497 20.0723 36.0741 20.292L36.1385 20.9795V20.9805C36.1563 21.2128 36.1679 21.4435 36.1757 21.6719L36.1893 22.3506V22.3545C36.1894 22.3665 36.1883 22.3786 36.1884 22.3906L36.1991 23.6602L36.1512 23.6328C35.9589 26.9166 34.9974 30.1161 33.3329 32.9678C31.6809 35.7976 29.3899 38.1949 26.6522 39.9746C28.0993 40.6591 29.626 41.1592 31.1962 41.4678C35.7557 37.6567 38.8121 32.3456 39.8075 26.4824C40.1293 24.5689 40.218 22.6233 40.0721 20.6885C40.0408 20.2792 39.9961 19.8695 39.9432 19.4561C39.5238 16.1889 38.4465 13.0401 36.7762 10.2002L36.7743 10.1982C34.4105 6.14952 29.7599 3.04123 25.1259 3.04102ZM25.1259 20.3486C21.7831 20.3486 18.4972 21.1914 15.5692 22.793C15.6345 26.1042 16.5423 29.3469 18.2147 32.2119C19.8885 35.0792 22.2692 37.4669 25.1249 39.1543C27.9811 37.4669 30.3629 35.0797 32.037 32.2119C33.7092 29.3472 34.6169 26.1048 34.6825 22.7939C31.7544 21.1922 28.4688 20.3487 25.1259 20.3486ZM25.1259 8.42578C23.8234 8.42589 22.4432 8.92916 21.1932 9.76172C19.9455 10.5929 18.8767 11.721 18.1932 12.8916L18.1923 12.8906C17.8638 13.4535 17.5642 14.0327 17.2938 14.625C22.4007 13.0833 27.851 13.0842 32.9579 14.626C32.7487 14.1682 32.523 13.7179 32.2792 13.2773L32.0594 12.8906C31.376 11.7198 30.307 10.5927 29.0594 9.76172C27.8095 8.92919 26.4285 8.42591 25.1259 8.42578Z" fill="#0A1119"/>
</svg>
