<svg width="60" height="60" viewBox="0 0 60 60" fill="none" xmlns="http://www.w3.org/2000/svg">
<path d="M32.1699 2.01367C32.2239 2.0283 32.2721 2.05679 32.3154 2.0918C32.3261 2.1004 32.3379 2.10749 32.3477 2.11719C32.3729 2.14231 32.3959 2.17037 32.4141 2.20215L39.1729 14.0352H52.6904C52.8358 14.0352 52.97 14.1143 53.041 14.2412L55.0537 17.835C55.0615 17.8489 55.0653 17.8644 55.0713 17.8789C55.0917 17.9284 55.1037 17.9796 55.1035 18.0322C55.1035 18.052 55.0996 18.0712 55.0967 18.0908C55.0945 18.1054 55.0947 18.1204 55.0908 18.1348C55.0865 18.1508 55.0776 18.1651 55.0713 18.1807C55.0645 18.1974 55.0609 18.2155 55.0518 18.2314L48.29 30L55.0518 41.7705C55.1219 41.893 55.1226 42.0438 55.0537 42.167L53.041 45.7607C52.9704 45.8868 52.8369 45.9659 52.6924 45.9668C52.6822 45.9668 52.6722 45.9636 52.6621 45.9629H39.1729L32.4141 57.7949C32.3425 57.9199 32.2095 57.9969 32.0654 57.9971H28.0625C28.0554 57.9975 28.0482 58 28.041 58C27.8965 58.0003 27.7631 57.9224 27.6914 57.7969L20.9297 45.9609H7.41406C7.26868 45.9609 7.13455 45.8817 7.06348 45.7549L5.06836 42.1914C5.06394 42.1847 5.05775 42.1789 5.05371 42.1719C5.0178 42.1097 5 42.0402 5 41.9707V41.9609C5.00054 41.892 5.01879 41.8232 5.05469 41.7617C5.05873 41.7548 5.06492 41.7488 5.06934 41.7422L11.8145 30L5.05371 18.2314C4.98337 18.1089 4.98277 17.9583 5.05176 17.835L7.06445 14.2412H7.06348C7.0644 14.2396 7.06546 14.238 7.06641 14.2363C7.06856 14.2326 7.07196 14.2292 7.07422 14.2256L7.09375 14.1963C7.09901 14.1893 7.10566 14.1834 7.11133 14.1768C7.12237 14.1639 7.13304 14.1509 7.14551 14.1396C7.1594 14.1271 7.17499 14.1169 7.19043 14.1064C7.20115 14.0992 7.21129 14.0912 7.22266 14.085C7.24102 14.0749 7.2605 14.0676 7.28027 14.0605C7.292 14.0564 7.3033 14.051 7.31543 14.0479C7.34665 14.0399 7.37906 14.0354 7.41211 14.0352H20.9326L27.6914 2.20215L27.7207 2.1582C27.7961 2.05947 27.9138 2.00005 28.04 2H32.0645C32.1004 2 32.1362 2.00452 32.1699 2.01367ZM28.7314 57.1934H31.832L38.4766 45.5586L36.8887 42.7803L28.7314 57.1934ZM30.4043 47.2471C30.4027 47.25 30.403 47.2539 30.4014 47.2568L28.4375 50.6973C28.366 50.8225 28.2321 50.9004 28.0879 50.9004C27.9437 50.9003 27.8108 50.8225 27.7393 50.6973L23.2158 42.7773L21.627 45.5605L28.0371 56.7832L36.5381 41.7666L36.5674 41.7217C36.5766 41.7095 36.5882 41.6994 36.5986 41.6885C36.6007 41.6863 36.6024 41.6838 36.6045 41.6816L36.6309 41.6553C36.7017 41.5965 36.7918 41.5628 36.8867 41.5625C36.8915 41.5625 36.8966 41.5643 36.9014 41.5645H45.9365L44.4297 38.9287H35.1562L30.4043 47.2471ZM6.09961 41.5625H23.2178C23.3608 41.5626 23.4935 41.639 23.5654 41.7627C23.5664 41.7644 23.5664 41.7668 23.5674 41.7686L28.0879 49.6836L29.5879 47.0557L24.9482 38.9326H11.5117C11.3686 38.9326 11.236 38.8562 11.1641 38.7324C11.1282 38.6706 11.1106 38.6014 11.1104 38.5322V38.5264C11.1101 38.4573 11.1277 38.3882 11.1631 38.3262L15.6865 30.4053H12.5098L6.09961 41.5625ZM25.5312 21.6729C25.4597 21.7981 25.3259 21.875 25.1816 21.875H16.1348L20.6602 29.7988C20.7307 29.9223 20.7307 30.0747 20.6602 30.1982L16.1299 38.1289H25.1816L25.2354 38.1328C25.3584 38.1493 25.4687 38.2215 25.5312 38.3311L30.0508 46.2451L34.5742 38.3271L34.6035 38.2832C34.6789 38.1844 34.7966 38.125 34.9229 38.125H43.9717L39.4443 30.1992C39.3738 30.0757 39.3738 29.9233 39.4443 29.7998L43.9717 21.873H34.9229C34.7788 21.873 34.6458 21.7959 34.5742 21.6709L30.0518 13.7549L25.5312 21.6729ZM40.2559 29.999L45.0117 38.3262L45.0127 38.3271L46.9775 41.7676C46.9953 41.7987 47.0088 41.8315 47.0176 41.8652C47.044 41.9665 47.0304 42.0761 46.9766 42.1689C46.9047 42.2926 46.7719 42.3689 46.6289 42.3691H37.582L39.1758 45.1592H51.9922L43.375 30.2041C43.3387 30.141 43.3207 30.0703 43.3213 30C43.3211 29.9306 43.3385 29.8611 43.374 29.7988L47.8994 21.874H44.8965L40.2559 29.999ZM7.64941 45.1572H20.9307L22.5225 42.3721H6.09082L7.64941 45.1572ZM52.6855 44.7471L54.2412 41.9736L47.5947 30.4053H44.4199L52.6855 44.7471ZM16.6143 29.5967L16.7305 29.7979C16.7666 29.8607 16.7836 29.9308 16.7832 30.001C16.7837 30.0706 16.7671 30.1406 16.7314 30.2031L12.207 38.124H15.208L19.8486 29.998L15.0928 21.6729L13.127 18.2324C13.0735 18.1385 13.0608 18.0283 13.0889 17.9268C13.0979 17.8931 13.111 17.86 13.1289 17.8291C13.2009 17.7054 13.3334 17.6299 13.4766 17.6299H22.5244L20.9297 14.8389H8.11035L16.6143 29.5967ZM5.86328 18.0283L12.5098 29.5967H15.6865L7.41895 15.25L5.86328 18.0283ZM30.5146 12.9443L35.1562 21.0693H48.5928C48.736 21.0693 48.8685 21.1457 48.9404 21.2695V21.2705L48.9814 21.3682C49.0085 21.4692 48.9956 21.5787 48.9424 21.6719L44.415 29.5967H47.5957L54.0088 18.4336H36.9014C36.8968 18.4337 36.8923 18.4355 36.8877 18.4355C36.7434 18.4355 36.6106 18.3577 36.5391 18.2324L32.0166 10.3154L30.5146 12.9443ZM23.5674 18.2314C23.4961 18.3573 23.3624 18.4355 23.2178 18.4355H14.1699L15.6758 21.0713H24.9482L29.6992 12.752C29.7006 12.7495 29.7017 12.7466 29.7031 12.7441L31.668 9.30371L31.6973 9.25977C31.7056 9.24882 31.7162 9.23944 31.7256 9.22949C31.73 9.2248 31.7346 9.22028 31.7393 9.21582C31.761 9.19479 31.7848 9.17667 31.8105 9.16113C31.8128 9.15978 31.8151 9.15853 31.8174 9.15723C31.8775 9.12254 31.9458 9.10156 32.0176 9.10156C32.1616 9.10169 32.2947 9.17874 32.3662 9.30371L36.8867 17.2188L38.4766 14.4375L32.0664 3.21484L23.5674 18.2314ZM37.582 17.6289H54.0166L52.4551 14.8389H39.1758L37.582 17.6289ZM21.6279 14.4375L23.2158 17.2188L28.3252 8.19238L31.376 2.80371H28.2734L21.6279 14.4375Z" fill="#0A1119"/>
</svg>
