<svg width="31" height="31" viewBox="0 0 31 31" fill="none" xmlns="http://www.w3.org/2000/svg">
<path d="M24.307 12.7646L22.4134 10.871C21.5169 9.99425 20.309 9.50945 19.0551 9.52324C17.8013 9.53702 16.6042 10.0482 15.7273 10.9445L15.5002 11.1716L19.8284 15.4999L20.0556 15.727C20.9518 16.6039 21.463 17.8009 21.4768 19.0548C21.4906 20.3086 21.0058 21.5166 20.129 22.4131L18.2354 24.3067C14.7327 27.8094 8.99067 27.7463 5.41016 24.1658L9.01707 27.7726C12.5976 31.3531 18.3396 31.4162 21.8423 27.9136L24.1661 25.5898C27.7466 22.0093 27.8097 16.2673 24.307 12.7646Z" stroke="#0A1119" stroke-linecap="round" stroke-linejoin="round"/>
<path d="M6.69322 18.2352L8.58685 20.1289C9.4833 21.0056 10.6913 21.4904 11.9451 21.4766C13.199 21.4628 14.396 20.9516 15.273 20.0554L15.5001 19.8283L11.1718 15.5L10.9447 15.2729C10.0484 14.3959 9.53721 13.1989 9.52343 11.9451C9.50965 10.6912 9.99444 9.48325 10.8712 8.5868L12.7648 6.69318C16.2675 3.1905 22.0096 3.2536 25.5901 6.8341L21.9832 3.2272C18.4027 -0.353299 12.6606 -0.416395 9.15792 3.08628L6.83415 5.41005C3.25364 8.99054 3.19053 14.7326 6.69322 18.2352Z" stroke="#0A1119" stroke-linecap="round" stroke-linejoin="round"/>
<path d="M18.2353 24.3069L20.129 22.4133C21.0057 21.5169 21.4905 20.3089 21.4767 19.055C21.4629 17.8012 20.9517 16.6042 20.0555 15.7272L19.8284 15.5001L15.5001 19.8284L15.273 20.0555C14.396 20.9517 13.199 21.463 11.9451 21.4767C10.6913 21.4905 9.48329 21.0057 8.58684 20.129L6.69321 18.2354C3.19051 14.7327 3.25361 8.99066 6.83413 5.41016L3.22722 9.01705C-0.353303 12.5976 -0.416399 18.3396 3.0863 21.8422L5.41007 24.166C8.99058 27.7465 14.7326 27.8096 18.2353 24.3069Z" stroke="#0A1119" stroke-linecap="round" stroke-linejoin="round"/>
<path d="M12.7646 6.69321L10.871 8.58683C9.99425 9.48328 9.50945 10.6913 9.52324 11.9451C9.53702 13.1989 10.0482 14.396 10.9445 15.2729L11.1716 15.5L15.4999 11.1718L15.727 10.9447C16.604 10.0484 17.801 9.53719 19.0548 9.52341C20.3087 9.50963 21.5167 9.99442 22.4131 10.8712L24.3067 12.7648C27.8094 16.2675 27.7463 22.0095 24.1658 25.59L27.7727 21.9831C31.3533 18.4026 31.4163 12.6606 27.9137 9.15789L25.5899 6.83413C22.0094 3.25365 16.2673 3.19053 12.7646 6.69321Z" stroke="#0A1119" stroke-linecap="round" stroke-linejoin="round"/>
</svg>
