<svg width="61" height="61" viewBox="0 0 61 61" fill="none" xmlns="http://www.w3.org/2000/svg">
<path d="M39.4165 8.94776C38.0466 8.09165 36.2248 8.30102 34.1846 9.36764C35.0635 10.3557 35.9363 11.4133 36.8031 12.5405C38.0546 11.6318 39.4854 11.0532 40.9808 10.8513C40.649 10.0603 40.1036 9.39665 39.4165 8.94776Z" stroke="#0A1119" stroke-linecap="round" stroke-linejoin="round"/>
<path d="M24.1972 48.46C22.9457 49.3687 21.5149 49.9472 20.0195 50.1491C20.3513 50.9401 20.8967 51.6038 21.5838 52.0526C22.9538 52.9087 24.7756 52.6994 26.8158 51.6328C25.9369 50.6446 25.064 49.587 24.1972 48.46Z" stroke="#0A1119" stroke-linecap="round" stroke-linejoin="round"/>
<path d="M34.0723 46.2896C34.9282 47.0895 35.841 47.8151 36.8022 48.4597C37.4398 47.6298 38.0706 46.7646 38.6946 45.8643C37.1978 46.0597 35.6571 46.2015 34.0723 46.2896Z" stroke="#0A1119" stroke-linecap="round" stroke-linejoin="round"/>
<path d="M24.1971 12.54C23.5594 13.37 22.9286 14.2351 22.3047 15.1354C23.8014 14.94 25.3422 14.7983 26.927 14.7101C26.0711 13.9102 25.1583 13.1846 24.1971 12.54Z" stroke="#0A1119" stroke-linecap="round" stroke-linejoin="round"/>
<path d="M41.7178 45.3882C41.8191 47.0157 41.5666 48.6462 40.9805 50.1489C41.7792 50.2334 42.5829 50.054 43.2856 49.6343C44.6556 48.7782 45.399 46.9658 45.5656 44.52C44.3356 44.8498 43.053 45.1392 41.7178 45.3882Z" stroke="#0A1119" stroke-linecap="round" stroke-linejoin="round"/>
<path d="M17.7136 11.366C16.3437 12.2222 15.6003 14.0346 15.4336 16.4803C16.6637 16.1505 17.9463 15.8611 19.2814 15.6121C19.1801 13.9847 19.4327 12.3542 20.0188 10.8515C19.22 10.7669 18.4163 10.9463 17.7136 11.366Z" stroke="#0A1119" stroke-linecap="round" stroke-linejoin="round"/>
<path d="M39.8976 36.3728C39.9202 36.3305 39.9413 36.2883 39.9638 36.2461C39.9865 36.3161 40.0079 36.3854 40.0301 36.4552C39.963 36.4693 39.8967 36.484 39.8291 36.4978C39.8518 36.4557 39.875 36.4149 39.8976 36.3728Z" stroke="#0A1119" stroke-linecap="round" stroke-linejoin="round"/>
<path d="M21.1032 24.6275C21.0806 24.6697 21.0596 24.712 21.0371 24.7542C21.0144 24.6841 20.993 24.6148 20.9707 24.545C21.0379 24.5309 21.1042 24.5162 21.1718 24.5024C21.1491 24.5445 21.1258 24.5853 21.1032 24.6275Z" stroke="#0A1119" stroke-linecap="round" stroke-linejoin="round"/>
<path d="M12.9785 27.428C13.3238 28.4407 13.7006 29.4646 14.1089 30.4996C14.7009 28.9988 15.3578 27.4837 16.0797 25.9541C15.0118 26.3565 13.9749 26.8493 12.9785 27.428Z" stroke="#0A1119" stroke-linecap="round" stroke-linejoin="round"/>
<path d="M21.1032 36.3726C21.1258 36.4148 21.1492 36.4556 21.1719 36.4977C21.1043 36.4839 21.0379 36.4692 20.9707 36.4551C20.993 36.3853 21.0143 36.3161 21.037 36.2461C21.0595 36.2883 21.0806 36.3304 21.1032 36.3726Z" stroke="#0A1119" stroke-linecap="round" stroke-linejoin="round"/>
<path d="M46.8908 30.5C46.2988 32.0008 45.6418 33.516 44.9199 35.0455C45.9878 34.6431 47.0248 34.1503 48.0211 33.5715C47.6759 32.5589 47.2991 31.535 46.8908 30.5Z" stroke="#0A1119" stroke-linecap="round" stroke-linejoin="round"/>
<path d="M9.53869 30.5C9.07171 31.2065 8.81342 32.0496 8.79785 32.9181C8.79785 34.6303 9.87626 36.2334 11.7497 37.6125C12.1009 36.2946 12.5107 34.9476 12.979 33.5715C11.6263 32.8528 10.448 31.8008 9.53869 30.5Z" stroke="#0A1119" stroke-linecap="round" stroke-linejoin="round"/>
<path d="M38.6953 15.1357C39.6001 16.4411 40.4839 17.8145 41.3468 19.2559C41.5588 18.0537 41.6829 16.8352 41.718 15.6119C40.7352 15.4292 39.7277 15.2705 38.6953 15.1357Z" stroke="#0A1119" stroke-linecap="round" stroke-linejoin="round"/>
<path d="M30.4995 18.7548C30.4545 18.7548 30.4102 18.7563 30.3652 18.7563C30.41 18.7002 30.4548 18.6455 30.4995 18.5898C30.5442 18.6455 30.589 18.7001 30.6337 18.7562C30.5888 18.7561 30.5445 18.7547 30.4995 18.7548Z" stroke="#0A1119" stroke-linecap="round" stroke-linejoin="round"/>
<path d="M50.3744 18.0801C50.0959 19.8713 49.7207 21.6434 49.2509 23.3872C51.1243 24.7663 52.2028 26.3693 52.2028 28.0816C52.1871 28.9501 51.9289 29.7932 51.4619 30.4997C50.5526 31.8005 49.3743 32.8525 48.0215 33.5713C47.0252 34.15 45.9882 34.6429 44.9203 35.0452C44.7119 35.125 44.4962 35.2011 44.2808 35.2775C42.8876 35.7643 41.4679 36.1575 40.0299 36.4548C39.963 36.4689 39.8969 36.4836 39.8296 36.4974C37.9415 36.8818 36.0336 37.1427 34.1164 37.2786C32.9403 37.3634 31.7329 37.4087 30.5006 37.4086C29.2683 37.4086 28.0609 37.3634 26.8848 37.2785C27.952 39.0078 29.1147 40.6658 30.3664 42.2435C30.4113 42.2436 30.4556 42.2449 30.5006 42.2449C30.5456 42.2448 30.59 42.2434 30.6349 42.2433C32.6433 42.2392 34.6054 42.1452 36.5022 41.9678C38.1449 41.8142 39.7356 41.596 41.2688 41.3241C41.393 41.3021 41.5166 41.2797 41.6398 41.2568C42.9374 41.0175 44.1876 40.7389 45.3902 40.4209C46.8843 40.0266 48.3016 39.5778 49.6201 39.0749C56.266 36.5405 60.5006 32.7117 60.5006 28.427C60.5006 24.3077 56.5825 20.6117 50.3744 18.0801Z" stroke="#0A1119" stroke-linecap="round" stroke-linejoin="round"/>
<path d="M27.4326 15.1938C27.2638 15.03 27.0951 14.8659 26.927 14.7104C25.3449 14.797 23.8041 14.9388 22.3047 15.1358C21.2734 15.2705 20.2659 15.4292 19.282 15.6119C17.9489 15.8598 16.6663 16.1492 15.4342 16.4801C13.804 16.9115 12.1986 17.4459 10.6262 18.0804C4.41815 20.612 0.5 24.308 0.5 28.4274V32.5727C0.5 28.2881 4.73465 24.4593 11.3805 21.9248C12.699 21.422 14.1163 20.9732 15.6105 20.5788C16.8112 20.2619 18.0613 19.9833 19.3608 19.743C19.4842 19.7203 19.6079 19.6978 19.7319 19.6756C21.2651 19.4038 22.8558 19.1855 24.4984 19.0319C26.3952 18.8545 28.3574 18.7605 30.3658 18.7564C30.4105 18.7002 30.4553 18.6456 30.5 18.5899C29.5431 17.3906 28.5187 16.2564 27.4326 15.1938Z" stroke="#0A1119" stroke-linecap="round" stroke-linejoin="round"/>
<path d="M49.2508 23.3872C48.8997 24.7051 48.4899 26.0521 48.0215 27.4282C49.3743 28.147 50.5526 29.199 51.4619 30.4998C51.9288 29.7932 52.1871 28.9502 52.2027 28.0816C52.2027 26.3694 51.1243 24.7663 49.2508 23.3872Z" stroke="#0A1119" stroke-linecap="round" stroke-linejoin="round"/>
<path d="M19.6525 41.7441C19.4405 42.9464 19.3164 44.1648 19.2812 45.3882C20.2641 45.5709 21.2716 45.7296 22.304 45.8643C21.3992 44.5589 20.5154 43.1856 19.6525 41.7441Z" stroke="#0A1119" stroke-linecap="round" stroke-linejoin="round"/>
<path d="M15.1174 39.4962C15.4642 38.2122 15.8663 36.901 16.3239 35.5627C16.3673 35.4357 16.4112 35.3085 16.4555 35.1813C17.0047 33.6081 17.6274 32.0115 18.3237 30.3912C19.1302 28.5245 20.0361 26.6382 21.0369 24.7535C21.0144 24.6835 20.993 24.6142 20.9709 24.5444C19.5329 24.8418 18.1132 25.2349 16.72 25.7217C16.5045 25.798 16.2888 25.8742 16.0804 25.954C15.3585 27.4803 14.7016 28.9955 14.1096 30.4994C13.7016 31.5335 13.3248 32.5574 12.9792 33.571C12.5109 34.9446 12.1011 36.2916 11.7499 37.612C11.28 39.3558 10.9048 41.1279 10.6263 42.9191C9.54775 50.0042 10.5459 55.525 13.8418 57.5847L17.1585 59.6574C13.7304 57.5151 12.7843 51.6313 14.0794 44.1343C14.3363 42.647 14.6858 41.0939 15.1174 39.4962Z" stroke="#0A1119" stroke-linecap="round" stroke-linejoin="round"/>
<path d="M30.4995 42.2447C30.5445 42.2447 30.5888 42.2432 30.6338 42.2432C30.589 42.2994 30.5442 42.354 30.4995 42.4097C30.4547 42.354 30.4099 42.2994 30.3652 42.2433C30.4102 42.2434 30.4544 42.2447 30.4995 42.2447Z" stroke="#0A1119" stroke-linecap="round" stroke-linejoin="round"/>
<path d="M39.8974 24.6273C39.8749 24.5851 39.8516 24.5443 39.829 24.5022C38.8215 22.6216 37.7652 20.8293 36.6749 19.14C35.7306 17.677 34.7606 16.295 33.7766 14.9937C33.6969 14.8883 33.6171 14.7836 33.5372 14.6797C32.697 13.5829 31.849 12.5503 30.9932 11.582C29.9307 10.3786 28.8629 9.2744 27.8013 8.28995C22.4505 3.32741 17.2698 1.27233 13.8417 3.41466C10.5458 5.47435 9.54775 10.9951 10.6263 18.0803C12.1987 17.4457 13.8041 16.9114 15.4342 16.48C15.6009 14.0342 16.3443 12.2218 17.7143 11.3657C18.417 10.946 19.2207 10.7666 20.0194 10.8511C21.5148 11.053 22.9457 11.6315 24.1972 12.5402C25.1584 13.1848 26.0712 13.9104 26.9271 14.7103C27.0951 14.8658 27.2639 15.0298 27.4327 15.1936C28.5188 16.2562 29.5432 17.3904 30.5001 18.5897C30.5448 18.6454 30.5896 18.7 30.6343 18.7561C31.886 20.3338 33.0487 21.9918 34.1159 23.7211C34.7718 24.7811 35.4092 25.8892 36.0279 27.0454C36.644 28.2006 37.2115 29.3551 37.7317 30.4999C38.5817 28.6348 39.3269 26.716 39.9633 24.7537C39.9409 24.7116 39.9199 24.6695 39.8974 24.6273Z" stroke="#0A1119" stroke-linecap="round" stroke-linejoin="round"/>
<path d="M26.8154 51.6325C24.7752 52.6991 22.9534 52.9085 21.5834 52.0524C20.8963 51.6035 20.3509 50.9399 20.0191 50.1489C19.433 48.6461 19.1805 47.0156 19.2818 45.3882C19.3169 44.1648 19.4411 42.9464 19.6531 41.7441C19.6934 41.5089 19.7404 41.2687 19.787 41.0285C20.0941 39.4792 20.4894 37.9518 20.9705 36.4551C20.9927 36.3853 21.014 36.3161 21.0365 36.2461C21.673 34.2839 22.4182 32.3651 23.2681 30.5C23.7884 29.3552 24.3558 28.2007 24.972 27.0456C25.5881 25.8904 26.2281 24.7813 26.884 23.7212C24.9668 23.857 23.0589 24.1179 21.1708 24.5024C21.1482 24.5445 21.125 24.5853 21.1025 24.6274C21.08 24.6696 21.059 24.7119 21.0366 24.7541C20.0357 26.6387 19.1298 28.525 18.3234 30.3918C17.6249 32.0084 17.0022 33.6051 16.4551 35.1818C16.4106 35.3092 16.3667 35.4364 16.3235 35.5633C15.8661 36.8992 15.464 38.2104 15.117 39.4967C14.6855 41.0944 14.3359 42.6476 14.0791 44.1349C12.7839 51.6318 13.7301 57.5157 17.1581 59.658C20.454 61.7177 25.3703 59.8929 30.4998 55.3394C29.2059 54.1826 27.9756 52.9449 26.8154 51.6325Z" stroke="#0A1119" stroke-linecap="round" stroke-linejoin="round"/>
<path d="M33.1988 52.71C32.1373 51.7255 31.0695 50.6213 30.0069 49.4179C29.1529 48.4508 28.3049 47.4182 27.4629 46.3203C27.3831 46.216 27.3033 46.1113 27.2235 46.0062C26.2395 44.7049 25.2695 43.3229 24.3253 41.8599C23.2349 40.1706 22.1787 38.3783 21.1711 36.4977C21.1038 36.4839 21.0377 36.4692 20.9708 36.4551C20.4897 37.9517 20.0944 39.4791 19.7873 41.0286C19.7406 41.2687 19.6937 41.5089 19.6533 41.7441C20.5137 43.184 21.3975 44.5573 22.3048 45.8643C22.9282 46.7637 23.559 47.6288 24.1971 48.4597C25.0619 49.5854 25.9348 50.643 26.8157 51.6325C27.9759 52.9449 29.2062 54.1826 30.5001 55.3393C35.6296 59.8929 40.5458 61.7176 43.8417 59.6579L47.1584 57.5853C43.7303 59.7276 38.5496 57.6725 33.1988 52.71Z" stroke="#0A1119" stroke-linecap="round" stroke-linejoin="round"/>
<path d="M49.6195 39.0751C48.301 39.578 46.8837 40.0268 45.3896 40.4211C44.1888 40.7381 42.9387 41.0167 41.6392 41.2569C41.5158 41.2797 41.3921 41.3022 41.2682 41.3243C39.735 41.5961 38.1443 41.8144 36.5016 41.968C34.6048 42.1454 32.6427 42.2394 30.6343 42.2435C30.5896 42.2997 30.5448 42.3543 30.5 42.4101C31.4569 43.6094 32.4813 44.7436 33.5674 45.8062C33.7362 45.97 33.905 46.1341 34.073 46.2895C35.6551 46.203 37.1959 46.0612 38.6953 45.8642C39.7266 45.7295 40.7341 45.5708 41.718 45.388C43.0511 45.1402 44.3337 44.8508 45.5658 44.5198C47.196 44.0884 48.8014 43.554 50.3738 42.9195C56.5818 40.388 60.5 36.692 60.5 32.5726V28.4272C60.5 32.7119 56.2654 36.5407 49.6195 39.0751Z" stroke="#0A1119" stroke-linecap="round" stroke-linejoin="round"/>
<path d="M38.6954 15.1357C38.072 14.2363 37.4413 13.3712 36.8031 12.5403C35.9383 11.4146 35.0654 10.357 34.1845 9.36748C33.0243 8.0551 31.7941 6.81738 30.5001 5.66067C25.3706 1.10711 20.4544 -0.717703 17.1585 1.34204L13.8418 3.41472C17.2699 1.27238 22.4506 3.32747 27.8014 8.28998C28.863 9.27445 29.9307 10.3786 30.9933 11.582C31.8473 12.5491 32.6953 13.5817 33.5373 14.6797C33.6172 14.784 33.6969 14.8887 33.7767 14.9937C34.7607 16.295 35.7307 17.6771 36.6749 19.14C37.7653 20.8293 38.8216 22.6216 39.8291 24.5022C39.8517 24.5444 39.875 24.5851 39.8975 24.6273C39.92 24.6695 39.941 24.7116 39.9634 24.7538C39.986 24.6838 40.0073 24.6146 40.0294 24.5449C40.5105 23.0482 40.9058 21.5208 41.2129 19.9714C41.2596 19.7314 41.3065 19.491 41.3469 19.2559C40.4865 17.816 39.6027 16.4426 38.6954 15.1357Z" stroke="#0A1119" stroke-linecap="round" stroke-linejoin="round"/>
<path d="M47.158 3.41497L43.8413 1.34229C47.2694 3.48459 48.2155 9.3684 46.9204 16.8654C46.6635 18.3527 46.314 19.9058 45.8825 21.5035C45.5356 22.7875 45.1335 24.0987 44.676 25.437C44.6325 25.5641 44.5886 25.6912 44.5444 25.8185C43.9952 27.3916 43.3724 28.9882 42.6761 30.6084C41.8697 32.4751 40.9638 34.3614 39.9629 36.2461C39.9855 36.3162 40.0068 36.3854 40.029 36.4553C41.467 36.1579 42.8867 35.7647 44.2799 35.2779C44.4953 35.2016 44.7111 35.1254 44.9194 35.0457C45.6412 33.5194 46.2982 32.0042 46.8902 30.5002C47.2982 29.4661 47.675 28.4423 48.0206 27.4286C48.4889 26.0551 48.8987 24.7081 49.25 23.3876C49.7199 21.6439 50.095 19.8718 50.3736 18.0806C51.4521 10.9955 50.4539 5.47465 47.158 3.41497Z" stroke="#0A1119" stroke-linecap="round" stroke-linejoin="round"/>
<path d="M43.8416 1.34201C40.5458 -0.717679 35.6295 1.10711 30.5 5.66065C31.7939 6.81736 33.0242 8.05508 34.1844 9.36745C36.2246 8.30084 38.0464 8.09147 39.4163 8.94758C40.1035 9.39646 40.6488 10.0601 40.9806 10.8511C41.5668 12.3538 41.8193 13.9843 41.718 15.6118C41.6829 16.8352 41.5588 18.0536 41.3467 19.2559C41.3064 19.491 41.2594 19.7314 41.2128 19.9714C40.9056 21.5208 40.5104 23.0482 40.0293 24.5449C40.0071 24.6146 39.9859 24.6838 39.9632 24.7538C39.3268 26.716 38.5816 28.6349 37.7317 30.4999C37.2114 31.6448 36.644 32.7993 36.0278 33.9544C35.4117 35.1095 34.7717 36.2187 34.1158 37.2788C36.033 37.1429 37.9409 36.8821 39.829 36.4976C39.8516 36.4555 39.8748 36.4147 39.8973 36.3725C39.9198 36.3304 39.9408 36.2881 39.9632 36.2459C40.9641 34.3612 41.87 32.4749 42.6764 30.6082C43.3748 28.9915 43.9976 27.3949 44.5447 25.8182C44.5892 25.6908 44.633 25.5637 44.6763 25.4368C45.1337 24.1008 45.5358 22.7896 45.8828 21.5032C46.3143 19.9055 46.6638 18.3525 46.9207 16.8652C48.2158 9.36814 47.2697 3.48432 43.8416 1.34201Z" stroke="#0A1119" stroke-linecap="round" stroke-linejoin="round"/>
<path d="M50.3741 42.9196C48.8017 43.5541 47.1963 44.0885 45.5662 44.5199C45.3995 46.9657 44.6561 48.7781 43.2862 49.6342C42.5835 50.0538 41.7798 50.2333 40.981 50.1488C39.4856 49.9469 38.0548 49.3683 36.8033 48.4596C35.842 47.8151 34.9292 47.0895 34.0733 46.2896C33.9053 46.1341 33.7365 45.97 33.5678 45.8063C32.4817 44.7437 31.4572 43.6095 30.5003 42.4102C30.4556 42.3545 30.4108 42.2999 30.3661 42.2437C29.1144 40.666 27.9518 39.008 26.8845 37.2788C26.2286 36.2188 25.5913 35.1106 24.9725 33.9544C24.3564 32.7993 23.7889 31.6449 23.2687 30.5C22.4188 32.365 21.6736 34.2839 21.0371 36.246C21.0595 36.2883 21.0806 36.3304 21.1031 36.3726C21.1255 36.4147 21.1489 36.4555 21.1714 36.4977C22.1789 38.3783 23.2352 40.1706 24.3256 41.8599C25.2698 43.3229 26.2398 44.7049 27.2239 46.0062C27.3036 46.1116 27.3834 46.2163 27.4633 46.3203C28.3035 47.417 29.1515 48.4495 30.0072 49.4179C31.0698 50.6212 32.1376 51.7255 33.1991 52.71C38.5499 57.6725 43.7306 59.7276 47.1587 57.5853C50.4546 55.5256 51.4527 50.0047 50.3741 42.9196Z" stroke="#0A1119" stroke-linecap="round" stroke-linejoin="round"/>
<path d="M30.6342 18.7564C30.5893 18.7562 30.545 18.7549 30.5 18.7549C30.455 18.7549 30.4107 18.7564 30.3657 18.7565C28.3574 18.7606 26.3952 18.8546 24.4984 19.032C22.8557 19.1856 21.2651 19.4039 19.7318 19.6756C19.6077 19.6977 19.484 19.7202 19.3608 19.7431C18.0632 19.9823 16.813 20.2609 15.6104 20.5789C14.1163 20.9732 12.6989 21.4221 11.3804 21.9249C4.73465 24.4594 0.5 28.2882 0.5 32.5728C0.499962 36.6921 4.41811 40.3882 10.6262 42.9198C10.9047 41.1285 11.2799 39.3564 11.7498 37.6127C9.87628 36.2335 8.79787 34.6304 8.79787 32.9182C8.81344 32.0497 9.07173 31.2066 9.53871 30.5001C10.448 29.1993 11.6263 28.1473 12.9791 27.4285C13.9754 26.8498 15.0124 26.357 16.0803 25.9546C16.2886 25.8748 16.5044 25.7987 16.7199 25.7224C18.1131 25.2356 19.5327 24.8424 20.9707 24.5451C21.0376 24.5309 21.1037 24.5163 21.171 24.5025C23.0591 24.118 24.967 23.8571 26.8842 23.7213C28.0603 23.6365 29.2677 23.5912 30.5 23.5911C31.7323 23.5911 32.9397 23.6364 34.1158 23.7213C33.0486 21.992 31.8859 20.334 30.6342 18.7564Z" stroke="#0A1119" stroke-linecap="round" stroke-linejoin="round"/>
</svg>
