<svg width="55" height="51" viewBox="0 0 55 51" fill="none" xmlns="http://www.w3.org/2000/svg">
<path d="M12.7508 15.0723L4.59375 29.0926H12.9533H12.9585L21.1161 15.0723H12.7508Z" stroke="#0A1119" stroke-linecap="round" stroke-linejoin="round"/>
<path d="M29.5928 0.5L25.4107 7.68894L33.7368 22L37.9195 14.811L29.5928 0.5Z" stroke="#0A1119" stroke-linecap="round" stroke-linejoin="round"/>
<path d="M12.9563 29.0976L12.9589 29.0918H12.9531L12.9563 29.0976Z" stroke="#0A1119" stroke-linecap="round" stroke-linejoin="round"/>
<path d="M25.4101 7.68945H0.5L8.77264 21.9086L12.7499 15.072H21.1153L25.2222 22.0005H33.7367L25.4101 7.68945Z" stroke="#0A1119" stroke-linecap="round" stroke-linejoin="round"/>
<path d="M4.68269 0.5L0.5 7.68894H25.4101L29.5928 0.5H4.68269Z" stroke="#0A1119" stroke-linecap="round" stroke-linejoin="round"/>
<path d="M25.2801 36.2815L21.0188 29.0926L25.2226 22.0007L21.1156 15.0723L12.958 29.0926L25.4133 50.5007L33.686 36.2815H25.2801Z" stroke="#0A1119" stroke-linecap="round" stroke-linejoin="round"/>
<path d="M12.9585 29.0918L12.9562 29.097L12.9533 29.0918H4.59375L17.0491 50.4999H25.4139L12.9585 29.0918Z" stroke="#0A1119" stroke-linecap="round" stroke-linejoin="round"/>
<path d="M37.8642 29.0918H21.0195L25.2809 36.2807H42.0463L37.8642 29.0918Z" stroke="#0A1119" stroke-linecap="round" stroke-linejoin="round"/>
<path d="M50.3203 7.68945L37.865 29.0976L42.0447 36.2813L54.5001 14.8737L50.3203 7.68945Z" stroke="#0A1119" stroke-linecap="round" stroke-linejoin="round"/>
<path d="M33.7766 7.68945L37.9205 14.8115L33.7378 22.0005H25.2234L21.0195 29.0923H37.8642L50.3218 7.68945H33.7766Z" stroke="#0A1119" stroke-linecap="round" stroke-linejoin="round"/>
</svg>
