<svg width="50" height="50" viewBox="0 0 50 50" fill="none" xmlns="http://www.w3.org/2000/svg">
<path d="M26.7865 1.67676C26.8329 1.68613 26.8754 1.70525 26.9135 1.73242C26.9515 1.75953 26.9858 1.79232 27.0101 1.83398C27.0106 1.83485 27.0106 1.83604 27.0111 1.83691L32.6439 11.6973H43.9086C44.0298 11.6973 44.1413 11.7634 44.2006 11.8691L45.8783 14.8633C45.896 14.8949 45.9058 14.9293 45.9125 14.9639C45.9281 15.0423 45.9173 15.1249 45.8763 15.1963L40.2426 25.001L45.8763 34.8066C45.9348 34.9086 45.9355 35.0341 45.8783 35.1367L44.2006 38.1309C44.1996 38.1326 44.1996 38.135 44.1986 38.1367C44.1409 38.2366 44.0359 38.2974 43.9213 38.3018C43.9177 38.3019 43.9141 38.3037 43.9105 38.3037L43.9095 38.3027L43.9086 38.3037H32.6449L27.0121 48.166C26.9525 48.2702 26.8411 48.3339 26.7211 48.334H23.3666C23.3068 48.3339 23.2496 48.318 23.1996 48.2891C23.1861 48.2813 23.1748 48.2703 23.1625 48.2607C23.1511 48.2519 23.1385 48.2447 23.1283 48.2344C23.1081 48.2139 23.0902 48.1907 23.0756 48.165L17.4427 38.3037H6.1781C6.05715 38.3036 5.94533 38.2383 5.88611 38.1328L4.21326 35.1445C4.21266 35.1435 4.21189 35.1426 4.2113 35.1416C4.15144 35.0382 4.15181 34.9103 4.2113 34.8066L9.84412 25L4.2113 15.1943C4.15266 15.0922 4.15179 14.9661 4.20935 14.8633L5.88708 11.8691L5.9115 11.8311C5.91679 11.824 5.92329 11.8181 5.92908 11.8115C5.93675 11.8028 5.94404 11.7939 5.95251 11.7861C5.96578 11.7739 5.98051 11.7638 5.99548 11.7539C6.00297 11.749 6.01009 11.7436 6.01794 11.7393C6.03563 11.7295 6.05436 11.7222 6.07361 11.7158C6.08083 11.7134 6.0877 11.7099 6.09509 11.708C6.12143 11.7012 6.14921 11.6974 6.17712 11.6973H17.4437L23.0756 1.83691L23.101 1.7998C23.1637 1.71759 23.2615 1.66805 23.3666 1.66797H26.7211C26.7434 1.66799 26.765 1.67243 26.7865 1.67676ZM30.7396 35.6514L23.9418 47.6641H26.5267L32.0638 37.9688L30.7396 35.6514ZM29.2972 32.4414L23.6976 42.2461C23.638 42.3505 23.5268 42.415 23.4066 42.415C23.2864 42.415 23.1752 42.3505 23.1156 42.2461L19.348 35.6484L18.0228 37.9678L23.3656 47.3213L30.4486 34.8086H30.4476C30.4482 34.8076 30.449 34.8066 30.4496 34.8057C30.451 34.8032 30.453 34.8012 30.4545 34.7988L30.473 34.7705C30.4786 34.7631 30.4854 34.7568 30.4916 34.75C30.4984 34.7424 30.5056 34.7354 30.5131 34.7285C30.5178 34.7241 30.5218 34.7189 30.5267 34.7148C30.5381 34.7054 30.5504 34.6973 30.5629 34.6895C30.5671 34.6868 30.5712 34.6841 30.5756 34.6816C30.5971 34.6695 30.6201 34.6605 30.6439 34.6533C30.6469 34.6524 30.6497 34.6512 30.6527 34.6504L30.6586 34.6475C30.6621 34.6466 30.6658 34.6463 30.6693 34.6455C30.6921 34.6406 30.7158 34.6377 30.7396 34.6377H38.2797L37.0248 32.4414H29.2972ZM5.08044 34.6387H19.3402C19.3428 34.6386 19.3454 34.6377 19.348 34.6377C19.4382 34.6377 19.5233 34.6742 19.5853 34.7363C19.606 34.757 19.6241 34.7806 19.639 34.8066L23.4066 41.4043L24.6576 39.2129L20.7904 32.4414H9.59314C9.47384 32.4414 9.36304 32.3785 9.3031 32.2754C9.24324 32.1722 9.24294 32.0441 9.30212 31.9404V31.9395L13.0746 25.3359H10.4252L5.08044 34.6387ZM21.2758 18.0615C21.2161 18.1659 21.105 18.2305 20.9847 18.2305H13.4457L17.2172 24.834C17.2758 24.9369 17.2759 25.0631 17.2172 25.166L13.4437 31.7725H20.9847L21.0297 31.7754C21.132 31.7892 21.2236 31.8494 21.2758 31.9404L25.0433 38.5371L28.8119 31.9404L28.8363 31.9033C28.8991 31.8211 28.9969 31.7716 29.1019 31.7715H36.6429L32.8705 25.168C32.8117 25.065 32.8117 24.9379 32.8705 24.835L36.6429 18.2305H29.1019C28.9819 18.2303 28.8714 18.1658 28.8119 18.0615L25.0424 11.4648L21.2758 18.0615ZM33.5463 25.002L37.5092 31.9385L37.5101 31.9404L39.1478 34.8066C39.1625 34.8324 39.1737 34.8597 39.181 34.8877C39.2037 34.9726 39.1921 35.0647 39.1469 35.1426C39.0869 35.2457 38.9761 35.3086 38.8568 35.3086H31.3168L32.6459 37.6348H43.3295L43.3285 37.6338L36.2426 25.3369L36.1449 25.168C36.1426 25.1639 36.1412 25.1594 36.139 25.1553C36.1007 25.0811 36.09 24.9963 36.1107 24.917C36.1182 24.8881 36.1296 24.8596 36.1449 24.833C36.1465 24.8302 36.1491 24.8279 36.1508 24.8252L36.2426 24.665L39.9174 18.2305H37.4144L33.5463 25.002ZM6.37439 37.6338H17.4418L18.7699 35.3086H5.07263L6.37439 37.6338ZM37.016 25.3369L43.9037 37.29L45.2006 34.9756L39.6635 25.3369H37.016ZM13.9418 24.832C13.9716 24.8838 13.9867 24.9422 13.9867 25L13.976 25.0859C13.9686 25.114 13.9575 25.1412 13.9427 25.167L10.1713 31.7715H12.6732L16.5404 25L12.5814 18.0674C12.5802 18.0653 12.5777 18.0636 12.5765 18.0615L10.9388 15.1953C10.8982 15.1241 10.888 15.0419 10.9037 14.9639C10.9107 14.9277 10.9218 14.8922 10.9408 14.8594C11.0007 14.7562 11.1115 14.6924 11.2308 14.6924H18.7699L17.4418 12.3672H6.75818L13.9418 24.832ZM25.4291 10.7891L29.2972 17.5605H40.4945C40.5988 17.5606 40.6934 17.6113 40.7562 17.6924C40.7653 17.7041 40.776 17.7146 40.7836 17.7275C40.8434 17.8306 40.8444 17.958 40.7855 18.0615L37.0131 24.666H39.6644L45.0072 15.3643H30.7396C30.6494 15.3643 30.5643 15.3278 30.5023 15.2656C30.4817 15.2449 30.4635 15.2214 30.4486 15.1953L26.681 8.59766L25.4291 10.7891ZM4.88611 15.0244L10.4252 24.665H13.0726L6.18298 12.71L4.88611 15.0244ZM19.639 15.1943C19.5796 15.2991 19.4685 15.3642 19.348 15.3643H11.808L13.0629 17.5605H20.7904L26.39 7.75684L26.4144 7.71973C26.42 7.71243 26.4269 7.70598 26.433 7.69922C26.4398 7.69164 26.447 7.68462 26.4545 7.67773C26.4673 7.66585 26.481 7.65519 26.4955 7.64551C26.5043 7.63963 26.5125 7.63295 26.5219 7.62793C26.5251 7.6262 26.5284 7.62467 26.5316 7.62305L26.5931 7.59961C26.5944 7.59926 26.5957 7.59897 26.597 7.59863C26.6241 7.59161 26.6523 7.5879 26.681 7.58789C26.7712 7.58794 26.8564 7.62423 26.9183 7.68652C26.9389 7.70715 26.9572 7.73091 26.972 7.75684L30.7386 14.3525L32.0638 12.0322L26.722 2.68066L19.639 15.1943ZM31.3177 14.6924H45.014L43.7123 12.3672H32.6459L31.3177 14.6924ZM18.0228 12.0322L19.347 14.3506L26.1459 2.33789H23.5609L18.0228 12.0322Z" fill="#0A1119"/>
</svg>
