<svg width="16" height="16" viewBox="0 0 16 16" fill="none" xmlns="http://www.w3.org/2000/svg">
<path d="M8 16C7.46667 16 7.11111 15.6444 7.11111 15.1111V10.1333L3.28889 13.9556C2.93333 14.3111 2.4 14.3111 2.04444 13.9556C1.68889 13.6 1.68889 13.0667 2.04444 12.7111L5.86667 8.88889H0.888889C0.355556 8.88889 0 8.53333 0 8C0 7.46667 0.355556 7.11111 0.888889 7.11111H5.86667L2.04444 3.28889C1.68889 2.93333 1.68889 2.4 2.04444 2.04444C2.4 1.68889 2.93333 1.68889 3.28889 2.04444L7.11111 5.86667V0.888889C7.11111 0.355556 7.46667 0 8 0C8.53333 0 8.88889 0.355556 8.88889 0.888889V5.86667L12.7111 2.04444C13.0667 1.68889 13.6 1.68889 13.9556 2.04444C14.3111 2.4 14.3111 2.93333 13.9556 3.28889L10.1333 7.11111H15.1111C15.6444 7.11111 16 7.46667 16 8C16 8.53333 15.6444 8.88889 15.1111 8.88889H10.1333L13.9556 12.7111C14.3111 13.0667 14.3111 13.6 13.9556 13.9556C13.6 14.3111 13.0667 14.3111 12.7111 13.9556L8.88889 10.1333V15.1111C8.88889 15.6444 8.53333 16 8 16Z" fill="url(#paint0_linear_442_1256)"/>
<defs>
<linearGradient id="paint0_linear_442_1256" x1="0" y1="8" x2="16" y2="8" gradientUnits="userSpaceOnUse">
<stop stop-color="#097C7D"/>
<stop offset="1" stop-color="#20282D"/>
</linearGradient>
</defs>
</svg>
