<svg width="31" height="31" viewBox="0 0 31 31" fill="none" xmlns="http://www.w3.org/2000/svg">
<path d="M19.9582 4.72364C19.2733 4.29558 18.3624 4.40026 17.3423 4.93358C17.7817 5.42762 18.2182 5.95643 18.6516 6.51999C19.2773 6.06564 19.9927 5.77637 20.7404 5.67539C20.5745 5.2799 20.3018 4.94808 19.9582 4.72364Z" stroke="#0A1119" stroke-linecap="round" stroke-linejoin="round"/>
<path d="M12.3486 24.48C11.7228 24.9343 11.0074 25.2236 10.2598 25.3246C10.4257 25.7201 10.6983 26.0519 11.0419 26.2763C11.7269 26.7044 12.6378 26.5997 13.6579 26.0664C13.2184 25.5723 12.782 25.0435 12.3486 24.48Z" stroke="#0A1119" stroke-linecap="round" stroke-linejoin="round"/>
<path d="M17.2861 23.3948C17.7141 23.7947 18.1705 24.1575 18.6511 24.4798C18.9699 24.0649 19.2853 23.6323 19.5973 23.1821C18.8489 23.2798 18.0785 23.3507 17.2861 23.3948Z" stroke="#0A1119" stroke-linecap="round" stroke-linejoin="round"/>
<path d="M12.3485 6.52002C12.0297 6.935 11.7143 7.36757 11.4023 7.81772C12.1507 7.72002 12.9211 7.64913 13.7135 7.60506C13.2855 7.20512 12.8291 6.84232 12.3485 6.52002Z" stroke="#0A1119" stroke-linecap="round" stroke-linejoin="round"/>
<path d="M21.1089 22.9443C21.1596 23.7581 21.0333 24.5733 20.7402 25.3247C21.1396 25.3669 21.5415 25.2772 21.8928 25.0674C22.5778 24.6393 22.9495 23.7331 23.0328 22.5103C22.4178 22.6752 21.7765 22.8198 21.1089 22.9443Z" stroke="#0A1119" stroke-linecap="round" stroke-linejoin="round"/>
<path d="M9.10681 5.93302C8.42183 6.36108 8.05015 7.26729 7.9668 8.49016C8.58183 8.32526 9.22313 8.18057 9.89069 8.05607C9.84004 7.24234 9.96631 6.42709 10.2594 5.67573C9.85999 5.63346 9.45815 5.72317 9.10681 5.93302Z" stroke="#0A1119" stroke-linecap="round" stroke-linejoin="round"/>
<path d="M20.1988 18.4364C20.2101 18.4153 20.2206 18.3942 20.2319 18.373C20.2433 18.4081 20.2539 18.4427 20.2651 18.4776C20.2315 18.4847 20.1983 18.492 20.1646 18.4989C20.1759 18.4779 20.1875 18.4575 20.1988 18.4364Z" stroke="#0A1119" stroke-linecap="round" stroke-linejoin="round"/>
<path d="M10.8016 12.5635C10.7903 12.5846 10.7798 12.6057 10.7685 12.6268C10.7572 12.5918 10.7465 12.5572 10.7354 12.5223C10.7689 12.5152 10.8021 12.5079 10.8359 12.501C10.8246 12.522 10.8129 12.5424 10.8016 12.5635Z" stroke="#0A1119" stroke-linecap="round" stroke-linejoin="round"/>
<path d="M6.73926 13.964C6.91188 14.4704 7.10028 14.9823 7.30445 15.4998C7.60043 14.7494 7.9289 13.9918 8.28986 13.2271C7.75591 13.4282 7.23743 13.6746 6.73926 13.964Z" stroke="#0A1119" stroke-linecap="round" stroke-linejoin="round"/>
<path d="M10.8016 18.4363C10.8129 18.4574 10.8246 18.4778 10.8359 18.4989C10.8021 18.492 10.7689 18.4846 10.7354 18.4775C10.7465 18.4427 10.7572 18.408 10.7685 18.373C10.7797 18.3941 10.7903 18.4152 10.8016 18.4363Z" stroke="#0A1119" stroke-linecap="round" stroke-linejoin="round"/>
<path d="M23.6951 15.5C23.3991 16.2504 23.0707 17.008 22.7097 17.7728C23.2437 17.5716 23.7621 17.3251 24.2603 17.0358C24.0877 16.5294 23.8993 16.0175 23.6951 15.5Z" stroke="#0A1119" stroke-linecap="round" stroke-linejoin="round"/>
<path d="M5.01934 15.5C4.78585 15.8533 4.65671 16.2748 4.64893 16.709C4.64893 17.5652 5.18813 18.3667 6.12486 19.0563C6.30044 18.3973 6.50532 17.7238 6.7395 17.0358C6.06312 16.6764 5.47397 16.1504 5.01934 15.5Z" stroke="#0A1119" stroke-linecap="round" stroke-linejoin="round"/>
<path d="M19.5977 7.81787C20.05 8.47054 20.4919 9.15723 20.9234 9.87797C21.0294 9.27685 21.0915 8.66762 21.109 8.05594C20.6176 7.9646 20.1138 7.88524 19.5977 7.81787Z" stroke="#0A1119" stroke-linecap="round" stroke-linejoin="round"/>
<path d="M15.5 9.62738C15.4775 9.62738 15.4554 9.62814 15.4329 9.62817C15.4552 9.60008 15.4776 9.57276 15.5 9.54492C15.5223 9.57275 15.5447 9.60003 15.5671 9.62812C15.5446 9.62804 15.5225 9.62736 15.5 9.62738Z" stroke="#0A1119" stroke-linecap="round" stroke-linejoin="round"/>
<path d="M25.4369 9.29004C25.2976 10.1857 25.11 11.0717 24.8751 11.9436C25.8118 12.6331 26.351 13.4347 26.351 14.2908C26.3432 14.7251 26.2141 15.1466 25.9806 15.4999C25.526 16.1503 24.9368 16.6763 24.2604 17.0356C23.7622 17.325 23.2438 17.5714 22.7098 17.7726C22.6056 17.8125 22.4978 17.8506 22.3901 17.8887C21.6935 18.1321 20.9836 18.3287 20.2646 18.4774C20.2312 18.4844 20.1981 18.4918 20.1645 18.4987C19.2204 18.6909 18.2665 18.8214 17.3079 18.8893C16.7199 18.9317 16.1162 18.9543 15.5 18.9543C14.8839 18.9543 14.2802 18.9317 13.6921 18.8893C14.2258 19.7539 14.8071 20.5829 15.4329 21.3717C15.4554 21.3718 15.4775 21.3725 15.5 21.3724C15.5226 21.3724 15.5447 21.3717 15.5672 21.3717C16.5714 21.3696 17.5524 21.3226 18.5008 21.2339C19.3222 21.1571 20.1175 21.048 20.8841 20.9121C20.9462 20.9011 21.008 20.8898 21.0696 20.8784C21.7184 20.7588 22.3435 20.6195 22.9448 20.4605C23.6918 20.2633 24.4005 20.0389 25.0597 19.7875C28.3826 18.5202 30.4999 16.6058 30.4999 14.4635C30.4999 12.4038 28.5408 10.5558 25.4369 9.29004Z" stroke="#0A1119" stroke-linecap="round" stroke-linejoin="round"/>
<path d="M13.9662 7.84665C13.8818 7.76474 13.7974 7.6827 13.7134 7.60498C12.9223 7.64825 12.152 7.71913 11.4022 7.81764C10.8866 7.88498 10.3828 7.96434 9.8909 8.05572C9.22436 8.17966 8.58307 8.32435 7.96701 8.48981C7.15195 8.70552 6.34926 8.9727 5.56305 9.28996C2.45905 10.5557 0.5 12.4038 0.5 14.4634V16.5361C0.5 14.3938 2.6173 12.4794 5.94019 11.2122C6.59942 10.9608 7.3081 10.7363 8.05516 10.5392C8.65553 10.3807 9.28058 10.2414 9.93032 10.1213C9.99201 10.1099 10.0539 10.0987 10.1158 10.0875C10.8824 9.95165 11.6778 9.84252 12.4991 9.76571C13.4475 9.67701 14.4286 9.63001 15.4327 9.62797C15.4551 9.59986 15.4775 9.57256 15.4999 9.54471C15.0214 8.94505 14.5092 8.37795 13.9662 7.84665Z" stroke="#0A1119" stroke-linecap="round" stroke-linejoin="round"/>
<path d="M24.8752 11.9438C24.6996 12.6028 24.4947 13.2763 24.2605 13.9643C24.9369 14.3237 25.526 14.8497 25.9807 15.5001C26.2142 15.1469 26.3433 14.7253 26.3511 14.291C26.3511 13.4349 25.8119 12.6334 24.8752 11.9438Z" stroke="#0A1119" stroke-linecap="round" stroke-linejoin="round"/>
<path d="M10.0762 21.1221C9.97024 21.7232 9.90818 22.3324 9.89062 22.9441C10.382 23.0354 10.8858 23.1148 11.402 23.1821C10.9496 22.5295 10.5077 21.8428 10.0762 21.1221Z" stroke="#0A1119" stroke-linecap="round" stroke-linejoin="round"/>
<path d="M7.80867 19.9983C7.98207 19.3563 8.18315 18.7008 8.4119 18.0316C8.43363 17.9681 8.45557 17.9045 8.4777 17.8409C8.7523 17.0543 9.06367 16.256 9.41182 15.4459C9.81506 14.5125 10.268 13.5694 10.7684 12.627C10.7571 12.592 10.7465 12.5574 10.7354 12.5225C10.0164 12.6711 9.30656 12.8677 8.60996 13.1111C8.50224 13.1493 8.39436 13.1873 8.29017 13.2272C7.92925 13.9904 7.60078 14.748 7.30476 15.5C7.1008 16.017 6.9124 16.5289 6.73958 17.0358C6.50544 17.7225 6.30056 18.396 6.12493 19.0563C5.88999 19.9281 5.70241 20.8142 5.56314 21.7098C5.02388 25.2523 5.52293 28.0128 7.17087 29.0426L8.8292 30.079C7.11518 29.0078 6.64213 26.0659 7.28967 22.3174C7.41813 21.5738 7.59289 20.7972 7.80867 19.9983Z" stroke="#0A1119" stroke-linecap="round" stroke-linejoin="round"/>
<path d="M15.5 21.3724C15.5225 21.3724 15.5446 21.3716 15.5671 21.3716C15.5448 21.3997 15.5223 21.427 15.5 21.4548C15.4776 21.427 15.4552 21.3997 15.4329 21.3716C15.4554 21.3717 15.4775 21.3724 15.5 21.3724Z" stroke="#0A1119" stroke-linecap="round" stroke-linejoin="round"/>
<path d="M20.1986 12.5639C20.1873 12.5428 20.1756 12.5224 20.1643 12.5014C19.6606 11.561 19.1325 10.6649 18.5873 9.82024C18.1152 9.08876 17.6302 8.39776 17.1382 7.74709C17.0983 7.6944 17.0584 7.64206 17.0185 7.59008C16.5984 7.04169 16.1744 6.52541 15.7465 6.04124C15.2152 5.43955 14.6813 4.88744 14.1506 4.39522C11.4752 1.91395 8.88489 0.886408 7.17085 1.95757C5.52292 2.98742 5.02388 5.74782 5.56314 9.29038C6.34935 8.97312 7.15204 8.70594 7.96709 8.49023C8.05045 7.26734 8.42212 6.36114 9.10711 5.93309C9.45845 5.72324 9.86029 5.63353 10.2597 5.6758C11.0074 5.77676 11.7228 6.06602 12.3485 6.52035C12.8291 6.84265 13.2855 7.20546 13.7135 7.6054C13.7975 7.68313 13.8819 7.76516 13.9662 7.84707C14.5093 8.37836 15.0215 8.94546 15.4999 9.54512C15.5223 9.57295 15.5447 9.60023 15.567 9.62831C16.1929 10.4172 16.7742 11.2461 17.3078 12.1108C17.6358 12.6408 17.9545 13.1948 18.2638 13.7729C18.5719 14.3505 18.8556 14.9278 19.1157 15.5002C19.5407 14.5677 19.9133 13.6082 20.2315 12.6271C20.2203 12.606 20.2098 12.585 20.1986 12.5639Z" stroke="#0A1119" stroke-linecap="round" stroke-linejoin="round"/>
<path d="M13.6576 26.0665C12.6376 26.5998 11.7266 26.7045 11.0417 26.2764C10.6981 26.052 10.4254 25.7202 10.2595 25.3247C9.96649 24.5733 9.84022 23.7581 9.89088 22.9443C9.90843 22.3327 9.9705 21.7234 10.0765 21.1223C10.0967 21.0047 10.1201 20.8846 10.1435 20.7645C10.297 19.9898 10.4947 19.2261 10.7352 18.4778C10.7463 18.4429 10.7569 18.4083 10.7682 18.3733C11.0865 17.3922 11.4591 16.4328 11.884 15.5003C12.1441 14.9278 12.4278 14.3506 12.7359 13.773C13.044 13.1955 13.364 12.6409 13.6919 12.1108C12.7333 12.1787 11.7794 12.3092 10.8353 12.5014C10.8241 12.5225 10.8125 12.5429 10.8012 12.564C10.79 12.5851 10.7795 12.6062 10.7683 12.6273C10.2678 13.5696 9.8149 14.5128 9.41166 15.4461C9.06245 16.2544 8.75108 17.0528 8.47754 17.8412C8.45529 17.9048 8.43336 17.9684 8.41174 18.0319C8.18305 18.6999 7.98197 19.3554 7.8085 19.9986C7.59273 20.7975 7.41797 21.574 7.28952 22.3177C6.64198 26.0662 7.11503 29.0081 8.82905 30.0792C10.477 31.1091 12.9351 30.1967 15.4998 27.9199C14.8529 27.3416 14.2378 26.7227 13.6576 26.0665Z" stroke="#0A1119" stroke-linecap="round" stroke-linejoin="round"/>
<path d="M16.8493 26.605C16.3186 26.1128 15.7847 25.5606 15.2534 24.9589C14.8264 24.4754 14.4024 23.9591 13.9814 23.4101C13.9415 23.358 13.9016 23.3056 13.8617 23.2531C13.3697 22.6024 12.8847 21.9114 12.4126 21.1799C11.8674 20.3353 11.3393 19.4392 10.8356 18.4989C10.8019 18.4919 10.7689 18.4846 10.7354 18.4775C10.4948 19.2259 10.2972 19.9896 10.1436 20.7643C10.1203 20.8843 10.0968 21.0045 10.0767 21.1221C10.5068 21.842 10.9487 22.5287 11.4024 23.1821C11.7141 23.6318 12.0295 24.0644 12.3485 24.4799C12.7809 25.0427 13.2174 25.5715 13.6578 26.0663C14.2379 26.7225 14.853 27.3413 15.5 27.9197C18.0647 30.1964 20.5228 31.1088 22.1707 30.079L23.8291 29.0426C22.115 30.1138 19.5247 29.0863 16.8493 26.605Z" stroke="#0A1119" stroke-linecap="round" stroke-linejoin="round"/>
<path d="M25.0599 19.7873C24.4007 20.0387 23.692 20.2631 22.945 20.4603C22.3446 20.6188 21.7195 20.7581 21.0698 20.8782C21.0081 20.8896 20.9463 20.9008 20.8843 20.9119C20.1177 21.0478 19.3224 21.157 18.501 21.2338C17.5526 21.3225 16.5716 21.3695 15.5674 21.3715C15.545 21.3996 15.5226 21.4269 15.5002 21.4548C15.9787 22.0545 16.4909 22.6216 17.0339 23.1529C17.1183 23.2347 17.2027 23.3168 17.2867 23.3945C18.0778 23.3513 18.8481 23.2804 19.5978 23.1818C20.1135 23.1145 20.6173 23.0352 21.1092 22.9438C21.7758 22.8198 22.417 22.6751 23.0331 22.5097C23.8481 22.2939 24.6508 22.0268 25.437 21.7095C28.541 20.4438 30.5001 18.5958 30.5001 16.5361V14.4634C30.5001 16.6057 28.3828 18.5201 25.0599 19.7873Z" stroke="#0A1119" stroke-linecap="round" stroke-linejoin="round"/>
<path d="M19.5978 7.81785C19.2861 7.36817 18.9708 6.9356 18.6517 6.52015C18.2193 5.95728 17.7828 5.42848 17.3424 4.93374C16.7623 4.27755 16.1472 3.65869 15.5002 3.08034C12.9355 0.803557 10.4774 -0.108851 8.82948 0.921019L7.17114 1.95736C8.88519 0.886191 11.4755 1.91373 14.1509 4.39499C14.6817 4.88723 15.2155 5.43932 15.7468 6.04101C16.1738 6.52456 16.5978 7.04084 17.0188 7.58985C17.0587 7.64199 17.0986 7.69433 17.1385 7.74686C17.6305 8.39753 18.1155 9.08853 18.5876 9.82001C19.1328 10.6647 19.6609 11.5608 20.1647 12.5011C20.176 12.5222 20.1876 12.5426 20.1989 12.5636C20.2101 12.5847 20.2206 12.6058 20.2318 12.6269C20.2431 12.5919 20.2538 12.5573 20.2648 12.5224C20.5054 11.7741 20.703 11.0104 20.8566 10.2357C20.8799 10.1157 20.9034 9.99552 20.9236 9.87793C20.4934 9.15801 20.0515 8.47132 19.5978 7.81785Z" stroke="#0A1119" stroke-linecap="round" stroke-linejoin="round"/>
<path d="M23.8287 1.95773L22.1704 0.921387C23.8844 1.99254 24.3575 4.93444 23.7099 8.68296C23.5815 9.42661 23.4067 10.2031 23.191 11.002C23.0176 11.644 22.8165 12.2996 22.5877 12.9687C22.566 13.0323 22.5441 13.0958 22.5219 13.1595C22.2473 13.946 21.936 14.7444 21.5878 15.5545C21.1846 16.4878 20.7316 17.431 20.2312 18.3733C20.2425 18.4083 20.2532 18.443 20.2642 18.4779C20.9832 18.3292 21.6931 18.1326 22.3897 17.8892C22.4974 17.851 22.6053 17.813 22.7094 17.7731C23.0703 17.0099 23.3988 16.2524 23.6948 15.5004C23.8988 14.9833 24.0872 14.4714 24.26 13.9646C24.4942 13.2778 24.6991 12.6043 24.8747 11.9441C25.1096 11.0722 25.2972 10.1861 25.4365 9.29053C25.9757 5.74799 25.4767 2.98757 23.8287 1.95773Z" stroke="#0A1119" stroke-linecap="round" stroke-linejoin="round"/>
<path d="M22.171 0.921007C20.5231 -0.108839 18.065 0.803555 15.5002 3.08032C16.1472 3.65868 16.7623 4.27754 17.3424 4.93373C18.3625 4.40042 19.2734 4.29573 19.9584 4.72379C20.3019 4.94823 20.5746 5.28005 20.7405 5.67554C21.0336 6.42691 21.1598 7.24217 21.1092 8.05591C21.0916 8.66759 21.0296 9.27682 20.9236 9.87794C20.9034 9.99552 20.8799 10.1157 20.8566 10.2357C20.703 11.0104 20.5054 11.7741 20.2648 12.5224C20.2538 12.5573 20.2431 12.5919 20.2318 12.6269C19.9136 13.608 19.541 14.5674 19.116 15.5C18.8559 16.0724 18.5722 16.6496 18.2641 17.2272C17.9561 17.8048 17.6361 18.3594 17.3081 18.8894C18.2667 18.8215 19.2206 18.691 20.1647 18.4988C20.176 18.4778 20.1876 18.4574 20.1988 18.4363C20.2101 18.4152 20.2206 18.394 20.2318 18.3729C20.7322 17.4306 21.1852 16.4874 21.5884 15.5541C21.9376 14.7458 22.249 13.9474 22.5225 13.1591C22.5448 13.0954 22.5667 13.0318 22.5883 12.9684C22.817 12.3004 23.0181 11.6448 23.1916 11.0016C23.4073 10.2028 23.5821 9.42624 23.7105 8.68259C24.3581 4.93407 23.885 1.99216 22.171 0.921007Z" stroke="#0A1119" stroke-linecap="round" stroke-linejoin="round"/>
<path d="M25.4367 21.7098C24.6505 22.0271 23.8478 22.2942 23.0327 22.51C22.9494 23.7328 22.5777 24.639 21.8927 25.0671C21.5414 25.2769 21.1395 25.3666 20.7402 25.3244C19.9925 25.2234 19.2771 24.9342 18.6513 24.4798C18.1707 24.1575 17.7143 23.7947 17.2864 23.3948C17.2024 23.3171 17.118 23.235 17.0336 23.1531C16.4905 22.6218 15.9783 22.0547 15.4999 21.4551C15.4775 21.4272 15.4551 21.3999 15.4328 21.3719C14.8069 20.583 14.2256 19.754 13.692 18.8894C13.364 18.3594 13.0454 17.8053 12.736 17.2272C12.4279 16.6497 12.1442 16.0724 11.8841 15.5C11.4591 16.4325 11.0865 17.3919 10.7683 18.373C10.7795 18.3941 10.7901 18.4152 10.8013 18.4363C10.8125 18.4574 10.8242 18.4778 10.8355 18.4989C11.3392 19.4392 11.8674 20.3353 12.4125 21.1799C12.8847 21.9114 13.3696 22.6024 13.8617 23.2531C13.9015 23.3058 13.9414 23.3581 13.9814 23.4101C14.4015 23.9585 14.8255 24.4748 15.2533 24.9589C15.7846 25.5606 16.3185 26.1127 16.8492 26.605C19.5246 29.0863 22.1149 30.1138 23.829 29.0426C25.4769 28.0128 25.9759 25.2524 25.4367 21.7098Z" stroke="#0A1119" stroke-linecap="round" stroke-linejoin="round"/>
<path d="M15.5669 9.62818C15.5445 9.62812 15.5224 9.62744 15.4999 9.62744C15.4774 9.62744 15.4552 9.6282 15.4327 9.62824C14.4285 9.63029 13.4475 9.6773 12.4991 9.76599C11.6778 9.8428 10.8824 9.95193 10.1158 10.0878C10.0537 10.0988 9.9919 10.1101 9.93031 10.1215C9.2815 10.2411 8.65644 10.3804 8.05514 10.5394C7.30809 10.7366 6.59941 10.961 5.94016 11.2125C2.6173 12.4797 0.5 14.3941 0.5 16.5364C0.499981 18.5961 2.45903 20.4441 5.56303 21.7099C5.7023 20.8143 5.88989 19.9282 6.12483 19.0563C5.1881 18.3668 4.6489 17.5652 4.6489 16.7091C4.65668 16.2748 4.78582 15.8533 5.01931 15.5001C5.47394 14.8497 6.06308 14.3237 6.73947 13.9643C7.23764 13.6749 7.75612 13.4285 8.29007 13.2273C8.39424 13.1874 8.50211 13.1493 8.60985 13.1112C9.30645 12.8678 10.0163 12.6712 10.7353 12.5225C10.7687 12.5155 10.8018 12.5081 10.8354 12.5012C11.7795 12.309 12.7334 12.1786 13.692 12.1106C14.28 12.0682 14.8837 12.0456 15.4999 12.0456C16.116 12.0455 16.7197 12.0682 17.3077 12.1106C16.7741 11.246 16.1928 10.417 15.5669 9.62818Z" stroke="#0A1119" stroke-linecap="round" stroke-linejoin="round"/>
</svg>
