<svg width="50" height="50" viewBox="0 0 50 50" fill="none" xmlns="http://www.w3.org/2000/svg">
<path d="M14.9724 5.75977C20.5185 0.213687 29.5932 0.325404 35.241 5.97266L40.6697 11.4023C40.6845 11.4171 40.6998 11.4315 40.7146 11.4463L44.241 14.9727C49.7872 20.5189 49.6748 29.5936 44.0271 35.2412L38.6433 40.626C38.6133 40.6565 38.5838 40.6875 38.5535 40.7178L35.0271 44.2441C29.4808 49.7902 20.4062 49.6778 14.7585 44.0303L9.28491 38.5566C9.27843 38.5502 9.27344 38.5419 9.26733 38.5352L5.75854 35.0264C0.212409 29.4803 0.324146 20.4055 5.97144 14.7578L11.446 9.28418C11.4495 9.28077 11.4533 9.27772 11.4568 9.27441L14.9724 5.75977ZM30.4011 16.502C28.6745 16.521 27.0257 17.2157 25.8054 18.4346L31.9578 24.5859C31.9618 24.5897 31.9665 24.5928 31.9705 24.5967L32.3113 24.9365C32.814 25.4285 33.2402 25.9835 33.5876 26.5811C33.6056 26.6119 33.6238 26.6427 33.6414 26.6738C33.7448 26.8575 33.8405 27.0451 33.9285 27.2363C33.9385 27.2582 33.9489 27.2798 33.9587 27.3018C34.0477 27.5 34.1279 27.7021 34.2 27.9072C34.2067 27.9264 34.2129 27.9457 34.2195 27.9648C34.2518 28.0593 34.2826 28.1543 34.3113 28.25C34.3191 28.276 34.3272 28.302 34.3347 28.3281C34.3595 28.4139 34.3823 28.5002 34.4041 28.5869C34.4086 28.6048 34.4133 28.6227 34.4177 28.6406C34.47 28.8551 34.5138 29.0719 34.5476 29.291C34.5499 29.306 34.5522 29.321 34.5544 29.3359C34.6058 29.6823 34.6355 30.0336 34.6394 30.3877C34.644 30.8035 34.6134 31.216 34.5525 31.6221C34.3131 33.223 33.5776 34.7206 32.4314 35.8926L29.5535 38.7705C25.4096 42.9142 19.2962 43.8986 14.114 41.7764L15.5632 43.2256C20.7832 48.4454 29.1372 48.5236 34.2224 43.4385L37.739 39.9209C37.7423 39.9174 37.7454 39.9136 37.7488 39.9102C40.4578 37.2011 41.781 33.6478 41.7175 30.1455C41.715 30.008 41.7107 29.8707 41.7039 29.7334C41.6939 29.5306 41.6793 29.3281 41.6599 29.126C41.6298 28.8124 41.5885 28.5001 41.5359 28.1895C41.5144 28.0622 41.4909 27.9352 41.4656 27.8086C40.9834 25.3963 39.8164 23.1077 37.9626 21.2539L35.0935 18.3848L34.8533 18.1621C33.6294 17.0783 32.0436 16.484 30.4011 16.502ZM6.7771 15.5625C1.55734 20.7824 1.47822 29.1357 6.56323 34.2207L10.0896 37.7471C15.3095 42.9669 23.6636 43.0468 28.7488 37.9619L31.6228 35.0879C32.6494 34.0362 33.2884 32.678 33.4558 31.2334C33.4874 30.9593 33.5038 30.6821 33.5007 30.4033C33.4816 28.6754 32.7859 27.0252 31.5652 25.8047L25.4109 31.96C25.4076 31.9635 25.4055 31.9683 25.4021 31.9717L25.0574 32.3164C23.6213 33.7816 21.6627 34.6181 19.6111 34.6406C17.5576 34.6632 15.5794 33.8684 14.1111 32.4326L11.2322 29.5537C10.5903 28.9118 10.0254 28.2218 9.53491 27.4961C9.52586 27.4827 9.51657 27.4695 9.50757 27.4561C9.3228 27.1806 9.14818 26.9005 8.98511 26.6152C8.96716 26.5838 8.95006 26.552 8.93237 26.5205C8.78157 26.2519 8.64026 25.9793 8.50854 25.7031C8.48998 25.6642 8.47205 25.625 8.45386 25.5859C8.24905 25.146 8.06767 24.6977 7.91089 24.2422C7.90439 24.2233 7.89778 24.2045 7.89136 24.1855C7.84254 24.0417 7.79673 23.8971 7.75269 23.752C7.74508 23.7269 7.73769 23.7018 7.73022 23.6768C7.54407 23.051 7.40122 22.4145 7.30347 21.7715C7.29673 21.7272 7.29025 21.683 7.28394 21.6387C7.26853 21.5304 7.25486 21.422 7.24194 21.3135C7.23547 21.2591 7.22826 21.2048 7.22241 21.1504C7.20751 21.0116 7.19516 20.8726 7.18433 20.7334C7.18227 20.707 7.18038 20.6807 7.17847 20.6543C7.15665 20.3524 7.14407 20.0499 7.14136 19.7471C7.14085 19.6917 7.14122 19.6364 7.14136 19.5811C7.14211 19.2884 7.15111 18.9956 7.16968 18.7031C7.17302 18.6504 7.17748 18.5977 7.1814 18.5449C7.18984 18.4316 7.19957 18.3183 7.21069 18.2051C7.21436 18.1677 7.21747 18.1302 7.22144 18.0928C7.23502 17.9647 7.25032 17.8368 7.26733 17.709C7.27917 17.62 7.2929 17.5312 7.3064 17.4424C7.31863 17.3619 7.33089 17.2815 7.34448 17.2012C7.35143 17.1601 7.35867 17.1191 7.36597 17.0781C7.39107 16.9372 7.41869 16.7966 7.448 16.6562C7.46119 16.593 7.47497 16.5299 7.48901 16.4668C7.50877 16.3781 7.5291 16.2896 7.55054 16.2012C7.57037 16.1193 7.59078 16.0376 7.61206 15.9561C7.6386 15.8544 7.66531 15.7526 7.69409 15.6514C7.71033 15.5942 7.72792 15.5375 7.74487 15.4805C7.77126 15.3918 7.79781 15.3031 7.82593 15.2148C7.84281 15.1618 7.8592 15.1086 7.87671 15.0557C7.92044 14.9236 7.96678 14.7922 8.0144 14.6611C8.03648 14.6004 8.05986 14.54 8.08276 14.4795C8.1109 14.4051 8.1393 14.3308 8.1687 14.2568C8.18768 14.2091 8.20584 14.1609 8.22534 14.1133L6.7771 15.5625ZM39.9099 12.252C34.6899 7.03219 26.3359 6.953 21.2507 12.0381L18.3777 14.9121C17.3236 15.9921 16.6768 17.3948 16.531 18.8828C16.5079 19.1196 16.4961 19.3585 16.4988 19.5986C16.5023 19.9144 16.5282 20.2277 16.5759 20.5361C16.6133 20.7778 16.6658 21.0161 16.7292 21.251C17.0282 22.3547 17.6104 23.3712 18.4314 24.1934L24.5974 18.0293L24.9421 17.6836C26.3781 16.2186 28.337 15.383 30.3884 15.3604C32.3137 15.3392 34.1734 16.0363 35.6082 17.3066L35.8894 17.5684L38.7673 20.4463C38.8355 20.5145 38.9011 20.5851 38.9675 20.6543C38.9924 20.6802 39.0171 20.7063 39.0417 20.7324C39.1069 20.8014 39.1716 20.8705 39.2351 20.9404C39.2773 20.9869 39.3186 21.0341 39.3601 21.0811C39.4803 21.2171 39.5977 21.3546 39.7117 21.4941C39.7172 21.501 39.7227 21.5078 39.7283 21.5146C39.7963 21.5982 39.8637 21.6819 39.9294 21.7666C39.9674 21.8155 40.0045 21.8648 40.0417 21.9141C40.1369 22.0401 40.2297 22.1674 40.3201 22.2959C40.3478 22.3353 40.3758 22.3744 40.4031 22.4141C40.4505 22.483 40.4967 22.5525 40.5427 22.6221C40.5743 22.6698 40.6056 22.7176 40.6365 22.7656C40.7161 22.8894 40.7936 23.014 40.8689 23.1396C40.9014 23.1939 40.9338 23.2481 40.9656 23.3027C41.01 23.3792 41.0536 23.456 41.0964 23.5332C41.1229 23.5809 41.1487 23.6289 41.1746 23.6768C41.2313 23.7817 41.2868 23.8871 41.3406 23.9932C41.3776 24.0662 41.4142 24.1393 41.45 24.2129C41.4883 24.292 41.5255 24.3715 41.5623 24.4512C41.5891 24.5093 41.6153 24.5676 41.6414 24.626C41.6881 24.7311 41.734 24.8364 41.7781 24.9424C41.8151 25.0313 41.8514 25.1204 41.8865 25.21C41.9077 25.2642 41.9284 25.3186 41.949 25.373C41.9841 25.4662 42.0184 25.5596 42.0515 25.6533C42.0693 25.7038 42.088 25.754 42.1052 25.8047C42.1506 25.9378 42.1929 26.0718 42.2341 26.2061C42.2476 26.2499 42.2602 26.2939 42.2732 26.3379C42.358 26.6239 42.4334 26.9121 42.4998 27.2021C42.5089 27.2422 42.5183 27.2822 42.5271 27.3223C42.6679 27.9635 42.7642 28.6131 42.8152 29.2666C42.8166 29.2842 42.8178 29.3018 42.8191 29.3193C42.9835 31.5307 42.6344 33.7818 41.7761 35.8809L43.2224 34.4365C48.4424 29.2166 48.5215 20.8625 43.4363 15.7773L39.9148 12.2559C39.9133 12.2544 39.9114 12.2534 39.9099 12.252ZM34.4363 6.77734C29.2163 1.55782 20.8621 1.47946 15.7771 6.56445L12.2507 10.0908C9.64086 12.7008 8.31653 16.0942 8.28003 19.4707V19.7852C8.32266 23.0545 9.57376 26.285 12.0369 28.748L14.906 31.6172L15.1453 31.8398C16.3692 32.9236 17.9559 33.518 19.5984 33.5C20.6894 33.488 21.7495 33.2056 22.6902 32.6924C23.2375 32.3932 23.7442 32.0158 24.1931 31.5674L17.6843 25.0586C17.3329 24.7142 17.0184 24.3391 16.7419 23.9404C16.6862 23.86 16.6334 23.7777 16.5808 23.6953C16.4394 23.474 16.309 23.2465 16.1912 23.0127C16.1347 22.9007 16.081 22.7874 16.03 22.6729C15.965 22.5265 15.9033 22.3787 15.8474 22.2285C15.6995 21.8312 15.5859 21.4212 15.5046 21.0029C15.4162 20.5476 15.3663 20.0826 15.3611 19.6123C15.3567 19.2155 15.3838 18.8217 15.4392 18.4336C15.6702 16.8128 16.4093 15.2952 17.5681 14.1104L20.446 11.2324C20.5638 11.1146 20.6835 10.9994 20.8044 10.8867C20.8291 10.8638 20.8539 10.8411 20.8787 10.8184C21.1168 10.5996 21.3608 10.3906 21.6101 10.1914C21.6442 10.1642 21.6784 10.1372 21.7126 10.1104C21.9672 9.9108 22.2271 9.72138 22.4919 9.54199C22.516 9.52568 22.54 9.50931 22.5642 9.49316C22.8351 9.31213 23.111 9.14153 23.3914 8.98145C23.4086 8.97161 23.4259 8.9619 23.4431 8.95215C24.0334 8.61848 24.6432 8.33118 25.2673 8.08984C25.2889 8.08152 25.3102 8.07267 25.3318 8.06445C25.6333 7.9496 25.9383 7.84634 26.2458 7.75293C26.2663 7.74671 26.2868 7.7405 26.3074 7.73438C26.7848 7.59173 27.2684 7.47396 27.7566 7.38281C27.7654 7.38117 27.7742 7.37955 27.783 7.37793C30.4741 6.88072 33.2943 7.16541 35.8826 8.22461L34.4363 6.77734ZM19.2351 25L24.9988 30.7637L30.7615 25L24.9978 19.2363L19.2351 25Z" fill="#0A1119"/>
</svg>
