<svg width="50" height="50" viewBox="0 0 50 50" fill="none" xmlns="http://www.w3.org/2000/svg">
<path d="M24.7911 3.01953C24.9028 3.01955 25.0068 3.07905 25.0626 3.17578L30.5284 12.6768C34.4513 14.0482 37.7546 16.7911 39.8351 20.4072C41.9156 24.0235 42.6319 28.2694 41.8585 32.3711L47.3546 41.9219C47.4101 42.0185 47.4094 42.1379 47.3536 42.2344C47.2978 42.3308 47.1946 42.3896 47.0831 42.3896H36.0597C34.1653 44.0115 31.9469 45.2077 29.5529 45.8936C27.1214 46.59 24.5676 46.7449 22.0704 46.3477C19.5731 45.9503 17.1916 45.0101 15.0929 43.5928C14.5443 43.2223 14.0196 42.8203 13.5187 42.3916H2.50012C2.38856 42.3916 2.28547 42.3319 2.22961 42.2354C2.17393 42.139 2.17342 42.0204 2.22864 41.9238L7.72375 32.3721C7.25862 29.9044 7.32896 27.3642 7.93176 24.9258C8.54397 22.4495 9.68974 20.1385 11.2882 18.1562C12.8869 16.1738 14.8998 14.5686 17.1837 13.4541C17.7934 13.1566 18.4187 12.8967 19.0558 12.6738L24.5206 3.17578L24.5441 3.1416C24.6026 3.06546 24.6935 3.01968 24.7911 3.01953ZM10.2433 37.4443L10.2404 37.4482C10.3107 37.5736 10.3803 37.6974 10.4532 37.8184C11.3666 39.3298 12.5107 40.6882 13.8429 41.8428C13.8463 41.8457 13.8484 41.8504 13.8517 41.8535C14.3566 42.2907 14.8877 42.6989 15.4435 43.0742C17.4667 44.4405 19.762 45.3475 22.1691 45.7305C24.576 46.1134 27.0373 45.9634 29.381 45.292C31.4482 44.6998 33.3802 43.7137 35.0734 42.3906H26.1759C25.2621 42.4856 24.3471 42.483 23.4445 42.3896H23.422C23.411 42.3896 23.3997 42.3898 23.3888 42.3887C20.9323 42.1268 18.6147 41.1802 16.6818 39.6807C16.6568 39.6614 16.6323 39.6415 16.6075 39.6221C16.0927 39.2167 15.6047 38.7734 15.1505 38.291C15.1285 38.2677 15.1059 38.2451 15.0841 38.2217C15.0746 38.2114 15.0643 38.2017 15.0548 38.1914C15.0521 38.1885 15.0505 38.1846 15.048 38.1816C13.9964 37.0426 13.1456 35.725 12.5402 34.2842L12.3448 33.791L10.2433 37.4443ZM21.3361 16.9092C18.7365 17.6527 16.4339 19.2142 14.7726 21.374L3.04016 41.7666H12.8263C11.7608 40.751 10.8248 39.6017 10.0431 38.3438L10.0118 38.293H9.57434C9.46281 38.293 9.35969 38.2333 9.30383 38.1367C9.24806 38.0402 9.24725 37.9209 9.30286 37.8242L21.3361 16.9092ZM41.5812 33.5928C41.5485 33.7168 41.516 33.8407 41.4806 33.9639C41.4399 34.1054 41.3979 34.2464 41.3536 34.3867C41.3173 34.5022 41.2782 34.6168 41.2394 34.7314C41.2147 34.8044 41.1908 34.8776 41.1652 34.9502C41.1221 35.0722 41.0772 35.1935 41.0314 35.3145C41.0061 35.3813 40.9804 35.4481 40.9542 35.5146C40.9072 35.6343 40.8593 35.7535 40.8097 35.8721C40.7751 35.9548 40.7392 36.0369 40.7032 36.1191C40.6588 36.2209 40.6149 36.3229 40.5685 36.4238C40.4879 36.5989 40.4049 36.7729 40.3185 36.9453C40.2762 37.0298 40.2304 37.1125 40.1866 37.1963C40.1441 37.2778 40.1035 37.3606 40.0597 37.4414L40.2804 37.8232C40.3359 37.9199 40.3351 38.0392 40.2794 38.1357C40.2235 38.2321 40.1203 38.292 40.0089 38.292H16.0323C16.5933 38.832 17.204 39.3236 17.8615 39.7559C19.5566 40.8703 21.4808 41.5527 23.4698 41.7646H46.5431L41.6632 33.2832C41.6379 33.3869 41.6084 33.4896 41.5812 33.5928ZM27.4064 16.7002C25.671 16.3308 23.8912 16.3349 22.1788 16.6973L12.756 33.0752C13.3184 34.7881 14.2305 36.3502 15.423 37.667H34.1573C35.3693 36.3344 36.274 34.7667 36.8263 33.0742L27.4064 16.7002ZM35.3312 21.0234C37.2415 23.5131 38.2111 26.6041 38.0665 29.7451C38.0404 30.3124 37.9769 30.8746 37.88 31.4287C37.8748 31.4584 37.8688 31.4879 37.8634 31.5176C37.8361 31.6676 37.8069 31.8171 37.7745 31.9658C37.7603 32.0315 37.7429 32.0966 37.7277 32.1621C37.7003 32.2793 37.6732 32.3964 37.6427 32.5127C37.6246 32.582 37.6043 32.6507 37.5851 32.7197C37.5551 32.8268 37.5249 32.9338 37.4923 33.04C37.4828 33.0711 37.4757 33.1028 37.4659 33.1338C37.464 33.14 37.4595 33.1453 37.4572 33.1514C36.9371 34.7953 36.103 36.3313 34.9884 37.666H39.2179C39.2889 37.5439 39.3597 37.4203 39.4298 37.2939C39.4996 37.1683 39.5655 37.0404 39.632 36.9131C39.8056 36.5805 39.9676 36.2425 40.1183 35.8994C40.242 35.6177 40.358 35.3329 40.4659 35.0449C40.6999 34.4207 40.8967 33.7827 41.0548 33.1338C41.1167 32.8797 41.1747 32.6244 41.2247 32.3672C42.0047 28.3774 41.3189 24.2382 39.2941 20.7188C37.4126 17.4486 34.4933 14.9203 31.0187 13.5283L35.3312 21.0234ZM19.9396 12.3906C20.997 12.0835 22.0822 11.8778 23.1808 11.7773C23.2227 11.7735 23.2648 11.7702 23.3068 11.7666C23.429 11.7563 23.5514 11.7479 23.674 11.7402C23.7488 11.7355 23.8236 11.7313 23.8986 11.7275C23.9857 11.7232 24.073 11.7198 24.1603 11.7168C24.2156 11.7148 24.2709 11.7114 24.3263 11.71L24.5206 11.373L24.5441 11.3389C24.6026 11.2626 24.6935 11.2169 24.7911 11.2168C24.9029 11.2168 25.0069 11.2762 25.0626 11.373L37.0665 32.2373C37.0746 32.2054 37.0831 32.1736 37.0909 32.1416C37.7126 29.5857 37.5291 26.8931 36.5548 24.4385C36.5405 24.4025 36.5275 24.366 36.5128 24.3301L24.7911 3.95898L19.9396 12.3906ZM24.5148 12.3311L23.9161 12.3506C22.3681 12.4302 20.8372 12.7257 19.3683 13.2295C19.3634 13.2312 19.3576 13.23 19.3527 13.2314C18.7071 13.4531 18.0738 13.7147 17.4572 14.0156C15.2559 15.0898 13.3157 16.6367 11.7745 18.5479C10.2333 20.4591 9.12857 22.6881 8.53821 25.0762C8.01699 27.1847 7.90845 29.3724 8.21497 31.5176L12.506 24.0596C13.6971 21.1565 15.8677 18.7673 18.6378 17.3135C21.2097 15.9637 24.1447 15.5006 26.9933 15.9834L26.9806 15.9619L24.8888 12.3252C24.8588 12.3242 24.8282 12.3242 24.7921 12.3242C24.6929 12.3242 24.6352 12.3291 24.5148 12.3311Z" fill="#0A1119"/>
</svg>
