<svg width="51" height="51" viewBox="0 0 51 51" fill="none" xmlns="http://www.w3.org/2000/svg">
<path d="M40.1783 20.9414L37.0223 17.7853C35.5282 16.3241 33.5149 15.5161 31.4252 15.5391C29.3354 15.562 27.3404 16.4141 25.8788 17.9078L25.5002 18.2863L32.7141 25.5001L33.0926 25.8786C34.5863 27.3402 35.4384 29.3353 35.4613 31.425C35.4843 33.5147 34.6763 35.528 33.215 37.0221L30.059 40.1781C24.2212 46.0159 14.6511 45.9108 8.68359 39.9433L14.6951 45.9548C20.6626 51.9223 30.2327 52.0274 36.0705 46.1896L39.9435 42.3167C45.911 36.3492 46.0162 26.7792 40.1783 20.9414Z" stroke="#0A1119" stroke-linecap="round" stroke-linejoin="round"/>
<path d="M10.822 30.0588L13.9781 33.2148C15.4721 34.676 17.4854 35.484 19.5752 35.4611C21.6649 35.4381 23.66 34.5861 25.1216 33.0923L25.5001 32.7138L18.2863 25.5L17.9078 25.1215C16.414 23.6599 15.562 21.6649 15.539 19.5751C15.5161 17.4854 16.324 15.4721 17.7853 13.978L20.9413 10.822C26.7792 4.9842 36.3492 5.08936 42.3168 11.0569L36.3052 5.04537C30.3377 -0.922134 20.7676 -1.02729 14.9298 4.8105L11.0569 8.68344C5.08938 14.6509 4.98419 24.221 10.822 30.0588Z" stroke="#0A1119" stroke-linecap="round" stroke-linejoin="round"/>
<path d="M30.0589 40.1781L33.2149 37.022C34.6762 35.528 35.4841 33.5147 35.4612 31.4249C35.4382 29.3352 34.5862 27.3401 33.0924 25.8785L32.7139 25.5L25.5001 32.7138L25.1216 33.0923C23.66 34.5861 21.6649 35.4381 19.5752 35.4611C17.4854 35.484 15.4721 34.676 13.9781 33.2148L10.822 30.0588C4.98419 24.221 5.08935 14.6509 11.0569 8.68344L5.04536 14.6949C-0.922171 20.6624 -1.02733 30.2325 4.81049 36.0702L8.68345 39.9432C14.651 45.9107 24.221 46.0159 30.0589 40.1781Z" stroke="#0A1119" stroke-linecap="round" stroke-linejoin="round"/>
<path d="M20.9411 10.8218L17.785 13.9779C16.3238 15.472 15.5158 17.4853 15.5387 19.575C15.5617 21.6647 16.4138 23.6598 17.9075 25.1214L18.286 25.4999L25.4998 18.2861L25.8783 17.9076C27.3399 16.4138 29.335 15.5618 31.4247 15.5388C33.5145 15.5159 35.5278 16.3239 37.0219 17.7851L40.1779 20.9411C46.0157 26.7789 45.9106 36.349 39.943 42.3165L45.9546 36.305C51.9221 30.3375 52.0272 20.7675 46.1894 14.9297L42.3165 11.0567C36.349 5.08924 26.7789 4.98405 20.9411 10.8218Z" stroke="#0A1119" stroke-linecap="round" stroke-linejoin="round"/>
</svg>
