<svg width="50" height="50" viewBox="0 0 50 50" fill="none" xmlns="http://www.w3.org/2000/svg">
<path d="M30.71 3.72363C32.5459 3.15435 34.2797 3.17379 35.7061 3.99512C35.7213 4.00387 35.7359 4.01355 35.751 4.02246L38.2539 5.46289C39.6797 6.28403 40.5619 7.77142 40.9854 9.64062C41.3862 11.4101 41.3864 13.5658 41.0283 15.9512C43.2798 16.8349 45.1524 17.9147 46.4893 19.1465C47.9008 20.4473 48.7498 21.9533 48.75 23.5938V26.5293C48.75 28.1702 47.9003 29.6764 46.4883 30.9775C45.1514 32.2092 43.2788 33.2872 41.0273 34.1709C41.3863 36.5587 41.3865 38.7163 40.9854 40.4873C40.5619 42.3567 39.6797 43.8438 38.2539 44.665L35.7061 46.1318C34.2798 46.9531 32.5467 46.9725 30.7109 46.4033C28.9733 45.8645 27.1003 44.7874 25.208 43.2852C23.3158 44.7873 21.4436 45.8655 19.7061 46.4043C17.8701 46.9736 16.1363 46.9542 14.71 46.1328C14.703 46.1288 14.6964 46.1242 14.6895 46.1201L12.1631 44.6641C10.7375 43.8429 9.85507 42.3564 9.43164 40.4873C9.0305 38.7161 9.02869 36.5579 9.3877 34.1699C7.13651 33.2862 5.2644 32.2072 3.92773 30.9756C2.51571 29.6745 1.66701 28.1683 1.66699 26.5273V23.5967C1.66699 21.9558 2.51584 20.4495 3.92773 19.1484C5.2643 17.9169 7.13581 16.8367 9.38672 15.9531C9.02862 13.5674 9.0308 11.4113 9.43164 9.6416C9.85318 7.78079 10.7291 6.29805 12.1436 5.47461C12.1501 5.47045 12.1563 5.46581 12.1631 5.46191L14.7109 3.99512C16.1371 3.17392 17.8703 3.15447 19.7061 3.72363C21.4261 4.25704 23.2786 5.31827 25.1514 6.79688L25.208 6.8418C27.1001 5.33966 28.9725 4.26245 30.71 3.72363ZM21.458 20.8428C20.4202 20.9396 19.3871 21.0827 18.3613 21.2686C17.6053 22.582 16.92 23.8955 16.3105 25.1953L16.3115 25.1963C15.8377 26.2123 15.4102 27.2151 15.0264 28.2031C14.9812 28.3201 14.9345 28.4361 14.8906 28.5527V28.5537C14.857 28.6426 14.8228 28.7328 14.79 28.8213C14.713 29.0287 14.6393 29.2358 14.5664 29.4414C14.3928 29.9315 14.2301 30.4156 14.0801 30.8945C14.0091 31.1212 13.9407 31.3469 13.875 31.5713C13.5476 32.6883 13.2837 33.7715 13.0898 34.8057C12.9549 35.5255 12.8528 36.2213 12.7832 36.8896C12.743 37.2754 12.7138 37.6519 12.6953 38.0186C12.6296 39.3247 12.7011 40.5057 12.9102 41.5303C13.2797 43.3412 14.0633 44.6084 15.2129 45.2705C15.2145 45.2714 15.2162 45.2725 15.2178 45.2734C16.322 45.9071 17.7402 45.971 19.4072 45.4541C20.9431 44.9779 22.6488 44.0188 24.4209 42.6348C24.3657 42.5876 24.3117 42.5388 24.2568 42.4912C24.1827 42.427 24.1087 42.3627 24.0352 42.2979C23.8726 42.1545 23.7115 42.0097 23.5518 41.8633C23.4867 41.8036 23.421 41.7447 23.3564 41.6846C23.1568 41.4986 22.9597 41.31 22.7646 41.1191C22.673 41.0295 22.5828 40.9384 22.4922 40.8477C22.4167 40.7721 22.3404 40.6974 22.2656 40.6211C22.0749 40.7041 21.8841 40.7775 21.6953 40.8438C21.6749 40.8509 21.6542 40.8573 21.6338 40.8643C21.5524 40.892 21.4715 40.9189 21.3906 40.9434C21.3821 40.9459 21.3737 40.9487 21.3652 40.9512C21.279 40.9768 21.193 40.9997 21.1074 41.0215C21.082 41.0279 21.0566 41.0339 21.0312 41.04C20.9603 41.0571 20.8898 41.0736 20.8193 41.0879C20.7949 41.0928 20.7704 41.097 20.7461 41.1016C20.6676 41.1164 20.5895 41.1294 20.5117 41.1406C20.5046 41.1417 20.4974 41.1426 20.4902 41.1436C20.4096 41.1548 20.3297 41.1647 20.25 41.1719C20.2226 41.1743 20.1952 41.1758 20.168 41.1777C20.1051 41.1823 20.0427 41.1856 19.9805 41.1875C19.9494 41.1885 19.9185 41.1892 19.8877 41.1895C19.8238 41.1901 19.7604 41.1888 19.6973 41.1865C19.6738 41.1857 19.6503 41.1849 19.627 41.1836C19.5554 41.1797 19.4845 41.1738 19.4141 41.166C19.3978 41.1642 19.3815 41.1631 19.3652 41.1611C19.2889 41.1517 19.2136 41.1391 19.1387 41.125C19.127 41.1228 19.1152 41.1215 19.1035 41.1191C19.0239 41.1033 18.9451 41.0849 18.8672 41.0635C18.8613 41.0619 18.8555 41.0602 18.8496 41.0586C18.5926 40.9865 18.3443 40.8859 18.1084 40.75C18.1057 40.7484 18.1033 40.7458 18.1006 40.7441C17.4864 40.3743 16.9995 39.8277 16.7031 39.1768C16.7014 39.1729 16.6989 39.1689 16.6973 39.165C16.2192 38.0355 16.012 36.8101 16.0918 35.5869C16.0949 35.4883 16.1026 35.3896 16.1074 35.291C16.1314 34.7976 16.1761 34.3057 16.2432 33.8164C16.2834 33.5228 16.3282 33.2297 16.3838 32.9385C16.3842 32.9362 16.3843 32.9339 16.3848 32.9316C16.417 32.7583 16.4548 32.5812 16.4902 32.4131C16.7304 31.2965 17.0398 30.1948 17.416 29.1162C17.4296 29.0768 17.4502 29.0151 17.4668 28.9678C17.5907 28.6157 17.72 28.2651 17.8545 27.917C18.1651 27.113 18.5051 26.3206 18.8711 25.54C18.9801 25.3077 19.0903 25.0758 19.2041 24.8457L19.5146 24.2305C19.8317 23.6132 20.1692 22.9925 20.5283 22.3721C20.831 21.8491 21.142 21.3389 21.458 20.8428ZM18.0703 30.333C17.8578 31.0185 17.6741 31.7126 17.5176 32.4131C17.5021 32.4821 17.4856 32.5509 17.4707 32.6201C17.4572 32.6842 17.4445 32.7474 17.4316 32.8096C17.4243 32.8466 17.4165 32.8836 17.4092 32.9199C17.5541 33.1417 17.7002 33.3609 17.8467 33.5781C18.3284 34.2905 18.8177 34.9779 19.3154 35.6396C19.3165 35.6411 19.3173 35.643 19.3184 35.6445C19.7897 36.2711 20.2662 36.8737 20.748 37.4521C20.7495 37.4539 20.7515 37.4553 20.7529 37.457C21.4114 38.246 22.0742 38.9857 22.7402 39.6758C22.7413 39.6769 22.7421 39.6786 22.7432 39.6797C22.9021 39.8453 23.0642 40.0077 23.2266 40.1699C23.9604 40.9029 24.7275 41.6019 25.5283 42.2617C25.5293 42.2626 25.5302 42.2638 25.5312 42.2646L25.8896 42.5527C27.6993 43.9813 29.4426 44.9674 31.0088 45.4531C32.6426 45.9597 34.0364 45.9073 35.1309 45.3086C35.1094 45.307 35.088 45.3036 35.0664 45.3018C34.9935 45.2955 34.9202 45.2888 34.8467 45.2803C34.7979 45.2746 34.7492 45.2674 34.7002 45.2607C34.6508 45.2541 34.6014 45.2469 34.5518 45.2393C34.4979 45.2309 34.4438 45.2224 34.3896 45.2129C34.3222 45.201 34.2544 45.1885 34.1865 45.1748C34.1255 45.1625 34.0643 45.1495 34.0029 45.1357C33.9403 45.1217 33.8774 45.1073 33.8145 45.0918C33.7621 45.0789 33.7098 45.0647 33.6572 45.0508C33.5939 45.034 33.5304 45.0172 33.4668 44.999C33.4295 44.9883 33.3919 44.978 33.3545 44.9668C33.2487 44.9352 33.1426 44.9017 33.0361 44.8662C31.117 44.2258 29.0385 42.9426 26.9541 41.1611C26.9508 41.1583 26.9477 41.1552 26.9443 41.1523C26.7684 41.0018 26.5931 40.8464 26.417 40.6885C26.3391 40.6186 26.2615 40.5478 26.1836 40.4766C26.0709 40.3735 25.9583 40.269 25.8457 40.1631C25.7705 40.0924 25.6952 40.0212 25.6201 39.9492C25.4426 39.7792 25.2641 39.6065 25.0869 39.4297L24.4668 38.7969C23.801 38.1025 23.1416 37.3628 22.4893 36.5781C22.4684 36.5531 22.4476 36.5281 22.4268 36.5029C22.3858 36.4536 22.3446 36.4042 22.3037 36.3545V36.3535C21.5401 35.4229 20.7873 34.4346 20.0547 33.3887C19.8727 33.1288 19.692 32.8652 19.5127 32.5986C19.4503 32.5059 19.3892 32.4119 19.3271 32.3184C19.2239 32.1626 19.1199 32.0065 19.0176 31.8486C18.8986 31.6652 18.7817 31.4793 18.6641 31.293C18.628 31.2358 18.5906 31.1795 18.5547 31.1221L18.5137 31.0557C18.3803 30.8421 18.2486 30.6263 18.1172 30.4092L18.0703 30.333ZM19.6689 26.1953C19.4428 26.6865 19.2282 27.1829 19.0244 27.6836C18.8365 28.1458 18.6579 28.6123 18.4893 29.082C19.2523 30.3932 20.0524 31.642 20.877 32.8193C21.2358 33.3317 21.5994 33.8304 21.9668 34.3145C22.3342 34.7983 22.7053 35.2681 23.0791 35.7236H23.0801C23.1405 35.7972 23.2012 35.8707 23.2617 35.9434V35.9443L23.7422 36.5117C24.1705 37.0093 24.6015 37.4853 25.0332 37.9414C25.0865 37.9977 25.139 38.0547 25.1924 38.1104C25.3938 38.3206 25.5953 38.5265 25.7969 38.7275C26.2002 39.1301 26.6038 39.5136 27.0059 39.877C27.2068 40.0585 27.4072 40.2351 27.6074 40.4062C28.3669 41.0553 29.1186 41.6296 29.8535 42.125C31.0781 42.9504 32.2572 43.5567 33.3545 43.9229C35.0005 44.4721 36.4141 44.4686 37.5312 43.9209C37.6059 43.8843 37.679 43.8451 37.751 43.8037C38.8563 43.1671 39.6232 41.9708 40.0088 40.2686C40.3632 38.7033 40.3828 36.7505 40.0674 34.5283C40 34.552 39.9318 34.5735 39.8643 34.5967C39.7738 34.6278 39.6835 34.6591 39.5928 34.6895C39.3392 34.7743 39.0846 34.8557 38.8291 34.9346C38.8137 34.9393 38.7986 34.9455 38.7832 34.9502C38.2739 35.1065 37.7606 35.251 37.2441 35.3828C37.2387 35.4309 37.2317 35.4788 37.2256 35.5264C37.2191 35.5764 37.2143 35.6264 37.207 35.6758C37.1997 35.7256 37.1908 35.775 37.1826 35.8242C37.1476 36.0352 37.1037 36.24 37.0527 36.4385C37.0426 36.478 37.0333 36.5176 37.0225 36.5566C37.0135 36.5891 37.0036 36.6212 36.9941 36.6533C36.9737 36.7229 36.9523 36.7916 36.9297 36.8594C36.9208 36.8859 36.9116 36.9122 36.9023 36.9385C36.8801 37.002 36.8563 37.0643 36.832 37.126C36.8193 37.1585 36.8063 37.1907 36.793 37.2227C36.7702 37.2774 36.7471 37.3316 36.7227 37.3848C36.7063 37.4204 36.689 37.4553 36.6719 37.4902C36.6497 37.5355 36.6269 37.58 36.6035 37.624C36.584 37.6607 36.5634 37.6966 36.543 37.7324C36.5201 37.7725 36.4976 37.8126 36.4736 37.8516C36.4546 37.8824 36.4357 37.9132 36.416 37.9434C36.3804 37.9979 36.3426 38.0504 36.3047 38.1025C36.2889 38.1242 36.273 38.1457 36.2568 38.167C36.2222 38.2125 36.187 38.2572 36.1504 38.3008C36.1287 38.3266 36.1064 38.3518 36.084 38.377C36.0407 38.4256 35.9961 38.4726 35.9502 38.5186C35.9381 38.5306 35.9263 38.5428 35.9141 38.5547C35.8579 38.6092 35.8001 38.6616 35.7402 38.7119C35.7326 38.7183 35.7254 38.7251 35.7178 38.7314C35.5813 38.844 35.4358 38.947 35.2793 39.0371C35.2767 39.0386 35.2741 39.0406 35.2715 39.042C34.6431 39.3878 33.9236 39.5354 33.209 39.4658C33.2046 39.4654 33.1997 39.4654 33.1953 39.4648C31.9763 39.3131 30.8098 38.8797 29.7881 38.2002C29.7869 38.1995 29.7853 38.199 29.7842 38.1982C29.0237 37.7282 28.3012 37.1994 27.624 36.6162C27.6209 36.6135 27.6183 36.6102 27.6152 36.6074L27.2285 36.2666L27.2275 36.2656C26.3785 35.5001 25.5772 34.6833 24.8291 33.8193C24.8006 33.7867 24.7585 33.7394 24.7246 33.7002V33.6992C24.6464 33.6084 24.5705 33.5154 24.4932 33.4238C24.4185 33.3353 24.3444 33.2464 24.2705 33.1572C24.1162 32.9709 23.9641 32.783 23.8135 32.5938C23.7483 32.5118 23.6827 32.4302 23.6182 32.3477C23.532 32.2374 23.4463 32.1268 23.3613 32.0156C23.233 31.8477 23.1059 31.6789 22.9805 31.5088C22.9031 31.4039 22.8272 31.2981 22.751 31.1924C22.6657 31.0741 22.581 30.9553 22.4971 30.8359C22.4417 30.7571 22.3839 30.6798 22.3291 30.6006L22.0146 30.1377C21.5047 29.3781 21.0096 28.584 20.5293 27.7568C20.2276 27.2356 19.9409 26.7146 19.6689 26.1953ZM17.0654 21.5303C16.2947 21.7052 15.5318 21.914 14.7793 22.1562C14.6799 22.1887 14.5836 22.2213 14.4893 22.2529C14.2343 22.7544 13.9892 23.2534 13.7559 23.751C13.6227 24.0354 13.4942 24.3196 13.3682 24.6025C13.2706 24.8215 13.1743 25.0405 13.0811 25.2588C12.7721 25.9806 12.4863 26.6947 12.2246 27.4014C12.2237 27.4039 12.2236 27.4067 12.2227 27.4092C12.1234 27.678 12.0279 27.9454 11.9355 28.2109C11.8366 28.4955 11.7423 28.7785 11.6514 29.0596C11.541 29.4003 11.4364 29.7382 11.3379 30.0732C11.322 30.1274 11.3047 30.1813 11.2891 30.2354V30.2373C10.9337 31.4528 10.6501 32.688 10.4395 33.9365C10.0319 36.4046 10.0226 38.5658 10.4082 40.2686C10.7849 41.9317 11.5262 43.1098 12.5908 43.7568C12.5464 43.6645 12.504 43.5703 12.4629 43.4746C12.4492 43.4426 12.4362 43.4103 12.4229 43.3779C12.3986 43.3192 12.3746 43.2601 12.3516 43.2002C12.3347 43.1562 12.318 43.112 12.3018 43.0674C12.2803 43.0084 12.2596 42.9487 12.2393 42.8887C12.2178 42.8254 12.1969 42.7617 12.1768 42.6973C12.1554 42.6292 12.1351 42.5605 12.1152 42.4912C12.1051 42.4559 12.0948 42.4204 12.085 42.3848C12.0263 42.1713 11.9735 41.9519 11.9277 41.7275C11.9226 41.7023 11.9191 41.6767 11.9141 41.6514C11.7393 40.7621 11.6601 39.782 11.6719 38.7285C11.6731 38.6186 11.6745 38.5079 11.6777 38.3965C11.6989 37.6603 11.7633 36.8905 11.8691 36.0928C11.8975 35.8789 11.9295 35.6631 11.9639 35.4453C12.0066 35.1746 12.0527 34.9004 12.1045 34.624C12.3052 33.5532 12.5777 32.4373 12.9131 31.293C13.1829 30.3711 13.4947 29.4319 13.8496 28.4766L13.9531 28.2031C13.9826 28.1254 14.014 28.0476 14.0439 27.9697C14.4469 26.9176 14.8984 25.8533 15.4023 24.7783C15.4509 24.6748 15.5023 24.5724 15.5518 24.4688C15.6442 24.275 15.7363 24.08 15.832 23.8857C15.8947 23.7585 15.9584 23.6313 16.0225 23.5039C16.1154 23.3191 16.2099 23.1343 16.3057 22.9492C16.3739 22.8174 16.4431 22.6857 16.5127 22.5537C16.6103 22.3689 16.7092 22.184 16.8096 21.999C16.8768 21.8751 16.9442 21.7509 17.0127 21.627C17.0304 21.5948 17.0476 21.5624 17.0654 21.5303ZM20.2646 38.4268C19.5523 38.8467 18.7789 39.1526 17.9727 39.333C18.1544 39.5524 18.3715 39.7418 18.6182 39.8906C19.335 40.3 20.3148 40.3039 21.5234 39.8447C21.1008 39.3908 20.6819 38.9175 20.2646 38.4268ZM36.1982 35.6348C35.5935 35.7727 34.9738 35.8978 34.3398 36.0127C34.3487 36.839 34.2273 37.6607 33.9805 38.4482C34.2596 38.401 34.5303 38.3085 34.7812 38.1709C34.8277 38.144 34.8734 38.1155 34.918 38.085C35.5601 37.6448 36.0057 36.828 36.1982 35.6348ZM17.0791 36.1807C17.0882 36.9429 17.2222 37.6986 17.4795 38.417C18.2309 38.2804 18.9526 38.018 19.6182 37.6455C19.2903 37.2418 18.9641 36.8284 18.6416 36.4033C18.1124 36.3374 17.5918 36.2618 17.0791 36.1807ZM33.3359 36.1846C32.8237 36.2655 32.3033 36.3366 31.7754 36.4023C31.4522 36.8283 31.128 37.2444 30.7998 37.6484C31.4644 38.0201 32.1854 38.2805 32.9355 38.417C33.1927 37.6998 33.3262 36.9455 33.3359 36.1846ZM30.3486 36.5596C30.0447 36.5887 29.7387 36.6157 29.4307 36.6396C29.3796 36.6436 29.3285 36.6485 29.2773 36.6523C29.3532 36.7078 29.4291 36.7632 29.5059 36.8174C29.5395 36.841 29.5727 36.8653 29.6064 36.8887C29.718 36.9661 29.8308 37.0417 29.9443 37.1162C30.0947 36.9321 30.2451 36.7456 30.3945 36.5566C30.3794 36.5581 30.3638 36.5581 30.3486 36.5596ZM47.7451 26.6162C47.6912 26.6948 47.634 26.7721 47.5762 26.8496C47.5667 26.8623 47.5574 26.8751 47.5479 26.8877C47.4857 26.9698 47.421 27.051 47.3545 27.1318C47.3436 27.1451 47.3332 27.1587 47.3223 27.1719C47.1126 27.4238 46.8821 27.6692 46.6328 27.9082C46.6136 27.9267 46.5937 27.9445 46.5742 27.9629C46.4902 28.0422 46.4055 28.1224 46.3174 28.2002C45.0862 29.2868 43.4338 30.2517 41.4688 31.0635C41.3176 31.1259 41.1646 31.1874 41.0098 31.248C40.7001 31.3693 40.3832 31.4868 40.0596 31.6006C39.0293 31.9627 37.924 32.2849 36.7627 32.5674C35.8285 32.7946 34.8563 32.9942 33.8477 33.166C33.7522 33.1823 33.6565 33.199 33.5605 33.2148H33.5596C32.3699 33.4092 31.1357 33.565 29.8613 33.6748C29.5079 33.7053 29.151 33.7305 28.792 33.7539C28.7445 33.757 28.697 33.7597 28.6494 33.7627C28.334 33.7824 28.0166 33.7992 27.6973 33.8135C27.64 33.8161 27.5828 33.8189 27.5254 33.8213C27.2249 33.8338 26.9228 33.843 26.6191 33.8506C26.5457 33.8524 26.4721 33.8549 26.3984 33.8564C26.3361 33.8578 26.2734 33.8602 26.2109 33.8613C26.7487 34.4404 27.3122 34.9969 27.8994 35.5264L28.1289 35.7285C29.2618 35.6672 30.366 35.5726 31.4414 35.4424C32.2255 35.348 32.9922 35.2373 33.7393 35.1094C34.7517 34.9359 35.7247 34.733 36.6582 34.502H36.6592C37.892 34.2013 39.1067 33.8289 40.2959 33.3867C42.6422 32.5049 44.5225 31.4312 45.8076 30.2471C47.0628 29.0904 47.716 27.8611 47.7451 26.6162ZM17.1318 34.9043C17.1275 34.9619 17.1238 35.0195 17.1201 35.0771C17.1179 35.1119 17.1173 35.1468 17.1152 35.1816C17.3481 35.2191 17.5828 35.2548 17.8193 35.2891C17.6045 34.9891 17.3909 34.685 17.1797 34.376C17.1604 34.5518 17.1452 34.728 17.1318 34.9043ZM25.0762 17.249C23.5581 17.2527 22.0754 17.3179 20.6426 17.4414C19.394 17.549 18.1846 17.7023 17.0195 17.8926L16.7373 17.9404C15.7503 18.1086 14.8015 18.3031 13.8916 18.5244C12.7583 18.8001 11.686 19.1133 10.6914 19.4629C8.17645 20.3468 6.15149 21.4459 4.76465 22.6699C3.38282 23.8896 2.67408 25.1949 2.66895 26.5156C2.66893 26.5195 2.66797 26.5234 2.66797 26.5273C2.66799 27.8019 3.32389 29.0625 4.6084 30.2461C5.78914 31.3341 7.47321 32.3277 9.55859 33.166C9.57473 33.08 9.59256 32.9941 9.60938 32.9082C9.62361 32.8355 9.6386 32.763 9.65332 32.6904C9.70726 32.4245 9.76379 32.1591 9.82422 31.8945C9.83143 31.863 9.8384 31.8313 9.8457 31.7998C9.96214 31.2968 10.0889 30.7961 10.2285 30.2988C9.56966 29.814 9.02739 29.2752 8.64648 28.6904C8.6411 28.6822 8.6352 28.6743 8.62988 28.666C8.53964 28.5255 8.45939 28.3822 8.38867 28.2363C8.38268 28.224 8.37694 28.2116 8.37109 28.1992C8.34102 28.1355 8.31229 28.0716 8.28613 28.0068C8.27916 27.9896 8.27232 27.9724 8.26562 27.9551C8.24165 27.893 8.2195 27.8306 8.19922 27.7676C8.19377 27.7507 8.18877 27.7337 8.18359 27.7168C8.16462 27.6546 8.14613 27.5924 8.13086 27.5293C8.12473 27.5041 8.12076 27.4784 8.11523 27.4531C8.10304 27.397 8.09025 27.341 8.08105 27.2842C8.075 27.247 8.07213 27.2093 8.06738 27.1719C8.05097 27.0412 8.04004 26.9093 8.04004 26.7754C8.04004 26.7722 8.03998 26.7688 8.04004 26.7656C8.04272 26.6285 8.05578 26.4924 8.07422 26.3574C8.15145 25.7878 8.36431 25.2425 8.70215 24.7715L8.70996 24.7617C9.45532 23.7791 10.421 22.9836 11.5303 22.4404C12.313 22.0225 13.1273 21.6653 13.9658 21.374C14.1325 21.3152 14.3049 21.2595 14.4688 21.2061H14.4707C15.4241 20.8991 16.3932 20.643 17.374 20.4404L17.7959 20.3564C17.8394 20.348 17.8991 20.3358 17.9502 20.3262L18.5029 20.2275C19.7921 20.0056 21.0927 19.8509 22.3984 19.7656L23.0879 19.7256C23.7823 19.6908 24.4898 19.6729 25.208 19.6729C25.8111 19.6728 26.4067 19.6862 26.9932 19.7109C26.3903 18.8631 25.7503 18.042 25.0762 17.249ZM40.833 17.0752C40.8039 17.2274 40.7744 17.3795 40.7432 17.5312C40.7157 17.6646 40.6864 17.7976 40.6572 17.9307C40.6234 18.0851 40.5907 18.2397 40.5547 18.3936C40.5011 18.6226 40.4451 18.8512 40.3867 19.0791C40.3482 19.2293 40.3072 19.3787 40.2666 19.5283C40.2399 19.6269 40.2142 19.7258 40.1865 19.8242C40.6216 20.1441 41.006 20.4881 41.3271 20.8525C41.3311 20.857 41.3349 20.8617 41.3389 20.8662C41.4629 21.0078 41.5768 21.1528 41.6807 21.3008C41.6902 21.3144 41.6996 21.3281 41.709 21.3418C41.7487 21.3996 41.7868 21.4578 41.8232 21.5166C41.8389 21.5419 41.8541 21.5673 41.8691 21.5928C41.8994 21.6439 41.9283 21.6953 41.9561 21.7471C41.9699 21.7728 41.9839 21.7983 41.9971 21.8242C42.0246 21.8784 42.0495 21.9334 42.0742 21.9883C42.0867 22.016 42.0996 22.0434 42.1113 22.0713C42.1316 22.1195 42.1499 22.1681 42.168 22.2168C42.181 22.2519 42.1942 22.2869 42.2061 22.3223C42.2249 22.3788 42.241 22.4359 42.2568 22.4932C42.2644 22.5205 42.2724 22.5477 42.2793 22.5752C42.2903 22.6192 42.2995 22.6636 42.3086 22.708C42.3176 22.7516 42.3278 22.7949 42.335 22.8389C42.3382 22.8586 42.3399 22.8786 42.3428 22.8984C42.352 22.9625 42.3599 23.0269 42.3652 23.0918C42.3702 23.1527 42.3726 23.2138 42.374 23.2754C42.3746 23.3007 42.377 23.3261 42.377 23.3516C42.377 23.3545 42.377 23.3574 42.377 23.3604C42.363 24.0751 42.1321 24.7698 41.7148 25.3516C41.7135 25.3534 41.7113 25.3546 41.71 25.3564C41.7089 25.3579 41.7081 25.3599 41.707 25.3613C40.9715 26.3309 40.0196 27.1148 38.9287 27.6572C38.9196 27.6629 38.9119 27.6707 38.9023 27.6758C38.1184 28.0954 37.302 28.4526 36.4619 28.7451C36.4581 28.7466 36.455 28.7496 36.4512 28.751C36.2845 28.8097 36.112 28.8645 35.9482 28.918L35.9463 28.9189C34.8566 29.2698 33.7458 29.5533 32.6211 29.7676C32.6192 29.7679 32.6171 29.7672 32.6152 29.7676C32.5725 29.7759 32.5154 29.7887 32.4668 29.7979C32.4624 29.7987 32.4576 29.7981 32.4531 29.7988C30.9873 30.0734 29.5058 30.2602 28.0176 30.3574C28.0068 30.3581 27.9961 30.3574 27.9854 30.3574C27.0817 30.4168 26.1542 30.4492 25.208 30.4492C24.6035 30.4492 24.0068 30.434 23.4189 30.4092C24.0225 31.2583 24.6629 32.0809 25.3379 32.875C26.8569 32.8714 28.3407 32.8062 29.7744 32.6826C31.0231 32.575 32.2323 32.4218 33.3975 32.2314L33.6787 32.1846L34.4111 32.0537C35.1365 31.9178 35.8408 31.7662 36.5244 31.5996C37.658 31.3239 38.7308 31.0108 39.7256 30.6611C40.1514 30.5115 40.5629 30.3549 40.96 30.1934C41.0578 30.1535 41.1549 30.1138 41.251 30.0732C43.0665 29.3076 44.5583 28.4207 45.6523 27.4551C47.0389 26.2312 47.7479 24.9202 47.748 23.5947C47.7481 22.3202 47.0921 21.0596 45.8076 19.876C44.6268 18.788 42.9429 17.7943 40.8574 16.9561C40.8499 16.9959 40.8406 17.0354 40.833 17.0752ZM25.208 20.668C24.3599 20.668 23.5272 20.695 22.7139 20.7441C22.263 21.4244 21.823 22.1331 21.3975 22.8682C20.9729 23.6016 20.5783 24.3345 20.2139 25.0625C20.5785 25.7912 20.9716 26.5256 21.3965 27.2598C21.8227 27.9937 22.2611 28.6994 22.71 29.377C23.5246 29.4262 24.3585 29.4531 25.208 29.4531C26.057 29.4532 26.8908 29.4261 27.7051 29.377C28.1546 28.6985 28.5953 27.9928 29.0195 27.2598C29.4442 26.5261 29.8367 25.7917 30.2012 25.0635C29.8367 24.3356 29.444 23.6016 29.0195 22.8682L28.6641 22.2676C28.3493 21.7447 28.0279 21.2372 27.7012 20.7441C26.8882 20.695 26.0557 20.6679 25.208 20.668ZM35.1982 4.85254C34.0941 4.21926 32.6755 4.15702 31.0088 4.67383C29.473 5.15007 27.767 6.10825 25.9951 7.49219C26.0345 7.52588 26.0731 7.56085 26.1123 7.59473C26.211 7.6799 26.3095 7.76526 26.4072 7.85156C26.5537 7.981 26.6986 8.11217 26.8428 8.24414C26.9135 8.30885 26.9845 8.37317 27.0547 8.43848C27.2528 8.62302 27.4489 8.80973 27.6426 8.99902C27.726 9.08059 27.808 9.16365 27.8906 9.24609C27.9773 9.3326 28.0647 9.4184 28.1504 9.50586C28.7477 9.24581 29.3387 9.06673 29.9072 8.98535C29.9092 8.98507 29.9111 8.98465 29.9131 8.98438C30.732 8.86811 31.5049 8.95714 32.1875 9.3125L32.3076 9.37891L32.3154 9.38281C32.6941 9.61077 33.0229 9.90758 33.29 10.2529C33.3013 10.2675 33.3122 10.2822 33.3232 10.2969C33.3644 10.3518 33.4044 10.4075 33.4424 10.4648C33.4524 10.48 33.4619 10.4955 33.4717 10.5107C33.5099 10.5705 33.5464 10.6313 33.5811 10.6934C33.589 10.7076 33.5967 10.722 33.6045 10.7363C33.6214 10.7676 33.6403 10.7982 33.6562 10.8301L33.7139 10.9512L33.7197 10.9629C34.2001 12.0979 34.4073 13.3305 34.3242 14.5596C34.3205 14.6743 34.3117 14.7887 34.3057 14.9033C34.3009 14.9945 34.2982 15.0857 34.292 15.1768C34.2866 15.2557 34.278 15.3343 34.2715 15.4131C34.2604 15.547 34.2506 15.6809 34.2363 15.8145C34.2103 16.0579 34.1801 16.3009 34.1436 16.543L34.0312 17.1973V17.1982C34.0309 17.2 34.0287 17.2014 34.0283 17.2031C34.0255 17.2184 34.0225 17.2337 34.0195 17.249C33.9898 17.4047 33.9585 17.5622 33.9268 17.7129L33.9258 17.7158L33.7324 18.5498C33.605 19.0643 33.4615 19.5747 33.3047 20.0811C33.2082 20.3925 33.1074 20.7027 33 21.0107C32.9864 21.0501 32.9678 21.1066 32.9512 21.1543C32.9503 21.1568 32.9501 21.1596 32.9492 21.1621C32.9174 21.2524 32.884 21.3425 32.8516 21.4326C32.8076 21.5546 32.7631 21.6764 32.7178 21.7979C32.2756 22.9848 31.7736 24.1493 31.2119 25.2852C31.2075 25.2941 31.2012 25.302 31.1963 25.3105C30.796 26.1208 30.3608 26.9385 29.8877 27.7559C29.5854 28.2782 29.2745 28.7867 28.959 29.2822C29.9968 29.1853 31.0298 29.0423 32.0557 28.8564C32.8117 27.5429 33.4971 26.2295 34.1064 24.9297C34.2561 24.6104 34.3996 24.2915 34.54 23.9746C34.8976 23.1658 35.2268 22.3659 35.5264 21.5752C35.5281 21.5707 35.5295 21.566 35.5312 21.5615C35.5633 21.4769 35.5948 21.3919 35.626 21.3076L35.8789 20.6094C36.1235 19.9148 36.3438 19.2296 36.541 18.5557C36.8684 17.4386 37.1333 16.3555 37.3271 15.3213C37.6475 13.612 37.7828 12.0377 37.7354 10.6465C37.7273 10.4117 37.7138 10.1822 37.6953 9.95801C37.6767 9.73172 37.6543 9.51084 37.625 9.2959C37.5923 9.05614 37.5527 8.82364 37.5068 8.59863C37.2792 7.48298 36.894 6.57345 36.3633 5.88477C36.3259 5.83621 36.2869 5.78952 36.248 5.74316C35.9433 5.3797 35.5956 5.0829 35.2041 4.85742C35.202 4.85619 35.2004 4.8538 35.1982 4.85254ZM9.20117 25.9492C9.10921 26.1965 9.05668 26.4576 9.04492 26.7236C9.04424 26.7398 9.04237 26.7563 9.04199 26.7725L9.0498 26.9541C9.06881 27.176 9.12272 27.3993 9.21191 27.623C9.21644 27.6344 9.22088 27.6458 9.22559 27.6572C9.45019 28.1988 9.88305 28.7409 10.5322 29.2686C10.7149 28.6772 10.9166 28.0796 11.1338 27.4746C10.413 27.0695 9.76087 26.555 9.20117 25.9492ZM37.8262 6.37012C37.8677 6.45638 37.9068 6.54465 37.9453 6.63379C37.9608 6.6697 37.9762 6.70582 37.9912 6.74219C38.0163 6.80276 38.0407 6.86397 38.0645 6.92578C38.0791 6.96393 38.0933 7.0024 38.1074 7.04102C38.1774 7.23148 38.2408 7.42763 38.2988 7.62891C38.3088 7.66366 38.3194 7.69834 38.3291 7.7334C38.386 7.93982 38.4366 8.15157 38.4814 8.36816C38.4836 8.37861 38.4871 8.38894 38.4893 8.39941C38.537 8.63363 38.5779 8.87434 38.6123 9.12109C38.642 9.334 38.6647 9.55166 38.6846 9.77344C38.7126 10.0864 38.7325 10.4078 38.7412 10.7373C38.7797 12.1887 38.6329 13.7954 38.3125 15.5049C38.1118 16.5758 37.8393 17.6915 37.5039 18.8359C37.2341 19.7564 36.9215 20.6961 36.5664 21.6533C36.5327 21.744 36.4981 21.835 36.4639 21.9258L36.1338 22.7734C36.0203 23.0572 35.903 23.3416 35.7822 23.627C35.5408 24.1974 35.2843 24.7713 35.0146 25.3496L35.0137 25.3516C34.8681 25.662 34.7174 25.9726 34.5635 26.2842C34.5354 26.341 34.5059 26.3972 34.4775 26.4541C34.3585 26.6929 34.2381 26.9326 34.1143 27.1719C34.0451 27.3057 33.9749 27.4394 33.9043 27.5732C33.8245 27.7244 33.7428 27.8751 33.6611 28.0264C33.5727 28.1902 33.4842 28.3546 33.3936 28.5186C33.3797 28.5435 33.3664 28.5688 33.3525 28.5938C34.1228 28.4189 34.8857 28.2119 35.6377 27.9697C35.7375 27.9371 35.8339 27.9029 35.9287 27.8711C35.9462 27.8367 35.9631 27.802 35.9805 27.7676C36.2127 27.3084 36.4372 26.8514 36.6514 26.3955C36.891 25.8841 37.1193 25.3753 37.3359 24.8691L37.3379 24.8643L37.5645 24.3271C37.7864 23.7908 37.9949 23.2584 38.1904 22.7305C38.1919 22.7261 38.1927 22.7212 38.1943 22.7168C38.5491 21.7563 38.8594 20.8172 39.125 19.8994C39.126 19.8956 39.1268 19.8915 39.1279 19.8877C39.4833 18.6723 39.7669 17.437 39.9775 16.1885L39.9785 16.1797C40.3841 13.7166 40.3938 11.5594 40.0088 9.85938C39.632 8.19618 38.891 7.01707 37.8262 6.37012ZM37.7803 26.334C37.6278 26.6683 37.4706 27.0032 37.3086 27.3389C37.5545 27.2308 37.7969 27.1154 38.0371 26.9951C37.9534 26.7757 37.8686 26.555 37.7803 26.334ZM11.4883 23.5977C10.8321 23.9868 10.2434 24.48 9.74902 25.0615C10.2434 25.6434 10.8319 26.137 11.4883 26.5264C11.6746 26.0419 11.8706 25.554 12.0781 25.0635C11.8701 24.5718 11.6748 24.0827 11.4883 23.5977ZM38.9277 23.5996C38.7413 24.0844 38.5455 24.5727 38.3379 25.0635C38.5452 25.5535 38.7399 26.041 38.9258 26.5244C39.582 26.1354 40.1697 25.6419 40.6641 25.0605C40.1702 24.4804 39.5828 23.988 38.9277 23.5996ZM39.8848 20.8545C39.702 21.4464 39.5006 22.0447 39.2832 22.6504C40.0035 23.0552 40.6544 23.5706 41.2139 24.1758C41.2167 24.1682 41.2199 24.1609 41.2227 24.1533C41.2878 23.9727 41.3322 23.7852 41.3555 23.5938C41.3573 23.5788 41.3598 23.5639 41.3613 23.5488C41.3683 23.4815 41.3736 23.4138 41.375 23.3457C41.375 23.3431 41.374 23.3405 41.374 23.3379C41.3725 23.0598 41.3155 22.7795 41.2031 22.498C41.0032 21.9985 40.627 21.4974 40.0664 21.0078L39.8848 20.8545ZM17.0625 6.20605C15.3067 5.62019 13.8152 5.6636 12.666 6.3252C11.5607 6.96177 10.7938 8.15804 10.4082 9.86035C10.0538 11.4253 10.0334 13.3778 10.3486 15.5996C10.3756 15.5901 10.4027 15.5807 10.4297 15.5713C10.5975 15.5128 10.7659 15.4562 10.9346 15.4004C11.0392 15.3658 11.1441 15.3324 11.249 15.2988C11.8126 15.1186 12.3807 14.953 12.9531 14.8027C13.0258 14.7837 13.0981 14.7637 13.1709 14.7451C13.2153 14.3501 13.2862 13.9727 13.3818 13.6172C13.3878 13.595 13.3932 13.5728 13.3994 13.5508C13.4148 13.4958 13.4315 13.4416 13.4482 13.3877C13.4586 13.3543 13.4686 13.321 13.4795 13.2881C13.5026 13.2183 13.5274 13.1498 13.5527 13.082C13.5592 13.0648 13.5647 13.0473 13.5713 13.0303C13.6002 12.9556 13.6313 12.8826 13.6631 12.8105C13.6682 12.7991 13.6736 12.7878 13.6787 12.7764C13.7084 12.7104 13.7392 12.6456 13.7715 12.582C13.7814 12.5625 13.7906 12.5427 13.8008 12.5234C13.8294 12.4691 13.8591 12.4158 13.8896 12.3633C13.9072 12.3331 13.9261 12.3039 13.9443 12.2744C13.9703 12.2322 13.9961 12.1903 14.0234 12.1494C14.0409 12.1233 14.0591 12.0978 14.0771 12.0723C14.1133 12.021 14.1501 11.9708 14.1885 11.9219C14.2036 11.9026 14.2199 11.8842 14.2354 11.8652C14.2701 11.8227 14.3043 11.7799 14.3408 11.7393C14.3627 11.7149 14.3857 11.6916 14.4082 11.668C14.4468 11.6274 14.4858 11.5874 14.5264 11.5488C14.5526 11.5239 14.5804 11.5006 14.6074 11.4766C14.6433 11.4447 14.6785 11.4122 14.7158 11.3818C14.7315 11.3691 14.7478 11.3572 14.7637 11.3447C14.8816 11.2525 15.0055 11.166 15.1377 11.0898L15.3857 10.9658C15.6042 10.8662 15.8318 10.7909 16.0645 10.7373C16.0717 10.7356 16.0787 10.7331 16.0859 10.7314C16.2416 10.6966 16.3994 10.6728 16.5586 10.6592C16.5661 10.6585 16.5736 10.6578 16.5811 10.6572C16.6538 10.6514 16.7267 10.6488 16.7998 10.6475C16.8138 10.6472 16.8278 10.6466 16.8418 10.6465C16.9098 10.6461 16.9778 10.6479 17.0459 10.6514C17.0552 10.6518 17.0649 10.6518 17.0742 10.6523L17.1182 10.6553C17.1481 10.6574 17.1781 10.6582 17.208 10.6611C17.2122 10.6615 17.2165 10.6626 17.2207 10.6631L17.2217 10.6641C18.4249 10.8139 19.5757 11.2399 20.5879 11.9043C20.6026 11.9115 20.6177 11.918 20.6318 11.9268C21.3924 12.3968 22.1148 12.9256 22.792 13.5088C22.7972 13.5133 22.8017 13.5188 22.8066 13.5234L23.1875 13.8594L23.1895 13.8613C24.0385 14.6269 24.8388 15.4446 25.5869 16.3086L25.6494 16.3809L25.665 16.3984C25.674 16.4073 25.6841 16.4152 25.6924 16.4248C26.6668 17.5566 27.5716 18.7468 28.4023 19.9873C28.4125 20.0025 28.4214 20.0182 28.4297 20.0342C28.8022 20.5904 29.1678 21.1645 29.5244 21.7568L29.8877 22.3711V22.3721C30.1893 22.8931 30.4752 23.4145 30.7471 23.9336C31.1646 23.0261 31.543 22.1012 31.8838 21.1621C31.8979 21.1231 31.9118 21.084 31.9258 21.0449C31.1632 19.7346 30.3641 18.4862 29.54 17.3096C28.8223 16.2847 28.0848 15.3157 27.3369 14.4043C27.2766 14.3308 27.2157 14.2581 27.1553 14.1855V14.1846C26.5171 13.4169 25.8731 12.6949 25.2246 12.0186C24.5493 11.3138 23.8719 10.6598 23.1992 10.0635C23.0886 9.96539 22.9786 9.86834 22.8682 9.77344L22.8096 9.72266C20.7847 7.99205 18.8183 6.79202 17.0625 6.20605ZM13.1094 22.7803C12.8702 22.8853 12.6342 22.9976 12.4004 23.1143C12.3922 23.1184 12.3842 23.1228 12.376 23.127L12.6357 23.793C12.7893 23.4564 12.9461 23.1183 13.1094 22.7803ZM22.2842 14.3965C21.4526 14.4416 20.6365 14.5037 19.8359 14.5859L18.9746 14.6826C18.1906 14.777 17.4248 14.8887 16.6777 15.0166L15.9248 15.1523C15.1821 15.2931 14.4624 15.4501 13.7656 15.6221C13.7626 15.6229 13.7598 15.6243 13.7568 15.625C12.5239 15.9257 11.3094 16.299 10.1201 16.7412C10.1132 16.7438 10.1056 16.7439 10.0986 16.7461L9.68555 16.9053C7.54106 17.7542 5.8132 18.7678 4.6084 19.8779C3.35373 21.0342 2.70048 22.2634 2.6709 23.5078C2.72166 23.4339 2.77485 23.361 2.8291 23.2881C2.86783 23.236 2.90777 23.1844 2.94824 23.1328C2.97306 23.1012 2.99797 23.0695 3.02344 23.0381C3.05606 22.9978 3.0884 22.957 3.12207 22.917C3.15318 22.8801 3.18579 22.8442 3.21777 22.8076C3.36419 22.6398 3.51932 22.4745 3.68359 22.3125C3.68949 22.3067 3.69525 22.3007 3.70117 22.2949C3.82904 22.1695 3.96158 22.0447 4.09961 21.9229C5.61495 20.5855 7.76842 19.4314 10.3574 18.5215C11.3876 18.1595 12.4922 17.8371 13.6533 17.5547C14.5891 17.3267 15.5609 17.1272 16.5684 16.9561C16.6638 16.9397 16.7602 16.9239 16.8564 16.9082C18.0463 16.7138 19.2812 16.5581 20.5557 16.4482C21.1421 16.3977 21.7365 16.3594 22.3379 16.3281C22.3483 16.3276 22.3587 16.3267 22.3691 16.3262C22.6476 16.3118 22.9276 16.2992 23.209 16.2891C23.2649 16.2871 23.3209 16.286 23.377 16.2842C23.6501 16.2752 23.9245 16.2667 24.2002 16.2617C23.8552 15.8903 23.5004 15.528 23.1348 15.1768C23.1225 15.1649 23.11 15.1534 23.0977 15.1416C22.9063 14.9585 22.7124 14.778 22.5156 14.6006V14.5996C22.4372 14.5295 22.3595 14.4627 22.2842 14.3965ZM19.4082 4.67383C17.7733 4.16688 16.377 4.21861 15.2822 4.81836C15.9591 4.86966 16.663 5.0212 17.3809 5.26074C19.2999 5.90114 21.3785 7.18434 23.4629 8.96582C24.2924 9.67474 25.1243 10.4682 25.9502 11.3301C26.6146 12.0235 27.2741 12.7634 27.9277 13.5488L28.1123 13.7734H28.1133C28.8769 14.704 29.6298 15.6924 30.3623 16.7383C30.7588 17.3044 31.1471 17.888 31.5303 18.4854C31.5838 18.5687 31.6372 18.6524 31.6904 18.7363C31.8246 18.948 31.9575 19.1617 32.0898 19.377C32.145 19.4667 32.201 19.5561 32.2559 19.6465L32.3457 19.793C32.5789 19.0402 32.7805 18.2775 32.9463 17.5068C32.9678 17.4046 32.9871 17.3046 33.0068 17.207C32.5497 16.5088 32.0863 15.8332 31.6143 15.1816L31.1016 14.4863H31.1006C30.6293 13.8597 30.1527 13.2572 29.6709 12.6787C29.6686 12.676 29.6654 12.6736 29.6631 12.6709C29.0047 11.8819 28.3427 11.1421 27.6768 10.4521C27.6742 10.4495 27.6724 10.446 27.6699 10.4434C26.8995 9.64075 26.086 8.88062 25.2373 8.16113C25.1211 8.06258 25.0063 7.96215 24.8887 7.86523C24.8876 7.86436 24.8868 7.86319 24.8857 7.8623L24.5273 7.5752C22.7177 6.14664 20.9744 5.15958 19.4082 4.67383ZM32.5947 14.835C32.8102 15.1357 33.0235 15.4412 33.2354 15.751C33.255 15.5719 33.2706 15.3925 33.2842 15.2129C33.2885 15.1543 33.2922 15.0957 33.2959 15.0371C33.2979 15.0059 33.299 14.9746 33.3008 14.9434C33.0673 14.9058 32.832 14.8693 32.5947 14.835ZM16.4355 11.6777C16.2548 11.7084 16.078 11.7588 15.9072 11.8271C15.8151 11.8643 15.7245 11.9061 15.6367 11.9541C15.2212 12.1942 14.8792 12.5799 14.625 13.1104C14.5552 13.2562 14.4928 13.4133 14.4365 13.5811C14.3655 13.7925 14.3052 14.0213 14.2568 14.2676C14.251 14.2976 14.2458 14.3279 14.2402 14.3584C14.2324 14.4016 14.224 14.4451 14.2168 14.4893C14.8215 14.3514 15.4413 14.2272 16.0752 14.1123C16.0665 13.2864 16.1888 12.4649 16.4355 11.6777ZM17.4795 11.7109C17.2229 12.4272 17.089 13.1806 17.0791 13.9404C17.591 13.8596 18.1111 13.7894 18.6387 13.7236C18.9614 13.2982 19.2846 12.8821 19.6123 12.4785C18.9484 12.1079 18.2286 11.8471 17.4795 11.7109ZM32.9365 11.71C32.1853 11.8466 31.4633 12.109 30.7979 12.4814C31.1254 12.8848 31.4522 13.2971 31.7744 13.7217C32.303 13.7875 32.8237 13.8595 33.3359 13.9404C33.3261 13.1803 33.1933 12.4265 32.9365 11.71ZM20.0215 13.5664C20.1638 13.5527 20.3069 13.5419 20.4502 13.5293C20.5593 13.5196 20.6687 13.51 20.7783 13.501C20.8969 13.4913 21.0156 13.4796 21.1348 13.4707C20.9169 13.3114 20.6935 13.1599 20.4678 13.0117C20.3187 13.1943 20.1697 13.379 20.0215 13.5664ZM31.8018 10.2393C31.0845 9.82785 30.1024 9.82112 28.8916 10.2812L28.9121 10.3027C29.3279 10.75 29.7407 11.2154 30.1514 11.6982C30.8634 11.2787 31.6375 10.9753 32.4434 10.7949C32.2625 10.5767 32.0469 10.3876 31.8018 10.2393Z" fill="#0A1119"/>
</svg>
