<svg width="60" height="60" viewBox="0 0 60 60" fill="none" xmlns="http://www.w3.org/2000/svg">
<g clip-path="url(#clip0_656_149)">
<path d="M44.5428 29.3122L30.0008 5L23.3096 16.1869C25.3555 15.5119 27.4984 15.1519 29.6598 15.1199L30.0008 14.5498L44.991 39.6113C46.0935 36.2335 45.9348 32.5885 44.5428 29.3122Z" stroke="#0A1119" stroke-linecap="round" stroke-linejoin="round"/>
<path d="M12.3096 45.3653H11.5681L26.5901 20.2505C22.9967 21.0258 19.7979 22.9946 17.55 25.8145L3 50.1402H16.4911C14.8474 48.7701 13.4363 47.1588 12.3096 45.3653Z" stroke="#0A1119" stroke-linecap="round" stroke-linejoin="round"/>
<path d="M31.6582 50.1399C28.0543 50.5048 24.4305 49.6568 21.3977 47.7389C18.365 45.821 16.1088 42.9505 15.0094 39.6113L11.9395 44.7439C12.0599 44.9528 12.1815 45.1609 12.3094 45.365C13.8679 47.8522 15.9684 49.9808 18.4647 51.6024C20.961 53.224 23.7929 54.2995 26.7631 54.7541C29.7333 55.2087 32.7703 55.0313 35.6624 54.2344C38.5544 53.4375 41.232 52.0402 43.5084 50.1399H31.6582Z" stroke="#0A1119" stroke-linecap="round" stroke-linejoin="round"/>
<path d="M30.3411 15.1197C30.2271 15.1179 30.1144 15.1113 30.0001 15.1113C29.8857 15.1113 29.773 15.1179 29.6591 15.1197C26.64 15.1611 23.6672 15.8435 20.9509 17.1185C18.2346 18.3934 15.841 20.2299 13.9395 22.4981C12.038 24.7663 10.6749 27.4107 9.94655 30.2445C9.21826 33.0782 9.14255 36.0321 9.72479 38.8973L15.4579 29.3122C16.8645 25.9969 19.4377 23.269 22.7226 21.6108C26.0076 19.9525 29.7929 19.4705 33.4097 20.25L30.3411 15.1197Z" stroke="#0A1119" stroke-linecap="round" stroke-linejoin="round"/>
<path d="M36.6924 16.187L42.4509 25.8146C44.7205 28.6502 45.8727 32.1743 45.7013 35.7563C45.5298 39.3383 44.046 42.7445 41.5153 45.3652H47.6913C47.8192 45.1611 47.9408 44.9529 48.0612 44.7441C49.1142 42.9206 49.8618 40.9473 50.2763 38.8976C51.2386 34.1633 50.3921 29.2521 47.894 25.0756C45.3958 20.899 41.4158 17.7408 36.6924 16.187Z" stroke="#0A1119" stroke-linecap="round" stroke-linejoin="round"/>
<path d="M50.2758 38.8975C49.8613 40.9472 49.1136 42.9204 48.0607 44.7439L48.4323 45.365H18.4863C21.0666 48.0567 24.5679 49.753 28.342 50.14H57.0004L50.2758 38.8975Z" stroke="#0A1119" stroke-linecap="round" stroke-linejoin="round"/>
</g>
<defs>
<clipPath id="clip0_656_149">
<rect width="60" height="60" fill="white"/>
</clipPath>
</defs>
</svg>
