<svg width="51" height="51" viewBox="0 0 51 51" fill="none" xmlns="http://www.w3.org/2000/svg">
<path d="M40.1783 20.9413L37.0223 17.7853C35.5282 16.3241 33.5149 15.5161 31.4252 15.5391C29.3354 15.562 27.3404 16.4141 25.8788 17.9078L25.5002 18.2863L32.7141 25.5001L33.0926 25.8786C34.5863 27.3402 35.4384 29.3352 35.4613 31.425C35.4843 33.5147 34.6763 35.528 33.215 37.0221L30.059 40.1781C24.2212 46.0159 14.6511 45.9107 8.68359 39.9432L14.6951 45.9547C20.6626 51.9222 30.2327 52.0274 36.0705 46.1896L39.9435 42.3167C45.911 36.3492 46.0162 26.7791 40.1783 20.9413Z" stroke="white" stroke-linecap="round" stroke-linejoin="round"/>
<path d="M10.8219 30.0587L13.978 33.2148C15.4721 34.676 17.4854 35.484 19.5751 35.461C21.6649 35.4381 23.6599 34.586 25.1215 33.0923L25.5 32.7138L18.2862 25.5L17.9077 25.1215C16.414 23.6599 15.5619 21.6648 15.539 19.5751C15.516 17.4854 16.324 15.4721 17.7852 13.978L20.9413 10.822C26.7791 4.98417 36.3492 5.08933 42.3167 11.0568L36.3052 5.04534C30.3377 -0.922165 20.7676 -1.02733 14.9298 4.81047L11.0568 8.68341C5.08932 14.6509 4.98413 24.2209 10.8219 30.0587Z" stroke="white" stroke-linecap="round" stroke-linejoin="round"/>
<path d="M30.0589 40.1782L33.2149 37.0222C34.6762 35.5281 35.4841 33.5148 35.4612 31.4251C35.4382 29.3353 34.5862 27.3403 33.0924 25.8787L32.7139 25.5002L25.5001 32.714L25.1216 33.0925C23.66 34.5862 21.6649 35.4383 19.5752 35.4612C17.4854 35.4842 15.4721 34.6762 13.9781 33.215L10.822 30.0589C4.98419 24.2211 5.08935 14.6511 11.0569 8.68359L5.04536 14.6951C-0.922171 20.6626 -1.02733 30.2326 4.81049 36.0704L8.68345 39.9433C14.651 45.9108 24.221 46.016 30.0589 40.1782Z" stroke="white" stroke-linecap="round" stroke-linejoin="round"/>
<path d="M20.9411 10.8217L17.7851 13.9777C16.3238 15.4718 15.5158 17.4851 15.5388 19.5748C15.5618 21.6646 16.4138 23.6596 17.9075 25.1212L18.2861 25.4997L25.4999 18.2859L25.8784 17.9074C27.34 16.4137 29.335 15.5617 31.4248 15.5387C33.5145 15.5157 35.5278 16.3237 37.0219 17.785L40.178 20.941C46.0158 26.7788 45.9106 36.3488 39.9431 42.3163L45.9546 36.3048C51.9221 30.3373 52.0273 20.7673 46.1895 14.9295L42.3165 11.0566C36.349 5.08909 26.7789 4.9839 20.9411 10.8217Z" stroke="white" stroke-linecap="round" stroke-linejoin="round"/>
</svg>
