<svg width="51" height="51" viewBox="0 0 51 51" fill="none" xmlns="http://www.w3.org/2000/svg">
<path d="M32.9301 7.54053C31.7885 6.82711 30.2703 7.00158 28.5702 7.89043C29.3026 8.71385 30.03 9.59519 30.7523 10.5345C31.7952 9.7772 32.9875 9.29509 34.2337 9.12679C33.9572 8.46764 33.5027 7.91461 32.9301 7.54053Z" stroke="#0A1119" stroke-linecap="round" stroke-linejoin="round"/>
<path d="M20.2475 40.4668C19.2046 41.224 18.0122 41.7061 16.7661 41.8744C17.0426 42.5336 17.4971 43.0866 18.0697 43.4607C19.2113 44.1741 20.7295 43.9996 22.4296 43.1108C21.6972 42.2874 20.9698 41.406 20.2475 40.4668Z" stroke="#0A1119" stroke-linecap="round" stroke-linejoin="round"/>
<path d="M28.4766 38.6582C29.1898 39.3247 29.9505 39.9294 30.7515 40.4665C31.2828 39.775 31.8085 39.054 32.3285 38.3037C31.0812 38.4666 29.7972 38.5847 28.4766 38.6582Z" stroke="#0A1119" stroke-linecap="round" stroke-linejoin="round"/>
<path d="M20.2474 10.5332C19.716 11.2248 19.1904 11.9458 18.6704 12.696C19.9177 12.5332 21.2017 12.4151 22.5223 12.3416C21.8091 11.675 21.0484 11.0704 20.2474 10.5332Z" stroke="#0A1119" stroke-linecap="round" stroke-linejoin="round"/>
<path d="M34.8479 37.9061C34.9323 39.2623 34.7218 40.6211 34.2334 41.8734C34.899 41.9437 35.5688 41.7942 36.1544 41.4445C37.296 40.7311 37.9155 39.2207 38.0543 37.1826C37.0293 37.4575 35.9605 37.6986 34.8479 37.9061Z" stroke="#0A1119" stroke-linecap="round" stroke-linejoin="round"/>
<path d="M14.8446 9.5552C13.703 10.2686 13.0835 11.779 12.9446 13.8171C13.9696 13.5423 15.0385 13.3011 16.1511 13.0936C16.0667 11.7374 16.2771 10.3786 16.7655 9.12637C16.0999 9.05594 15.4302 9.20545 14.8446 9.5552Z" stroke="#0A1119" stroke-linecap="round" stroke-linejoin="round"/>
<path d="M33.331 30.3936C33.3499 30.3585 33.3674 30.3233 33.3862 30.2881C33.4051 30.3464 33.4229 30.4042 33.4415 30.4624C33.3855 30.4741 33.3302 30.4863 33.2739 30.4978C33.2928 30.4628 33.3122 30.4288 33.331 30.3936Z" stroke="#0A1119" stroke-linecap="round" stroke-linejoin="round"/>
<path d="M17.6691 20.6062C17.6503 20.6414 17.6328 20.6765 17.614 20.7117C17.5951 20.6534 17.5773 20.5956 17.5587 20.5374C17.6147 20.5257 17.67 20.5135 17.7263 20.502C17.7074 20.537 17.688 20.571 17.6691 20.6062Z" stroke="#0A1119" stroke-linecap="round" stroke-linejoin="round"/>
<path d="M10.8987 22.9402C11.1864 23.7841 11.5004 24.6373 11.8407 25.4998C12.334 24.2492 12.8814 22.9865 13.483 21.7119C12.5931 22.0472 11.729 22.4579 10.8987 22.9402Z" stroke="#0A1119" stroke-linecap="round" stroke-linejoin="round"/>
<path d="M17.6691 30.3935C17.688 30.4287 17.7075 30.4627 17.7264 30.4978C17.67 30.4863 17.6147 30.474 17.5587 30.4623C17.5773 30.4041 17.5951 30.3464 17.614 30.2881C17.6327 30.3232 17.6503 30.3583 17.6691 30.3935Z" stroke="#0A1119" stroke-linecap="round" stroke-linejoin="round"/>
<path d="M39.1586 25.5C38.6653 26.7507 38.1178 28.0133 37.5162 29.2879C38.4061 28.9526 39.2703 28.5419 40.1006 28.0596C39.8129 27.2157 39.4989 26.3625 39.1586 25.5Z" stroke="#0A1119" stroke-linecap="round" stroke-linejoin="round"/>
<path d="M8.03215 25.5C7.64301 26.0888 7.42777 26.7913 7.41479 27.5151C7.41479 28.9419 8.31346 30.2778 9.87468 31.4271C10.1673 30.3289 10.5088 29.2064 10.8991 28.0596C9.77178 27.4606 8.78988 26.584 8.03215 25.5Z" stroke="#0A1119" stroke-linecap="round" stroke-linejoin="round"/>
<path d="M32.3291 12.6963C33.0831 13.7841 33.8196 14.9286 34.5387 16.1298C34.7153 15.1279 34.8188 14.1125 34.848 13.0931C34.029 12.9408 33.1894 12.8086 32.3291 12.6963Z" stroke="#0A1119" stroke-linecap="round" stroke-linejoin="round"/>
<path d="M25.4993 15.7126C25.4618 15.7126 25.4249 15.7139 25.3875 15.714C25.4247 15.6671 25.4621 15.6216 25.4993 15.5752C25.5366 15.6216 25.5739 15.667 25.6112 15.7139C25.5737 15.7137 25.5369 15.7126 25.4993 15.7126Z" stroke="#0A1119" stroke-linecap="round" stroke-linejoin="round"/>
<path d="M42.0616 15.1504C41.8295 16.6431 41.5168 18.1198 41.1253 19.573C42.6865 20.7222 43.5852 22.0581 43.5852 23.485C43.5722 24.2088 43.3569 24.9113 42.9678 25.5001C42.2101 26.5841 41.2282 27.4607 40.1009 28.0597C39.2706 28.542 38.4064 28.9527 37.5165 29.288C37.3429 29.3545 37.1631 29.4179 36.9836 29.4815C35.8226 29.8872 34.6395 30.2149 33.4412 30.4627C33.3855 30.4744 33.3304 30.4866 33.2743 30.4981C31.7009 30.8185 30.111 31.0359 28.5134 31.1491C27.5333 31.2198 26.5271 31.2575 25.5002 31.2575C24.4733 31.2575 23.4672 31.2198 22.4871 31.1491C23.3764 32.5901 24.3453 33.9718 25.3884 35.2865C25.4258 35.2866 25.4627 35.2878 25.5002 35.2877C25.5378 35.2877 25.5747 35.2865 25.6122 35.2864C27.2858 35.283 28.9209 35.2047 30.5015 35.0569C31.8704 34.9288 33.196 34.747 34.4736 34.5204C34.5771 34.5021 34.6802 34.4834 34.7828 34.4643C35.8642 34.2649 36.9059 34.0328 37.9081 33.7678C39.1532 33.4392 40.3343 33.0652 41.433 32.6461C46.9712 30.534 50.5 27.3434 50.5 23.7729C50.5 20.34 47.2349 17.26 42.0616 15.1504Z" stroke="#0A1119" stroke-linecap="round" stroke-linejoin="round"/>
<path d="M22.9436 12.7446C22.803 12.6081 22.6623 12.4713 22.5223 12.3418C21.2039 12.4139 19.9199 12.5321 18.6704 12.6962C17.811 12.8085 16.9714 12.9407 16.1515 13.093C15.0406 13.2996 13.9718 13.5408 12.945 13.8165C11.5866 14.176 10.2488 14.6213 8.93842 15.1501C3.76509 17.2597 0.5 20.3397 0.5 23.7726V27.227C0.5 23.6565 4.02884 20.4659 9.56698 18.3538C10.6657 17.9348 11.8468 17.5607 13.0919 17.2321C14.0926 16.968 15.1343 16.7358 16.2172 16.5356C16.32 16.5167 16.4231 16.4979 16.5264 16.4794C17.804 16.2529 19.1296 16.071 20.4985 15.943C22.0791 15.7952 23.7143 15.7168 25.3879 15.7134C25.4252 15.6666 25.4625 15.6211 25.4998 15.5747C24.7024 14.5752 23.8487 13.6301 22.9436 12.7446Z" stroke="#0A1119" stroke-linecap="round" stroke-linejoin="round"/>
<path d="M41.1253 19.5732C40.8326 20.6715 40.4912 21.794 40.1008 22.9407C41.2281 23.5397 42.2101 24.4164 42.9678 25.5004C43.3569 24.9116 43.5722 24.209 43.5852 23.4852C43.5852 22.0584 42.6865 20.7225 41.1253 19.5732Z" stroke="#0A1119" stroke-linecap="round" stroke-linejoin="round"/>
<path d="M16.4602 34.8701C16.2836 35.872 16.1801 36.8874 16.1509 37.9068C16.9699 38.0591 17.8095 38.1913 18.6698 38.3036C17.9158 37.2158 17.1793 36.0713 16.4602 34.8701Z" stroke="#0A1119" stroke-linecap="round" stroke-linejoin="round"/>
<path d="M12.681 32.9969C12.97 31.9269 13.3052 30.8343 13.6864 29.719C13.7226 29.6132 13.7592 29.5072 13.7961 29.4012C14.2537 28.0902 14.7727 26.7596 15.3529 25.4095C16.025 23.8538 16.7799 22.2819 17.614 20.7114C17.5951 20.653 17.5774 20.5953 17.5589 20.5371C16.3606 20.7849 15.1775 21.1125 14.0165 21.5182C13.837 21.5818 13.6572 21.6452 13.4835 21.7117C12.882 22.9837 12.3345 24.2463 11.8412 25.4996C11.5012 26.3613 11.1873 27.2146 10.8992 28.0593C10.509 29.2039 10.1675 30.3264 9.87481 31.4268C9.48324 32.8799 9.1706 34.3566 8.93848 35.8494C8.03971 41.7536 8.87146 46.3543 11.618 48.0707L14.3819 49.7979C11.5252 48.0127 10.7368 43.1095 11.816 36.862C12.0301 35.6226 12.3214 34.3283 12.681 32.9969Z" stroke="#0A1119" stroke-linecap="round" stroke-linejoin="round"/>
<path d="M25.4993 35.2874C25.5368 35.2874 25.5737 35.2862 25.6112 35.2861C25.574 35.333 25.5366 35.3785 25.4993 35.4249C25.462 35.3785 25.4247 35.333 25.3875 35.2862C25.4249 35.2863 25.4618 35.2874 25.4993 35.2874Z" stroke="#0A1119" stroke-linecap="round" stroke-linejoin="round"/>
<path d="M33.3308 20.6061C33.3121 20.571 33.2927 20.537 33.2738 20.5019C32.4343 18.9347 31.554 17.4412 30.6454 16.0334C29.8586 14.8143 29.0502 13.6626 28.2302 12.5782C28.1638 12.4903 28.0973 12.4031 28.0307 12.3165C27.3306 11.4025 26.6239 10.542 25.9108 9.73507C25.0253 8.73226 24.1355 7.81208 23.2509 6.99171C18.7919 2.85626 14.4747 1.14369 11.618 2.92896C8.87145 4.64537 8.03972 9.24604 8.93848 15.1503C10.2488 14.6215 11.5866 14.1762 12.9451 13.8167C13.084 11.7786 13.7035 10.2682 14.8451 9.55482C15.4307 9.20507 16.1004 9.05556 16.766 9.126C18.0122 9.29428 19.2045 9.77637 20.2474 10.5336C21.0485 11.0708 21.8091 11.6754 22.5224 12.342C22.6624 12.4716 22.803 12.6083 22.9437 12.7448C23.8487 13.6303 24.7024 14.5754 25.4998 15.5749C25.5371 15.6213 25.5744 15.6667 25.6116 15.7135C26.6547 17.0283 27.6236 18.4099 28.513 19.851C29.0596 20.7343 29.5907 21.6578 30.1063 22.6212C30.6197 23.5839 31.0926 24.546 31.5261 25.5C32.2344 23.9458 32.8554 22.3467 33.3858 20.7115C33.3671 20.6764 33.3496 20.6413 33.3308 20.6061Z" stroke="#0A1119" stroke-linecap="round" stroke-linejoin="round"/>
<path d="M22.4293 43.11C20.7292 43.9988 19.211 44.1733 18.0694 43.4599C17.4968 43.0858 17.0423 42.5328 16.7658 41.8736C16.2774 40.6214 16.067 39.2626 16.1514 37.9064C16.1806 36.8869 16.2841 35.8716 16.4607 34.8697C16.4944 34.6737 16.5335 34.4735 16.5724 34.2734C16.8283 32.9822 17.1577 31.7094 17.5586 30.4622C17.5771 30.404 17.5948 30.3463 17.6136 30.288C18.144 28.6529 18.765 27.0538 19.4733 25.4996C19.9068 24.5456 20.3797 23.5835 20.8931 22.6209C21.4066 21.6583 21.9399 20.734 22.4864 19.8506C20.8888 19.9638 19.2989 20.1812 17.7255 20.5016C17.7067 20.5367 17.6873 20.5706 17.6686 20.6058C17.6499 20.641 17.6324 20.6761 17.6137 20.7113C16.7796 22.2819 16.0247 23.8538 15.3527 25.4094C14.7707 26.7566 14.2517 28.0872 13.7958 29.4011C13.7587 29.5073 13.7222 29.6132 13.6861 29.719C13.305 30.8323 12.9699 31.9249 12.6808 32.9968C12.3211 34.3283 12.0299 35.6226 11.8158 36.862C10.7365 43.1095 11.525 48.0127 14.3817 49.7979C17.1282 51.5143 21.2251 49.9937 25.4996 46.1991C24.4214 45.2351 23.3962 44.2037 22.4293 43.11Z" stroke="#0A1119" stroke-linecap="round" stroke-linejoin="round"/>
<path d="M27.7487 44.0087C26.8641 43.1883 25.9743 42.268 25.0888 41.2652C24.3772 40.4593 23.6706 39.5988 22.9689 38.6839C22.9023 38.597 22.8358 38.5097 22.7694 38.4221C21.9494 37.3377 21.1411 36.186 20.3542 34.9669C19.4456 33.5591 18.5654 32.0656 17.7258 30.4984C17.6697 30.4869 17.6146 30.4746 17.5588 30.4629C17.1579 31.7101 16.8285 32.9829 16.5726 34.2741C16.5337 34.4742 16.4946 34.6744 16.4609 34.8704C17.1779 36.0703 17.9144 37.2148 18.6705 38.3039C19.19 39.0534 19.7156 39.7743 20.2474 40.4668C20.9681 41.4048 21.6955 42.2862 22.4295 43.1108C23.3964 44.2044 24.4216 45.2358 25.4998 46.1998C29.7744 49.9944 33.8712 51.515 36.6177 49.7986L39.3816 48.0714C36.5249 49.8567 32.2077 48.1441 27.7487 44.0087Z" stroke="#0A1119" stroke-linecap="round" stroke-linejoin="round"/>
<path d="M41.4325 32.6467C40.3338 33.0657 39.1527 33.4397 37.9076 33.7683C36.907 34.0325 35.8652 34.2647 34.7823 34.4648C34.6795 34.4838 34.5764 34.5025 34.4731 34.521C33.1955 34.7475 31.87 34.9294 30.5011 35.0574C28.9204 35.2053 27.2853 35.2836 25.6117 35.287C25.5744 35.3338 25.5371 35.3793 25.4998 35.4258C26.2972 36.4252 27.1508 37.3704 28.0559 38.2559C28.1965 38.3924 28.3372 38.5291 28.4772 38.6587C29.7956 38.5866 31.0796 38.4684 32.3291 38.3042C33.1885 38.192 34.0281 38.0597 34.848 37.9074C35.9589 37.7009 37.0278 37.4597 38.0545 37.1839C39.4129 36.8244 40.7507 36.3791 42.0611 35.8503C47.2344 33.7407 50.4995 30.6607 50.4995 27.2279V23.7734C50.4995 27.344 46.9707 30.5346 41.4325 32.6467Z" stroke="#0A1119" stroke-linecap="round" stroke-linejoin="round"/>
<path d="M32.3292 12.6964C31.8097 11.9469 31.2841 11.226 30.7523 10.5336C30.0316 9.59547 29.3042 8.71413 28.5702 7.88956C27.6033 6.79592 26.5781 5.76448 25.4999 4.80056C21.2253 1.00593 17.1285 -0.514752 14.3819 1.2017L11.618 2.92893C14.4748 1.14365 18.792 2.85622 23.251 6.99165C24.1356 7.81205 25.0254 8.7322 25.9109 9.73501C26.6225 10.5409 27.3291 11.4014 28.0308 12.3164C28.0974 12.4033 28.1638 12.4905 28.2303 12.5781C29.0503 13.6625 29.8587 14.8142 30.6455 16.0333C31.5541 17.4411 32.4344 18.9347 33.2739 20.5019C33.2927 20.537 33.3121 20.5709 33.3309 20.6061C33.3497 20.6412 33.3672 20.6764 33.3858 20.7115C33.4047 20.6532 33.4224 20.5955 33.4409 20.5374C33.8418 19.2902 34.1711 18.0173 34.4271 16.7262C34.466 16.5261 34.5051 16.3259 34.5387 16.1299C33.8218 14.93 33.0852 13.7855 32.3292 12.6964Z" stroke="#0A1119" stroke-linecap="round" stroke-linejoin="round"/>
<path d="M39.3813 2.92841L36.6174 1.20117C39.4741 2.98642 40.2625 7.8896 39.1833 14.1371C38.9692 15.3765 38.6779 16.6707 38.3183 18.0022C38.0293 19.0722 37.6942 20.1648 37.3129 21.2801C37.2767 21.386 37.2401 21.4919 37.2032 21.598C36.7456 22.9089 36.2266 24.2394 35.6464 25.5896C34.9744 27.1452 34.2194 28.7171 33.3854 30.2877C33.4042 30.3461 33.422 30.4038 33.4404 30.462C34.6388 30.2142 35.8218 29.8865 36.9828 29.4809C37.1623 29.4173 37.3421 29.3538 37.5158 29.2873C38.1173 28.0154 38.6647 26.7528 39.1581 25.4994C39.4981 24.6377 39.8121 23.7845 40.1001 22.9398C40.4903 21.7952 40.8318 20.6727 41.1246 19.5723C41.5161 18.1192 41.8287 16.6424 42.0608 15.1497C42.9596 9.24551 42.1278 4.64481 39.3813 2.92841Z" stroke="#0A1119" stroke-linecap="round" stroke-linejoin="round"/>
<path d="M36.6177 1.20168C33.8711 -0.514732 29.7743 1.00593 25.4998 4.80054C26.578 5.76446 27.6032 6.7959 28.5701 7.88954C30.2702 7.0007 31.7884 6.82622 32.93 7.53965C33.5026 7.91372 33.957 8.46675 34.2335 9.1259C34.722 10.3782 34.9324 11.7369 34.848 13.0932C34.8187 14.1126 34.7153 15.128 34.5386 16.1299C34.505 16.3259 34.4659 16.5261 34.427 16.7262C34.171 18.0174 33.8417 19.2902 33.4407 20.5374C33.4223 20.5955 33.4046 20.6532 33.3857 20.7115C32.8554 22.3467 32.2344 23.9457 31.5261 25.5C31.0926 26.454 30.6197 27.4161 30.1062 28.3787C29.5928 29.3413 29.0595 30.2656 28.5129 31.149C30.1106 31.0358 31.7004 30.8184 33.2739 30.498C33.2927 30.4629 33.312 30.4289 33.3307 30.3938C33.3495 30.3586 33.367 30.3234 33.3857 30.2882C34.2197 28.7177 34.9746 27.1457 35.6467 25.5901C36.2287 24.243 36.7476 22.9124 37.2035 21.5985C37.2406 21.4923 37.2772 21.3864 37.3132 21.2806C37.6944 20.1673 38.0295 19.0747 38.3186 18.0027C38.6782 16.6713 38.9695 15.3771 39.1836 14.1376C40.2628 7.89011 39.4744 2.98693 36.6177 1.20168Z" stroke="#0A1119" stroke-linecap="round" stroke-linejoin="round"/>
<path d="M42.0614 35.8497C40.7511 36.3784 39.4133 36.8237 38.0548 37.1833C37.9159 39.2214 37.2964 40.7317 36.1549 41.4452C35.5693 41.7949 34.8995 41.9444 34.2339 41.874C32.9877 41.7057 31.7954 41.2236 30.7525 40.4664C29.9515 39.9292 29.1908 39.3245 28.4775 38.658C28.3376 38.5285 28.1969 38.3917 28.0563 38.2552C27.1512 37.3697 26.2975 36.4246 25.5001 35.4251C25.4628 35.3787 25.4255 35.3332 25.3882 35.2864C24.3452 33.9717 23.3763 32.59 22.4869 31.149C21.9403 30.2656 21.4092 29.3422 20.8936 28.3787C20.3802 27.4161 19.9073 26.4541 19.4738 25.5C18.7655 27.0542 18.1445 28.6532 17.6141 30.2884C17.6328 30.3236 17.6504 30.3587 17.6691 30.3938C17.6878 30.4289 17.7073 30.463 17.7261 30.4981C18.5657 32.0653 19.4459 33.5588 20.3545 34.9665C21.1414 36.1857 21.9497 37.3374 22.7697 38.4218C22.8362 38.5096 22.9027 38.5969 22.9692 38.6835C23.6694 39.5975 24.3761 40.4579 25.0891 41.2649C25.9746 42.2677 26.8644 43.1879 27.749 44.0083C32.208 48.1438 36.5252 49.8563 39.3819 48.0711C42.1285 46.3546 42.9602 41.7539 42.0614 35.8497Z" stroke="#0A1119" stroke-linecap="round" stroke-linejoin="round"/>
<path d="M25.6116 15.7141C25.5741 15.714 25.5373 15.7129 25.4998 15.7129C25.4623 15.7129 25.4253 15.7142 25.3879 15.7142C23.7142 15.7176 22.0791 15.796 20.4985 15.9438C19.1296 16.0718 17.804 16.2537 16.5264 16.4802C16.4229 16.4986 16.3198 16.5173 16.2172 16.5364C15.1358 16.7357 14.0941 16.9679 13.0919 17.2329C11.8468 17.5615 10.6657 17.9356 9.56693 18.3546C4.02884 20.4667 0.5 23.6573 0.5 27.2278C0.499968 30.6606 3.76506 33.7406 8.93838 35.8503C9.1705 34.3576 9.48314 32.8809 9.87471 31.4277C8.31349 30.2784 7.41483 28.9425 7.41483 27.5157C7.4278 26.7919 7.64304 26.0893 8.03218 25.5006C8.7899 24.4166 9.7718 23.5399 10.8991 22.9409C11.7294 22.4587 12.5935 22.048 13.4834 21.7127C13.6571 21.6462 13.8369 21.5827 14.0164 21.5191C15.1774 21.1135 16.3605 20.7858 17.5588 20.538C17.6145 20.5263 17.6696 20.514 17.7257 20.5026C19.2991 20.1821 20.889 19.9647 22.4866 19.8516C23.4667 19.7809 24.4728 19.7431 25.4998 19.7431C26.5267 19.7431 27.5328 19.7808 28.5129 19.8515C27.6235 18.4105 26.6547 17.0289 25.6116 15.7141Z" stroke="#0A1119" stroke-linecap="round" stroke-linejoin="round"/>
</svg>
