<svg width="51" height="50" viewBox="0 0 51 50" fill="none" xmlns="http://www.w3.org/2000/svg">
<path d="M21.6691 3.21094C21.7362 3.21095 21.8023 3.22017 21.8654 3.2373C22.0549 3.28871 22.2202 3.41307 22.3204 3.58789L25.1271 8.48828L27.9347 3.58789L27.9894 3.50488C28.1301 3.32105 28.3499 3.21098 28.5851 3.21094H42.5323C42.6329 3.21099 42.7306 3.23108 42.8204 3.26855L42.9064 3.31152C42.9416 3.33184 42.9744 3.356 43.006 3.38184C43.0755 3.43878 43.1366 3.50744 43.1827 3.58789L50.1564 15.7617C50.2885 15.9925 50.2885 16.277 50.1564 16.5078L43.1827 28.6816C43.0492 28.9148 42.8011 29.0594 42.5323 29.0596C42.523 29.0596 42.5133 29.058 42.504 29.0576H36.9083L39.7247 33.9746C39.857 34.2055 39.857 34.4898 39.7247 34.7207L32.7511 46.8945C32.6174 47.1278 32.3685 47.2715 32.0997 47.2715C32.0902 47.2715 32.0808 47.2699 32.0714 47.2695H18.1544C17.8858 47.2695 17.6377 47.1256 17.504 46.8926L10.5304 34.7188C10.5062 34.6765 10.4871 34.6321 10.4718 34.5869C10.4561 34.5405 10.444 34.4934 10.4376 34.4453C10.4318 34.4019 10.4309 34.3581 10.4327 34.3145C10.435 34.2609 10.4415 34.2075 10.4552 34.1553C10.4597 34.1381 10.466 34.1214 10.4718 34.1045C10.4871 34.0596 10.5063 34.0156 10.5304 33.9736L13.3458 29.0576H7.7218C7.45319 29.0574 7.20493 28.9128 7.07141 28.6797L0.105591 16.5186C0.104042 16.516 0.102228 16.5134 0.100708 16.5107C0.0169706 16.3662 -0.0143769 16.2005 0.00598145 16.04V16.0342C0.0187568 15.9379 0.0504579 15.8436 0.100708 15.7568C0.102369 15.754 0.103896 15.7509 0.105591 15.748L7.07141 3.58789L7.12708 3.50488C7.26767 3.32135 7.48689 3.21115 7.7218 3.21094H21.6691ZM18.589 45.7695H30.8048L24.6925 35.0967H12.4757L18.589 45.7695ZM26.1027 34.1514L25.9913 34.3457L32.0997 45.0098L38.2091 34.3467L34.965 28.6836L32.0997 23.6826L26.1027 34.1514ZM22.3204 28.6826C22.2536 28.7993 22.1577 28.8939 22.045 28.959C21.9327 29.0241 21.8032 29.0595 21.6691 29.0596H15.0734L12.4747 33.5957H24.6935L30.8058 22.9219H25.6193L22.3204 28.6826ZM8.15735 27.5576H20.3751L14.2618 16.8848H2.04407L8.15735 27.5576ZM25.504 21.4199H32.0997L32.1993 21.4258C32.429 21.4564 32.6341 21.5926 32.7511 21.7969L36.0509 27.5576H41.2384L35.1241 16.8848H22.9064L25.504 21.4199ZM15.5597 16.1328L21.6691 26.7988L24.2628 22.2715L20.9611 16.5078C20.8288 16.2769 20.8288 15.9926 20.9611 15.7617L20.962 15.7598C20.9625 15.7589 20.9625 15.7577 20.963 15.7568C20.9647 15.754 20.9662 15.7509 20.9679 15.748L24.2628 9.99707L21.6691 5.46973L15.5597 16.1328ZM36.422 16.1328L42.5314 26.7988L48.6407 16.1348L42.5314 5.46973L36.422 16.1328ZM2.04407 15.3828H14.2618L20.3741 4.71094H8.15735L2.04407 15.3828ZM25.7833 10.3584C25.7813 10.3621 25.7805 10.3665 25.7784 10.3701L22.9064 15.3828H35.1241L41.2374 4.71094H29.0197L25.7833 10.3584Z" fill="#0A1119"/>
</svg>
