<svg width="20" height="20" viewBox="0 0 20 20" fill="none" xmlns="http://www.w3.org/2000/svg">
<path d="M19.9719 11.1316C19.9719 11.1315 19.9719 11.1314 19.9718 11.1313L16.1958 1.64991C16.1156 1.44846 15.8873 1.35011 15.6858 1.43025C15.6857 1.4303 15.6855 1.43035 15.6854 1.43045L0.366301 7.53036C0.303827 7.55735 0.249648 7.60044 0.209259 7.6552C0.0818582 7.72141 0.00137412 7.85244 0 7.99599V18.2037C0 18.4205 0.175789 18.5963 0.392605 18.5963H16.882C17.0988 18.5963 17.2746 18.4205 17.2746 18.2037V12.6287L19.7528 11.6417C19.9542 11.5614 20.0523 11.333 19.9719 11.1316ZM16.4894 17.8111H0.785211V8.38859H16.4894V17.8111ZM6.55062 7.60534L13.1244 4.98588C13.7111 5.60257 14.524 5.95306 15.3752 5.9564L16.0309 7.60534H6.55062ZM17.2746 11.7854V7.99599C17.2746 7.77917 17.0988 7.60338 16.882 7.60338H16.8757L16.0438 5.51394C16.0346 5.49651 16.0238 5.47993 16.0116 5.46447C15.9695 5.27538 15.7944 5.14636 15.6013 5.16216C14.8094 5.23435 14.0346 4.90073 13.5429 4.27566C13.4206 4.12465 13.2055 4.08711 13.0392 4.18771C13.0206 4.18992 13.0021 4.19336 12.9838 4.19792L4.95821 7.39373C4.86109 7.43181 4.7834 7.50734 4.74267 7.60338H2.30538L15.6116 2.30517L19.0975 11.0583L17.2746 11.7854Z" fill="#0A1119"/>
<path d="M1.85075 15.1587C2.613 15.384 3.20946 15.9797 3.4357 16.7417C3.48532 16.908 3.63829 17.022 3.81182 17.022C3.83218 17.0207 3.8524 17.0177 3.87228 17.013C3.8899 17.018 3.90791 17.0217 3.92607 17.024H13.3486C13.3648 17.0219 13.3808 17.0186 13.3965 17.0142C13.5926 17.0619 13.7903 16.9416 13.8381 16.7454C13.8382 16.7447 13.8384 16.744 13.8386 16.7433C14.0642 15.9805 14.6608 15.384 15.4235 15.1583C15.6085 15.1018 15.7234 14.9175 15.6928 14.7265C15.6981 14.7074 15.7019 14.688 15.7042 14.6683V11.5275C15.7019 11.5078 15.698 11.4884 15.6924 11.4694C15.7232 11.2783 15.6082 11.0939 15.4231 11.0375C14.6604 10.8119 14.064 10.2151 13.839 9.45219C13.7821 9.26595 13.596 9.15072 13.4039 9.18287C13.3858 9.17781 13.3673 9.17413 13.3486 9.17188H3.92607C3.90629 9.17423 3.88671 9.17816 3.86757 9.18365C3.67661 9.15323 3.49238 9.26811 3.4357 9.45298C3.20991 10.2156 2.61339 10.8119 1.85075 11.0375C1.66579 11.0941 1.55085 11.2784 1.58143 11.4694C1.57632 11.4885 1.57264 11.5079 1.57043 11.5275V14.6683C1.57269 14.6868 1.57637 14.7051 1.58143 14.7229C1.54923 14.9152 1.66441 15.1015 1.85075 15.1587ZM2.35565 11.6869C3.144 11.3703 3.76883 10.7454 4.08546 9.95709H13.1888C13.5056 10.7454 14.1306 11.3703 14.919 11.6869V14.509C14.1309 14.8259 13.5062 15.4507 13.1892 16.2388H4.08546C3.76848 15.4507 3.14375 14.8259 2.35565 14.509V11.6869Z" fill="#0A1119"/>
<path d="M8.63688 15.4535C9.93788 15.4535 10.9925 14.3988 10.9925 13.0978C10.9925 11.7968 9.93788 10.7422 8.63688 10.7422C7.33589 10.7422 6.28125 11.7968 6.28125 13.0978C6.28253 14.3983 7.33643 15.4522 8.63688 15.4535ZM8.63688 11.5274C9.5042 11.5274 10.2073 12.2305 10.2073 13.0978C10.2073 13.9651 9.5042 14.6682 8.63688 14.6682C7.76957 14.6682 7.06646 13.9651 7.06646 13.0978C7.06646 12.2305 7.76957 11.5274 8.63688 11.5274Z" fill="#0A1119"/>
<path d="M4.31938 13.6895C4.6446 13.6895 4.90828 13.4259 4.90828 13.1006C4.90828 12.7754 4.6446 12.5117 4.31938 12.5117C3.99415 12.5117 3.73047 12.7754 3.73047 13.1006C3.73047 13.4259 3.99415 13.6895 4.31938 13.6895ZM4.31938 12.9043C4.42778 12.9043 4.51568 12.9922 4.51568 13.1006C4.51568 13.209 4.42778 13.2969 4.31938 13.2969C4.21097 13.2969 4.12307 13.209 4.12307 13.1006C4.12307 12.9922 4.21097 12.9043 4.31938 12.9043Z" fill="#0A1119"/>
<path d="M12.956 13.6895C13.2812 13.6895 13.5449 13.4259 13.5449 13.1006C13.5449 12.7754 13.2812 12.5117 12.956 12.5117C12.6307 12.5117 12.3671 12.7754 12.3671 13.1006C12.3671 13.4259 12.6307 13.6895 12.956 13.6895ZM12.956 12.9043C13.0644 12.9043 13.1523 12.9922 13.1523 13.1006C13.1523 13.209 13.0644 13.2969 12.956 13.2969C12.8476 13.2969 12.7597 13.209 12.7597 13.1006C12.7597 12.9922 12.8476 12.9043 12.956 12.9043Z" fill="#0A1119"/>
</svg>
