<svg width="41" height="41" viewBox="0 0 41 41" fill="none" xmlns="http://www.w3.org/2000/svg">
<path d="M32.2428 16.8534L29.7179 14.3286C28.5226 13.1596 26.912 12.5133 25.2402 12.5316C23.5684 12.55 21.9723 13.2316 20.8031 14.4266L20.5002 14.7294L26.2713 20.5004L26.5741 20.8032C27.7691 21.9724 28.4508 23.5685 28.4691 25.2402C28.4875 26.912 27.8411 28.5226 26.6721 29.7179L24.1473 32.2427C19.477 36.9128 11.8209 36.8287 7.04688 32.0548L11.8561 36.8639C16.6301 41.6379 24.2862 41.722 28.9565 37.0518L32.0549 33.9535C36.8289 29.1796 36.913 21.5236 32.2428 16.8534Z" stroke="white" stroke-linecap="round" stroke-linejoin="round"/>
<path d="M8.75747 24.1467L11.2823 26.6715C12.4776 27.8405 14.0882 28.4869 15.76 28.4685C17.4318 28.4501 19.0279 27.7685 20.1972 26.5735L20.5 26.2707L14.7289 20.4998L14.4261 20.197C13.2311 19.0277 12.5495 17.4317 12.5311 15.7599C12.5127 14.0881 13.1591 12.4775 14.3281 11.2823L16.853 8.75748C21.5232 4.0873 29.1793 4.17142 33.9533 8.94537L29.1441 4.13623C24.3701 -0.637719 16.714 -0.721846 12.0438 3.94834L8.94538 7.04666C4.17136 11.8206 4.0872 19.4765 8.75747 24.1467Z" stroke="white" stroke-linecap="round" stroke-linejoin="round"/>
<path d="M24.1472 32.2423L26.672 29.7175C27.841 28.5222 28.4874 26.9116 28.469 25.2399C28.4507 23.5681 27.769 21.9721 26.574 20.8028L26.2712 20.5L20.5001 26.271L20.1973 26.5738C19.028 27.7687 17.432 28.4504 15.7602 28.4687C14.0884 28.4871 12.4777 27.8407 11.2825 26.6717L8.75763 24.1469C4.08736 19.4768 4.17149 11.8208 8.94552 7.04688L4.1363 11.856C-0.63774 16.63 -0.721869 24.2859 3.9484 28.9561L7.04678 32.0544C11.8208 36.8283 19.4769 36.9125 24.1472 32.2423Z" stroke="white" stroke-linecap="round" stroke-linejoin="round"/>
<path d="M16.8528 8.7579L14.3279 11.2827C13.1589 12.4779 12.5125 14.0886 12.5309 15.7603C12.5493 17.4321 13.2309 19.0281 14.4259 20.1974L14.7287 20.5002L20.4998 14.7292L20.8026 14.4264C21.9719 13.2315 23.5679 12.5498 25.2397 12.5315C26.9115 12.5131 28.5222 13.1595 29.7174 14.3284L32.2423 16.8532C36.9126 21.5234 36.8284 29.1794 32.0544 33.9533L36.8636 29.1442C41.6377 24.3702 41.7218 16.7143 37.0515 12.0441L33.9531 8.94579C29.1791 4.17187 21.523 4.08772 16.8528 8.7579Z" stroke="white" stroke-linecap="round" stroke-linejoin="round"/>
</svg>
