<svg width="51" height="51" viewBox="0 0 51 51" fill="none" xmlns="http://www.w3.org/2000/svg">
<path d="M32.9302 7.53971C31.7886 6.82628 30.2704 7.00076 28.5703 7.88961C29.3027 8.71302 30.0301 9.59436 30.7524 10.5336C31.7953 9.77638 32.9876 9.29426 34.2338 9.12596C33.9573 8.46682 33.5028 7.91378 32.9302 7.53971Z" stroke="#0A1119" stroke-linecap="round" stroke-linejoin="round"/>
<path d="M20.2479 40.4665C19.2051 41.2238 18.0127 41.7059 16.7666 41.8742C17.0431 42.5333 17.4976 43.0864 18.0702 43.4604C19.2118 44.1738 20.7299 43.9994 22.4301 43.1105C21.6977 42.2871 20.9703 41.4058 20.2479 40.4665Z" stroke="#0A1119" stroke-linecap="round" stroke-linejoin="round"/>
<path d="M28.4766 38.658C29.1898 39.3246 29.9505 39.9292 30.7515 40.4664C31.2828 39.7748 31.8085 39.0539 32.3285 38.3036C31.0812 38.4664 29.7972 38.5846 28.4766 38.658Z" stroke="#0A1119" stroke-linecap="round" stroke-linejoin="round"/>
<path d="M20.2469 10.5333C19.7155 11.2249 19.1899 11.9459 18.6699 12.6961C19.9172 12.5333 21.2012 12.4151 22.5218 12.3417C21.8086 11.6751 21.0479 11.0705 20.2469 10.5333Z" stroke="#0A1119" stroke-linecap="round" stroke-linejoin="round"/>
<path d="M34.8479 37.9066C34.9323 39.2628 34.7218 40.6216 34.2334 41.8739C34.899 41.9443 35.5688 41.7947 36.1544 41.445C37.296 40.7316 37.9155 39.2213 38.0543 37.1831C37.0293 37.458 35.9605 37.6991 34.8479 37.9066Z" stroke="#0A1119" stroke-linecap="round" stroke-linejoin="round"/>
<path d="M14.8444 9.55474C13.7027 10.2682 13.0833 11.7785 12.9443 13.8166C13.9694 13.5418 15.0382 13.3007 16.1508 13.0932C16.0664 11.7369 16.2769 10.3782 16.7653 9.12592C16.0997 9.05548 15.4299 9.20499 14.8444 9.55474Z" stroke="#0A1119" stroke-linecap="round" stroke-linejoin="round"/>
<path d="M33.3315 30.3937C33.3504 30.3585 33.3679 30.3233 33.3867 30.2881C33.4056 30.3465 33.4234 30.4042 33.442 30.4624C33.386 30.4742 33.3307 30.4864 33.2744 30.4979C33.2933 30.4628 33.3127 30.4288 33.3315 30.3937Z" stroke="#0A1119" stroke-linecap="round" stroke-linejoin="round"/>
<path d="M17.669 20.6061C17.6502 20.6413 17.6327 20.6765 17.6139 20.7117C17.595 20.6533 17.5772 20.5956 17.5586 20.5374C17.6146 20.5256 17.6699 20.5134 17.7261 20.5019C17.7073 20.537 17.6878 20.571 17.669 20.6061Z" stroke="#0A1119" stroke-linecap="round" stroke-linejoin="round"/>
<path d="M10.8984 22.9402C11.1861 23.7841 11.5001 24.6373 11.8404 25.4998C12.3337 24.2491 12.8812 22.9865 13.4828 21.7119C12.5928 22.0472 11.7287 22.4579 10.8984 22.9402Z" stroke="#0A1119" stroke-linecap="round" stroke-linejoin="round"/>
<path d="M17.669 30.3935C17.6879 30.4287 17.7074 30.4627 17.7262 30.4978C17.6699 30.4863 17.6146 30.474 17.5586 30.4623C17.5772 30.4041 17.5949 30.3464 17.6138 30.2881C17.6326 30.3233 17.6502 30.3584 17.669 30.3935Z" stroke="#0A1119" stroke-linecap="round" stroke-linejoin="round"/>
<path d="M39.159 25.4999C38.6656 26.7506 38.1182 28.0132 37.5166 29.2878C38.4065 28.9525 39.2706 28.5418 40.1009 28.0595C39.8132 27.2157 39.4992 26.3624 39.159 25.4999Z" stroke="#0A1119" stroke-linecap="round" stroke-linejoin="round"/>
<path d="M8.0324 25.4999C7.64325 26.0887 7.42801 26.7912 7.41504 27.515C7.41504 28.9418 8.31371 30.2777 9.87492 31.427C10.1676 30.3288 10.509 29.2063 10.8993 28.0595C9.77202 27.4605 8.79012 26.5839 8.0324 25.4999Z" stroke="#0A1119" stroke-linecap="round" stroke-linejoin="round"/>
<path d="M32.3291 12.6963C33.0831 13.784 33.8196 14.9285 34.5387 16.1297C34.7153 15.1279 34.8188 14.1125 34.848 13.093C34.029 12.9408 33.1894 12.8085 32.3291 12.6963Z" stroke="#0A1119" stroke-linecap="round" stroke-linejoin="round"/>
<path d="M25.4996 15.7122C25.4621 15.7122 25.4252 15.7135 25.3877 15.7136C25.425 15.6667 25.4623 15.6212 25.4996 15.5748C25.5368 15.6212 25.5741 15.6666 25.6114 15.7135C25.574 15.7133 25.5371 15.7122 25.4996 15.7122Z" stroke="#0A1119" stroke-linecap="round" stroke-linejoin="round"/>
<path d="M42.0618 15.1499C41.8297 16.6426 41.5171 18.1193 41.1255 19.5724C42.6868 20.7217 43.5854 22.0576 43.5854 23.4844C43.5724 24.2082 43.3572 24.9108 42.968 25.4996C42.2103 26.5836 41.2284 27.4602 40.1011 28.0592C39.2708 28.5415 38.4067 28.9522 37.5168 29.2875C37.3431 29.354 37.1634 29.4174 36.9839 29.481C35.8228 29.8867 34.6398 30.2144 33.4415 30.4621C33.3857 30.4739 33.3307 30.4861 33.2746 30.4976C31.7011 30.818 30.1113 31.0354 28.5136 31.1486C27.5335 31.2193 26.5274 31.257 25.5005 31.257C24.4736 31.257 23.4674 31.2193 22.4873 31.1486C23.3767 32.5896 24.3455 33.9713 25.3886 35.286C25.4261 35.2861 25.4629 35.2872 25.5005 35.2872C25.538 35.2872 25.5749 35.286 25.6124 35.2859C27.286 35.2825 28.9211 35.2042 30.5018 35.0563C31.8707 34.9283 33.1962 34.7464 34.4738 34.5199C34.5773 34.5016 34.6804 34.4829 34.783 34.4638C35.8644 34.2644 36.9062 34.0322 37.9083 33.7672C39.1534 33.4386 40.3345 33.0646 41.4332 32.6456C46.9714 30.5335 50.5002 27.3429 50.5002 23.7723C50.5002 20.3395 47.2352 17.2595 42.0618 15.1499Z" stroke="#0A1119" stroke-linecap="round" stroke-linejoin="round"/>
<path d="M22.9436 12.7446C22.803 12.6081 22.6623 12.4714 22.5223 12.3418C21.2039 12.4139 19.9199 12.5321 18.6704 12.6963C17.811 12.8085 16.9714 12.9408 16.1515 13.0931C15.0406 13.2996 13.9718 13.5408 12.945 13.8165C11.5866 14.1761 10.2488 14.6214 8.93842 15.1501C3.76509 17.2598 0.5 20.3398 0.5 23.7726V27.2271C0.5 23.6565 4.02884 20.4659 9.56698 18.3538C10.6657 17.9348 11.8468 17.5608 13.0919 17.2321C14.0926 16.968 15.1343 16.7358 16.2172 16.5356C16.32 16.5167 16.4231 16.498 16.5264 16.4794C17.804 16.253 19.1296 16.0711 20.4985 15.943C22.0791 15.7952 23.7143 15.7169 25.3879 15.7135C25.4252 15.6666 25.4625 15.6211 25.4998 15.5747C24.7024 14.5753 23.8487 13.6301 22.9436 12.7446Z" stroke="#0A1119" stroke-linecap="round" stroke-linejoin="round"/>
<path d="M41.125 19.5726C40.8324 20.6709 40.4909 21.7934 40.1006 22.9401C41.2279 23.5391 42.2098 24.4158 42.9675 25.4997C43.3567 24.911 43.5719 24.2084 43.5849 23.4846C43.5849 22.0578 42.6863 20.7219 41.125 19.5726Z" stroke="#0A1119" stroke-linecap="round" stroke-linejoin="round"/>
<path d="M16.4607 34.8699C16.2841 35.8718 16.1806 36.8872 16.1514 37.9066C16.9704 38.0589 17.81 38.1911 18.6703 38.3034C17.9163 37.2156 17.1798 36.0711 16.4607 34.8699Z" stroke="#0A1119" stroke-linecap="round" stroke-linejoin="round"/>
<path d="M12.6813 32.9967C12.9703 31.9267 13.3054 30.8341 13.6867 29.7189C13.7229 29.613 13.7594 29.507 13.7963 29.401C14.254 28.09 14.7729 26.7595 15.3532 25.4093C16.0253 23.8537 16.7801 22.2818 17.6142 20.7112C17.5954 20.6529 17.5776 20.5951 17.5591 20.537C16.3608 20.7847 15.1778 21.1124 14.0168 21.518C13.8372 21.5816 13.6574 21.6451 13.4838 21.7116C12.8822 22.9835 12.3348 24.2462 11.8414 25.4995C11.5015 26.3612 11.1875 27.2144 10.8995 28.0591C10.5092 29.2038 10.1678 30.3262 9.87505 31.4266C9.48348 32.8798 9.17084 34.3565 8.93873 35.8492C8.03996 41.7534 8.87171 46.3541 11.6183 48.0705L14.3822 49.7978C11.5255 48.0125 10.737 43.1093 11.8163 36.8618C12.0304 35.6224 12.3217 34.3282 12.6813 32.9967Z" stroke="#0A1119" stroke-linecap="round" stroke-linejoin="round"/>
<path d="M25.4996 35.2874C25.5371 35.2874 25.574 35.2862 25.6115 35.2861C25.5742 35.3329 25.5368 35.3784 25.4996 35.4249C25.4623 35.3785 25.425 35.333 25.3877 35.2862C25.4252 35.2863 25.462 35.2874 25.4996 35.2874Z" stroke="#0A1119" stroke-linecap="round" stroke-linejoin="round"/>
<path d="M33.3311 20.606C33.3123 20.5708 33.2929 20.5368 33.2741 20.5017C32.4346 18.9346 31.5543 17.441 30.6457 16.0332C29.8588 14.8141 29.0505 13.6624 28.2304 12.578C28.1641 12.4902 28.0976 12.4029 28.031 12.3163C27.3308 11.4023 26.6242 10.5418 25.911 9.73488C25.0255 8.73208 24.1357 7.8119 23.2511 6.99152C18.7921 2.85608 14.475 1.14351 11.6182 2.92878C8.87169 4.64519 8.03996 9.24586 8.93873 15.1501C10.2491 14.6213 11.5869 14.1761 12.9453 13.8165C13.0842 11.7784 13.7037 10.2681 14.8453 9.55464C15.4309 9.20489 16.1006 9.05538 16.7663 9.12582C18.0124 9.2941 19.2048 9.77619 20.2477 10.5334C21.0487 11.0706 21.8094 11.6753 22.5226 12.3418C22.6626 12.4714 22.8033 12.6081 22.9439 12.7446C23.849 13.6301 24.7027 14.5753 25.5001 15.5747C25.5373 15.6211 25.5746 15.6665 25.6119 15.7133C26.655 17.0281 27.6239 18.4097 28.5132 19.8508C29.0598 20.7341 29.5909 21.6576 30.1065 22.6211C30.62 23.5837 31.0929 24.5458 31.5264 25.4998C32.2347 23.9456 32.8557 22.3465 33.386 20.7113C33.3673 20.6762 33.3498 20.6411 33.3311 20.606Z" stroke="#0A1119" stroke-linecap="round" stroke-linejoin="round"/>
<path d="M22.4291 43.1101C20.7289 43.9989 19.2108 44.1734 18.0691 43.46C17.4965 43.0859 17.0421 42.5329 16.7656 41.8737C16.2772 40.6215 16.0667 39.2627 16.1511 37.9065C16.1804 36.887 16.2838 35.8716 16.4605 34.8698C16.4941 34.6738 16.5333 34.4736 16.5721 34.2735C16.8281 32.9823 17.1575 31.7095 17.5584 30.4623C17.5769 30.4041 17.5946 30.3464 17.6134 30.2881C18.1438 28.653 18.7648 27.0539 19.473 25.4997C19.9066 24.5457 20.3794 23.5836 20.8929 22.621C21.4063 21.6584 21.9396 20.7341 22.4862 19.8507C20.8886 19.9639 19.2987 20.1812 17.7252 20.5017C17.7065 20.5367 17.6871 20.5707 17.6684 20.6059C17.6496 20.641 17.6321 20.6762 17.6134 20.7114C16.7794 22.282 16.0245 23.8539 15.3524 25.4095C14.7704 26.7567 14.2515 28.0873 13.7956 29.4012C13.7585 29.5074 13.7219 29.6133 13.6859 29.7191C13.3048 30.8324 12.9696 31.925 12.6805 32.9969C12.3209 34.3284 12.0296 35.6226 11.8155 36.8621C10.7363 43.1095 11.5247 48.0128 14.3814 49.798C17.128 51.5144 21.2248 49.9938 25.4994 46.1991C24.4211 45.2352 23.3959 44.2038 22.4291 43.1101Z" stroke="#0A1119" stroke-linecap="round" stroke-linejoin="round"/>
<path d="M27.7487 44.0083C26.8641 43.1879 25.9743 42.2676 25.0888 41.2648C24.3772 40.4589 23.6706 39.5984 22.9689 38.6835C22.9023 38.5966 22.8358 38.5093 22.7694 38.4218C21.9494 37.3373 21.1411 36.1856 20.3542 34.9665C19.4456 33.5587 18.5654 32.0652 17.7258 30.498C17.6697 30.4865 17.6146 30.4742 17.5588 30.4625C17.1579 31.7097 16.8285 32.9826 16.5726 34.2737C16.5337 34.4738 16.4946 34.674 16.4609 34.87C17.1779 36.0699 17.9144 37.2144 18.6705 38.3035C19.19 39.053 19.7156 39.7739 20.2474 40.4664C20.9681 41.4044 21.6955 42.2858 22.4295 43.1104C23.3964 44.204 24.4216 45.2354 25.4998 46.1994C29.7744 49.994 33.8712 51.5146 36.6177 49.7982L39.3816 48.071C36.5249 49.8563 32.2077 48.1437 27.7487 44.0083Z" stroke="#0A1119" stroke-linecap="round" stroke-linejoin="round"/>
<path d="M41.4328 32.6458C40.3341 33.0649 39.1529 33.4389 37.9079 33.7675C36.9072 34.0316 35.8655 34.2638 34.7826 34.464C34.6798 34.483 34.5767 34.5017 34.4734 34.5202C33.1957 34.7467 31.8702 34.9286 30.5013 35.0566C28.9207 35.2044 27.2856 35.2828 25.6119 35.2862C25.5747 35.333 25.5373 35.3785 25.5 35.425C26.2974 36.4244 27.1511 37.3696 28.0561 38.2551C28.1968 38.3916 28.3375 38.5283 28.4774 38.6578C29.7959 38.5857 31.0798 38.4676 32.3293 38.3034C33.1887 38.1912 34.0284 38.0589 34.8483 37.9066C35.9592 37.7001 37.028 37.4589 38.0547 37.1831C39.4132 36.8236 40.751 36.3783 42.0613 35.8495C47.2347 33.7399 50.4998 30.6599 50.4998 27.2271V23.7726C50.4998 27.3432 46.9709 30.5338 41.4328 32.6458Z" stroke="#0A1119" stroke-linecap="round" stroke-linejoin="round"/>
<path d="M32.3292 12.6963C31.8097 11.9469 31.2841 11.2259 30.7523 10.5335C30.0316 9.59538 29.3042 8.71404 28.5702 7.88947C27.6033 6.79583 26.5781 5.76439 25.4999 4.80047C21.2253 1.00584 17.1285 -0.514844 14.3819 1.20161L11.618 2.92884C14.4748 1.14356 18.792 2.85613 23.251 6.99156C24.1356 7.81195 25.0254 8.73211 25.9109 9.73492C26.6225 10.5408 27.3291 11.4013 28.0308 12.3163C28.0974 12.4032 28.1638 12.4905 28.2303 12.578C29.0503 13.6624 29.8587 14.8141 30.6455 16.0333C31.5541 17.441 32.4344 18.9346 33.2739 20.5018C33.2927 20.5369 33.3121 20.5708 33.3309 20.606C33.3497 20.6411 33.3672 20.6763 33.3858 20.7114C33.4047 20.6531 33.4224 20.5954 33.4409 20.5373C33.8418 19.2901 34.1711 18.0173 34.4271 16.7261C34.466 16.526 34.5051 16.3258 34.5387 16.1298C33.8218 14.9299 33.0852 13.7854 32.3292 12.6963Z" stroke="#0A1119" stroke-linecap="round" stroke-linejoin="round"/>
<path d="M39.3816 2.92905L36.6178 1.20181C39.4745 2.98707 40.2629 7.89024 39.1836 14.1378C38.9696 15.3772 38.6783 16.6714 38.3187 18.0028C38.0297 19.0728 37.6945 20.1655 37.3133 21.2807C37.2771 21.3866 37.2405 21.4926 37.2036 21.5986C36.746 22.9095 36.227 24.2401 35.6467 25.5903C34.9747 27.1458 34.2198 28.7178 33.3857 30.2883C33.4046 30.3467 33.4223 30.4044 33.4408 30.4626C34.6391 30.2149 35.8222 29.8872 36.9832 29.4815C37.1627 29.4179 37.3425 29.3544 37.5161 29.288C38.1176 28.0161 38.6651 26.7534 39.1585 25.5001C39.4984 24.6384 39.8124 23.7852 40.1005 22.9404C40.4907 21.7958 40.8322 20.6733 41.1249 19.5729C41.5165 18.1198 41.8291 16.6431 42.0612 15.1504C42.96 9.24615 42.1282 4.64545 39.3816 2.92905Z" stroke="#0A1119" stroke-linecap="round" stroke-linejoin="round"/>
<path d="M36.6177 1.20159C33.8711 -0.514824 29.7743 1.00583 25.4998 4.80045C26.578 5.76437 27.6032 6.79581 28.5701 7.88945C30.2702 7.00061 31.7884 6.82613 32.93 7.53955C33.5026 7.91362 33.957 8.46666 34.2335 9.12581C34.722 10.3781 34.9324 11.7369 34.848 13.0931C34.8187 14.1126 34.7153 15.1279 34.5386 16.1298C34.505 16.3258 34.4659 16.526 34.427 16.7261C34.171 18.0173 33.8417 19.2901 33.4407 20.5373C33.4223 20.5954 33.4046 20.6531 33.3857 20.7114C32.8554 22.3466 32.2344 23.9456 31.5261 25.4999C31.0926 26.4539 30.6197 27.416 30.1062 28.3786C29.5928 29.3412 29.0595 30.2655 28.5129 31.1489C30.1106 31.0357 31.7004 30.8183 33.2739 30.4979C33.2927 30.4628 33.312 30.4289 33.3307 30.3937C33.3495 30.3585 33.367 30.3233 33.3857 30.2881C34.2197 28.7176 34.9746 27.1456 35.6467 25.5901C36.2287 24.2429 36.7476 22.9123 37.2035 21.5984C37.2406 21.4923 37.2772 21.3863 37.3132 21.2805C37.6944 20.1672 38.0295 19.0746 38.3186 18.0026C38.6782 16.6712 38.9695 15.377 39.1836 14.1376C40.2628 7.89002 39.4744 2.98684 36.6177 1.20159Z" stroke="#0A1119" stroke-linecap="round" stroke-linejoin="round"/>
<path d="M42.0615 35.8496C40.7512 36.3783 39.4134 36.8236 38.055 37.1832C37.9161 39.2213 37.2966 40.7316 36.155 41.4451C35.5694 41.7948 34.8997 41.9443 34.234 41.8739C32.9879 41.7056 31.7955 41.2235 30.7526 40.4663C29.9516 39.9291 29.1909 39.3245 28.4777 38.6579C28.3377 38.5284 28.197 38.3916 28.0564 38.2551C27.1513 37.3696 26.2976 36.4245 25.5002 35.425C25.4629 35.3787 25.4256 35.3332 25.3884 35.2863C24.3453 33.9716 23.3764 32.5899 22.4871 31.1489C21.9405 30.2655 21.4094 29.3421 20.8938 28.3786C20.3803 27.416 19.9074 26.454 19.4739 25.4999C18.7656 27.0541 18.1446 28.6531 17.6143 30.2883C17.6329 30.3235 17.6505 30.3586 17.6692 30.3937C17.6879 30.4288 17.7074 30.4629 17.7262 30.498C18.5658 32.0652 19.446 33.5587 20.3546 34.9665C21.1415 36.1856 21.9498 37.3373 22.7698 38.4217C22.8363 38.5095 22.9028 38.5968 22.9693 38.6835C23.6695 39.5974 24.3762 40.4579 25.0893 41.2648C25.9747 42.2676 26.8646 43.1878 27.7491 44.0082C32.2081 48.1437 36.5253 49.8562 39.382 48.071C42.1286 46.3545 42.9603 41.7538 42.0615 35.8496Z" stroke="#0A1119" stroke-linecap="round" stroke-linejoin="round"/>
<path d="M25.6116 15.7134C25.5741 15.7133 25.5373 15.7121 25.4998 15.7121C25.4623 15.7121 25.4253 15.7134 25.3879 15.7135C23.7142 15.7169 22.0791 15.7952 20.4985 15.943C19.1296 16.0711 17.804 16.2529 16.5264 16.4794C16.4229 16.4978 16.3198 16.5165 16.2172 16.5356C15.1358 16.735 14.0941 16.9671 13.0919 17.2321C11.8468 17.5608 10.6657 17.9348 9.56693 18.3538C4.02884 20.4659 0.5 23.6565 0.5 27.2271C0.499968 30.6598 3.76506 33.7399 8.93838 35.8495C9.1705 34.3568 9.48314 32.8801 9.87471 31.4269C8.31349 30.2777 7.41483 28.9418 7.41483 27.5149C7.4278 26.7911 7.64304 26.0886 8.03218 25.4998C8.7899 24.4158 9.7718 23.5392 10.8991 22.9402C11.7294 22.4579 12.5935 22.0472 13.4834 21.7119C13.6571 21.6454 13.8369 21.582 14.0164 21.5184C15.1774 21.1127 16.3605 20.7851 17.5588 20.5373C17.6145 20.5255 17.6696 20.5133 17.7257 20.5018C19.2991 20.1814 20.889 19.964 22.4866 19.8508C23.4667 19.7801 24.4728 19.7424 25.4998 19.7423C26.5267 19.7423 27.5328 19.7801 28.5129 19.8508C27.6235 18.4097 26.6547 17.0281 25.6116 15.7134Z" stroke="#0A1119" stroke-linecap="round" stroke-linejoin="round"/>
</svg>
