<svg width="55" height="34" viewBox="0 0 55 34" fill="none" xmlns="http://www.w3.org/2000/svg">
<path d="M19.6918 0C29.0668 0.000215435 36.6664 7.60051 36.6664 16.9756C36.6662 26.3505 29.0667 33.95 19.6918 33.9502C19.2346 33.9502 18.7814 33.9319 18.3334 33.8965V0.0537109C18.7814 0.01825 19.2347 0 19.6918 0Z" fill="url(#paint0_linear_252_15665)"/>
<path d="M38.025 0C47.4001 0.000149465 54.9996 7.60047 54.9996 16.9756C54.9995 26.3506 47.4 33.95 38.025 33.9502C37.5679 33.9502 37.1147 33.932 36.6666 33.8965V0.0537109C37.1147 0.0182436 37.5679 0 38.025 0Z" fill="url(#paint1_linear_252_15665)"/>
<path d="M1.3584 0C10.7334 0.000215435 18.333 7.60051 18.333 16.9756C18.3329 26.3505 10.7333 33.95 1.3584 33.9502C0.901271 33.9502 0.448012 33.9319 0 33.8965V0.0537109C0.448001 0.01825 0.901282 0 1.3584 0Z" fill="url(#paint2_linear_252_15665)"/>
<defs>
<linearGradient id="paint0_linear_252_15665" x1="18.3334" y1="16.9751" x2="36.6664" y2="16.9751" gradientUnits="userSpaceOnUse">
<stop stop-color="#097C7D"/>
<stop offset="1" stop-color="#20282D"/>
</linearGradient>
<linearGradient id="paint1_linear_252_15665" x1="36.6666" y1="16.9751" x2="54.9996" y2="16.9751" gradientUnits="userSpaceOnUse">
<stop stop-color="#097C7D"/>
<stop offset="1" stop-color="#20282D"/>
</linearGradient>
<linearGradient id="paint2_linear_252_15665" x1="0" y1="16.9751" x2="18.333" y2="16.9751" gradientUnits="userSpaceOnUse">
<stop stop-color="#097C7D"/>
<stop offset="1" stop-color="#20282D"/>
</linearGradient>
</defs>
</svg>
