<svg width="55" height="51" viewBox="0 0 55 51" fill="none" xmlns="http://www.w3.org/2000/svg">
<path d="M12.7498 15.0713L4.59277 29.0916H12.9523H12.9576L21.1151 15.0713H12.7498Z" stroke="#0A1119" stroke-linecap="round" stroke-linejoin="round"/>
<path d="M29.5928 0.5L25.4107 7.68892L33.7368 21.9999L37.9195 14.811L29.5928 0.5Z" stroke="#0A1119" stroke-linecap="round" stroke-linejoin="round"/>
<path d="M12.9563 29.0976L12.9589 29.0918H12.9531L12.9563 29.0976Z" stroke="#0A1119" stroke-linecap="round" stroke-linejoin="round"/>
<path d="M25.41 7.68896H0.5L8.77263 21.9081L12.7499 15.0715H21.1152L25.2222 21.9999H33.7367L25.41 7.68896Z" stroke="#0A1119" stroke-linecap="round" stroke-linejoin="round"/>
<path d="M4.68268 0.5L0.5 7.68892H25.41L29.5927 0.5H4.68268Z" stroke="#0A1119" stroke-linecap="round" stroke-linejoin="round"/>
<path d="M25.2801 36.2805L21.0187 29.0916L25.2226 21.9997L21.1156 15.0713L12.958 29.0916L25.4133 50.4996L33.6859 36.2805H25.2801Z" stroke="#0A1119" stroke-linecap="round" stroke-linejoin="round"/>
<path d="M12.9576 29.0918L12.9552 29.097L12.9523 29.0918H4.59277L17.0481 50.4998H25.4129L12.9576 29.0918Z" stroke="#0A1119" stroke-linecap="round" stroke-linejoin="round"/>
<path d="M37.8641 29.0918H21.0195L25.2809 36.2807H42.0462L37.8641 29.0918Z" stroke="#0A1119" stroke-linecap="round" stroke-linejoin="round"/>
<path d="M50.3205 7.68896L37.8652 29.097L42.045 36.2807L54.5003 14.8732L50.3205 7.68896Z" stroke="#0A1119" stroke-linecap="round" stroke-linejoin="round"/>
<path d="M33.7765 7.68896L37.9205 14.811L33.7378 21.9999H25.2233L21.0195 29.0918H37.8641L50.3218 7.68896H33.7765Z" stroke="#0A1119" stroke-linecap="round" stroke-linejoin="round"/>
</svg>
