<svg width="50" height="50" viewBox="0 0 50 50" fill="none" xmlns="http://www.w3.org/2000/svg">
<path d="M26.7211 1.66797C26.7919 1.66803 26.8578 1.69269 26.9135 1.73242C26.9515 1.75952 26.9859 1.79233 27.0102 1.83398C27.0107 1.83486 27.0107 1.83604 27.0112 1.83691L32.645 11.6992H43.9086C44.0298 11.6992 44.1414 11.7653 44.2006 11.8711L45.8735 14.8574L45.8754 14.8594C45.9056 14.9116 45.9196 14.97 45.9194 15.0283C45.9196 15.087 45.906 15.1459 45.8754 15.1982C45.8742 15.2003 45.8718 15.2021 45.8705 15.2041L40.2416 25.001L45.8764 34.8086C45.9349 34.9106 45.9356 35.036 45.8784 35.1387L44.2006 38.1338C44.1418 38.2389 44.031 38.3049 43.9106 38.3057C43.9007 38.3057 43.8911 38.3026 43.8813 38.3018H32.645L27.0121 48.1641C26.9525 48.2682 26.8411 48.3319 26.7211 48.332H23.3969C23.3872 48.3329 23.3775 48.3359 23.3676 48.3359C23.2472 48.3362 23.1354 48.2716 23.0756 48.167L17.4409 38.3018H6.17816C6.0572 38.3016 5.9454 38.2363 5.88617 38.1309L4.22113 35.1572C4.2181 35.1525 4.21418 35.1484 4.21136 35.1436C4.18136 35.0917 4.16645 35.0336 4.16644 34.9756V34.9688C4.1669 34.9113 4.1824 34.854 4.21234 34.8027C4.21489 34.7984 4.2184 34.7942 4.22113 34.79L9.84418 25.002L4.21136 15.1963C4.15272 15.0941 4.15186 14.968 4.20941 14.8652L5.88715 11.8711L5.91156 11.833C5.91685 11.826 5.92335 11.82 5.92914 11.8135C5.93697 11.8046 5.94488 11.796 5.95355 11.7881C5.96526 11.7774 5.97762 11.7677 5.99066 11.7588C6.00024 11.7522 6.00976 11.7458 6.01996 11.7402C6.03589 11.7316 6.05257 11.7247 6.06976 11.7188C6.07696 11.7163 6.08388 11.7129 6.09125 11.7109L6.09906 11.709C6.12418 11.7028 6.15067 11.6994 6.17719 11.6992H17.4428L23.0756 1.83691L23.101 1.7998C23.1638 1.71759 23.2615 1.66803 23.3666 1.66797H26.7211ZM23.9438 47.6621H26.5268L32.0639 37.9668L30.7407 35.6514L23.9438 47.6621ZM29.2973 32.4434L23.6977 42.248C23.6381 42.3524 23.5269 42.417 23.4067 42.417C23.2865 42.417 23.1753 42.3524 23.1157 42.248L21.3832 39.2148L19.3471 35.6504L18.0229 37.9697L23.3647 47.3213L30.4487 34.8066L30.4496 34.8037C30.4516 34.8003 30.4544 34.7973 30.4565 34.7939L30.4731 34.7695C30.4773 34.764 30.4823 34.7591 30.4868 34.7539C30.496 34.7432 30.5056 34.733 30.5161 34.7236C30.5268 34.7139 30.5384 34.7055 30.5502 34.6973C30.5599 34.6906 30.5692 34.6834 30.5795 34.6777C30.5831 34.6758 30.5866 34.6737 30.5903 34.6719L30.6528 34.6484L30.6537 34.6475C30.6813 34.6402 30.7105 34.6368 30.7397 34.6367H38.2778L37.0248 32.4434H29.2973ZM5.08246 34.6367H19.3481C19.4673 34.6368 19.5772 34.7006 19.6371 34.8037C19.638 34.8052 19.6383 34.8071 19.6391 34.8086L23.4067 41.4062L24.6577 39.2148L20.7905 32.4434H9.5932C9.4739 32.4433 9.3631 32.3805 9.30316 32.2773C9.2433 32.1741 9.243 32.046 9.30219 31.9424V31.9414L13.0746 25.3379H10.4252L5.08246 34.6367ZM21.2758 18.0615C21.2162 18.1659 21.105 18.2305 20.9848 18.2305H13.4438L17.2172 24.8359C17.2759 24.9388 17.2759 25.0651 17.2172 25.168L13.4438 31.7744H20.9848L21.0297 31.7773C21.1321 31.7912 21.2237 31.8513 21.2758 31.9424L25.0434 38.5391L28.811 31.9424L28.8354 31.9053C28.8981 31.823 28.9969 31.7735 29.102 31.7734H36.645L32.8705 25.166C32.8118 25.0631 32.8118 24.9359 32.8705 24.833L36.643 18.2285H29.102C28.982 18.2284 28.8715 18.1638 28.812 18.0596L25.0434 11.4639L21.2758 18.0615ZM33.5463 25L39.1479 34.8057C39.177 34.8567 39.1915 34.9138 39.1918 34.9707C39.1926 35.0303 39.1778 35.0903 39.1469 35.1436C39.087 35.2466 38.9761 35.3095 38.8569 35.3096H31.3188L31.5131 35.6494L32.6459 37.6328H43.3276L36.1459 25.1699C36.1012 25.0923 36.0894 25.0013 36.1118 24.917V24.915L36.145 24.834V24.833L39.9174 18.2285H37.4145L33.5463 25ZM6.37445 37.6318H17.4428L18.769 35.3105H5.07465L6.37445 37.6318ZM43.9047 37.29L45.2006 34.9775L39.6625 25.3379H37.017L43.9047 37.29ZM13.9418 24.834C13.9568 24.8599 13.9685 24.8878 13.976 24.916C13.9986 25.0002 13.9871 25.0913 13.9428 25.1689L10.1713 31.7734H12.6733L16.5405 25.002L12.2905 17.5605L10.9389 15.1953C10.8946 15.1176 10.8841 15.0265 10.9067 14.9424L10.9409 14.8613C10.9707 14.8099 11.0131 14.768 11.0629 14.7393C11.1129 14.7103 11.1702 14.6944 11.2299 14.6943H18.7709L17.4428 12.3691H6.75824L13.9418 24.834ZM4.88617 15.0264L10.4252 24.667H13.0727L6.18304 12.7119L4.88617 15.0264ZM25.4291 10.7881L29.2973 17.5586H40.4946C40.5988 17.5587 40.6934 17.6093 40.7563 17.6904C40.7654 17.7021 40.7761 17.7126 40.7836 17.7256C40.8434 17.8287 40.8445 17.956 40.7856 18.0596L37.0121 24.665H39.6635L45.0063 15.3643H30.7397L30.6518 15.3525C30.6401 15.3494 30.6298 15.3423 30.6186 15.3379C30.5493 15.3106 30.4882 15.2637 30.4496 15.1973L30.4487 15.1953L26.6811 8.59766L25.4291 10.7881ZM19.6401 15.1943C19.6101 15.2472 19.566 15.289 19.5151 15.3184C19.508 15.3225 19.5 15.3245 19.4926 15.3281C19.4479 15.3497 19.3994 15.3642 19.3481 15.3643H11.8071L13.062 17.5605H20.7905L24.7495 10.6279C24.7505 10.626 24.7513 10.624 24.7524 10.6221L26.3901 7.75488L26.4145 7.71777C26.4773 7.63546 26.5759 7.58598 26.6811 7.58594C26.8012 7.586 26.9125 7.65062 26.9721 7.75488L30.7397 14.3525L32.0639 12.0332L26.7221 2.68066L19.6401 15.1943ZM31.3178 14.6924H45.0131L43.7123 12.3691H32.645L31.3178 14.6924ZM18.0229 12.0332L19.3471 14.3516L20.5649 12.2002L23.4721 7.06152L26.1459 2.33789H23.561L18.0229 12.0332Z" fill="#0A1119"/>
</svg>
