<svg width="60" height="60" viewBox="0 0 60 60" fill="none" xmlns="http://www.w3.org/2000/svg">
<path d="M13.9805 40.6973L21.99 54.9998H38.008L29.999 40.6973H13.9805Z" stroke="#0A1119" stroke-linecap="round" stroke-linejoin="round"/>
<path d="M26.0275 5H10.009L2 19.3025H18.0185L26.0275 5Z" stroke="#0A1119" stroke-linecap="round" stroke-linejoin="round"/>
<path d="M25.9614 19.3025L29.9992 12.0923L26.0275 5L18.0186 19.3025L26.0275 33.6056L29.9992 26.5127L29.9331 26.3948L25.9614 19.3025Z" stroke="#0A1119" stroke-linecap="round" stroke-linejoin="round"/>
<path d="M18.0185 19.3022H2L10.009 33.6053H17.9524H26.0275L18.0185 19.3022Z" stroke="#0A1119" stroke-linecap="round" stroke-linejoin="round"/>
<path d="M33.9705 5L29.9988 12.0923L25.9609 19.3025H41.9795L49.989 5H33.9705Z" stroke="#0A1119" stroke-linecap="round" stroke-linejoin="round"/>
<path d="M58 19.3025L49.991 5L41.9814 19.3025L49.991 33.6056L58 19.3025Z" stroke="#0A1119" stroke-linecap="round" stroke-linejoin="round"/>
<path d="M30.0651 26.3945L29.999 26.5125L26.0273 33.6054H17.9522L13.9805 40.6976H29.999L38.008 26.3945H30.0651Z" stroke="#0A1119" stroke-linecap="round" stroke-linejoin="round"/>
<path d="M42.0468 33.6052L38.009 26.395L30 40.6975L38.009 55L46.0185 40.6975L42.0468 33.6052Z" stroke="#0A1119" stroke-linecap="round" stroke-linejoin="round"/>
<path d="M41.9795 19.3022H25.9609L29.9327 26.3945H30.0649H38.0078L42.0456 33.6053H49.989L41.9795 19.3022Z" stroke="#0A1119" stroke-linecap="round" stroke-linejoin="round"/>
<path d="M29.9995 26.5125L30.0664 26.3945H29.9326L29.9995 26.5125Z" stroke="#0A1119" stroke-linecap="round" stroke-linejoin="round"/>
</svg>
