<svg width="60" height="60" viewBox="0 0 60 60" fill="none" xmlns="http://www.w3.org/2000/svg">
<path d="M29.7502 3.625C29.8843 3.62514 30.0086 3.69729 30.0754 3.81348L36.634 15.2139C41.3415 16.8597 45.3054 20.1509 47.802 24.4902C50.2985 28.8295 51.1585 33.9239 50.2307 38.8457L56.8254 50.3066C56.8922 50.4226 56.8914 50.5658 56.8245 50.6816C56.7575 50.7974 56.634 50.869 56.5002 50.8691H43.2717C40.9985 52.8152 38.3368 54.2502 35.4641 55.0732C32.5463 55.9091 29.4814 56.0949 26.4846 55.6182C23.4878 55.1413 20.63 54.0133 18.1116 52.3125C17.4528 51.8676 16.8224 51.385 16.2209 50.8701H3.00024C2.86637 50.8701 2.74207 50.7985 2.67505 50.6826C2.60832 50.5669 2.60851 50.4244 2.67505 50.3086L9.2688 38.8467C8.71059 35.8854 8.79444 32.8373 9.51782 29.9111C10.2525 26.9393 11.6278 24.166 13.5461 21.7871C15.4645 19.4082 17.8797 17.4819 20.6204 16.1445C21.3525 15.7873 22.1034 15.4755 22.8684 15.208L29.425 3.81348L29.4524 3.77148C29.5228 3.67988 29.6329 3.625 29.7502 3.625ZM12.2883 44.9395C12.3721 45.0885 12.4546 45.236 12.5413 45.3799C12.542 45.381 12.5435 45.3817 12.5442 45.3828C13.6403 47.1965 15.0128 48.8264 16.6116 50.2119C16.6224 50.2213 16.6323 50.2318 16.6418 50.2422C17.2418 50.7603 17.8719 51.245 18.5315 51.6904C20.9594 53.3301 23.7142 54.4174 26.6028 54.877C29.4912 55.3365 32.4446 55.1572 35.2571 54.3516C37.7378 53.6409 40.0564 52.4578 42.0881 50.8701H31.4114C30.318 50.9837 29.2231 50.9802 28.1428 50.8691H28.1067C28.0935 50.8691 28.0798 50.8686 28.0667 50.8672C24.2835 50.4639 20.7716 48.7117 18.1633 45.9326C18.1393 45.9071 18.1149 45.8821 18.0911 45.8564C18.0829 45.8477 18.0748 45.8389 18.0667 45.8301C18.0621 45.8251 18.0582 45.8196 18.054 45.8145C16.6513 44.294 15.5471 42.5084 14.8137 40.5498L12.2883 44.9395ZM25.6038 20.292C22.4841 21.1842 19.7205 23.0574 17.7268 25.6494L3.64868 50.1201H15.3909C14.1126 48.9015 12.9888 47.5229 12.051 46.0137L12.0139 45.9521H11.4885C11.3548 45.952 11.2313 45.8804 11.1643 45.7646C11.0974 45.6488 11.0966 45.5056 11.1633 45.3896L25.6038 20.292ZM49.9954 39.9404C49.5734 41.6715 48.9308 43.3413 48.0833 44.9092C48.0795 44.9162 48.0763 44.9236 48.0725 44.9307L48.3362 45.3887C48.4028 45.5046 48.403 45.6479 48.3362 45.7637C48.2692 45.8795 48.1448 45.9511 48.011 45.9512H19.2385C19.9052 46.5929 20.63 47.1783 21.4104 47.6934C21.4246 47.7027 21.4392 47.7114 21.4534 47.7207C23.4833 49.0508 25.7855 49.8658 28.1653 50.1191H55.8518L49.9954 39.9404ZM32.886 20.04C30.8041 19.5971 28.6688 19.6015 26.6145 20.0361L15.3079 39.6895C15.9827 41.7455 17.0767 43.6206 18.5081 45.2012H40.9885C42.4428 43.6021 43.5289 41.7214 44.1917 39.6904L32.886 20.04ZM42.3977 25.2295C44.6901 28.2171 45.8534 31.9261 45.6799 35.6953C45.6486 36.3752 45.5723 37.0488 45.4563 37.7129C45.4272 37.8799 45.3951 38.0466 45.3606 38.2129C45.3533 38.248 45.3466 38.2833 45.3391 38.3184C45.3016 38.4934 45.2605 38.6678 45.217 38.8418C45.2067 38.8832 45.1965 38.9245 45.1858 38.9658C45.1411 39.139 45.0928 39.3114 45.0422 39.4834C45.0313 39.5205 45.0203 39.5577 45.009 39.5947C44.9922 39.6505 44.9767 39.7071 44.9592 39.7627C44.9543 39.7783 44.9475 39.793 44.9407 39.8076C44.3161 41.7709 43.3184 43.6053 41.9866 45.2002H47.0618C47.1469 45.0538 47.2316 44.9054 47.3157 44.7539C48.2335 43.1014 48.9119 41.3261 49.3333 39.4834C49.3819 39.2707 49.4282 39.0573 49.47 38.8428V38.8418C50.4059 34.0542 49.5822 29.0875 47.1526 24.8643C44.8949 20.9401 41.3924 17.9058 37.2229 16.2354L42.3977 25.2295ZM23.929 14.8682C25.616 14.3782 27.3621 14.1048 29.1262 14.0557C29.148 14.055 29.1698 14.0543 29.1917 14.0537L29.425 13.6494L29.4524 13.6084C29.5228 13.5167 29.6328 13.4619 29.7502 13.4619C29.8843 13.4621 30.0086 13.5332 30.0754 13.6494L44.4797 38.6865C44.4924 38.6365 44.5047 38.5864 44.5168 38.5361C45.2631 35.4361 45.0259 32.1698 43.8176 29.2021L38.387 19.7627L36.054 15.709C36.0533 15.7078 36.0527 15.7063 36.052 15.7051L29.7502 4.75195L23.929 14.8682ZM29.425 14.7969C29.4228 14.797 29.4205 14.7988 29.4182 14.7988C27.3163 14.8311 25.232 15.1946 23.2424 15.877C23.2261 15.8825 23.2092 15.8864 23.1926 15.8896C22.4287 16.1534 21.6786 16.4621 20.9485 16.8184C18.307 18.1074 15.9795 19.9645 14.1301 22.2578C12.2806 24.5513 10.9548 27.2261 10.2463 30.0918C9.62093 32.6219 9.48986 35.2471 9.85767 37.8213L15.0071 28.8721C16.4364 25.3882 19.0411 22.521 22.3655 20.7764C25.4514 19.1569 28.9729 18.6007 32.3909 19.1797L29.8655 14.791C29.8297 14.7898 29.7933 14.7891 29.7502 14.7891C29.6332 14.7891 29.5649 14.7944 29.425 14.7969Z" fill="#0A1119"/>
</svg>
