<svg width="60" height="60" viewBox="0 0 60 60" fill="none" xmlns="http://www.w3.org/2000/svg">
<path d="M17.9667 6.91016C24.622 0.254856 35.5117 0.389294 42.2889 7.16602L48.8583 13.7344L53.0897 17.9668C59.7451 24.6223 59.6101 35.512 52.8329 42.2891L46.3339 48.7871C46.3104 48.8108 46.2881 48.8358 46.2645 48.8594L42.0321 53.0908C35.3767 59.7459 24.488 59.6108 17.7108 52.834L11.1415 46.2656C11.1368 46.2609 11.1333 46.2548 11.1288 46.25L6.91003 42.0322C0.254725 35.3769 0.389009 24.4871 7.16589 17.71L13.7352 11.1416L17.9667 6.91016ZM36.4813 19.7998C34.4093 19.8226 32.4301 20.6564 30.9657 22.1191L38.3593 29.5117C38.361 29.5134 38.3634 29.5149 38.3651 29.5166L38.7733 29.9248C38.9565 30.1041 39.1292 30.2921 39.2958 30.4844C39.3248 30.5179 39.3552 30.5501 39.3837 30.584C39.4272 30.6358 39.4682 30.6895 39.5106 30.7422C39.5598 30.8032 39.6096 30.8636 39.6571 30.9258C39.7221 31.0108 39.7847 31.0975 39.8466 31.1846C39.8609 31.2047 39.8754 31.2248 39.8895 31.2451C39.9433 31.3221 39.9954 31.4001 40.0468 31.4785C40.0839 31.5353 40.1212 31.5919 40.1571 31.6494C40.1996 31.7175 40.2405 31.7864 40.2811 31.8555C40.3161 31.9148 40.3511 31.9741 40.3846 32.0342C40.4259 32.1081 40.4655 32.1829 40.5048 32.2578C40.5267 32.2997 40.5489 32.3415 40.5702 32.3838C40.6177 32.478 40.6627 32.5733 40.7069 32.6689C40.7248 32.7077 40.7432 32.7462 40.7606 32.7852C40.798 32.8691 40.8331 32.954 40.868 33.0391C40.8937 33.1016 40.9189 33.1644 40.9432 33.2275C40.9701 33.2972 40.9962 33.3672 41.0214 33.4375C41.0454 33.5046 41.0682 33.572 41.0907 33.6396C41.1118 33.7031 41.1335 33.7662 41.1532 33.8301C41.1777 33.9094 41.2002 33.9893 41.2225 34.0693C41.2419 34.1385 41.2614 34.2077 41.2792 34.2773C41.2957 34.3424 41.3099 34.4081 41.3251 34.4736C41.344 34.5555 41.363 34.6373 41.3798 34.7197C41.3911 34.7755 41.4007 34.8316 41.411 34.8877C41.427 34.9744 41.4434 35.0611 41.4569 35.1484C41.4651 35.2016 41.4711 35.2552 41.4784 35.3086C41.491 35.4009 41.5047 35.4931 41.5145 35.5859C41.5189 35.6269 41.5215 35.668 41.5253 35.709C41.5485 35.9598 41.5645 36.2121 41.5673 36.4658C41.5677 36.5036 41.5654 36.5414 41.5653 36.5791C41.565 36.8804 41.5496 37.1801 41.5204 37.4775C41.4883 37.8039 41.4388 38.127 41.3729 38.4463C41.3446 38.5838 41.3137 38.7206 41.2792 38.8564C41.1871 39.2188 41.074 39.5749 40.9393 39.9229C40.4892 41.0863 39.8069 42.1592 38.9178 43.0684L35.4637 46.5225C35.4196 46.5666 35.3735 46.6088 35.329 46.6523C35.2536 46.7261 35.1779 46.7991 35.1014 46.8711C35.0243 46.9438 34.9462 47.015 34.868 47.0859C34.8262 47.1239 34.7842 47.1617 34.7421 47.1992C34.6059 47.3204 34.4682 47.4388 34.329 47.5547C34.2596 47.6125 34.1901 47.67 34.12 47.7266C34.045 47.787 33.9693 47.8463 33.8934 47.9053C33.8148 47.9664 33.7356 48.0264 33.6561 48.0859C33.5536 48.1628 33.4504 48.2383 33.3466 48.3125C33.2553 48.3776 33.1644 48.4428 33.0721 48.5059C33.0016 48.5541 32.9304 48.6013 32.8593 48.6484C32.7737 48.705 32.6878 48.7606 32.6014 48.8154C32.4959 48.8825 32.3898 48.9482 32.2831 49.0127C32.1917 49.0679 32.1 49.1224 32.0077 49.1758C31.9237 49.2244 31.8395 49.2723 31.7548 49.3193C31.6926 49.3539 31.6298 49.3872 31.5673 49.4209C31.4152 49.5028 31.2623 49.5823 31.1083 49.6592C31.0526 49.6869 30.9972 49.7151 30.9413 49.7422C30.8475 49.7877 30.7535 49.8323 30.6591 49.876C30.569 49.9176 30.4782 49.9572 30.3876 49.9971C30.2862 50.0417 30.185 50.0863 30.0829 50.1289C29.971 50.1755 29.8586 50.2205 29.746 50.2646C29.6667 50.2957 29.5874 50.3266 29.5077 50.3564C29.4354 50.3835 29.3625 50.4086 29.2899 50.4346C29.1017 50.502 28.9127 50.5664 28.7225 50.627C28.6854 50.6388 28.6485 50.6515 28.6112 50.6631C28.4982 50.6982 28.3849 50.7319 28.2714 50.7646C28.2337 50.7755 28.1958 50.7853 28.1581 50.7959C27.9729 50.8478 27.7871 50.8968 27.6005 50.9424C27.5367 50.9579 27.473 50.9735 27.4091 50.9883C27.3018 51.0131 27.1944 51.0368 27.0868 51.0596C27.0374 51.07 26.9879 51.0798 26.9384 51.0898C26.7582 51.1262 26.5775 51.1589 26.3964 51.1895C26.3231 51.2018 26.25 51.2152 26.1766 51.2266C26.0859 51.2406 25.9951 51.253 25.9042 51.2656C25.829 51.2761 25.7539 51.2865 25.6786 51.2959C25.5281 51.3147 25.3774 51.3319 25.2264 51.3467C25.1308 51.3561 25.0351 51.3653 24.9393 51.373C24.8531 51.3801 24.7669 51.3859 24.6805 51.3916C24.5885 51.3977 24.4963 51.4026 24.4042 51.4072C24.313 51.4118 24.2219 51.4168 24.1307 51.4199C23.9983 51.4244 23.8658 51.4272 23.7333 51.4287C23.6389 51.4298 23.5445 51.4292 23.4501 51.4287C23.356 51.4282 23.2619 51.4268 23.1678 51.4248C23.0598 51.4225 22.9517 51.4194 22.8436 51.415C22.7193 51.41 22.5949 51.4042 22.4706 51.3965C22.3908 51.3915 22.3111 51.385 22.2313 51.3789C22.1265 51.371 22.0216 51.3624 21.9169 51.3525C21.828 51.3442 21.7391 51.3359 21.6503 51.3262C21.5183 51.3117 21.3865 51.2958 21.2548 51.2783C21.1635 51.2662 21.0724 51.2528 20.9813 51.2393C20.8888 51.2255 20.7964 51.2106 20.704 51.1953C20.6069 51.1792 20.5098 51.1632 20.413 51.1455C20.2822 51.1216 20.1517 51.0963 20.0214 51.0693C19.9418 51.0529 19.8625 51.0352 19.7831 51.0176C19.6634 50.9911 19.5439 50.9636 19.4247 50.9346C19.3755 50.9226 19.3263 50.9108 19.2772 50.8984C19.1179 50.8582 18.9591 50.8153 18.8007 50.7705C18.7288 50.7502 18.6574 50.7283 18.5858 50.707C18.4556 50.6684 18.3257 50.6287 18.1962 50.5869C18.1611 50.5756 18.1257 50.5653 18.0907 50.5537C17.9194 50.4973 17.7489 50.4379 17.579 50.376C17.531 50.3585 17.4833 50.3402 17.4354 50.3223C17.3083 50.2747 17.1818 50.2254 17.0555 50.1748C17.0162 50.159 16.9757 50.145 16.9364 50.1289L18.6757 51.8682C24.9396 58.132 34.9651 58.2262 41.0673 52.124L45.2987 47.8916C45.7879 47.4023 46.2392 46.8899 46.6532 46.3584C46.736 46.252 46.8175 46.145 46.8973 46.0371C49.142 43.0037 50.1948 39.3829 50.0526 35.8271C50.0467 35.6792 50.0373 35.5315 50.0272 35.3838C50.0093 35.1201 49.9841 34.8571 49.953 34.5947C49.7334 32.7456 49.1874 30.9352 48.3124 29.2568C48.2353 29.1089 48.1553 28.9622 48.0731 28.8164C47.403 27.628 46.5643 26.5117 45.5555 25.5029L42.1112 22.0596L41.8241 21.792C40.3554 20.4915 38.4522 19.7782 36.4813 19.7998ZM8.13171 18.6758C1.86816 24.9396 1.774 34.9634 7.87585 41.0654L12.1073 45.2979C18.3712 51.5617 28.3967 51.6568 34.4989 45.5547L37.9471 42.1064C38.955 41.0739 39.6527 39.7952 39.9833 38.415C40.1335 37.7873 40.2082 37.1386 40.201 36.4824C40.1782 34.4095 39.3428 32.4303 37.8788 30.9658L30.4862 38.3594C30.4847 38.3609 30.4838 38.3638 30.4823 38.3652L30.0692 38.7783C28.346 40.5366 25.9951 41.5403 23.5331 41.5674C21.0689 41.5944 18.6944 40.641 16.9325 38.918L13.4794 35.4639C13.3354 35.3199 13.1951 35.1723 13.0575 35.0244C13.0346 34.9998 13.0119 34.9749 12.9891 34.9502C12.8643 34.8145 12.7415 34.6779 12.6219 34.5391C12.591 34.5032 12.5607 34.4668 12.5302 34.4307C12.4272 34.3091 12.3263 34.1863 12.2274 34.0625C12.188 34.0132 12.149 33.9637 12.1102 33.9141C12.0191 33.7973 11.9292 33.6801 11.8417 33.5615C11.8155 33.5261 11.7894 33.4907 11.7635 33.4551C11.6626 33.3161 11.5648 33.1755 11.4686 33.0342C11.4371 32.9878 11.4059 32.9412 11.3749 32.8945C11.289 32.7655 11.2048 32.6358 11.1229 32.5049C11.0876 32.4485 11.053 32.3917 11.0184 32.335C10.9456 32.2155 10.8741 32.0955 10.8046 31.9746C10.768 31.911 10.7319 31.8472 10.6962 31.7832C10.6216 31.6494 10.5481 31.5153 10.4774 31.3799C10.4683 31.3623 10.4592 31.3447 10.4501 31.3271C10.3686 31.1698 10.2908 31.0109 10.2147 30.8516C10.191 30.8019 10.1676 30.752 10.1444 30.7021C10.0841 30.5725 10.0255 30.4424 9.96863 30.3115C9.93366 30.2311 9.89974 30.1502 9.86609 30.0693C9.81787 29.9534 9.77001 29.8375 9.72449 29.7207C9.70109 29.6607 9.67881 29.6003 9.65613 29.54C9.60455 29.4031 9.55364 29.266 9.50574 29.1279C9.49433 29.0951 9.48276 29.0622 9.47156 29.0293C9.41614 28.8663 9.36366 28.7025 9.31335 28.5381C9.29626 28.4822 9.28006 28.4261 9.26355 28.3701C9.16079 28.0215 9.06905 27.6701 8.98914 27.3164C8.97995 27.2757 8.97068 27.2351 8.96179 27.1943C8.88165 26.827 8.81426 26.4573 8.75867 26.0859C8.75297 26.0479 8.74751 26.0098 8.74207 25.9717C8.6914 25.6168 8.65223 25.2606 8.6239 24.9033C8.61918 24.8438 8.61433 24.7842 8.61023 24.7246C8.58659 24.3811 8.57322 24.0369 8.57019 23.6924C8.56943 23.6061 8.56966 23.5199 8.57019 23.4336C8.57093 23.3132 8.57279 23.1927 8.57605 23.0723C8.57708 23.0342 8.57672 22.9961 8.578 22.958C8.58449 22.7652 8.59535 22.5725 8.60828 22.3799C8.61114 22.3372 8.61486 22.2946 8.61804 22.252C8.62947 22.0985 8.64256 21.9452 8.65808 21.792C8.65996 21.7735 8.66103 21.7549 8.66296 21.7363C8.68218 21.5525 8.70525 21.3689 8.73035 21.1855C8.73659 21.1399 8.74327 21.0944 8.74988 21.0488C8.77237 20.8937 8.79641 20.7387 8.82312 20.584C8.82761 20.558 8.83121 20.5318 8.83582 20.5059C8.8681 20.3238 8.90413 20.1422 8.94226 19.9609C8.95323 19.9088 8.96498 19.8568 8.97644 19.8047C9.00959 19.654 9.04471 19.5036 9.08191 19.3535C9.08852 19.3269 9.0947 19.3001 9.10144 19.2734C9.14671 19.0945 9.19494 18.9161 9.24597 18.7383C9.25645 18.7018 9.26747 18.6654 9.2782 18.6289C9.31611 18.5 9.35541 18.3714 9.39636 18.2432C9.42387 18.157 9.45244 18.0712 9.48132 17.9854C9.52535 17.8545 9.56985 17.7237 9.61707 17.5938C9.64174 17.5258 9.66769 17.4583 9.69324 17.3906C9.73846 17.2708 9.78494 17.1513 9.83289 17.0322C9.84566 17.0005 9.85703 16.9682 9.87 16.9365L8.13171 18.6758ZM47.8925 14.7002C42.2443 9.05234 33.5388 8.42142 27.4081 12.8252C27.2708 12.9238 27.1345 13.0243 26.9999 13.1279C26.7916 13.2883 26.5862 13.4545 26.3846 13.627C26.0822 13.8857 25.7878 14.1583 25.5018 14.4443L23.619 16.3262L22.0526 17.8926C20.5861 19.3951 19.7756 21.4189 19.7987 23.5186C19.8102 24.5582 20.0272 25.5739 20.4237 26.5137C20.5171 26.7346 20.6202 26.9513 20.7333 27.1631C20.7411 27.1777 20.7488 27.1924 20.7567 27.207C21.1173 27.872 21.5742 28.4877 22.118 29.0322L29.5175 21.6348L29.9305 21.2197C31.6538 19.4617 34.0049 18.4597 36.4667 18.4326C38.7769 18.4073 41.0077 19.2432 42.7294 20.7676L43.0673 21.0811L46.5214 24.5352C46.5659 24.5797 46.6083 24.626 46.6522 24.6709C46.7272 24.7476 46.8016 24.8246 46.8749 24.9023C46.9375 24.9689 47.0001 25.0352 47.0614 25.1025C47.148 25.1975 47.2323 25.2941 47.3163 25.3906C47.3731 25.4558 47.4296 25.521 47.4852 25.5869C47.5773 25.696 47.6678 25.8061 47.7567 25.917C47.7947 25.9644 47.8326 26.0118 47.87 26.0596C47.9544 26.1673 48.0366 26.2764 48.118 26.3857C48.1715 26.4576 48.224 26.53 48.2762 26.6025C48.3604 26.7194 48.4435 26.8365 48.5243 26.9551C48.56 27.0074 48.5957 27.0596 48.6307 27.1123C48.7042 27.2229 48.776 27.3344 48.8466 27.4463C48.8731 27.4884 48.9005 27.53 48.9266 27.5723C49.0257 27.7325 49.1206 27.8948 49.2137 28.0576C49.2318 28.0891 49.2496 28.1207 49.2675 28.1523C49.3417 28.284 49.4139 28.4165 49.4843 28.5498C49.5058 28.5906 49.5285 28.6309 49.5497 28.6719C49.6228 28.8131 49.6928 28.9557 49.7616 29.0986C49.7933 29.1645 49.8245 29.2306 49.8553 29.2969C49.9157 29.4265 49.9743 29.5567 50.0311 29.6875C50.0473 29.7247 50.0641 29.7616 50.08 29.7988C50.1496 29.9623 50.2159 30.1268 50.2802 30.292C50.298 30.3378 50.3155 30.3837 50.3329 30.4297C50.3907 30.5823 50.4457 30.7357 50.4989 30.8896C50.505 30.9074 50.5124 30.9247 50.5184 30.9424L50.5282 30.9717C50.5875 31.1462 50.6427 31.3219 50.6962 31.498C50.7029 31.5202 50.71 31.5423 50.7167 31.5645C50.7639 31.7224 50.8089 31.8809 50.8514 32.04C50.8606 32.0743 50.8708 32.1083 50.8798 32.1426C50.9253 32.3173 50.9668 32.493 51.0067 32.6689C51.0155 32.7076 51.0236 32.7464 51.0321 32.7852C51.0644 32.9323 51.0946 33.0797 51.1229 33.2275C51.13 33.2647 51.1385 33.3016 51.1454 33.3389C51.1794 33.5229 51.2093 33.7076 51.2372 33.8926C51.242 33.9248 51.2472 33.957 51.2518 33.9893C51.6918 37.0202 51.3156 40.1603 50.1298 43.0586L51.8671 41.3232C58.131 35.0594 58.226 25.0348 52.1239 18.9326L47.8925 14.7002ZM41.3231 8.13184C35.0591 1.86839 25.0345 1.77397 18.9325 7.87598L14.701 12.1074C8.43756 18.3711 8.34259 28.395 14.4442 34.4971L17.8876 37.9404L18.1757 38.209C18.4119 38.4182 18.6606 38.6109 18.9178 38.7891C19.16 38.9568 19.4098 39.1118 19.6678 39.251C19.7744 39.3084 19.8821 39.3635 19.9911 39.416C20.4021 39.6139 20.8302 39.774 21.2694 39.8984C21.4123 39.939 21.5559 39.9773 21.701 40.0098C22.2927 40.1421 22.9023 40.207 23.5184 40.2002C23.9105 40.1959 24.299 40.1617 24.6815 40.1006C26.3203 39.8382 27.8448 39.0658 29.0321 37.8799L21.6385 30.4863C21.6371 30.4849 21.6351 30.4838 21.6337 30.4824L21.2206 30.0693C20.8342 29.6906 20.4868 29.2796 20.1757 28.8457C19.3901 27.75 18.8522 26.497 18.5995 25.1729C18.497 24.6358 18.4386 24.0874 18.4325 23.5332C18.424 22.7629 18.5117 22.0014 18.6884 21.2646C18.759 20.97 18.8435 20.6792 18.9423 20.3936C19.041 20.1079 19.154 19.8274 19.2802 19.5527C19.4062 19.2782 19.5456 19.0096 19.6981 18.748C20.0035 18.2245 20.3608 17.7287 20.7675 17.2695L21.0819 16.9326L21.0868 16.9268L24.536 13.4775C24.5715 13.442 24.6086 13.4082 24.6444 13.373C24.7396 13.2795 24.8347 13.1865 24.9315 13.0957C24.9813 13.049 25.0317 13.003 25.0819 12.957C25.2044 12.8449 25.328 12.7347 25.453 12.627C25.4861 12.5984 25.5194 12.5702 25.5526 12.542C25.672 12.4407 25.7925 12.3415 25.9139 12.2441C25.9715 12.198 26.0297 12.1527 26.0878 12.1074C26.2093 12.0126 26.3314 11.9191 26.455 11.8281C26.4906 11.8019 26.5265 11.776 26.5624 11.75C26.6952 11.6538 26.8288 11.5596 26.9637 11.4678C27.0101 11.4362 27.0567 11.4051 27.1034 11.374C27.2226 11.2947 27.343 11.2176 27.4637 11.1416C27.5236 11.104 27.5832 11.0661 27.6434 11.0293C27.775 10.9489 27.9076 10.8704 28.0409 10.7939C28.0828 10.7699 28.1248 10.7463 28.1669 10.7227C28.3092 10.6427 28.4524 10.5648 28.5966 10.4893C28.6291 10.4722 28.6616 10.4553 28.6942 10.4385C28.8456 10.3604 28.998 10.2851 29.1512 10.2119C29.1987 10.1893 29.2462 10.1667 29.2938 10.1445C29.4209 10.0854 29.5484 10.0275 29.6766 9.97168C29.7364 9.94565 29.7963 9.91984 29.8563 9.89453C29.996 9.83565 30.1363 9.77858 30.2772 9.72363C30.3346 9.70125 30.3924 9.67993 30.4501 9.6582C30.7874 9.53097 31.128 9.41449 31.4716 9.30957C31.5145 9.29646 31.5574 9.28327 31.6005 9.27051C31.7461 9.22731 31.8924 9.18667 32.0389 9.14746C32.0793 9.13667 32.1196 9.12572 32.16 9.11523C32.3293 9.07129 32.4994 9.03083 32.6698 8.99219C32.7075 8.98363 32.7453 8.97509 32.7831 8.9668C32.952 8.92972 33.1211 8.89419 33.2909 8.8623C33.3092 8.85888 33.3273 8.85493 33.3456 8.85156C33.5332 8.81697 33.7215 8.78608 33.91 8.75781C33.9308 8.7547 33.9517 8.75206 33.9725 8.74902C34.0428 8.73875 34.1131 8.72814 34.1835 8.71875L34.5497 8.6748C34.5526 8.67448 34.5555 8.67415 34.5585 8.67383C34.7434 8.6533 34.9286 8.6356 35.1141 8.62109C35.1499 8.6183 35.1857 8.61585 35.2216 8.61328C35.3955 8.60077 35.5697 8.59023 35.744 8.58301C35.7593 8.58238 35.7746 8.58165 35.7899 8.58105C35.9766 8.57382 36.1635 8.57051 36.3505 8.56934C36.3879 8.5691 36.4253 8.56933 36.4628 8.56934C36.6203 8.56937 36.7779 8.57086 36.9354 8.5752C36.969 8.57612 37.0025 8.57701 37.036 8.57812C37.2213 8.5843 37.4065 8.59432 37.5917 8.60645C37.6161 8.60805 37.6405 8.60962 37.6649 8.61133C38.0589 8.6388 38.4524 8.67901 38.8446 8.7334C38.8547 8.7348 38.8648 8.73589 38.8749 8.7373C39.0686 8.76451 39.262 8.79533 39.455 8.8291C39.4615 8.83025 39.4679 8.83186 39.4745 8.83301C39.6631 8.86623 39.8512 8.90289 40.0389 8.94238C40.0692 8.94876 40.0995 8.95538 40.1298 8.96191C40.7091 9.08701 41.2839 9.24097 41.8514 9.42578C41.8661 9.43056 41.8807 9.43561 41.8954 9.44043C42.0854 9.50285 42.2745 9.56858 42.4628 9.6377C42.4749 9.64213 42.4868 9.6469 42.4989 9.65137C42.6873 9.72101 42.8749 9.79376 43.0614 9.87012L41.3231 8.13184ZM23.0819 29.999L29.9989 36.916L36.9149 30L29.9979 23.083L23.0819 29.999Z" fill="#0A1119"/>
</svg>
