<svg width="20" height="20" viewBox="0 0 20 20" fill="none" xmlns="http://www.w3.org/2000/svg">
<path d="M17.6141 9.5992L15.3424 8.95004C14.3195 8.66163 13.3876 8.11551 12.636 7.36395C11.8845 6.61239 11.3384 5.68053 11.0499 4.65754L10.4008 2.38587C10.3681 2.30639 10.3126 2.23841 10.2412 2.19057C10.1699 2.14273 10.0859 2.11719 9.99995 2.11719C9.91403 2.11719 9.83004 2.14273 9.75867 2.19057C9.6873 2.23841 9.63176 2.30639 9.59912 2.38587L8.94995 4.65754C8.66154 5.68053 8.11543 6.61239 7.36386 7.36395C6.6123 8.11551 5.68044 8.66163 4.65745 8.95004L2.38578 9.5992C2.29856 9.62396 2.22179 9.67649 2.16713 9.74883C2.11246 9.82117 2.08289 9.90937 2.08289 10C2.08289 10.0907 2.11246 10.1789 2.16713 10.2512C2.22179 10.3236 2.29856 10.3761 2.38578 10.4009L4.65745 11.05C5.68044 11.3384 6.6123 11.8846 7.36386 12.6361C8.11543 13.3877 8.66154 14.3195 8.94995 15.3425L9.59912 17.6142C9.62387 17.7014 9.67641 17.7782 9.74874 17.8329C9.82108 17.8875 9.90928 17.9171 9.99995 17.9171C10.0906 17.9171 10.1788 17.8875 10.2512 17.8329C10.3235 17.7782 10.376 17.7014 10.4008 17.6142L11.0499 15.3425C11.3384 14.3195 11.8845 13.3877 12.636 12.6361C13.3876 11.8846 14.3195 11.3384 15.3424 11.05L17.6141 10.4009C17.7013 10.3761 17.7781 10.3236 17.8328 10.2512C17.8874 10.1789 17.917 10.0907 17.917 10C17.917 9.90937 17.8874 9.82117 17.8328 9.74883C17.7781 9.67649 17.7013 9.62396 17.6141 9.5992Z" fill="white"/>
</svg>
