<svg width="51" height="51" viewBox="0 0 51 51" fill="none" xmlns="http://www.w3.org/2000/svg">
<path d="M40.1783 20.9418L37.0223 17.7858C35.5282 16.3246 33.5149 15.5166 31.4252 15.5395C29.3354 15.5625 27.3404 16.4145 25.8788 17.9083L25.5002 18.2868L32.7141 25.5006L33.0926 25.8791C34.5863 27.3407 35.4384 29.3357 35.4613 31.4255C35.4843 33.5152 34.6763 35.5285 33.215 37.0226L30.059 40.1786C24.2212 46.0164 14.6511 45.9112 8.68359 39.9437L14.6951 45.9552C20.6626 51.9227 30.2327 52.0279 36.0705 46.1901L39.9435 42.3171C45.911 36.3497 46.0162 26.7796 40.1783 20.9418Z" stroke="#0A1119" stroke-linecap="round" stroke-linejoin="round"/>
<path d="M10.8221 30.0587L13.9781 33.2148C15.4722 34.676 17.4855 35.484 19.5752 35.461C21.665 35.4381 23.66 34.586 25.1217 33.0923L25.5002 32.7138L18.2863 25.5L17.9078 25.1215C16.4141 23.6599 15.5621 21.6648 15.5391 19.5751C15.5161 17.4854 16.3241 15.4721 17.7854 13.978L20.9414 10.822C26.7792 4.98417 36.3493 5.08933 42.3168 11.0568L36.3053 5.04534C30.3378 -0.922165 20.7677 -1.02733 14.9299 4.81047L11.057 8.68341C5.08945 14.6509 4.98425 24.2209 10.8221 30.0587Z" stroke="#0A1119" stroke-linecap="round" stroke-linejoin="round"/>
<path d="M30.0589 40.1782L33.2149 37.0222C34.6762 35.5281 35.4841 33.5148 35.4612 31.4251C35.4382 29.3353 34.5862 27.3403 33.0924 25.8787L32.7139 25.5002L25.5001 32.714L25.1216 33.0925C23.66 34.5862 21.6649 35.4383 19.5752 35.4612C17.4854 35.4842 15.4721 34.6762 13.9781 33.215L10.822 30.0589C4.98419 24.2211 5.08935 14.6511 11.0569 8.68359L5.04536 14.6951C-0.922171 20.6626 -1.02733 30.2326 4.81049 36.0704L8.68345 39.9433C14.651 45.9108 24.221 46.016 30.0589 40.1782Z" stroke="#0A1119" stroke-linecap="round" stroke-linejoin="round"/>
<path d="M20.941 10.8222L17.785 13.9782C16.3237 15.4723 15.5157 17.4856 15.5387 19.5753C15.5617 21.6651 16.4137 23.6601 17.9074 25.1217L18.2859 25.5002L25.4998 18.2864L25.8783 17.9079C27.3399 16.4142 29.3349 15.5621 31.4247 15.5392C33.5144 15.5162 35.5277 16.3242 37.0218 17.7854L40.1778 20.9415C46.0157 26.7793 45.9105 36.3493 39.943 42.3168L45.9545 36.3053C51.922 30.3378 52.0272 20.7678 46.1894 14.93L42.3164 11.057C36.3489 5.08958 26.7788 4.98438 20.941 10.8222Z" stroke="#0A1119" stroke-linecap="round" stroke-linejoin="round"/>
</svg>
