<svg width="51" height="51" viewBox="0 0 51 51" fill="none" xmlns="http://www.w3.org/2000/svg">
<path d="M11.8422 15.0723L4.28943 29.0925H12.0297H12.0346L19.5879 15.0723H11.8422Z" stroke="#0A1119" stroke-linecap="round" stroke-linejoin="round"/>
<path d="M27.4382 0.5L23.5659 7.68889L31.2751 21.9998L35.148 14.8109L27.4382 0.5Z" stroke="#0A1119" stroke-linecap="round" stroke-linejoin="round"/>
<path d="M12.0334 29.0975L12.0358 29.0918H12.0304L12.0334 29.0975Z" stroke="#0A1119" stroke-linecap="round" stroke-linejoin="round"/>
<path d="M23.5648 7.68945H0.5L8.15984 21.9085L11.8425 15.0719H19.5882L23.3909 22.0004H31.2747L23.5648 7.68945Z" stroke="#0A1119" stroke-linecap="round" stroke-linejoin="round"/>
<path d="M4.37285 0.5L0.5 7.68889H23.5648L27.4377 0.5H4.37285Z" stroke="#0A1119" stroke-linecap="round" stroke-linejoin="round"/>
<path d="M23.4444 36.2814L19.4987 29.0925L23.3911 22.0007L19.5883 15.0723L12.035 29.0925L23.5677 50.5004L31.2276 36.2814H23.4444Z" stroke="#0A1119" stroke-linecap="round" stroke-linejoin="round"/>
<path d="M12.0346 29.0918L12.0324 29.097L12.0297 29.0918H4.28943L15.8221 50.4997H23.5673L12.0346 29.0918Z" stroke="#0A1119" stroke-linecap="round" stroke-linejoin="round"/>
<path d="M35.0955 29.0918H19.4987L23.4443 36.2807H38.9678L35.0955 29.0918Z" stroke="#0A1119" stroke-linecap="round" stroke-linejoin="round"/>
<path d="M46.6299 7.68945L35.0972 29.0974L38.9673 36.2811L50.5 14.8737L46.6299 7.68945Z" stroke="#0A1119" stroke-linecap="round" stroke-linejoin="round"/>
<path d="M31.3107 7.68945L35.1477 14.8115L31.2748 22.0004H23.3911L19.4987 29.0922H35.0955L46.6304 7.68945H31.3107Z" stroke="#0A1119" stroke-linecap="round" stroke-linejoin="round"/>
</svg>
