<svg width="60" height="60" viewBox="0 0 60 60" fill="none" xmlns="http://www.w3.org/2000/svg">
<path d="M15.5839 19.5718L7.42676 33.592H15.7864H15.7917L23.9493 19.5718H15.5839Z" stroke="#0A1119" stroke-linecap="round" stroke-linejoin="round"/>
<path d="M32.4279 5.00049L28.2457 12.1894L36.5719 26.5002L40.7546 19.3114L32.4279 5.00049Z" stroke="#0A1119" stroke-linecap="round" stroke-linejoin="round"/>
<path d="M15.7903 33.598L15.7928 33.5923H15.7871L15.7903 33.598Z" stroke="#0A1119" stroke-linecap="round" stroke-linejoin="round"/>
<path d="M28.2444 12.1895H3.33398L11.6067 26.4085L15.584 19.5719H23.9495L28.0565 26.5003H36.5711L28.2444 12.1895Z" stroke="#0A1119" stroke-linecap="round" stroke-linejoin="round"/>
<path d="M7.51673 5.00049L3.33398 12.1894H28.2444L32.4271 5.00049H7.51673Z" stroke="#0A1119" stroke-linecap="round" stroke-linejoin="round"/>
<path d="M28.1142 40.7808L23.8528 33.592L28.0567 26.5002L23.9497 19.5718L15.792 33.592L28.2475 54.9999L36.5202 40.7808H28.1142Z" stroke="#0A1119" stroke-linecap="round" stroke-linejoin="round"/>
<path d="M15.7917 33.5923L15.7893 33.5975L15.7864 33.5923H7.42676L19.8822 55.0002H28.2471L15.7917 33.5923Z" stroke="#0A1119" stroke-linecap="round" stroke-linejoin="round"/>
<path d="M40.6974 33.5923H23.8525L28.1139 40.7812H44.8795L40.6974 33.5923Z" stroke="#0A1119" stroke-linecap="round" stroke-linejoin="round"/>
<path d="M53.1537 12.1895L40.6982 33.5973L44.8781 40.781L57.3335 19.3737L53.1537 12.1895Z" stroke="#0A1119" stroke-linecap="round" stroke-linejoin="round"/>
<path d="M36.6097 12.1895L40.7537 19.3115L36.571 26.5003H28.0564L23.8525 33.5921H40.6974L53.1552 12.1895H36.6097Z" stroke="#0A1119" stroke-linecap="round" stroke-linejoin="round"/>
</svg>
