<svg width="50" height="50" viewBox="0 0 50 50" fill="none" xmlns="http://www.w3.org/2000/svg">
<path d="M12.9861 16.3096L6.18848 27.9931H13.1548H13.1592L19.9573 16.3096H12.9861Z" stroke="#0A1119" stroke-linecap="round" stroke-linejoin="round"/>
<path d="M27.0227 4.16699L23.5376 10.1577L30.4761 22.0835L33.9617 16.0927L27.0227 4.16699Z" stroke="#0A1119" stroke-linecap="round" stroke-linejoin="round"/>
<path d="M13.1584 27.9994L13.161 27.9937H13.1553L13.1584 27.9994Z" stroke="#0A1119" stroke-linecap="round" stroke-linejoin="round"/>
<path d="M23.537 10.1577H2.77832L9.67227 22.0069L12.9867 16.3098H19.9579L23.3804 22.0834H30.4759L23.537 10.1577Z" stroke="#0A1119" stroke-linecap="round" stroke-linejoin="round"/>
<path d="M6.26394 4.16699L2.77832 10.1577H23.537L27.0226 4.16699H6.26394Z" stroke="#0A1119" stroke-linecap="round" stroke-linejoin="round"/>
<path d="M23.4287 33.9838L19.8775 27.9931L23.3808 22.0832L19.9582 16.3096L13.1602 27.9931L23.5397 45.833L30.4337 33.9838H23.4287Z" stroke="#0A1119" stroke-linecap="round" stroke-linejoin="round"/>
<path d="M13.1592 27.9937L13.1573 27.998L13.1548 27.9937H6.18848L16.568 45.8336H23.5388L13.1592 27.9937Z" stroke="#0A1119" stroke-linecap="round" stroke-linejoin="round"/>
<path d="M33.9143 27.9937H19.877L23.4281 33.9844H37.3994L33.9143 27.9937Z" stroke="#0A1119" stroke-linecap="round" stroke-linejoin="round"/>
<path d="M44.2956 10.1577L33.916 27.9976L37.3992 33.984L47.7788 16.1446L44.2956 10.1577Z" stroke="#0A1119" stroke-linecap="round" stroke-linejoin="round"/>
<path d="M30.5079 10.1577L33.9613 16.0927L30.4757 22.0835H23.3802L19.877 27.9933H33.9143L44.2958 10.1577H30.5079Z" stroke="#0A1119" stroke-linecap="round" stroke-linejoin="round"/>
</svg>
