<svg width="50" height="50" viewBox="0 0 50 50" fill="none" xmlns="http://www.w3.org/2000/svg">
<mask id="mask0_620_176" style="mask-type:luminance" maskUnits="userSpaceOnUse" x="0" y="0" width="50" height="50">
<path d="M25 50C38.8071 50 50 38.8071 50 25C50 11.1929 38.8071 0 25 0C11.1929 0 0 11.1929 0 25C0 38.8071 11.1929 50 25 50Z" fill="white"/>
</mask>
<g mask="url(#mask0_620_176)">
<path d="M25 50C38.8071 50 50 38.8071 50 25C50 11.1929 38.8071 0 25 0C11.1929 0 0 11.1929 0 25C0 38.8071 11.1929 50 25 50Z" fill="#097C7D"/>
</g>
<mask id="mask1_620_176" style="mask-type:luminance" maskUnits="userSpaceOnUse" x="0" y="0" width="50" height="50">
<path d="M25 50C38.8071 50 50 38.8071 50 25C50 11.1929 38.8071 0 25 0C11.1929 0 0 11.1929 0 25C0 38.8071 11.1929 50 25 50Z" fill="white"/>
</mask>
<g mask="url(#mask1_620_176)">
<path d="M13.6765 64.3585L8.87109 61.6019L29.4866 25.6733L32.4847 31.5786L13.6765 64.3585Z" fill="white"/>
</g>
<mask id="mask2_620_176" style="mask-type:luminance" maskUnits="userSpaceOnUse" x="0" y="0" width="50" height="50">
<path d="M25 50C38.8071 50 50 38.8071 50 25C50 11.1929 38.8071 0 25 0C11.1929 0 0 11.1929 0 25C0 38.8071 11.1929 50 25 50Z" fill="white"/>
</mask>
<g mask="url(#mask2_620_176)">
<path d="M18.7146 74.3875L13.9092 71.6303L34.8424 35.1484L38.0214 40.7383L18.7146 74.3875Z" fill="white"/>
</g>
<mask id="mask3_620_176" style="mask-type:luminance" maskUnits="userSpaceOnUse" x="0" y="0" width="50" height="50">
<path d="M25 50C38.8071 50 50 38.8071 50 25C50 11.1929 38.8071 0 25 0C11.1929 0 0 11.1929 0 25C0 38.8071 11.1929 50 25 50Z" fill="white"/>
</mask>
<g mask="url(#mask3_620_176)">
<path d="M32.4273 21.8246L29.6368 7.65869L24.0994 16.7304L24.1186 16.7422L11.7017 37.2817C10.9579 38.5122 10.0435 39.3136 8.9607 39.6859C7.87567 40.0574 6.73301 39.8794 5.5298 39.1519C4.32586 38.4243 3.64043 37.5055 3.47203 36.3953C3.30288 35.2852 3.58429 34.0923 4.31774 32.8182L0.0307877 30.561C-1.50701 33.1041 -2.38005 34.9861 -1.72785 37.3969C-1.07565 39.8078 0.507936 41.7732 3.02367 43.294C5.54014 44.8149 8.01747 45.3046 10.4549 44.7617C12.8923 44.2188 14.8807 42.6758 16.4185 40.1327L28.8214 19.6184L32.4273 21.8246Z" fill="white"/>
</g>
</svg>
