<svg width="160" height="50" viewBox="0 0 160 50" fill="none" xmlns="http://www.w3.org/2000/svg">
<mask id="mask0_545_51" style="mask-type:luminance" maskUnits="userSpaceOnUse" x="0" y="0" width="50" height="50">
<path d="M25 50C38.8071 50 50 38.8071 50 25C50 11.1929 38.8071 0 25 0C11.1929 0 0 11.1929 0 25C0 38.8071 11.1929 50 25 50Z" fill="white"/>
</mask>
<g mask="url(#mask0_545_51)">
<path d="M25 50C38.8071 50 50 38.8071 50 25C50 11.1929 38.8071 0 25 0C11.1929 0 0 11.1929 0 25C0 38.8071 11.1929 50 25 50Z" fill="#097C7D"/>
</g>
<mask id="mask1_545_51" style="mask-type:luminance" maskUnits="userSpaceOnUse" x="0" y="0" width="50" height="50">
<path d="M25 50C38.8071 50 50 38.8071 50 25C50 11.1929 38.8071 0 25 0C11.1929 0 0 11.1929 0 25C0 38.8071 11.1929 50 25 50Z" fill="white"/>
</mask>
<g mask="url(#mask1_545_51)">
<path d="M13.6765 64.3589L8.87109 61.6024L29.4866 25.6738L32.4847 31.5791L13.6765 64.3589Z" fill="white"/>
</g>
<mask id="mask2_545_51" style="mask-type:luminance" maskUnits="userSpaceOnUse" x="0" y="0" width="50" height="50">
<path d="M25 50C38.8071 50 50 38.8071 50 25C50 11.1929 38.8071 0 25 0C11.1929 0 0 11.1929 0 25C0 38.8071 11.1929 50 25 50Z" fill="white"/>
</mask>
<g mask="url(#mask2_545_51)">
<path d="M18.7146 74.3875L13.9092 71.6303L34.8424 35.1484L38.0214 40.7383L18.7146 74.3875Z" fill="white"/>
</g>
<mask id="mask3_545_51" style="mask-type:luminance" maskUnits="userSpaceOnUse" x="0" y="0" width="50" height="50">
<path d="M25 50C38.8071 50 50 38.8071 50 25C50 11.1929 38.8071 0 25 0C11.1929 0 0 11.1929 0 25C0 38.8071 11.1929 50 25 50Z" fill="white"/>
</mask>
<g mask="url(#mask3_545_51)">
<path d="M32.4273 21.8241L29.6368 7.6582L24.0994 16.7299L24.1186 16.7417L11.7017 37.2812C10.9579 38.5117 10.0435 39.3131 8.9607 39.6854C7.87567 40.0569 6.73301 39.8789 5.5298 39.1514C4.32586 38.4239 3.64043 37.505 3.47203 36.3948C3.30288 35.2847 3.58429 34.0919 4.31774 32.8177L0.0307877 30.5605C-1.50701 33.1036 -2.38005 34.9856 -1.72785 37.3964C-1.07565 39.8073 0.507936 41.7727 3.02367 43.2936C5.54014 44.8144 8.01747 45.3041 10.4549 44.7612C12.8923 44.2183 14.8807 42.6753 16.4185 40.1323L28.8214 19.6179L32.4273 21.8241Z" fill="white"/>
</g>
<path d="M74.03 36.27C72.39 36.27 70.9 36.02 69.56 35.52C68.22 35.02 67.06 34.29 66.08 33.33C65.12 32.37 64.38 31.2 63.86 29.82C63.34 28.42 63.08 26.83 63.08 25.05C63.08 23.27 63.34 21.69 63.86 20.31C64.38 18.93 65.12 17.76 66.08 16.8C67.06 15.84 68.22 15.11 69.56 14.61C70.9 14.11 72.39 13.86 74.03 13.86C75.69 13.86 77.19 14.11 78.53 14.61C79.89 15.11 81.05 15.84 82.01 16.8C82.99 17.76 83.74 18.93 84.26 20.31C84.78 21.69 85.04 23.27 85.04 25.05C85.04 26.83 84.78 28.42 84.26 29.82C83.74 31.2 82.99 32.37 82.01 33.33C81.03 34.29 79.87 35.02 78.53 35.52C77.19 36.02 75.69 36.27 74.03 36.27ZM74.03 32.28C75.31 32.28 76.41 32.01 77.33 31.47C78.25 30.93 78.96 30.13 79.46 29.07C79.98 27.99 80.24 26.65 80.24 25.05C80.24 23.85 80.09 22.81 79.79 21.93C79.49 21.03 79.07 20.28 78.53 19.68C78.01 19.06 77.36 18.6 76.58 18.3C75.82 18 74.97 17.85 74.03 17.85C72.79 17.85 71.71 18.12 70.79 18.66C69.87 19.18 69.15 19.98 68.63 21.06C68.13 22.12 67.88 23.45 67.88 25.05C67.88 26.25 68.02 27.31 68.3 28.23C68.6 29.13 69.02 29.88 69.56 30.48C70.1 31.08 70.74 31.53 71.48 31.83C72.24 32.13 73.09 32.28 74.03 32.28ZM88.0892 41.01V19.92H92.2892L92.4392 22.65H92.6792C93.0192 21.75 93.6292 21.02 94.5092 20.46C95.4092 19.9 96.4592 19.62 97.6592 19.62C98.6592 19.62 99.5592 19.81 100.359 20.19C101.159 20.57 101.849 21.12 102.429 21.84C103.009 22.54 103.449 23.41 103.749 24.45C104.069 25.47 104.229 26.64 104.229 27.96C104.229 29.7 103.949 31.2 103.389 32.46C102.849 33.7 102.089 34.65 101.109 35.31C100.129 35.97 98.9792 36.3 97.6592 36.3C96.8592 36.3 96.1192 36.18 95.4392 35.94C94.7792 35.68 94.2092 35.32 93.7292 34.86C93.2492 34.4 92.8992 33.88 92.6792 33.3H92.4992V41.01H88.0892ZM95.9792 32.73C96.7992 32.73 97.4892 32.54 98.0492 32.16C98.6092 31.76 99.0192 31.2 99.2792 30.48C99.5592 29.76 99.6992 28.92 99.6992 27.96C99.6992 26.98 99.5692 26.14 99.3092 25.44C99.0492 24.72 98.6492 24.17 98.1092 23.79C97.5692 23.39 96.8892 23.19 96.0692 23.19C95.2892 23.19 94.6292 23.37 94.0892 23.73C93.5492 24.07 93.1492 24.54 92.8892 25.14C92.6292 25.74 92.4992 26.42 92.4992 27.18V28.77C92.4992 29.55 92.6392 30.24 92.9192 30.84C93.1992 31.42 93.5992 31.88 94.1192 32.22C94.6392 32.56 95.2592 32.73 95.9792 32.73ZM112.773 36C111.673 36 110.823 35.84 110.223 35.52C109.623 35.2 109.203 34.75 108.963 34.17C108.743 33.57 108.633 32.87 108.633 32.07V23.46H105.753V19.92H108.633V15.54L113.043 15.12V19.92H123.393V36H118.983V23.46H113.043V31.23C113.043 31.71 113.143 32.03 113.343 32.19C113.563 32.35 113.883 32.43 114.303 32.43H116.283V36H112.773ZM121.203 18.03C120.523 18.03 119.963 17.85 119.523 17.49C119.083 17.13 118.863 16.63 118.863 15.99C118.863 15.33 119.083 14.82 119.523 14.46C119.963 14.1 120.523 13.92 121.203 13.92C121.903 13.92 122.473 14.1 122.913 14.46C123.353 14.82 123.573 15.33 123.573 15.99C123.573 16.63 123.353 17.13 122.913 17.49C122.473 17.85 121.903 18.03 121.203 18.03ZM131.161 36L125.671 19.92H130.411L132.901 29.13L133.801 32.64H133.981L134.881 29.13L137.371 19.92H142.141L136.651 36H131.161ZM151.006 36.3C149.326 36.3 147.896 35.96 146.716 35.28C145.556 34.6 144.666 33.64 144.046 32.4C143.426 31.16 143.116 29.72 143.116 28.08C143.116 26.34 143.426 24.84 144.046 23.58C144.686 22.32 145.576 21.35 146.716 20.67C147.876 19.97 149.246 19.62 150.826 19.62C152.666 19.62 154.166 20.02 155.326 20.82C156.506 21.62 157.356 22.72 157.876 24.12C158.396 25.52 158.566 27.12 158.386 28.92H147.436C147.436 29.8 147.576 30.55 147.856 31.17C148.156 31.77 148.576 32.22 149.116 32.52C149.656 32.82 150.286 32.97 151.006 32.97C151.846 32.97 152.526 32.8 153.046 32.46C153.566 32.12 153.916 31.67 154.096 31.11H158.266C158.106 32.17 157.696 33.09 157.036 33.87C156.376 34.63 155.526 35.23 154.486 35.67C153.466 36.09 152.306 36.3 151.006 36.3ZM147.436 26.61L147.046 26.19H154.486L154.066 26.61C154.106 25.77 153.986 25.09 153.706 24.57C153.446 24.03 153.066 23.62 152.566 23.34C152.086 23.06 151.506 22.92 150.826 22.92C150.146 22.92 149.546 23.07 149.026 23.37C148.526 23.65 148.136 24.07 147.856 24.63C147.596 25.17 147.456 25.83 147.436 26.61Z" fill="white"/>
</svg>
