<svg width="160" height="80" viewBox="0 0 160 80" fill="none" xmlns="http://www.w3.org/2000/svg">
<path d="M146.555 3.29016C138.559 -2.38629 127.464 -0.532092 121.769 7.42144L113.105 19.5388C113.741 13.4069 111.147 7.12867 105.762 3.29016C97.7669 -2.38629 86.6713 -0.532092 80.9767 7.42144L72.3124 19.5388C72.9487 13.4069 70.3543 7.12867 64.9697 3.29016C56.9744 -2.38629 45.8788 -0.532092 40.1842 7.42144L8.3007 52.0035C2.60606 59.9733 4.4662 71.0334 12.4452 76.7098C20.4242 82.3863 31.5361 80.5321 37.2308 72.5786L45.8951 60.4612C44.1329 78.3689 67.2378 87.3308 78.0233 72.5786L86.6877 60.4612C84.9254 78.3689 108.03 87.3308 118.816 72.5786L150.699 28.0128C156.394 20.043 154.534 8.98287 146.555 3.30642V3.29016Z" fill="#F5F5F5"/>
</svg>
