<svg width="120" height="120" viewBox="0 0 120 120" fill="none" xmlns="http://www.w3.org/2000/svg">
<path d="M112.798 112.065C112.422 112.626 111.672 113 111.109 113H13.5606C12.0599 113 10.9343 111.317 11.6847 109.822L49.391 44.3898C50.1413 43.0811 52.2049 43.0811 52.9552 44.3898L58.7706 54.485L69.2759 73.3668C69.8386 74.3016 71.1518 74.6755 72.0898 74.1146C73.0277 73.5538 73.4029 72.2452 72.8401 71.3104L62.5225 52.4286L53.1428 36.164C52.7676 35.6032 52.0173 35.0423 51.2669 35.0423C50.5165 35.0423 49.7661 35.4162 49.391 36.164L8.68318 107.392C7.93281 108.887 5.68169 108.7 5.11891 107.205L0.616667 98.0441C-0.3213 96.1746 -0.133707 93.9312 0.804261 92.2487L48.8282 12.0476C49.5786 10.739 51.6421 10.739 52.3925 12.0476L91.0367 76.358C91.7871 77.6667 90.8491 79.5362 89.3484 79.5362H52.58C51.4545 79.5362 50.5165 80.4709 50.5165 81.5926C50.5165 82.7143 51.4545 83.649 52.58 83.649H96.2893C97.0397 83.649 97.7901 83.2751 98.1653 82.5273C98.5404 81.9665 98.5404 81.0317 98.1653 80.4709L55.9567 10.1781C55.2064 8.86949 56.1443 7 57.6451 7H70.0262C70.7766 7 71.527 7.3739 71.9022 8.12169L119.738 92.2487C120.489 93.5573 119.551 95.2399 117.863 95.2399H42.2624C40.5741 95.2399 39.6361 93.5573 40.3865 92.0617L56.3319 65.1411C56.8947 64.2063 56.5195 62.8977 55.5815 62.3369C54.6436 61.776 53.3304 62.1499 52.7676 63.0847L33.2579 96.3616C32.8827 96.9224 32.8827 97.8571 33.2579 98.418C33.6331 98.9788 34.3835 99.5397 35.1339 99.5397H117.3C118.988 99.5397 119.926 101.409 118.988 102.718L112.798 112.065Z" fill="#0A1119" fill-opacity="0.04"/>
</svg>
