<svg width="120" height="120" viewBox="0 0 120 120" fill="none" xmlns="http://www.w3.org/2000/svg">
<path d="M76.2812 76.2812C76.2812 93.756 62.1154 107.922 44.6406 107.922C27.1659 107.922 13 93.756 13 76.2812H76.2812ZM44.6406 13C27.1659 13 13 27.1659 13 44.6406C13 62.1154 27.1659 76.2812 44.6406 76.2812V13ZM107.922 44.6406C107.922 27.1659 93.756 13 76.2812 13C58.8065 13 44.6406 27.1659 44.6406 44.6406H107.922ZM76.2812 107.922C93.756 107.922 107.922 93.756 107.922 76.2812C107.922 58.8065 93.756 44.6406 76.2812 44.6406V107.922Z" fill="#0A1119" fill-opacity="0.04"/>
</svg>
